#define noname_width 7
#define noname_height 10
static char noname_bits[] = {
 0x78,0x30,0x18,0x18,0x18,0x18,0x0c,0x0c,0x0c,0x1f};
