#define noname_width 123
#define noname_height 29
static char noname_bits[] = {
 0x00,0x00,0x00,0x00,0x00,0x20,0x00,0x00,0x00,0x00,0x00,0x00,0x00,0x00,0x00,
 0x00,0x00,0x00,0x00,0x00,0x00,0x30,0x00,0x00,0x00,0x00,0x00,0x00,0x00,0x00,
 0x00,0x00,0x00,0x00,0x00,0x00,0x00,0x00,0x00,0x00,0x00,0x00,0x00,0x00,0x00,
 0x00,0x00,0x00,0x00,0x00,0x00,0x00,0x00,0x00,0x00,0x00,0x00,0x00,0x00,0x00,
 0x00,0x00,0x00,0x00,0x00,0x00,0x00,0x00,0x00,0x38,0x00,0x00,0x00,0x00,0x00,
 0x00,0x00,0x00,0x00,0x00,0x00,0x00,0x00,0x00,0x00,0x3c,0x00,0x00,0x00,0x00,
 0x00,0x00,0x00,0x00,0x00,0x00,0x00,0x00,0x00,0x00,0x00,0x18,0x00,0x00,0x00,
 0x00,0x00,0x00,0x00,0x00,0x00,0x00,0x00,0x00,0x00,0x00,0x00,0x18,0x00,0x00,
 0x00,0x00,0x00,0x00,0x00,0x00,0x00,0x00,0x00,0x00,0x00,0x00,0x00,0x38,0x40,
 0x00,0x00,0x00,0x00,0x00,0x00,0x00,0x80,0x00,0xcf,0x03,0x00,0x00,0x00,0x38,
 0x20,0xbe,0x7f,0x1c,0x00,0x00,0x8f,0xe3,0x7b,0x01,0x82,0x01,0x00,0x00,0x00,
 0x00,0x30,0x18,0x33,0x18,0x00,0x00,0x06,0x83,0x31,0x03,0xc2,0x00,0x00,0x00,
 0x00,0x00,0x10,0x98,0x60,0x04,0x80,0x00,0x8c,0x80,0x09,0x02,0x46,0x00,0x00,
 0x00,0x00,0x00,0x18,0x78,0x60,0x06,0x80,0x00,0xcc,0x80,0x07,0x06,0x66,0x80,
 0xff,0x00,0x00,0x00,0x18,0x70,0xe0,0x03,0x80,0x00,0x7c,0x00,0x07,0x06,0x26,
 0xc0,0xff,0x00,0x00,0x00,0x18,0x30,0xc0,0x01,0x80,0x00,0x38,0x00,0x03,0x06,
 0x16,0x00,0x00,0xc0,0x7f,0xfe,0x18,0x78,0xc0,0x00,0xfc,0x0f,0x18,0x80,0x07,
 0x06,0x1e,0x00,0x00,0x00,0x00,0x00,0x18,0x6c,0xc0,0x00,0x80,0x00,0x18,0xc0,
 0x06,0x06,0x0e,0xc0,0xff,0x00,0x00,0x00,0x18,0xc6,0x40,0x00,0x80,0x00,0x08,
 0x60,0x0c,0x06,0x04,0x00,0x00,0x00,0x00,0x00,0x98,0xe7,0xf1,0x00,0x80,0x00,
 0x1e,0x78,0x1e,0x06,0x04,0x00,0x00,0x00,0x00,0x18,0x10,0x00,0x00,0x00,0x80,
 0x00,0x00,0x00,0x00,0x02,0x00,0x00,0x00,0x00,0x00,0x6c,0x30,0x00,0x00,0x00,
 0x80,0x00,0x00,0x00,0x00,0x03,0x00,0x00,0x00,0x00,0x00,0x6e,0x30,0x00,0x00,
 0x00,0x00,0x00,0x00,0x00,0x00,0x03,0x00,0x00,0x00,0x00,0x00,0x4e,0x60,0x00,
 0x00,0x00,0x00,0x00,0x00,0x00,0x80,0x01,0x00,0x00,0x00,0x00,0x00,0x60,0x00,
 0x00,0x00,0x00,0x00,0x00,0x00,0x00,0x00,0x00,0x00,0x00,0x00,0x00,0x00,0x60,
 0x00,0x00,0x00,0x00,0x00,0x00,0x00,0x00,0x00,0x00,0x00,0x00,0x00,0x00,0x00,
 0x30,0x00,0x00,0x00,0x00,0x00,0x00,0x00,0x00,0x00,0x00,0x00,0x00,0x00,0x00,
 0x00,0x58,0x00,0x00,0x00,0x00,0x00,0x00,0x00,0x00,0x00,0x00,0x00,0x00,0x00,
 0x00,0x00,0x4c,0x00,0x00,0x00,0x00,0x00,0x00,0x00,0x00,0x00,0x00,0x00,0x00,
 0x00,0x00,0x00,0x7e,0x00,0x00,0x00,0x00,0x00,0x00,0x00,0x00,0x00,0x00};
