#define noname_width 9
#define noname_height 11
static char noname_bits[] = {
 0xcf,0x01,0x86,0x00,0xc6,0x00,0x42,0x00,0x43,0x00,0x43,0x00,0x63,0x00,0x21,
 0x00,0x31,0x00,0x1b,0x00,0x0e,0x00};
