#define noname_width 44
#define noname_height 13
static char noname_bits[] = {
 0xf0,0x01,0x3c,0x07,0x3c,0x0f,0x18,0x03,0x18,0x02,0x08,0x06,0x0c,0x03,0x18,
 0x03,0x08,0x03,0x06,0x03,0x08,0x01,0x18,0x01,0x06,0x03,0x0c,0x01,0x98,0x01,
 0x07,0x03,0x0c,0x01,0x98,0x00,0x03,0x03,0x8c,0x01,0x58,0x00,0x83,0x01,0x84,
 0x00,0x78,0x00,0xfe,0x31,0xc4,0x30,0x38,0x00,0xee,0x31,0x6c,0x30,0x10,0x00,
 0x38,0x21,0x38,0x20,0x10,0x00,0xe0,0x21,0x00,0x20,0x00,0x00,0xe0,0x10,0x00,
 0x10,0x00,0x00};
