#define noname_width 110
#define noname_height 29
static char noname_bits[] = {
 0x00,0x00,0x00,0x80,0x00,0x00,0x00,0x00,0x00,0x00,0x00,0x00,0x00,0x00,0x00,
 0x00,0x00,0xe0,0x00,0x00,0x00,0x00,0x00,0x00,0x00,0x00,0x00,0x00,0x00,0x00,
 0x00,0x80,0x00,0x00,0x00,0x00,0x00,0x00,0x00,0x00,0x00,0x00,0x00,0x00,0x00,
 0x80,0x00,0x00,0x00,0x00,0x00,0x00,0x00,0x00,0x00,0x00,0x00,0x00,0x00,0x80,
 0x00,0x00,0x00,0x00,0x00,0x00,0x00,0x00,0x00,0x00,0x00,0x00,0x00,0x80,0x00,
 0x00,0x00,0x00,0x00,0x00,0x00,0x00,0x00,0x00,0x00,0x00,0x00,0x80,0x00,0x00,
 0x00,0x00,0x00,0x00,0x00,0x00,0x00,0x00,0x00,0x00,0x00,0x80,0x00,0x00,0x00,
 0x00,0x00,0x00,0x00,0x00,0x00,0x00,0x00,0x00,0x00,0x80,0x00,0x01,0x00,0x00,
 0x00,0x00,0x00,0x00,0x00,0x04,0x78,0x00,0x00,0xe0,0x83,0xf0,0x3d,0xdf,0x03,
 0x00,0xf0,0xb8,0xc7,0x09,0x30,0x00,0x00,0x00,0xc0,0xc0,0x18,0x8c,0x01,0x00,
 0x60,0x30,0x83,0x19,0x18,0x00,0x00,0x00,0x40,0xc0,0x04,0x4c,0x00,0x08,0xc0,
 0x08,0x46,0x10,0x18,0x00,0x00,0x00,0x60,0xc0,0x03,0x3c,0x00,0x08,0xc0,0x0c,
 0x66,0x30,0x18,0xf0,0x1f,0x00,0x60,0x80,0x03,0x38,0x00,0x08,0xc0,0x07,0x3e,
 0x30,0x18,0xf8,0x1f,0x00,0x60,0x80,0x01,0x18,0x00,0x08,0x80,0x03,0x1c,0x30,
 0x0c,0x00,0x00,0xf0,0x67,0xc0,0x03,0x3c,0xc0,0xff,0x80,0x01,0x0c,0x30,0x0c,
 0x00,0x00,0x00,0x60,0x60,0x03,0x36,0x00,0x08,0x80,0x01,0x0c,0x30,0x0c,0xf8,
 0x1f,0x00,0x60,0x30,0x06,0x63,0x00,0x08,0x80,0x00,0x04,0x30,0x1f,0x00,0x00,
 0x00,0x60,0x3c,0xcf,0xf3,0x00,0x08,0xe0,0x01,0x0f,0x30,0x00,0x00,0x00,0xc0,
 0x40,0x00,0x00,0x00,0x00,0x08,0x00,0x00,0x00,0x10,0x00,0x00,0x00,0x60,0xc3,
 0x00,0x00,0x00,0x00,0x08,0x00,0x00,0x00,0x18,0x00,0x00,0x00,0x70,0xc3,0x00,
 0x00,0x00,0x00,0x00,0x00,0x00,0x00,0x18,0x00,0x00,0x00,0x70,0x82,0x01,0x00,
 0x00,0x00,0x00,0x00,0x00,0x00,0x0c,0x00,0x00,0x00,0x00,0x03,0x00,0x00,0x00,
 0x00,0x00,0x00,0x00,0x00,0x00,0x00,0x00,0x00,0x00,0x03,0x00,0x00,0x00,0x00,
 0x00,0x00,0x00,0x00,0x00,0x00,0x00,0x00,0x80,0x01,0x00,0x00,0x00,0x00,0x00,
 0x00,0x00,0x00,0x00,0x00,0x00,0x00,0xc0,0x02,0x00,0x00,0x00,0x00,0x00,0x00,
 0x00,0x00,0x00,0x00,0x00,0x00,0x60,0x02,0x00,0x00,0x00,0x00,0x00,0x00,0x00,
 0x00,0x00,0x00,0x00,0x00,0xf0,0x03,0x00,0x00,0x00,0x00,0x00,0x00,0x00,0x00,
 0x00};
