#define noname_width 86
#define noname_height 12
static char noname_bits[] = {
 0x8f,0xe3,0x7b,0x00,0x00,0x78,0x0e,0x00,0x00,0xf2,0x3c,0x06,0x83,0x31,0x00,
 0x00,0x30,0x04,0x00,0x00,0x23,0x18,0x8c,0x80,0x09,0x00,0x00,0x30,0x06,0x20,
 0x00,0x20,0x0c,0xcc,0x80,0x07,0x00,0x00,0x10,0x02,0x20,0x00,0x60,0x04,0x7c,
 0x00,0x07,0xf0,0x1f,0x18,0x02,0x20,0x80,0x63,0x06,0x38,0x00,0x03,0xf8,0x1f,
 0x18,0x02,0x20,0xc0,0x63,0x02,0x18,0x80,0x07,0x00,0x00,0x18,0x03,0xff,0x83,
 0x61,0x01,0x18,0xc0,0x06,0x00,0x00,0x08,0x01,0x20,0x80,0xe1,0x01,0x08,0x60,
 0x0c,0xf8,0x1f,0x88,0x01,0x20,0x80,0xe3,0x00,0x1e,0x78,0x1e,0x00,0x00,0xd8,
 0x00,0x20,0x80,0x43,0x00,0x00,0x00,0x00,0x00,0x00,0x70,0x00,0x20,0x00,0x40,
 0x00,0x00,0x00,0x00,0x00,0x00,0x00,0x00,0x20,0x00,0x00,0x00};
