#define noname_width 112
#define noname_height 29
static char noname_bits[] = {
 0x00,0x00,0x00,0x00,0x04,0x00,0x00,0x00,0x00,0x00,0x00,0x00,0x00,0x00,0x00,
 0x00,0x00,0x00,0x07,0x00,0x00,0x00,0x00,0x00,0x00,0x00,0x00,0x00,0x00,0x00,
 0x00,0x00,0x04,0x00,0x00,0x00,0x00,0x00,0x00,0x00,0x00,0x00,0x00,0x00,0x00,
 0x00,0x04,0x00,0x00,0x00,0x00,0x00,0x00,0x00,0x00,0x00,0x00,0x00,0x00,0x00,
 0x04,0x00,0x00,0x00,0x00,0x00,0x00,0x00,0x00,0x00,0x00,0x00,0x00,0x00,0x04,
 0x00,0x00,0x00,0x00,0x00,0x00,0x00,0x00,0x00,0x00,0x00,0x00,0x00,0x04,0x00,
 0x00,0x00,0x00,0x00,0x00,0x00,0x00,0x00,0x00,0x00,0x00,0x00,0x04,0x00,0x00,
 0x00,0x00,0x00,0x00,0x00,0x00,0x00,0x00,0x00,0x00,0x00,0x04,0x08,0x00,0x00,
 0x00,0x00,0x00,0x00,0x00,0x10,0xf0,0x01,0x00,0x00,0x1f,0xe4,0x71,0x8f,0x03,
 0x00,0xc0,0xf7,0x7c,0x2f,0x18,0x03,0x00,0x00,0x00,0xc6,0x60,0x06,0x03,0x00,
 0x00,0x63,0x30,0x66,0x0c,0x03,0x00,0x00,0x00,0x82,0x11,0x8c,0x00,0x00,0x00,
 0x13,0x30,0x41,0x06,0x03,0x00,0x00,0x00,0x83,0x19,0xcc,0x00,0x00,0x00,0x0f,
 0xf0,0xc0,0x06,0x83,0xff,0x00,0x00,0x83,0x0f,0x7c,0x00,0x00,0x00,0x0e,0xe0,
 0xc0,0x07,0xc3,0xff,0x00,0x00,0x03,0x07,0x38,0x00,0x00,0x00,0x06,0x60,0xc0,
 0x03,0x03,0x00,0x80,0x3f,0x03,0x03,0x18,0x80,0xff,0x00,0x0f,0xf0,0xc0,0x83,
 0x01,0x00,0x00,0x00,0x03,0x03,0x18,0x00,0x00,0x80,0x0d,0xd8,0xc0,0xfe,0xc1,
 0xff,0x00,0x00,0x03,0x01,0x08,0x00,0x00,0xc0,0x18,0x8c,0xc1,0xee,0x01,0x00,
 0x00,0x00,0xc3,0x03,0x1e,0x00,0x00,0xf0,0x3c,0xcf,0xc3,0x38,0x01,0x00,0x00,
 0x06,0x02,0x00,0x00,0x00,0x00,0x00,0x00,0x00,0x40,0xe0,0x01,0x00,0x00,0x1b,
 0x06,0x00,0x00,0x00,0x00,0x00,0x00,0x00,0x60,0xe0,0x00,0x00,0x80,0x1b,0x06,
 0x00,0x00,0x00,0x00,0x00,0x00,0x00,0x60,0x00,0x00,0x00,0x80,0x13,0x0c,0x00,
 0x00,0x00,0x00,0x00,0x00,0x00,0x30,0x00,0x00,0x00,0x00,0x18,0x00,0x00,0x00,
 0x00,0x00,0x00,0x00,0x00,0x00,0x00,0x00,0x00,0x00,0x18,0x00,0x00,0x00,0x00,
 0x00,0x00,0x00,0x00,0x00,0x00,0x00,0x00,0x00,0x0c,0x00,0x00,0x00,0x00,0x00,
 0x00,0x00,0x00,0x00,0x00,0x00,0x00,0x00,0x16,0x00,0x00,0x00,0x00,0x00,0x00,
 0x00,0x00,0x00,0x00,0x00,0x00,0x00,0x13,0x00,0x00,0x00,0x00,0x00,0x00,0x00,
 0x00,0x00,0x00,0x00,0x00,0x80,0x1f,0x00,0x00,0x00,0x00,0x00,0x00,0x00,0x00,
 0x00};
