#define noname_width 39
#define noname_height 10
static char noname_bits[] = {
 0x7c,0x0f,0x00,0xe0,0x71,0x30,0x06,0x00,0xc0,0x60,0x30,0x01,0x00,0x80,0x11,
 0xf0,0x00,0x00,0x80,0x19,0xe0,0x00,0x00,0x80,0x0f,0x60,0x00,0x00,0x00,0x07,
 0xf0,0x00,0xfe,0x03,0x03,0xd8,0x00,0x00,0x00,0x03,0x8c,0x01,0x00,0x00,0x01,
 0xcf,0x03,0x00,0xc0,0x03};
