#define noname_width 11
#define noname_height 10
static char noname_bits[] = {
 0x84,0x03,0x87,0x02,0xc4,0x06,0xc4,0x06,0x84,0x03,0x04,0x00,0x04,0x00,0x04,
 0x00,0x04,0x00,0x1f,0x00};
