#define noname_width 112
#define noname_height 29
static char noname_bits[] = {
 0x00,0x00,0x00,0x00,0x02,0x00,0x00,0x00,0x00,0x00,0x00,0x00,0x00,0x00,0x00,
 0x00,0x00,0x80,0x03,0x00,0x00,0x00,0x00,0x00,0x00,0x00,0x00,0x00,0x00,0x00,
 0x00,0x00,0x02,0x00,0x00,0x00,0x00,0x00,0x00,0x00,0x00,0x00,0x00,0x00,0x00,
 0x00,0x02,0x00,0x00,0x00,0x00,0x00,0x00,0x00,0x00,0x00,0x00,0x00,0x00,0x00,
 0x02,0x00,0x00,0x00,0x00,0x00,0x00,0x00,0x00,0x00,0x00,0x00,0x00,0x00,0x02,
 0x00,0x00,0x00,0x00,0x00,0x00,0x00,0x00,0x00,0x00,0x00,0x00,0x00,0x02,0x00,
 0x00,0x00,0x00,0x00,0x00,0x00,0x00,0x00,0x00,0x00,0x00,0x00,0x02,0x00,0x00,
 0x00,0x00,0x00,0x00,0x00,0x00,0x00,0x00,0x00,0x00,0x00,0x02,0x04,0x00,0x00,
 0x00,0x00,0x00,0x00,0x00,0x10,0xcf,0x01,0x00,0x80,0x0f,0xf2,0x38,0xbe,0x07,
 0x00,0xc0,0xf7,0x8f,0x23,0x86,0x00,0x00,0x00,0x00,0x63,0x30,0x18,0x03,0x00,
 0x00,0x63,0x06,0x63,0xc6,0x00,0x00,0x00,0x00,0xc1,0x08,0x98,0x00,0x00,0x00,
 0x13,0x8c,0x40,0x42,0x00,0x00,0x00,0x80,0xc1,0x0c,0x78,0x00,0x00,0x00,0x0f,
 0xcc,0xc0,0x43,0xc0,0x7f,0x00,0x80,0xc1,0x07,0x70,0x00,0x00,0x00,0x0e,0x7c,
 0xc0,0x43,0xe0,0x7f,0x00,0x80,0x81,0x03,0x30,0x00,0x00,0x00,0x06,0x38,0xc0,
 0x63,0x00,0x00,0xc0,0x9f,0x81,0x01,0x78,0x80,0xff,0x00,0x0f,0x18,0xc0,0x21,
 0x00,0x00,0x00,0x80,0x81,0x01,0x6c,0x00,0x00,0x80,0x0d,0x18,0xc0,0x31,0xe0,
 0x7f,0x00,0x80,0x81,0x00,0xc6,0x00,0x00,0xc0,0x18,0x08,0xc0,0x1b,0x00,0x00,
 0x00,0x80,0xe1,0x81,0xe7,0x01,0x00,0xf0,0x3c,0x1e,0xc0,0x0e,0x00,0x00,0x00,
 0x03,0x01,0x00,0x00,0x00,0x00,0x00,0x00,0x00,0x40,0x00,0x00,0x00,0x80,0x0d,
 0x03,0x00,0x00,0x00,0x00,0x00,0x00,0x00,0x60,0x00,0x00,0x00,0xc0,0x0d,0x03,
 0x00,0x00,0x00,0x00,0x00,0x00,0x00,0x60,0x00,0x00,0x00,0xc0,0x09,0x06,0x00,
 0x00,0x00,0x00,0x00,0x00,0x00,0x30,0x00,0x00,0x00,0x00,0x0c,0x00,0x00,0x00,
 0x00,0x00,0x00,0x00,0x00,0x00,0x00,0x00,0x00,0x00,0x0c,0x00,0x00,0x00,0x00,
 0x00,0x00,0x00,0x00,0x00,0x00,0x00,0x00,0x00,0x06,0x00,0x00,0x00,0x00,0x00,
 0x00,0x00,0x00,0x00,0x00,0x00,0x00,0x00,0x0b,0x00,0x00,0x00,0x00,0x00,0x00,
 0x00,0x00,0x00,0x00,0x00,0x00,0x80,0x09,0x00,0x00,0x00,0x00,0x00,0x00,0x00,
 0x00,0x00,0x00,0x00,0x00,0xc0,0x0f,0x00,0x00,0x00,0x00,0x00,0x00,0x00,0x00,
 0x00};
