#define noname_width 46
#define noname_height 13
static char noname_bits[] = {
 0x78,0x00,0x00,0x00,0x00,0x1f,0x30,0x00,0x00,0x00,0x80,0x31,0x18,0x10,0x80,
 0x00,0xc0,0x30,0x18,0x70,0x80,0x03,0x60,0x30,0x18,0xc0,0x01,0x0e,0x60,0x30,
 0x18,0x00,0x07,0x38,0x70,0x30,0x0c,0x00,0x1c,0xe0,0x30,0x30,0x0c,0x00,0x0e,
 0x70,0x30,0x18,0x0c,0x80,0x03,0x1c,0xe0,0x1f,0x1f,0xe0,0x00,0x07,0xe0,0x1e,
 0x00,0x30,0x80,0x01,0x80,0x13,0x00,0x00,0x00,0x00,0x00,0x1e,0x00,0x00,0x00,
 0x00,0x00,0x0e};
