#define noname_width 19
#define noname_height 11
static char noname_bits[] = {
 0x0c,0x86,0x03,0x36,0x9b,0x02,0x33,0xd9,0x06,0xa3,0xd1,0x06,0xa3,0x91,0x03,
 0xb2,0x11,0x00,0xbe,0x11,0x00,0xb0,0x11,0x00,0x36,0x19,0x00,0x1a,0x1b,0x00,
 0x0c,0x0e,0x00};
