#define noname_width 19
#define noname_height 11
static char noname_bits[] = {
 0x1c,0x86,0x03,0x36,0x9b,0x02,0x36,0xd9,0x06,0xb6,0xd1,0x06,0x98,0x91,0x03,
 0xbc,0x11,0x00,0xb0,0x11,0x00,0xb7,0x11,0x00,0x37,0x19,0x00,0x36,0x1b,0x00,
 0x0c,0x0e,0x00};
