#define noname_width 33
#define noname_height 11
static char noname_bits[] = {
 0x00,0x80,0x80,0xe1,0x00,0x00,0x80,0xdf,0xa6,0x00,0x01,0xc0,0x48,0xb6,0x01,
 0x07,0x40,0x64,0xb4,0x01,0x1c,0x00,0x66,0xe4,0x00,0x70,0x00,0x62,0x04,0x00,
 0xc0,0x01,0x63,0x04,0x00,0xe0,0x00,0x63,0x04,0x00,0x38,0x00,0x43,0x06,0x00,
 0x0e,0x00,0xc3,0x06,0x00,0x03,0x00,0x83,0x03,0x00};
