#define noname_width 13
#define noname_height 8
static char noname_bits[] = {
 0x00,0x06,0x00,0x06,0x00,0x0c,0xff,0x1f,0x00,0x0c,0x00,0x04,0x00,0x06,0x00,
 0x02};
