#define noname_width 467
#define noname_height 98
static char noname_bits[] = {
 0x80,0x00,0x00,0x00,0x00,0x00,0x00,0x00,0x00,0x00,0x00,0x00,0x00,0x00,0x00,
 0x00,0x00,0x00,0x00,0x00,0x00,0x00,0x00,0x00,0x00,0x00,0x00,0x00,0x00,0x00,
 0x00,0x00,0x00,0x00,0x00,0x00,0x00,0x00,0x00,0x00,0x00,0x00,0x00,0x00,0x00,
 0x00,0x00,0x00,0x00,0x00,0x00,0x00,0x00,0x00,0x00,0x00,0x00,0x00,0x00,0x08,
 0x01,0x00,0x00,0x00,0x00,0x00,0x00,0x00,0x00,0x00,0x00,0x00,0x00,0x00,0x00,
 0x00,0x00,0x00,0x0c,0x00,0x06,0x00,0x00,0x00,0x00,0x00,0x00,0x00,0x00,0x00,
 0x00,0x00,0x00,0x00,0x00,0x00,0x00,0x00,0x00,0x00,0x00,0x00,0x00,0x00,0x00,
 0x00,0x00,0x00,0x00,0x00,0x00,0x00,0x00,0x00,0x00,0x00,0x00,0x00,0x0e,0x03,
 0x00,0x00,0x00,0x00,0x00,0x00,0x00,0x00,0x00,0x00,0x00,0x00,0x00,0x00,0x00,
 0x00,0x00,0x0c,0x00,0x04,0x00,0x00,0x00,0x00,0x00,0x00,0x00,0x00,0x00,0x00,
 0x00,0x00,0x00,0x00,0x00,0x00,0x00,0x00,0x00,0x00,0x00,0x00,0x00,0x00,0x00,
 0x00,0x00,0x00,0x00,0x00,0x00,0x00,0x00,0x00,0x00,0x00,0x00,0x08,0x02,0x00,
 0x00,0x00,0x00,0x00,0x00,0x00,0x00,0x00,0x00,0x00,0x00,0x00,0x00,0x00,0x00,
 0x00,0x00,0x00,0x04,0x00,0x00,0x00,0x00,0x00,0x00,0x00,0x00,0x00,0x00,0x00,
 0x00,0x00,0x00,0x00,0x00,0x00,0x00,0x00,0x00,0x00,0x00,0x00,0x00,0x00,0x00,
 0x00,0x00,0x00,0x00,0x00,0x00,0x00,0x00,0x00,0x00,0x00,0x08,0x06,0x00,0x00,
 0x04,0x00,0x00,0x00,0x00,0x00,0x00,0x00,0x00,0x00,0x00,0x00,0x00,0x00,0x00,
 0x00,0x00,0x04,0x00,0x00,0x00,0x00,0x00,0x00,0x00,0x00,0x00,0x00,0x00,0x00,
 0x00,0x00,0x00,0x00,0x00,0x00,0x00,0x00,0x00,0x00,0x00,0x00,0x00,0x00,0x00,
 0x00,0x00,0x00,0x00,0x00,0x00,0x00,0x00,0x00,0x00,0x08,0x06,0x00,0xc0,0xff,
 0x7d,0x37,0x3f,0x00,0x00,0x00,0x00,0x00,0x00,0xe0,0xff,0x78,0xbe,0x07,0xee,
 0xc7,0xc7,0xbb,0x03,0x00,0x00,0x00,0x00,0x00,0x00,0x00,0x00,0x00,0x00,0x00,
 0x00,0x00,0x00,0x00,0x00,0x00,0x00,0x00,0x00,0x00,0x00,0x00,0x00,0x00,0x00,
 0x00,0x00,0x00,0x00,0x00,0x00,0x00,0x00,0x00,0x08,0x06,0x00,0x60,0xe2,0x47,
 0x26,0x66,0x00,0x00,0x00,0x00,0x00,0x00,0x60,0x9a,0xd9,0xfc,0x0c,0xcc,0x64,
 0x64,0xf6,0x00,0x00,0x00,0x00,0x00,0x00,0x00,0x00,0x00,0x00,0x00,0x00,0x00,
 0x00,0x00,0x00,0x00,0x00,0x00,0x00,0x00,0x00,0x00,0x00,0x00,0x00,0x00,0x00,
 0x00,0x00,0x00,0x00,0x00,0x00,0x00,0x00,0x08,0x06,0x00,0x60,0x62,0xc6,0x26,
 0x46,0x00,0x00,0x00,0x00,0x00,0x00,0xe0,0x19,0xf1,0xcc,0x0f,0xcc,0x64,0xe4,
 0xe7,0x00,0x00,0x00,0x00,0x00,0x00,0x00,0x00,0x00,0x00,0x00,0x00,0x00,0x00,
 0x00,0x00,0x00,0x00,0x00,0x00,0x00,0x00,0x00,0x00,0x00,0x00,0x00,0x00,0x00,
 0x00,0x00,0x00,0x00,0x00,0x00,0x00,0x08,0x06,0x00,0xc0,0x63,0xc6,0x26,0x46,
 0x00,0x00,0x00,0x00,0x00,0x00,0xe0,0x1b,0xd9,0xcc,0x00,0xcc,0x64,0x64,0xe0,
 0x00,0x00,0x00,0x00,0x00,0x00,0x00,0x00,0x00,0x00,0x00,0x00,0x00,0x00,0x00,
 0x00,0x00,0x00,0x00,0x00,0x00,0x00,0x00,0x00,0x00,0x00,0x00,0x00,0x00,0x00,
 0x00,0x00,0x00,0x00,0x00,0x00,0x08,0x06,0x00,0x40,0x60,0x46,0x36,0x66,0x00,
 0x00,0x00,0x00,0x00,0x00,0x20,0x9a,0xcd,0xcd,0x08,0xcc,0x64,0x64,0xb4,0x01,
 0x00,0x00,0x00,0x00,0x00,0x00,0x00,0x00,0x00,0x00,0x00,0x00,0x00,0x00,0x00,
 0x00,0x00,0x00,0x00,0x00,0x00,0x00,0x00,0x00,0x00,0x00,0x00,0x00,0x00,0x00,
 0x00,0x00,0x00,0x00,0x00,0x3e,0x06,0x00,0xc0,0xf7,0x7c,0x7e,0x3e,0x00,0x00,
 0x00,0x00,0x00,0x00,0xe0,0xfb,0xf8,0x9f,0x07,0xfe,0xcf,0xcf,0xbb,0x03,0x00,
 0x00,0x00,0x00,0x00,0x00,0x00,0x00,0x00,0x00,0x00,0x00,0x00,0x00,0x00,0x00,
 0x00,0x00,0x00,0x00,0x00,0x00,0x00,0x00,0x00,0x00,0x00,0x00,0x00,0x00,0x00,
 0x00,0x00,0x00,0x00,0x00,0x02,0x00,0x60,0x0c,0x00,0x00,0x06,0x00,0x00,0x00,
 0x00,0x00,0x00,0x00,0x18,0x00,0x00,0x00,0x00,0x00,0x00,0x00,0x00,0x00,0x00,
 0x00,0x00,0x00,0x00,0x00,0x00,0x00,0x00,0x00,0x00,0x00,0x00,0x00,0x00,0x00,
 0x00,0x00,0x00,0x00,0x00,0x00,0x00,0x00,0x00,0x00,0x00,0x00,0x00,0x00,0x00,
 0x00,0x00,0x00,0x00,0x03,0x00,0x60,0x0c,0x00,0x00,0x06,0x00,0x00,0x00,0x00,
 0x00,0x00,0x00,0x18,0x00,0x00,0x00,0x00,0x00,0x00,0x00,0x00,0x00,0x00,0x00,
 0x00,0x00,0x00,0x00,0x00,0x00,0x00,0x00,0x00,0x00,0x00,0x00,0x00,0x00,0x00,
 0x00,0x00,0x00,0x00,0x00,0x00,0x00,0x00,0x00,0x00,0x00,0x00,0x00,0x00,0x00,
 0x00,0x00,0x00,0x03,0x00,0xc0,0x07,0x00,0x00,0x0f,0x00,0x00,0x00,0x00,0x00,
 0x00,0x00,0x3c,0x00,0x00,0x00,0x00,0x00,0x00,0x00,0x00,0x00,0x00,0x00,0x00,
 0x00,0x00,0x00,0x00,0x00,0x00,0x00,0x00,0x00,0x00,0x00,0x00,0x00,0x00,0x00,
 0x00,0x00,0x00,0x00,0x00,0x00,0x00,0x00,0x00,0x00,0x00,0x00,0x00,0x00,0x00,
 0x00,0x80,0x01,0x00,0x00,0x00,0x00,0x00,0x00,0x00,0x00,0x00,0x00,0x00,0x00,
 0x00,0x00,0x00,0x00,0x00,0x00,0x00,0x00,0x00,0x00,0x00,0x00,0x00,0x00,0x00,
 0x00,0x00,0x00,0x00,0x00,0x00,0x00,0x00,0x00,0x00,0x00,0x00,0x00,0x00,0x00,
 0x00,0x00,0x00,0x00,0x00,0x00,0x00,0x00,0x00,0x00,0x00,0x00,0x00,0x00,0x00,
 0x00,0x00,0x00,0x00,0x00,0x00,0x00,0x00,0x00,0x00,0x00,0x00,0x00,0x00,0x00,
 0x00,0x00,0x00,0x00,0x00,0x00,0x00,0x00,0x00,0x00,0x00,0x00,0x00,0x00,0x00,
 0x00,0x00,0x00,0x00,0x00,0x00,0x00,0x00,0x00,0x00,0x00,0x00,0x00,0x00,0x00,
 0x00,0x00,0x00,0x00,0x00,0x00,0x00,0x00,0x00,0x00,0x00,0x00,0x00,0x00,0x00,
 0x00,0x00,0x00,0x00,0x00,0x00,0x00,0x00,0x00,0x00,0x00,0x00,0x00,0x00,0x00,
 0x00,0x00,0x00,0x00,0x00,0x00,0x00,0x00,0x00,0x00,0x00,0x00,0x00,0x00,0x00,
 0x00,0x00,0x00,0x00,0x00,0x00,0x00,0x00,0x00,0x00,0x00,0x00,0x00,0x00,0x00,
 0x00,0x00,0x00,0x00,0x00,0x00,0x00,0x00,0x00,0x00,0x00,0x00,0x00,0x80,0x00,
 0x00,0x00,0x00,0x00,0x00,0x00,0x00,0x00,0x00,0x00,0x00,0x00,0x00,0x00,0x00,
 0x00,0x00,0x00,0x00,0x00,0x00,0x00,0x00,0x00,0x00,0x02,0x00,0x00,0x00,0x00,
 0x00,0x00,0x40,0x00,0x00,0x00,0x00,0x00,0x00,0x00,0x00,0x00,0x00,0x00,0x00,
 0x00,0x00,0x00,0x00,0x00,0x00,0x00,0x00,0x00,0x00,0x00,0x00,0x0c,0x01,0x00,
 0x80,0x07,0x38,0x18,0x00,0x00,0x00,0x00,0x00,0x00,0x00,0x00,0x00,0x60,0x00,
 0xc0,0x00,0x00,0x00,0x00,0x00,0x00,0x00,0x00,0x01,0x00,0x00,0x00,0x0c,0x30,
 0x00,0x80,0x00,0x00,0x00,0x00,0x00,0x00,0x00,0x00,0x00,0x00,0x00,0x00,0x00,
 0x00,0x00,0x00,0x00,0x00,0x00,0x00,0x00,0x00,0x00,0x00,0x36,0x03,0x00,0xc0,
 0x06,0x30,0x10,0x00,0x00,0x00,0x00,0x00,0x00,0x00,0x00,0x00,0x60,0x00,0xc2,
 0x00,0x00,0x00,0x00,0x00,0x02,0x00,0x80,0x01,0x00,0x00,0x00,0x0c,0x30,0x00,
 0x80,0x01,0x00,0x00,0x00,0x00,0x00,0x00,0x00,0x00,0x00,0x00,0x00,0x00,0x00,
 0x00,0x00,0x00,0x00,0x00,0x00,0x00,0x00,0x00,0x00,0x37,0x02,0x00,0xc0,0x04,
 0x30,0x10,0x00,0x00,0x00,0x00,0x00,0x00,0x00,0x00,0x00,0x00,0x00,0x03,0x00,
 0x00,0x00,0x00,0x00,0x03,0x00,0x80,0x00,0x00,0x00,0x00,0x00,0x00,0x00,0x00,
 0x01,0x00,0x00,0x00,0x00,0x00,0x00,0x00,0x00,0x00,0x00,0x00,0x00,0x00,0x00,
 0x00,0x00,0x00,0x00,0x00,0x00,0x00,0x00,0x00,0x27,0x06,0x00,0xc0,0x00,0x30,
 0x10,0x00,0x00,0x00,0x00,0x00,0x00,0x00,0x00,0x00,0x00,0x00,0x03,0x00,0x20,
 0x00,0x00,0x00,0x03,0x00,0xc0,0x00,0x00,0x00,0x00,0x00,0x00,0x00,0x10,0x03,
 0x00,0x00,0x00,0x00,0x00,0x00,0x00,0x00,0x00,0x00,0x00,0x00,0x00,0x00,0x00,
 0x00,0x00,0x00,0x00,0x00,0x00,0x00,0x00,0x30,0x06,0x00,0xe0,0xc7,0x33,0x1f,
 0x00,0x00,0x00,0x00,0x00,0x00,0x00,0xe0,0xc7,0x77,0xbf,0xe7,0x7e,0x7e,0xe0,
 0x7b,0xbf,0xf7,0x79,0xc0,0xfc,0x8f,0xef,0x7b,0xce,0xbf,0x1f,0x3f,0x03,0x00,
 0x00,0x00,0x00,0x00,0x00,0x00,0x00,0x00,0x00,0x00,0x00,0x00,0x00,0x00,0x00,
 0x00,0x00,0x00,0x00,0x00,0x00,0x00,0x30,0x06,0x00,0xc0,0x64,0xb6,0x11,0x00,
 0x00,0x00,0x00,0x00,0x00,0x00,0xc0,0x6c,0x64,0x26,0xc3,0x4c,0x13,0x30,0xcf,
 0x26,0xe3,0xcd,0xc0,0x98,0xd9,0x68,0xda,0x6c,0x36,0x93,0x09,0x03,0x00,0x00,
 0x00,0x00,0x00,0x00,0x00,0x00,0x00,0x00,0x00,0x00,0x00,0x00,0x00,0x00,0x00,
 0x00,0x00,0x00,0x00,0x00,0x00,0x18,0x06,0x00,0xc0,0xe4,0xb7,0x11,0x00,0x00,
 0x00,0x00,0x00,0x00,0x00,0xc0,0x68,0x6c,0x26,0xc3,0x4c,0x13,0x30,0xfc,0x26,
 0x63,0xfc,0xc0,0x98,0xd9,0xf8,0xf1,0x6c,0x30,0x93,0x09,0x03,0x00,0x00,0x00,
 0x00,0x00,0x00,0x00,0x00,0x00,0x00,0x00,0x00,0x00,0x00,0x00,0x00,0x00,0x00,
 0x00,0x00,0x00,0x00,0x00,0x2c,0x06,0x00,0xc0,0x64,0xb0,0x11,0x00,0x00,0x00,
 0x00,0x00,0x00,0x00,0xc0,0x68,0x6c,0x26,0xcb,0x4c,0x1e,0x30,0x0c,0x26,0x6b,
 0x0c,0xc0,0x98,0xd9,0xf8,0xdb,0x6c,0x30,0x13,0x0f,0x03,0x00,0x00,0x00,0x00,
 0x00,0x00,0x00,0x00,0x00,0x00,0x00,0x00,0x00,0x00,0x00,0x00,0x00,0x00,0x00,
 0x00,0x00,0x00,0x00,0x26,0x06,0x00,0xc0,0x64,0xb4,0x11,0x00,0x00,0x00,0x00,
 0x00,0x00,0x00,0xc0,0x6c,0x64,0x26,0xcb,0x4c,0x02,0x30,0x8e,0x26,0x6b,0x8c,
 0xc0,0x98,0xd9,0x28,0xce,0x6d,0x34,0x13,0x01,0x03,0x00,0x00,0x00,0x00,0x00,
 0x00,0x00,0x00,0x00,0x00,0x00,0x00,0x00,0x00,0x00,0x00,0x00,0x00,0x00,0x00,
 0x00,0x00,0x00,0x3f,0x06,0x00,0xe0,0xce,0x7b,0x3f,0x00,0x00,0x00,0x00,0x00,
 0x00,0x00,0xc0,0xc7,0xf7,0x7f,0xef,0xff,0x3e,0xe0,0x79,0x7f,0xff,0x78,0xc0,
 0xfc,0xbf,0xef,0xfb,0xdf,0xfb,0x3f,0x1f,0x03,0x00,0x00,0x00,0x00,0x00,0x00,
 0x00,0x00,0x00,0x00,0x00,0x00,0x00,0x00,0x00,0x00,0x00,0x00,0x00,0x00,0x00,
 0x00,0x00,0x00,0x02,0x00,0x00,0x00,0x00,0x00,0x00,0x00,0x00,0x00,0x00,0x00,
 0x00,0xc0,0x00,0x00,0x00,0x00,0x00,0x63,0x00,0x00,0x00,0x00,0x00,0x80,0x00,
 0x00,0x00,0x00,0x00,0x00,0x80,0x31,0x01,0x00,0x00,0x00,0x00,0x00,0x00,0x00,
 0x00,0x00,0x00,0x00,0x00,0x00,0x00,0x00,0x00,0x00,0x00,0x00,0x00,0x00,0x00,
 0x00,0x00,0x03,0x00,0x00,0x00,0x00,0x00,0x00,0x00,0x00,0x00,0x00,0x00,0x00,
 0xc0,0x00,0x00,0x00,0x00,0x00,0x63,0x00,0x00,0x00,0x00,0x00,0x80,0x01,0x00,
 0x00,0x00,0x00,0x00,0x80,0xb1,0x01,0x00,0x00,0x00,0x00,0x00,0x00,0x00,0x00,
 0x00,0x00,0x00,0x00,0x00,0x00,0x00,0x00,0x00,0x00,0x00,0x00,0x00,0x00,0x00,
 0x00,0x03,0x00,0x00,0x00,0x00,0x00,0x00,0x00,0x00,0x00,0x00,0x00,0x00,0xe0,
 0x01,0x00,0x00,0x00,0x00,0x3e,0x00,0x00,0x00,0x00,0x00,0x80,0x01,0x00,0x00,
 0x00,0x00,0x00,0x00,0x9f,0x01,0x00,0x00,0x00,0x00,0x00,0x00,0x00,0x00,0x00,
 0x00,0x00,0x00,0x00,0x00,0x00,0x00,0x00,0x00,0x00,0x00,0x00,0x00,0x00,0x80,
 0x01,0x00,0x00,0x00,0x00,0x00,0x00,0x00,0x00,0x00,0x00,0x00,0x00,0x00,0x00,
 0x00,0x00,0x00,0x00,0x00,0x00,0x00,0x00,0x00,0x00,0x00,0x03,0x00,0x00,0x00,
 0x00,0x00,0x00,0xc0,0x00,0x00,0x00,0x00,0x00,0x00,0x00,0x00,0x00,0x00,0x00,
 0x00,0x00,0x00,0x00,0x00,0x00,0x00,0x00,0x00,0x00,0x00,0x00,0x00,0x00,0x00,
 0x00,0x00,0x00,0x00,0x00,0x00,0x00,0x00,0x00,0x00,0x00,0x00,0x00,0x00,0x00,
 0x00,0x00,0x00,0x00,0x00,0x00,0x00,0x00,0x00,0x00,0x00,0x00,0x00,0x00,0x00,
 0x00,0x00,0x00,0x00,0x00,0x00,0x00,0x00,0x00,0x00,0x00,0x00,0x00,0x00,0x00,
 0x00,0x00,0x00,0x00,0x00,0x00,0x00,0x00,0x00,0x00,0x00,0x00,0x80,0x00,0x00,
 0x00,0x00,0x00,0x00,0x00,0x00,0x00,0x00,0x00,0x00,0x00,0x00,0x00,0x00,0x00,
 0x00,0x00,0x00,0x00,0x00,0x00,0x00,0x00,0x00,0x00,0x00,0x00,0x00,0x00,0x00,
 0x00,0x00,0x00,0x00,0x00,0x00,0x00,0x00,0x00,0x00,0x00,0x00,0x00,0x00,0x00,
 0x00,0x00,0x00,0x00,0x00,0x00,0x00,0x00,0x00,0x00,0x00,0x1c,0x01,0x00,0x00,
 0x38,0x00,0x00,0x00,0x80,0x03,0x00,0x00,0x00,0x00,0x80,0x03,0x00,0x00,0x00,
 0x00,0x00,0x00,0x00,0x0e,0x00,0x00,0x00,0xe0,0x00,0x00,0x00,0xf8,0x03,0xaf,
 0x3f,0xc0,0x01,0x00,0x00,0x03,0x00,0x00,0x00,0x00,0x00,0x00,0x00,0x00,0x00,
 0x00,0x00,0x00,0x00,0x00,0x00,0x00,0x00,0x00,0x00,0x36,0x03,0x00,0x00,0x30,
 0x00,0x00,0x00,0x00,0x03,0x00,0x00,0x00,0x00,0xc0,0x03,0x00,0x00,0x00,0x00,
 0x00,0x00,0x00,0x0c,0x00,0x00,0x00,0xc0,0x00,0x00,0x00,0x60,0x8e,0x31,0x63,
 0x80,0x01,0x00,0x00,0x02,0x00,0x00,0x00,0x00,0x00,0x00,0x00,0x00,0x00,0x00,
 0x00,0x00,0x00,0x00,0x00,0x00,0x00,0x00,0x00,0x36,0x02,0x00,0x00,0x30,0x00,
 0x00,0x00,0x00,0x03,0x00,0x00,0x00,0x00,0xc0,0x00,0x00,0x00,0x00,0x00,0x00,
 0x00,0x00,0x0c,0x00,0x00,0x00,0xc0,0x00,0x00,0x00,0x60,0xcc,0x20,0xc3,0x80,
 0x01,0x00,0x00,0x02,0x00,0x00,0x00,0x00,0x00,0x00,0x00,0x00,0x00,0x00,0x00,
 0x00,0x00,0x00,0x00,0x00,0x00,0x00,0x00,0x36,0x06,0x00,0x00,0x30,0x00,0x00,
 0x00,0x00,0x03,0x00,0x00,0x00,0x00,0xc0,0x00,0x00,0x00,0x00,0x00,0x00,0x00,
 0x00,0x0c,0x00,0x00,0x00,0xc0,0x00,0x00,0x00,0x60,0xd8,0x20,0xc3,0x80,0x01,
 0x00,0x00,0x02,0x00,0x00,0x00,0x00,0x00,0x00,0x00,0x00,0x00,0x00,0x00,0x00,
 0x00,0x00,0x00,0x00,0x00,0x00,0x00,0x18,0x06,0x00,0xc0,0xf7,0x79,0x7e,0x7e,
 0x3c,0x03,0x00,0x00,0x00,0x00,0xe0,0x3f,0xcf,0x77,0xe3,0xfd,0xfc,0x3b,0xe0,
 0x7f,0x3c,0x3f,0x3f,0xcf,0x00,0xf8,0x3e,0x60,0x78,0x00,0x73,0x80,0xcf,0xf3,
 0xe3,0x03,0x00,0x00,0x00,0x00,0x00,0x00,0x00,0x00,0x00,0x00,0x00,0x00,0x00,
 0x00,0x00,0x00,0x00,0x00,0x00,0x3c,0x06,0x00,0x60,0x36,0xd9,0x4c,0x4c,0x66,
 0x03,0x00,0x00,0x00,0x00,0xc0,0xbc,0x79,0x66,0x32,0x9b,0x66,0x13,0x30,0x4f,
 0x6c,0x26,0xa6,0xd9,0x00,0x8c,0x3c,0x60,0x78,0x00,0x7f,0x80,0xd9,0x66,0x32,
 0x02,0x00,0x00,0x00,0x00,0x00,0x00,0x00,0x00,0x00,0x00,0x00,0x00,0x00,0x00,
 0x00,0x00,0x00,0x00,0x00,0x30,0x06,0x00,0x60,0x30,0xf1,0x4c,0x4c,0x7e,0x03,
 0x00,0x00,0x00,0x00,0xc0,0x8c,0x7f,0x64,0xf2,0x9b,0x06,0x1b,0x30,0x4c,0x78,
 0x26,0xa6,0xdf,0x00,0x8c,0x0d,0x60,0x78,0x20,0xc3,0x80,0x91,0x67,0x32,0x02,
 0x00,0x00,0x00,0x00,0x00,0x00,0x00,0x00,0x00,0x00,0x00,0x00,0x00,0x00,0x00,
 0x00,0x00,0x00,0x00,0x37,0x06,0x00,0x60,0x30,0xd9,0x4c,0x4c,0x06,0x03,0x00,
 0x00,0x00,0x00,0xc0,0x8c,0x61,0x64,0x32,0x98,0x06,0x0e,0x30,0x4c,0x6c,0x26,
 0xa6,0xc1,0x00,0x8c,0x0d,0x60,0xd8,0x20,0xc3,0x80,0xd1,0x66,0x32,0x02,0x00,
 0x00,0x00,0x00,0x00,0x00,0x00,0x00,0x00,0x00,0x00,0x00,0x00,0x00,0x00,0x00,
 0x00,0x00,0x00,0x37,0x06,0x00,0x60,0x34,0xcd,0x4d,0x4c,0x46,0x03,0x00,0x00,
 0x00,0x00,0xc0,0x8c,0x71,0x66,0x33,0x9a,0x46,0x0e,0x30,0x4e,0xe6,0x26,0xa6,
 0xd1,0x0c,0x8c,0x0c,0x60,0xcc,0x20,0xc3,0x80,0x79,0x6e,0x32,0x02,0x00,0x00,
 0x00,0x00,0x00,0x00,0x00,0x00,0x00,0x00,0x00,0x00,0x00,0x00,0x00,0x00,0x00,
 0x00,0x00,0x36,0x06,0x00,0xc0,0xfb,0xfb,0xff,0xfe,0xbc,0x07,0x00,0x00,0x00,
 0x00,0xe0,0x1f,0xcf,0xe7,0xe7,0xfd,0x3d,0x04,0xe0,0xff,0xfc,0x7f,0x7f,0xef,
 0x0d,0xf8,0x1e,0xf8,0x87,0x9b,0x7f,0x80,0xcf,0xff,0xe7,0x07,0x00,0x00,0x00,
 0x00,0x00,0x00,0x00,0x00,0x00,0x00,0x00,0x00,0x00,0x00,0x00,0x00,0x00,0x00,
 0x00,0x0c,0x02,0x00,0x00,0x00,0x00,0x00,0x00,0x00,0x00,0x00,0x00,0x00,0x00,
 0x00,0x00,0x00,0x04,0x00,0x00,0x00,0x04,0x00,0x00,0x00,0x00,0x00,0x00,0x08,
 0x00,0x00,0x00,0x00,0x0e,0x00,0x00,0x00,0x00,0x00,0x00,0x00,0x00,0x00,0x00,
 0x00,0x00,0x00,0x00,0x00,0x00,0x00,0x00,0x00,0x00,0x00,0x00,0x00,0x00,0x00,
 0x00,0x03,0x00,0x00,0x00,0x00,0x00,0x00,0x00,0x00,0x00,0x00,0x00,0x00,0x00,
 0x00,0x00,0x04,0x00,0x00,0x80,0x07,0x00,0x00,0x00,0x00,0x00,0x00,0x08,0x00,
 0x00,0x00,0x00,0x00,0x00,0x00,0x00,0x00,0x00,0x00,0x00,0x00,0x00,0x00,0x00,
 0x00,0x00,0x00,0x00,0x00,0x00,0x00,0x00,0x00,0x00,0x00,0x00,0x00,0x00,0x00,
 0x03,0x00,0x00,0x00,0x00,0x00,0x00,0x00,0x00,0x00,0x00,0x00,0x00,0x00,0x00,
 0x00,0x0e,0x00,0x00,0x80,0x03,0x00,0x00,0x00,0x00,0x00,0x00,0x04,0x00,0x00,
 0x00,0x00,0x00,0x00,0x00,0x00,0x00,0x00,0x00,0x00,0x00,0x00,0x00,0x00,0x00,
 0x00,0x00,0x00,0x00,0x00,0x00,0x00,0x00,0x00,0x00,0x00,0x00,0x00,0x80,0x01,
 0x00,0x00,0x00,0x00,0x00,0x00,0x00,0x00,0x00,0x00,0x00,0x00,0x00,0x00,0x00,
 0x00,0x00,0x00,0x00,0x00,0x00,0x00,0x00,0x00,0x00,0x00,0x00,0x00,0x00,0x00,
 0x00,0x00,0x00,0x00,0x00,0x00,0x00,0x00,0x00,0x00,0x00,0x00,0x00,0x00,0x00,
 0x00,0x00,0x00,0x00,0x00,0x00,0x00,0x00,0x00,0x00,0x00,0x00,0x00,0x00,0x00,
 0x00,0x00,0x00,0x00,0x00,0x00,0x00,0x00,0x00,0x00,0x00,0x00,0x00,0x00,0x00,
 0x00,0x00,0x00,0x00,0x00,0x00,0x00,0x00,0x00,0x00,0x00,0x00,0x00,0x00,0x00,
 0x00,0x00,0x00,0x00,0x00,0x00,0x00,0x00,0x00,0x00,0x00,0x00,0x00,0x00,0x00,
 0x00,0x00,0x00,0x00,0x00,0x00,0x00,0x00,0x00,0x00,0x00,0x00,0x00,0x00,0x00,
 0x00,0x00,0x00,0x00,0x00,0x00,0x00,0x00,0x00,0x00,0x00,0x00,0x00,0x00,0x00,
 0x00,0x00,0x00,0x00,0x00,0x00,0x00,0x00,0x00,0x00,0x00,0x00,0x00,0x00,0x00,
 0x00,0x00,0x00,0x00,0x00,0x00,0x00,0x00,0x00,0x00,0x00,0x00,0x00,0x00,0x00,
 0x00,0x00,0x00,0x00,0x00,0x00,0x00,0x00,0x00,0x00,0x80,0x00,0x00,0x00,0x00,
 0x00,0x00,0x00,0x00,0x00,0x00,0x00,0x00,0x00,0x00,0x00,0x00,0x00,0x00,0x00,
 0x00,0x00,0x00,0x00,0x00,0x00,0x00,0x00,0x00,0x00,0x00,0x00,0x00,0x00,0x00,
 0x00,0x00,0x00,0x00,0x00,0x00,0x00,0x00,0x00,0x00,0x00,0x00,0x00,0x00,0x00,
 0x00,0x00,0x00,0x00,0x00,0x00,0x00,0x00,0x00,0x10,0x01,0x00,0x00,0x00,0x70,
 0x00,0x60,0x00,0x00,0x18,0x00,0x00,0x00,0x80,0x01,0x80,0x0f,0x00,0x00,0xbe,
 0xf3,0x1d,0x00,0x02,0x00,0x78,0x00,0x00,0x00,0xdf,0x79,0x1c,0x00,0x03,0x80,
 0xef,0x01,0x00,0x80,0xc7,0x7d,0x07,0xc0,0x01,0xc0,0xe3,0x00,0x00,0xc0,0xe3,
 0x8f,0x03,0x00,0x00,0x00,0x00,0x00,0x00,0x18,0x03,0x00,0x00,0x00,0x60,0x00,
 0x60,0x00,0x80,0x18,0x00,0x00,0x00,0xc0,0x06,0x00,0x03,0x00,0x00,0x9c,0xe1,
 0x0c,0x80,0x03,0x00,0xcc,0x01,0x00,0x00,0xce,0x70,0x0c,0x80,0x0d,0x00,0xc3,
 0x00,0x00,0x00,0xc7,0x38,0x03,0x60,0x03,0x80,0x61,0x00,0x00,0x80,0x63,0x8e,
 0x01,0x00,0x00,0x00,0x00,0x00,0x00,0x18,0x02,0x00,0x00,0x00,0x60,0x00,0x00,
 0x00,0xc0,0x00,0x00,0x00,0x00,0x40,0x06,0x00,0x03,0x00,0x00,0xb8,0xc0,0x05,
 0x00,0x02,0x00,0x86,0x01,0x00,0x00,0x5c,0x60,0x04,0xc0,0x0d,0x00,0x83,0x00,
 0x00,0x00,0x46,0x70,0x01,0x60,0x03,0x80,0x63,0x00,0x00,0x00,0x23,0x8c,0x00,
 0x00,0x00,0x00,0x00,0x00,0x00,0x1c,0x06,0x00,0x00,0x00,0x60,0x00,0x00,0x00,
 0xc0,0x00,0x00,0x00,0x00,0x60,0x04,0x00,0x03,0x00,0x00,0xf0,0x80,0x07,0x00,
 0x02,0x00,0x06,0x03,0x00,0x00,0x78,0xe0,0x06,0xc0,0x09,0x00,0x83,0x00,0x00,
 0x00,0x6e,0xe0,0x01,0x60,0x03,0x00,0x23,0x00,0x00,0x00,0x37,0xdc,0x00,0x00,
 0x00,0x00,0x00,0x00,0x00,0x16,0x06,0x00,0xe0,0xc7,0x67,0x9e,0x7f,0x9f,0xe7,
 0x9d,0xef,0x07,0x00,0x60,0xe4,0x3f,0x03,0xbe,0x0f,0x70,0x80,0x03,0x00,0xc2,
 0x7f,0x03,0x03,0xdf,0x07,0x38,0xc0,0x02,0x00,0xcc,0x7f,0x83,0x80,0xef,0x03,
 0x2c,0xe0,0x00,0x80,0xf1,0x1f,0x23,0xc0,0xf7,0x01,0x16,0x58,0x00,0x00,0x00,
 0x00,0x00,0x00,0x00,0x12,0x06,0x00,0xc0,0x6c,0x64,0x36,0x6f,0x93,0xcd,0xd8,
 0xc8,0x04,0x00,0x60,0xf4,0x3f,0x03,0x23,0x0f,0x60,0x00,0x03,0x00,0xe2,0x7f,
 0x03,0x83,0x91,0x07,0x30,0xc0,0x03,0x00,0xec,0x7f,0x83,0xc0,0xc8,0x03,0x3c,
 0xc0,0x00,0xc0,0xfb,0x1f,0x16,0x60,0xe4,0x01,0x1e,0x78,0x00,0x00,0x00,0x00,
 0x00,0x00,0x00,0x13,0x06,0x00,0xc0,0x68,0x6c,0x3c,0x63,0x0f,0xcf,0xd8,0xd8,
 0x04,0x00,0x60,0x04,0x00,0x03,0x63,0x03,0xf0,0x80,0x07,0x00,0x02,0x00,0x03,
 0x83,0xb1,0x01,0x78,0x80,0x01,0x00,0x06,0x00,0x83,0xc0,0xd8,0x00,0x18,0xe0,
 0x01,0x00,0x03,0x00,0x16,0x60,0x6c,0x00,0x0c,0x30,0x00,0x00,0x00,0x00,0x00,
 0x00,0x00,0x7f,0x06,0x00,0xc0,0x68,0x6c,0x36,0x63,0x9f,0xcd,0xda,0xd8,0x04,
 0x00,0x60,0x04,0x00,0x03,0x63,0x03,0xd0,0x81,0x0e,0x00,0x02,0x00,0x06,0x83,
 0xb1,0x01,0xe8,0x80,0x01,0x00,0x0b,0x00,0x83,0xc0,0xd8,0x00,0x18,0xa0,0x03,
 0x70,0x03,0x00,0x1e,0x60,0x6c,0x00,0x0c,0x30,0x00,0x00,0x00,0x00,0x00,0x00,
 0x00,0x10,0x06,0x00,0xc0,0x6c,0x64,0x73,0x63,0xd1,0xdc,0xda,0xc8,0x04,0x00,
 0x40,0xf6,0x3f,0x03,0x23,0x03,0x88,0x41,0x8c,0x01,0xe2,0x7f,0xf6,0x81,0x91,
 0x01,0xc4,0x80,0xc1,0x80,0xe9,0x7f,0x46,0xc0,0xc8,0x00,0x18,0x10,0x63,0x70,
 0xfb,0x1f,0x0c,0x60,0x64,0x00,0x0c,0x30,0x00,0x00,0x00,0x00,0x00,0x00,0x00,
 0x7c,0x06,0x00,0xc0,0xc7,0xf7,0xfe,0xf7,0x9f,0xdf,0xbf,0xef,0x0f,0x00,0xc0,
 0x06,0x80,0x0f,0xbe,0x07,0x9e,0xf7,0xbc,0x81,0x0f,0x00,0xdc,0x02,0xdf,0x03,
 0xcf,0xc3,0xc3,0xc0,0x0f,0x00,0x6e,0x80,0xef,0x01,0x3c,0x3c,0x6f,0x60,0x03,
 0x00,0x0c,0xc0,0xf7,0x00,0x1e,0x78,0x00,0x00,0x00,0x00,0x00,0x00,0x00,0x00,
 0x02,0x00,0xc0,0x00,0x00,0x00,0x00,0x00,0x00,0x00,0x00,0x00,0x00,0x80,0x03,
 0x00,0x00,0x00,0x00,0x00,0x00,0x00,0x01,0x00,0x00,0xf0,0x02,0x00,0x00,0x00,
 0x00,0x80,0x00,0x00,0x00,0x18,0x00,0x00,0x00,0x00,0x00,0x40,0xc0,0x00,0x00,
 0x0c,0x00,0x00,0x00,0x00,0x00,0x00,0x00,0x00,0x00,0x00,0x00,0x00,0x00,0x03,
 0x00,0xc0,0x00,0x00,0x00,0x00,0x00,0x00,0x00,0x00,0x00,0x00,0x00,0x00,0x00,
 0x00,0x00,0x00,0x00,0x00,0x00,0x01,0x00,0x00,0xc0,0x03,0x00,0x00,0x00,0x00,
 0x80,0x00,0x00,0x00,0x00,0x00,0x00,0x00,0x00,0x00,0x40,0x00,0x00,0x00,0x00,
 0x00,0x00,0x00,0x00,0x00,0x00,0x00,0x00,0x00,0x00,0x00,0x00,0x00,0x03,0x00,
 0xe0,0x01,0x00,0x00,0x00,0x00,0x00,0x00,0x00,0x00,0x00,0x00,0x00,0x00,0x00,
 0x00,0x00,0x00,0x00,0x80,0x00,0x00,0x00,0x80,0x01,0x00,0x00,0x00,0x00,0x40,
 0x00,0x00,0x00,0x00,0x00,0x00,0x00,0x00,0x00,0x20,0x00,0x00,0x00,0x00,0x00,
 0x00,0x00,0x00,0x00,0x00,0x00,0x00,0x00,0x00,0x00,0x00,0x80,0x01,0x00,0x00,
 0x00,0x00,0x00,0x00,0x00,0x00,0x00,0x00,0x00,0x00,0x00,0x00,0x00,0x00,0x00,
 0x00,0x00,0x00,0x00,0x00,0x00,0x00,0x00,0x00,0x00,0x00,0x00,0x00,0x00,0x00,
 0x00,0x00,0x00,0x00,0x00,0x00,0x00,0x00,0x00,0x00,0x00,0x00,0x00,0x00,0x00,
 0x00,0x00,0x00,0x00,0x00,0x00,0x00,0x00,0x00,0x00,0x00,0x00,0x00,0x00,0x00,
 0x00,0x00,0x00,0x00,0x00,0x00,0x00,0x00,0x00,0x00,0x00,0x00,0x00,0x00,0x00,
 0x00,0x00,0x00,0x00,0x00,0x00,0x00,0x00,0x00,0x00,0x00,0x00,0x00,0x00,0x00,
 0x00,0x00,0x00,0x00,0x00,0x00,0x00,0x00,0x00,0x00,0x00,0x00,0x00,0x00,0x00,
 0x00,0x00,0x00,0x00,0x00,0x00,0x00,0x00,0x00,0x00,0x00,0x00,0x00,0x00,0x00,
 0x00,0x00,0x00,0x00,0x00,0x00,0x00,0x00,0x00,0x00,0x00,0x00,0x00,0x00,0x00,
 0x00,0x00,0x00,0x00,0x00,0x00,0x00,0x00,0x00,0x00,0x00,0x00,0x00,0x00,0x00,
 0x00,0x00,0x00,0x00,0x00,0x00,0x00,0x00,0x00,0x00,0x00,0x00,0x00,0x00,0x00,
 0x00,0x00,0x00,0x00,0x00,0x00,0x00,0x00,0x80,0x00,0x00,0x00,0x00,0x00,0x00,
 0x00,0x00,0x00,0x00,0x00,0x00,0x00,0x00,0x00,0x00,0x00,0x00,0x00,0x00,0x00,
 0x00,0x00,0x00,0x00,0x00,0x00,0x00,0x00,0x00,0x00,0x00,0x00,0x00,0x00,0x00,
 0x00,0x00,0x00,0x00,0x00,0x00,0x00,0x00,0x00,0x00,0x00,0x00,0x00,0x00,0x00,
 0x00,0x00,0x00,0x00,0x00,0x00,0x00,0x32,0x01,0x00,0x00,0x00,0x00,0x00,0x00,
 0x00,0x00,0x00,0x00,0x00,0x00,0x80,0x01,0x00,0x00,0x00,0x00,0x00,0x10,0x00,
 0x00,0x00,0x00,0x30,0x00,0x00,0x00,0x00,0x00,0x1c,0x00,0x00,0x00,0x70,0x00,
 0x20,0x00,0x18,0x00,0x00,0x00,0x00,0x32,0x00,0x00,0x00,0x00,0x70,0x00,0x18,
 0x00,0x00,0x0e,0x00,0x00,0x00,0x1e,0x03,0x00,0x80,0x00,0x00,0x00,0x00,0x00,
 0x00,0x00,0x00,0x00,0x00,0xc0,0x06,0x00,0x00,0x00,0x00,0x00,0x1c,0x00,0x00,
 0x00,0x00,0xd8,0x00,0x00,0x00,0x00,0x00,0x36,0x00,0x00,0x00,0x60,0x00,0x30,
 0x00,0x18,0x00,0x00,0x00,0x00,0x1e,0x00,0x00,0x00,0x00,0x60,0x00,0x3c,0x00,
 0x00,0x0c,0x00,0x00,0x00,0x02,0x02,0x00,0xc0,0x00,0x00,0x00,0x00,0x00,0x00,
 0x00,0x00,0x00,0x00,0x40,0x06,0x00,0x00,0x00,0x00,0x00,0x10,0x00,0x00,0x00,
 0x00,0xdc,0x00,0x00,0x00,0x00,0x00,0x36,0x00,0x00,0x00,0x60,0x00,0x30,0x00,
 0x00,0x00,0x00,0x00,0x00,0x02,0x00,0x00,0x00,0x00,0x60,0x00,0x36,0x00,0x00,
 0x0c,0x00,0x00,0x00,0x02,0x06,0x00,0xc0,0x00,0x00,0x00,0x00,0x00,0x00,0x00,
 0x00,0x00,0x00,0x60,0x04,0x00,0x00,0x00,0x00,0x00,0x10,0x00,0x00,0x00,0x00,
 0x9c,0x00,0x00,0x00,0x00,0x00,0x36,0x00,0x00,0x00,0x60,0x00,0x38,0x00,0x00,
 0x00,0x00,0x40,0x00,0x02,0x00,0x00,0x00,0x00,0x60,0x00,0x02,0x00,0x00,0x0c,
 0x00,0x00,0x00,0x1e,0x06,0x00,0xe0,0xdd,0x7f,0x3c,0x00,0x00,0x00,0x00,0x00,
 0x00,0x00,0x60,0xe4,0xbf,0xff,0xf1,0xfc,0x00,0x10,0xfe,0xf3,0xfc,0x00,0xc0,
 0xfc,0xe7,0xfb,0x77,0x00,0x18,0xff,0x7d,0xcf,0x63,0x00,0x2c,0xfe,0xdf,0xff,
 0x78,0xfc,0x00,0x1e,0xff,0x79,0xfe,0xe7,0x67,0x00,0x1f,0xff,0xfd,0x7c,0x3c,
 0xdf,0x03,0x32,0x06,0x00,0xc0,0x98,0xcc,0x66,0x00,0x00,0x00,0x00,0x00,0x00,
 0x00,0x60,0xf4,0x3f,0x33,0xb3,0x99,0x01,0x10,0xff,0xb3,0x99,0x01,0xc0,0xfe,
 0x37,0x8f,0x26,0x00,0xbc,0xff,0xf9,0xd9,0x66,0x00,0x24,0xff,0x9b,0x99,0xd9,
 0x26,0x00,0xb2,0xff,0xd9,0xcc,0xcc,0x6c,0x00,0xb3,0xff,0x99,0x4d,0x6c,0x73,
 0x06,0x30,0x06,0x00,0xc0,0xd8,0x8c,0x7e,0x00,0x00,0x00,0x00,0x00,0x00,0x00,
 0x60,0x04,0x00,0x33,0xe3,0x19,0x01,0x10,0x00,0xe0,0x19,0x01,0x60,0x00,0x30,
 0x8c,0x37,0x00,0x30,0x00,0x98,0x9f,0x67,0x00,0x26,0x00,0x98,0x99,0xf1,0x26,
 0x00,0x30,0x00,0xf0,0xcc,0xcc,0x68,0x00,0x23,0x00,0x18,0x4d,0x78,0xef,0x07,
 0x33,0x06,0x00,0xc0,0x72,0x8c,0x06,0x00,0x00,0x00,0x00,0x00,0x00,0x00,0x60,
 0x04,0x00,0x33,0xb3,0x19,0x01,0x10,0x00,0xb0,0x19,0x01,0xb0,0x00,0x30,0x8c,
 0x1d,0x00,0x37,0x00,0x98,0xc1,0x66,0x00,0xfe,0x00,0x98,0x99,0xd9,0x3c,0x00,
 0x33,0x00,0xd8,0xcc,0xcc,0x68,0x00,0x23,0x00,0x18,0x4d,0x6c,0x7f,0x00,0x33,
 0x06,0x00,0xc0,0x72,0xcc,0x46,0x00,0x00,0x00,0x00,0x00,0x00,0x00,0x40,0xf6,
 0x3f,0x33,0x9b,0x9b,0x0d,0x10,0xff,0x9b,0x9b,0x19,0x98,0xfe,0x37,0x8e,0x1c,
 0x06,0xb7,0xff,0x99,0x71,0x6e,0x06,0x20,0xff,0x9b,0x99,0xcd,0x05,0x06,0xb3,
 0xff,0xcd,0xcd,0xcc,0x6c,0x06,0xb2,0xff,0x99,0x4d,0xe6,0x71,0x04,0x3e,0x06,
 0x00,0xc0,0x23,0x7c,0x3c,0x00,0x00,0x00,0x00,0x00,0x00,0x00,0xc0,0x06,0x80,
 0xff,0xf7,0xfb,0x0c,0x7c,0x00,0xf0,0xfb,0x18,0xfc,0x00,0xe0,0xf9,0x08,0x06,
 0x36,0x00,0x3c,0xcf,0xff,0x06,0xf8,0x00,0xfc,0xff,0xfb,0x7d,0x06,0x3e,0x00,
 0xf8,0xff,0xdf,0xf7,0x06,0x36,0x00,0xf8,0xfe,0xfc,0xdf,0x03,0x0c,0x02,0x00,
 0x00,0x20,0x0c,0x00,0x00,0x00,0x00,0x00,0x00,0x00,0x00,0x80,0x03,0x00,0x00,
 0x00,0x18,0x08,0x00,0x00,0x00,0x18,0x10,0x00,0x00,0x00,0x00,0x00,0x04,0x0c,
 0x00,0x00,0x00,0x00,0x04,0x00,0x00,0x00,0x00,0x00,0xc6,0x04,0x0c,0x00,0x00,
 0x00,0xc0,0x00,0x04,0x1c,0x00,0x18,0x00,0x00,0x00,0x00,0x00,0x03,0x00,0x00,
 0x3c,0x0c,0x00,0x00,0x00,0x00,0x00,0x00,0x00,0x00,0x00,0x00,0x00,0x00,0x00,
 0x18,0x08,0x00,0x00,0x00,0x18,0x10,0x00,0x00,0x00,0x00,0x00,0x04,0x00,0x00,
 0x00,0x00,0x00,0x04,0x00,0x00,0x00,0x00,0x00,0xc6,0x04,0x00,0x00,0x00,0x00,
 0xc0,0x00,0x04,0x00,0x00,0x18,0x00,0x00,0x00,0x00,0x00,0x03,0x00,0x00,0x1c,
 0x1e,0x00,0x00,0x00,0x00,0x00,0x00,0x00,0x00,0x00,0x00,0x00,0x00,0x00,0x3c,
 0x04,0x00,0x00,0x00,0x3c,0x08,0x00,0x00,0x00,0x00,0x00,0x02,0x00,0x00,0x00,
 0x00,0x00,0x02,0x00,0x00,0x00,0x00,0x00,0x7c,0x02,0x00,0x00,0x00,0x00,0xe0,
 0x01,0x02,0x00,0x00,0x3c,0x00,0x00,0x00,0x00,0x80,0x01,0x00,0x00,0x00,0x00,
 0x00,0x00,0x00,0x00,0x00,0x00,0x00,0x00,0x00,0x00,0x00,0x00,0x00,0x00,0x00,
 0x00,0x00,0x00,0x00,0x00,0x00,0x00,0x00,0x00,0x00,0x00,0x00,0x00,0x00,0x00,
 0x00,0x00,0x00,0x00,0x00,0x00,0x00,0x00,0x00,0x00,0x00,0x00,0x00,0x00,0x00,
 0x00,0x00,0x00,0x00,0x00,0x00,0x00,0x00,0x00,0x00,0x00,0x00,0x00,0x00,0x00,
 0x00,0x00,0x00,0x00,0x00,0x00,0x00,0x00,0x00,0x00,0x00,0x00,0x00,0x00,0x00,
 0x00,0x00,0x00,0x00,0x00,0x00,0x00,0x00,0x00,0x00,0x00,0x00,0x00,0x00,0x00,
 0x00,0x00,0x00,0x00,0x00,0x00,0x00,0x00,0x00,0x00,0x00,0x00,0x00,0x00,0x00,
 0x00,0x00,0x00,0x00,0x00,0x00,0x00,0x80,0x00,0x00,0x00,0x00,0x00,0x00,0x00,
 0x00,0x00,0x00,0x00,0x00,0x00,0x00,0x00,0x00,0x00,0x00,0x00,0x00,0x00,0x00,
 0x00,0x00,0x00,0x00,0x00,0x00,0x00,0x00,0x00,0x00,0x00,0x00,0x00,0x00,0x00,
 0x00,0x00,0x00,0x00,0x00,0x00,0x00,0x00,0x00,0x00,0x00,0x00,0x00,0x00,0x00,
 0x00,0x00,0x00,0x00,0x00,0x00,0x18,0x01,0x00,0x00,0x00,0x00,0x00,0x00,0x00,
 0x00,0x00,0x00,0x00,0x00,0x00,0x00,0x00,0x00,0x00,0x00,0x00,0x00,0x00,0x00,
 0x00,0x0e,0x00,0x00,0x00,0x30,0x70,0x60,0x00,0x00,0x00,0xc0,0x01,0x00,0x00,
 0x00,0x00,0x00,0x00,0x00,0x00,0x00,0x00,0x00,0x00,0x00,0x00,0x00,0x00,0x00,
 0x00,0x00,0x00,0x00,0x00,0x3c,0x03,0x00,0x00,0x00,0x00,0x00,0x00,0x00,0x00,
 0x00,0x00,0x00,0x00,0x00,0x00,0x00,0x00,0x00,0x00,0x00,0x00,0x00,0x00,0x00,
 0x0c,0x00,0x00,0x00,0x30,0x62,0x60,0x00,0x00,0x00,0x80,0x01,0x20,0x00,0x00,
 0x00,0x00,0x00,0x00,0x00,0x00,0x00,0x00,0x00,0x00,0x00,0x00,0x00,0x00,0x00,
 0x00,0x00,0x00,0x00,0x36,0x02,0x00,0x00,0x00,0x00,0x00,0x00,0x00,0x00,0x00,
 0x00,0x00,0x00,0x00,0x00,0x00,0x00,0x00,0x00,0x00,0x00,0x00,0x00,0x00,0x0c,
 0x00,0x00,0x00,0x00,0x63,0x00,0x00,0x00,0x00,0x80,0x01,0x30,0x00,0x00,0x00,
 0x00,0x00,0x00,0x00,0x00,0x00,0x00,0x00,0x00,0x00,0x00,0x00,0x00,0x00,0x00,
 0x00,0x00,0x00,0x02,0x06,0x00,0x00,0x00,0x00,0x00,0x00,0x00,0x00,0x00,0x00,
 0x00,0x00,0x00,0x00,0x00,0x00,0x00,0x00,0x00,0x00,0x00,0x00,0x00,0x0c,0x00,
 0x00,0x00,0x00,0x63,0x00,0x00,0x00,0x00,0x80,0x01,0x30,0x00,0x00,0x00,0x00,
 0x00,0x00,0x00,0x00,0x00,0x00,0x00,0x00,0x00,0x00,0x00,0x00,0x00,0x00,0x00,
 0x00,0x00,0x1f,0x06,0x00,0xe0,0xe7,0x7b,0x3e,0x00,0x00,0x00,0x00,0x00,0x00,
 0x00,0xe0,0x7b,0x3e,0x37,0xef,0xc7,0xf7,0xc0,0xcf,0xed,0x7f,0x7c,0xbc,0x0f,
 0xfe,0xbf,0xe7,0x73,0x3f,0xe0,0x79,0xfc,0x0f,0x78,0xf7,0x1f,0x0f,0x00,0x00,
 0x00,0x00,0x00,0x00,0x00,0x00,0x00,0x00,0x00,0x00,0x00,0x00,0x00,0x00,0x00,
 0x00,0x33,0x06,0x00,0xc0,0x64,0xce,0x33,0x00,0x00,0x00,0x00,0x00,0x00,0x00,
 0x60,0xce,0x33,0xa6,0xd9,0x64,0x9e,0x81,0x89,0xc9,0xcc,0xcc,0x66,0x0f,0x6c,
 0x33,0x63,0x62,0x26,0x30,0xdb,0xe6,0x09,0x30,0x26,0xb3,0x19,0x00,0x00,0x00,
 0x00,0x00,0x00,0x00,0x00,0x00,0x00,0x00,0x00,0x00,0x00,0x00,0x00,0x00,0x00,
 0x23,0x06,0x00,0xc0,0xe4,0xfd,0x23,0x00,0x00,0x00,0x00,0x00,0x00,0x00,0xe0,
 0xfd,0x23,0xa6,0xdf,0x64,0xf8,0x81,0x89,0xc9,0xcc,0x8c,0x7e,0x03,0xec,0x31,
 0x63,0x62,0x26,0xf0,0xf3,0x86,0x09,0x30,0x36,0xa3,0x1f,0x00,0x00,0x00,0x00,
 0x00,0x00,0x00,0x00,0x00,0x00,0x00,0x00,0x00,0x00,0x00,0x00,0x00,0x00,0x23,
 0x06,0x00,0xc0,0xe4,0x0f,0x23,0x00,0x00,0x00,0x00,0x00,0x00,0x00,0xe0,0x0f,
 0x23,0xa6,0xc1,0x64,0x18,0x80,0x89,0xc9,0xcc,0x8c,0x06,0x03,0xf8,0x31,0x6b,
 0x62,0x26,0x30,0xd8,0x86,0x09,0xb0,0x1c,0xa3,0x01,0x00,0x00,0x00,0x00,0x00,
 0x00,0x00,0x00,0x00,0x00,0x00,0x00,0x00,0x00,0x00,0x00,0x00,0x00,0x32,0x06,
 0x00,0xc0,0x24,0x8e,0x33,0x00,0x00,0x00,0x00,0x00,0x00,0x00,0x20,0x8e,0x33,
 0xb6,0xd1,0x64,0x1c,0x81,0x89,0xcd,0xcc,0xcc,0x46,0x03,0xd8,0x31,0x6b,0x62,
 0x26,0x30,0xce,0xc7,0x09,0xb0,0x1c,0xb3,0x11,0x00,0x00,0x00,0x00,0x00,0x00,
 0x00,0x00,0x00,0x00,0x00,0x00,0x00,0x00,0x00,0x00,0x00,0x00,0x36,0x06,0x00,
 0xe0,0xef,0x7b,0x3e,0x00,0x00,0x00,0x00,0x00,0x00,0x00,0xe0,0x7b,0x3e,0x7e,
 0xef,0xcf,0xf3,0xc0,0x9f,0xff,0xff,0x7d,0xbc,0x07,0x98,0x78,0xff,0xf7,0x7f,
 0xe0,0xf9,0xfd,0x1f,0xf0,0x08,0x1f,0x0f,0x00,0x00,0x00,0x00,0x00,0x00,0x00,
 0x00,0x00,0x00,0x00,0x00,0x00,0x00,0x00,0x00,0x00,0x00,0x1c,0x02,0x00,0x00,
 0x00,0x00,0x20,0x00,0x00,0x00,0x00,0x00,0x00,0x00,0x00,0x00,0x20,0x00,0x00,
 0x00,0x00,0x00,0x00,0x00,0x00,0x00,0x00,0x00,0x00,0x00,0x00,0x00,0x00,0x00,
 0x00,0x00,0x00,0x00,0x08,0x03,0x00,0x00,0x00,0x00,0x00,0x00,0x00,0x00,0x00,
 0x00,0x00,0x00,0x00,0x00,0x00,0x00,0x00,0x00,0x00,0x00,0x03,0x00,0x00,0x00,
 0x00,0x20,0x00,0x00,0x00,0x00,0x00,0x00,0x00,0x00,0x00,0x20,0x00,0x00,0x00,
 0x00,0x00,0x00,0x00,0x00,0x00,0x00,0x00,0x00,0x00,0x00,0x00,0x00,0x00,0x00,
 0x00,0x00,0x00,0x0f,0x03,0x00,0x00,0x00,0x00,0x00,0x00,0x00,0x00,0x00,0x00,
 0x00,0x00,0x00,0x00,0x00,0x00,0x00,0x00,0x00,0x00,0x03,0x00,0x00,0x00,0x00,
 0x70,0x00,0x00,0x00,0x00,0x00,0x00,0x00,0x00,0x00,0x70,0x00,0x00,0x00,0x00,
 0x00,0x00,0x00,0x00,0x00,0x00,0x00,0x00,0x00,0x00,0x00,0x00,0x00,0x00,0x00,
 0x00,0x00,0x87,0x07,0x00,0x00,0x00,0x00,0x00,0x00,0x00,0x00,0x00,0x00,0x00,
 0x00,0x00,0x00,0x00,0x00,0x00,0x00,0x00,0x80,0x01,0x00,0x00,0x00,0x00,0x00,
 0x00,0x00,0x00,0x00,0x00,0x00,0x00,0x00,0x00,0x00,0x00,0x00,0x00,0x00,0x00,
 0x00,0x00,0x00,0x00,0x00,0x00,0x00,0x00,0x00,0x00,0x00,0x00,0x00,0x00,0x00,
 0x00,0x00,0x00,0x00,0x00,0x00,0x00,0x00,0x00,0x00,0x00,0x00,0x00,0x00,0x00,
 0x00,0x00,0x00,0x00,0x00,0x00,0x00};
