#define noname_width 5
#define noname_height 10
static char noname_bits[] = {
 0x04,0x07,0x04,0x04,0x04,0x04,0x04,0x04,0x04,0x1f};
