#define noname_width 62
#define noname_height 19
static char noname_bits[] = {
 0x00,0x00,0x00,0x00,0x00,0x00,0x00,0x08,0x00,0x00,0x00,0x00,0x00,0x00,0x00,
 0x0c,0x00,0x00,0x00,0x00,0x00,0x00,0x00,0x08,0x00,0x00,0xf8,0x03,0x00,0x00,
 0x00,0x08,0x08,0x00,0xc8,0x02,0x00,0x08,0x7e,0x08,0xe4,0xbd,0xcf,0xe2,0xbd,
 0x17,0x00,0x08,0x66,0x18,0x63,0x60,0x18,0x33,0x00,0x3c,0x42,0x1c,0x61,0x40,
 0x1c,0x21,0x00,0x00,0x43,0x9c,0x60,0x40,0x9c,0x60,0x00,0x00,0x43,0x9e,0xf8,
 0x40,0x9e,0x60,0x00,0x00,0x43,0x5a,0x00,0x40,0x5a,0x60,0x00,0x00,0xc3,0x79,
 0x00,0xc0,0x79,0x60,0x00,0x00,0xc3,0x39,0x00,0xc0,0x39,0x60,0x00,0x00,0xc3,
 0x38,0x00,0xc0,0x38,0x60,0x00,0x00,0xc3,0x18,0x00,0xc0,0x18,0x60,0x00,0x00,
 0x42,0x18,0x00,0x40,0x18,0x20,0x00,0x00,0x06,0x00,0x00,0x00,0x00,0x30,0x00,
 0x00,0x06,0x00,0x00,0x00,0x00,0x30,0x00,0x00,0x0c,0x00,0x00,0x00,0x00,0x18,
 0x00,0x00};
