#define noname_width 251
#define noname_height 19
static char noname_bits[] = {
 0x00,0x00,0x00,0x00,0x00,0x00,0x00,0x00,0x00,0x00,0x00,0x00,0x00,0x00,0x00,
 0x00,0x00,0x00,0x00,0x00,0x00,0x00,0x40,0x00,0x00,0x00,0x00,0x00,0x00,0x00,
 0x00,0x00,0x00,0x00,0x00,0x00,0x00,0x00,0x00,0x00,0x00,0x00,0x00,0x00,0x00,
 0x00,0x00,0x00,0x00,0x00,0x00,0x00,0x00,0x00,0x60,0x00,0x00,0x00,0x00,0x00,
 0x00,0x00,0x00,0x00,0x00,0x00,0x00,0x00,0x00,0x00,0x00,0x00,0x00,0x00,0x00,
 0x00,0x00,0x00,0x00,0x00,0x00,0x00,0x00,0x00,0x00,0x00,0x40,0x00,0x00,0x00,
 0x00,0x00,0x00,0x00,0x00,0x00,0x00,0x00,0x00,0x00,0x00,0x00,0x00,0x02,0x00,
 0x00,0x00,0x00,0x00,0x00,0x00,0x00,0x00,0xc0,0x1f,0x00,0x00,0x00,0x40,0x00,
 0x00,0xfe,0x00,0x00,0x00,0x00,0x00,0x00,0x07,0x0e,0x00,0x00,0x00,0x00,0x00,
 0x03,0x00,0x80,0x03,0x00,0x70,0x00,0x00,0x40,0x00,0x40,0x16,0x00,0x40,0xf0,
 0x43,0x00,0x00,0xb2,0x00,0x00,0x70,0x00,0x00,0x07,0x07,0x0e,0x00,0x00,0xde,
 0x7b,0x00,0x02,0x00,0x80,0x03,0x00,0x7c,0x00,0x00,0x20,0xef,0x7d,0x16,0xef,
 0xbd,0x00,0x40,0x78,0xef,0xb3,0x00,0x00,0x70,0x00,0xc0,0x07,0x01,0x0c,0x00,
 0x00,0x86,0x31,0x00,0x02,0x00,0x80,0x00,0x00,0x6c,0x00,0x00,0x30,0xc3,0x18,
 0x03,0xc3,0x98,0x01,0xe0,0x19,0xc6,0x18,0x00,0x00,0x10,0x00,0xc0,0x06,0x01,
 0x0c,0x00,0x00,0xc4,0x11,0x3f,0x02,0x00,0x80,0x00,0x00,0x6c,0x00,0x00,0x10,
 0xe2,0x08,0x03,0xe2,0x08,0x01,0x00,0x10,0x47,0x18,0x00,0x00,0x10,0x00,0xc0,
 0x06,0x01,0x0c,0x00,0x00,0xc4,0x09,0x00,0x02,0x84,0x81,0x00,0x00,0x6c,0x00,
 0x00,0x18,0xe2,0x04,0x03,0xe2,0x04,0x03,0x00,0x10,0x27,0x18,0x80,0x30,0x10,
 0x00,0xc0,0x06,0xe1,0x0c,0xfc,0x07,0xe4,0x09,0x00,0x0f,0xcc,0x80,0xb8,0x8d,
 0x67,0xf0,0x1f,0x18,0xf2,0xc4,0x07,0xf2,0x04,0x03,0x00,0x90,0x27,0x3e,0x80,
 0x19,0x10,0xb7,0x79,0x06,0xb1,0x0d,0xfe,0x07,0xa4,0x05,0x00,0x00,0x78,0x80,
 0xbc,0xcd,0x66,0xf8,0x1f,0x18,0xd2,0x02,0x00,0xd2,0x02,0x03,0x00,0x90,0x16,
 0x00,0x00,0x0f,0x90,0xb7,0x6d,0x06,0xf9,0x0c,0x00,0x00,0x9c,0x07,0x00,0x00,
 0x30,0x80,0x98,0x6d,0x66,0x00,0x00,0x18,0xce,0x03,0x00,0xce,0x03,0x03,0x00,
 0x70,0x1e,0x00,0x00,0x06,0x10,0xb3,0x67,0x06,0x19,0x0c,0x00,0x00,0x9c,0x03,
 0x00,0x00,0x78,0x80,0x98,0x64,0x66,0x00,0x00,0x18,0xce,0x01,0x00,0xce,0x01,
 0x03,0x00,0x70,0x0e,0x00,0x00,0x0f,0x10,0x93,0x66,0x06,0x99,0x0d,0xfe,0x07,
 0x8c,0x03,0x00,0x00,0xcc,0x80,0xd8,0x64,0x6a,0xf8,0x1f,0x18,0xc6,0x01,0x00,
 0xc6,0x01,0x03,0x00,0x30,0x0e,0x00,0x80,0x19,0x10,0x9b,0xa6,0x06,0xf1,0x0c,
 0x00,0x00,0x8c,0x01,0x00,0x00,0x84,0x81,0xf8,0xc3,0x6f,0x00,0x00,0x18,0xc6,
 0x00,0x00,0xc6,0x00,0x03,0x00,0x30,0x06,0x00,0x80,0x30,0x10,0x7f,0xfc,0x06,
 0x01,0x0c,0x00,0x00,0x84,0x01,0x00,0x00,0x00,0x80,0x00,0x00,0x60,0x00,0x00,
 0x10,0xc2,0x00,0x00,0xc2,0x00,0x01,0x00,0x10,0x06,0x00,0x00,0x00,0x10,0x00,
 0x00,0x06,0x01,0x0c,0x00,0x00,0x00,0x00,0x00,0x00,0x00,0x80,0x00,0x00,0x60,
 0x00,0x00,0x30,0x00,0x00,0x00,0x00,0x80,0x01,0x00,0x00,0x00,0x00,0x00,0x00,
 0x10,0x00,0x00,0x06,0x07,0x0e,0x00,0x00,0x00,0x00,0x00,0x00,0x00,0x80,0x03,
 0x00,0x70,0x00,0x00,0x30,0x00,0x00,0x00,0x00,0x80,0x01,0x00,0x00,0x00,0x00,
 0x00,0x00,0x70,0x00,0x00,0x07,0x07,0x0e,0x00,0x00,0x00,0x00,0x00,0x00,0x00,
 0x80,0x03,0x00,0x70,0x00,0x00,0x60,0x00,0x00,0x00,0x00,0xc0,0x00,0x00,0x00,
 0x00,0x00,0x00,0x00,0x70,0x00,0x00,0x07};
