#define noname_width 35
#define noname_height 10
static char noname_bits[] = {
 0x38,0x0f,0x00,0x00,0x01,0x30,0x06,0x00,0xc0,0x01,0x38,0x02,0x00,0x00,0x01,
 0x68,0x02,0x00,0x00,0x01,0x68,0x02,0x00,0x00,0x01,0xc8,0x03,0x00,0x00,0x01,
 0xcc,0x01,0xfe,0x03,0x01,0xc4,0x01,0x00,0x00,0x01,0x84,0x01,0x00,0x00,0x01,
 0x8f,0x01,0x00,0xc0,0x07};
