#define noname_width 2
#define noname_height 13
static char noname_bits[] = {
 0x03,0x03,0x00,0x00,0x00,0x00,0x03,0x03,0x00,0x00,0x00,0x03,0x03};
