#define noname_width 12
#define noname_height 15
static char noname_bits[] = {
 0x07,0x0e,0x07,0x0e,0x01,0x0c,0x01,0x0c,0x01,0x0c,0xe1,0x0c,0xb1,0x0d,0xf9,
 0x0c,0x19,0x0c,0x99,0x0d,0xf1,0x0c,0x01,0x0c,0x01,0x0c,0x07,0x0e,0x07,0x0e};
