#define noname_width 14
#define noname_height 11
static char noname_bits[] = {
 0xef,0x3d,0xc3,0x18,0xe2,0x08,0xe2,0x04,0xf2,0x04,0xd2,0x02,0xce,0x03,0xce,
 0x01,0xc6,0x01,0xc6,0x00,0xc2,0x00};
