#define noname_width 19
#define noname_height 10
static char noname_bits[] = {
 0x0c,0x9c,0x07,0x36,0x18,0x03,0x37,0x1c,0x01,0x27,0x34,0x01,0x30,0x34,0x01,
 0x30,0xe4,0x01,0x18,0xe6,0x00,0x2c,0xe2,0x00,0x26,0xc2,0x00,0xbf,0xc7,0x00};
