#define noname_width 24
#define noname_height 10
static char noname_bits[] = {
 0x20,0x00,0x00,0x20,0x00,0x00,0x20,0x00,0x00,0x20,0xf0,0x79,0xff,0x93,0x8f,
 0x20,0x08,0x87,0x20,0x08,0x86,0x20,0x10,0x8f,0xff,0xf3,0x79,0xff,0x03,0x00};
