#define noname_width 24
#define noname_height 15
static char noname_bits[] = {
 0x07,0x00,0xe0,0x07,0x00,0xec,0x01,0x00,0xcc,0x01,0x00,0xcc,0x01,0x00,0xcc,
 0x71,0x9b,0xc7,0x79,0xdb,0xc6,0x31,0x7b,0xc6,0x31,0x69,0xc6,0xb1,0x69,0xca,
 0xf1,0xc7,0xcf,0x01,0x00,0xc0,0x01,0x00,0xc0,0x07,0x00,0xe0,0x07,0x00,0xe0};
