#define noname_width 15
#define noname_height 14
static char noname_bits[] = {
 0xf0,0x07,0x38,0x0e,0x0c,0x18,0x1e,0x3c,0x36,0x36,0x63,0x63,0xc3,0x61,0xc3,
 0x61,0x63,0x63,0x36,0x36,0x1e,0x3c,0x0c,0x18,0x38,0x0e,0xf0,0x07};
