#define noname_width 73
#define noname_height 15
static char noname_bits[] = {
 0x00,0x00,0x02,0x00,0x00,0x00,0x40,0x00,0x02,0x00,0x38,0x0f,0xe1,0x3c,0x00,
 0x00,0x84,0x00,0x62,0x00,0x30,0x86,0xc1,0x18,0x00,0x00,0x87,0x01,0xb3,0x01,
 0x38,0x82,0xe0,0x08,0x00,0x00,0x04,0x01,0xbb,0x01,0x68,0xc2,0xa0,0x09,0x00,
 0x00,0x04,0x03,0x39,0x01,0x68,0xc2,0xa0,0x09,0x00,0x00,0x04,0x83,0x81,0x01,
 0xc8,0xc3,0x20,0x0f,0x00,0x00,0x04,0x83,0x80,0x01,0xcc,0xc1,0x30,0x07,0xf8,
 0x0f,0x04,0x83,0xc0,0x00,0xc4,0xc1,0x10,0x07,0x00,0x00,0x04,0xc3,0x60,0x01,
 0x84,0xc1,0x10,0x06,0x00,0x00,0x04,0x43,0x30,0x01,0x8f,0xc1,0x3c,0x06,0x00,
 0x00,0x1f,0x63,0xf8,0x01,0x00,0x80,0x00,0x00,0x00,0x00,0x00,0x61,0x00,0x00,
 0x00,0x80,0x01,0x00,0x00,0x00,0x80,0x21,0x00,0x00,0x00,0x80,0x01,0x00,0x00,
 0x00,0x80,0x31,0x00,0x00,0x00,0x00,0x03,0x00,0x00,0x00,0xc0,0x30,0x00,0x00};
