#define noname_width 308
#define noname_height 119
static char noname_bits[] = {
 0xff,0xff,0xff,0xff,0xff,0xff,0xff,0xff,0xff,0xff,0xff,0xff,0xff,0xff,0xff,
 0xff,0xff,0xff,0xff,0xff,0xff,0xff,0xff,0xff,0xff,0xff,0xff,0xff,0xff,0xff,
 0xff,0xff,0xff,0xff,0xff,0xff,0xff,0xff,0x0f,0x01,0x00,0x00,0x00,0x04,0x00,
 0x00,0x00,0x00,0x00,0x00,0x00,0x00,0x00,0x02,0x00,0x00,0x00,0x00,0x08,0x00,
 0x00,0x00,0x00,0x00,0x00,0x00,0x00,0x08,0x00,0x00,0x00,0x00,0x00,0x00,0x00,
 0x00,0x00,0x08,0x01,0x00,0x00,0x00,0x04,0x00,0x00,0x00,0x00,0x00,0x00,0x00,
 0x00,0x00,0x02,0x00,0x00,0x00,0x00,0x08,0x00,0x00,0x00,0x00,0x00,0x00,0x00,
 0x00,0x08,0x00,0x00,0x00,0x00,0x00,0x00,0x00,0x00,0x00,0x08,0x01,0x80,0x01,
 0x00,0x04,0x00,0x00,0xff,0x00,0x00,0x00,0x00,0x00,0x00,0x02,0xfc,0x07,0x00,
 0x00,0x08,0x78,0x78,0x00,0x00,0xf8,0xf3,0x9e,0x03,0x08,0xf0,0x03,0x00,0x80,
 0x01,0x03,0x30,0x00,0x00,0x08,0x01,0x00,0x03,0x00,0x04,0x00,0x00,0xcc,0x00,
 0x00,0x00,0x00,0x00,0x00,0x02,0x6c,0x06,0x00,0x00,0x08,0x60,0x38,0x00,0x00,
 0x30,0x66,0x8c,0x01,0x08,0x10,0x03,0x00,0x80,0x11,0x03,0x30,0x02,0x00,0x08,
 0x01,0x00,0x03,0x00,0x04,0x00,0x00,0x8c,0x00,0x00,0x00,0x00,0x00,0x00,0x02,
 0x66,0x04,0x00,0x00,0x08,0xe0,0x38,0x00,0x00,0x30,0xec,0x9c,0x01,0x08,0x18,
 0x03,0x00,0x00,0x18,0x00,0x00,0x03,0x00,0x08,0x01,0x00,0x03,0x00,0x04,0x00,
 0x00,0xac,0x00,0x00,0x00,0x00,0x00,0x00,0x02,0x62,0x04,0x00,0x00,0x08,0xe0,
 0x3c,0x00,0x00,0x30,0xcc,0x9c,0x00,0x08,0x38,0x02,0x00,0x00,0x18,0x00,0x00,
 0x03,0x00,0x08,0x01,0x00,0x06,0x00,0x04,0x00,0x00,0x2c,0x9f,0xe7,0xbb,0x01,
 0x00,0x00,0x02,0x20,0x00,0x00,0x00,0x08,0xe0,0x34,0x9e,0x3b,0x30,0xc7,0x9c,
 0x00,0x08,0xf0,0xf0,0x7e,0xfe,0xbd,0xbb,0xbb,0x77,0x07,0x08,0x01,0x00,0x06,
 0x00,0x04,0x00,0x00,0x3c,0xde,0x3c,0x33,0x01,0x00,0x00,0x02,0x30,0x00,0x00,
 0x00,0x08,0xe0,0x35,0x36,0x0f,0xf0,0xc7,0xff,0x00,0x08,0xf0,0x9b,0x4d,0xa6,
 0x19,0x33,0x31,0x63,0x02,0x08,0x01,0x00,0x07,0x00,0x04,0x00,0x00,0x2c,0xc6,
 0x3f,0x32,0x01,0x00,0x00,0x02,0x30,0x00,0x00,0x00,0x08,0xa0,0x37,0x3c,0x0e,
 0x30,0x8c,0x73,0x00,0x08,0x80,0xfb,0x4d,0x9e,0x19,0xb3,0x31,0x63,0x03,0x08,
 0x01,0x80,0x0d,0x00,0x04,0x00,0x00,0x0c,0xc6,0x30,0x32,0x01,0x00,0x00,0x02,
 0x30,0x18,0x89,0x01,0x08,0xa0,0x33,0x36,0x0e,0x30,0x8c,0x73,0x00,0x08,0x08,
 0x1b,0x4c,0xbe,0x59,0xe3,0x30,0xcb,0x01,0x08,0x01,0xc0,0x0c,0x00,0x04,0x00,
 0x00,0x0c,0xc6,0x38,0xb3,0x01,0x00,0x00,0x02,0x10,0x9c,0xcb,0x01,0x08,0x20,
 0x33,0x73,0x1b,0x30,0x8c,0x73,0x00,0x08,0x18,0x1b,0x4d,0xa2,0x59,0xe3,0x30,
 0xcb,0x01,0x08,0x01,0x60,0x1c,0x00,0x04,0x00,0x00,0x1f,0x8f,0xe7,0xf3,0x03,
 0x00,0x00,0x02,0x7e,0x9c,0xc9,0x01,0x08,0x78,0x7d,0xfe,0x3b,0xf8,0x07,0x21,
 0x00,0x08,0xb8,0xf1,0xfe,0xfe,0xfb,0x47,0x78,0x8f,0x00,0x08,0x01,0x00,0x00,
 0x00,0x04,0x00,0x00,0x00,0x00,0x00,0x02,0x00,0x00,0x00,0x02,0x00,0x1e,0xed,
 0x01,0x08,0x00,0x00,0x00,0x00,0x00,0x00,0x21,0x00,0x08,0xe8,0x00,0x00,0x00,
 0x00,0x00,0x00,0x80,0x00,0x08,0x01,0x00,0x00,0x00,0x04,0x00,0x00,0x00,0x00,
 0x00,0x02,0x00,0x00,0x00,0x02,0x00,0x1e,0xef,0x01,0x08,0x00,0x00,0x00,0x00,
 0x00,0x00,0x00,0x00,0x08,0x00,0x00,0x00,0x00,0x00,0x00,0x00,0xf0,0x00,0x08,
 0x01,0x00,0x00,0x00,0x04,0x00,0x00,0x00,0x00,0x00,0x07,0x00,0x00,0x00,0x02,
 0x00,0x80,0x05,0x00,0x08,0x00,0x00,0x00,0x00,0x00,0x00,0x00,0x00,0x08,0x00,
 0x00,0x00,0x00,0x00,0x00,0x00,0x70,0x00,0x08,0x01,0x00,0x00,0x00,0x04,0x00,
 0x00,0x00,0x00,0x00,0x00,0x00,0x00,0x00,0x02,0x00,0x80,0x07,0x00,0x08,0x00,
 0x00,0x00,0x00,0x00,0x00,0x00,0x00,0x08,0x00,0x00,0x00,0x00,0x00,0x00,0x00,
 0x00,0x00,0x08,0x01,0x00,0x00,0x00,0x04,0x00,0x00,0x00,0x00,0x00,0x00,0x00,
 0x00,0x00,0x02,0x00,0x00,0x00,0x00,0x08,0x00,0x00,0x00,0x00,0x00,0x00,0x00,
 0x00,0x08,0x00,0x00,0x00,0x00,0x00,0x00,0x00,0x00,0x00,0x08,0x01,0x00,0x00,
 0x00,0x04,0x00,0x00,0x00,0x00,0x00,0x00,0x00,0x00,0x00,0x02,0x00,0x00,0x00,
 0x00,0x08,0x00,0x00,0x00,0x00,0x00,0x00,0x00,0x00,0x08,0x00,0x00,0x00,0x00,
 0x00,0x00,0x00,0x00,0x00,0x08,0x01,0x00,0x00,0x00,0x04,0x00,0x00,0x78,0x78,
 0xff,0x03,0x00,0x00,0x00,0x02,0x00,0xbe,0x07,0x00,0x08,0x00,0x00,0x0f,0xef,
 0x7f,0x00,0x00,0x00,0x08,0x00,0x00,0x00,0x00,0xf0,0x00,0x00,0x00,0x00,0x08,
 0x01,0x00,0x00,0x00,0x04,0x00,0x00,0x60,0x38,0x86,0x01,0x00,0x00,0x00,0x02,
 0x00,0x0c,0x03,0x00,0x08,0x00,0x00,0x0c,0xc7,0x30,0x00,0x00,0x00,0x08,0x00,
 0x00,0x00,0x00,0x60,0x00,0x00,0x00,0x00,0x08,0x01,0x00,0x00,0x00,0x04,0x00,
 0x00,0xe0,0x38,0x86,0x01,0x00,0x00,0x00,0x02,0x00,0x8c,0x01,0x00,0x08,0x00,
 0x00,0x1c,0xc7,0x30,0x00,0x00,0x00,0x08,0x00,0x00,0x00,0x00,0x60,0x00,0x00,
 0x00,0x00,0x08,0x01,0x00,0x00,0x00,0x04,0x00,0x00,0xe0,0x3c,0x86,0x01,0x00,
 0x00,0x00,0x02,0x00,0xcc,0x00,0x00,0x08,0x00,0x00,0x9c,0xc7,0x30,0x00,0x00,
 0x00,0x08,0x00,0x00,0x00,0x00,0x60,0x00,0x00,0x00,0x00,0x08,0x01,0xfe,0xff,
 0x00,0x04,0x00,0x00,0xe0,0x34,0x86,0x7d,0x00,0x00,0x00,0x02,0x00,0x6c,0x00,
 0x00,0x08,0x00,0x00,0x9c,0xc6,0xb0,0x0f,0x00,0x00,0x08,0x00,0x00,0xc0,0xff,
 0x60,0xee,0x00,0x00,0x00,0x08,0x01,0xb3,0x99,0x01,0x04,0x00,0x00,0xe0,0x35,
 0xfe,0x65,0x00,0x00,0x00,0x02,0x00,0xfc,0x00,0x00,0x08,0x00,0x00,0xbc,0xc6,
 0xbf,0x0c,0x00,0x00,0x08,0x00,0x00,0x80,0x99,0x61,0x4c,0x00,0x00,0x00,0x08,
 0x01,0x83,0x99,0x01,0x04,0x00,0x00,0xa0,0x37,0x86,0x35,0x00,0x00,0x00,0x02,
 0x00,0xdc,0x00,0x00,0x08,0x00,0x00,0xf4,0xc6,0xb0,0x06,0x00,0x00,0x08,0x00,
 0x00,0x80,0x99,0x61,0x6c,0x00,0x00,0x00,0x08,0x01,0x83,0x99,0x01,0x04,0x00,
 0x00,0xa0,0x33,0x86,0x59,0x00,0x00,0x00,0x02,0x00,0x8c,0x01,0x00,0x08,0x00,
 0x00,0x74,0xc6,0x30,0x0b,0x00,0x00,0x08,0x00,0x00,0x80,0x99,0x6d,0x38,0x00,
 0x00,0x00,0x08,0x01,0xa3,0x99,0x01,0x04,0x00,0x00,0x20,0x33,0x86,0x59,0x00,
 0x00,0x00,0x02,0x00,0x8c,0x03,0x00,0x08,0x00,0x00,0x64,0xc6,0x30,0x0b,0x00,
 0x00,0x08,0x00,0x00,0x80,0x99,0x6d,0x38,0x00,0x00,0x00,0x08,0x01,0xde,0xff,
 0x03,0x04,0x00,0x00,0x78,0x7d,0xff,0x7f,0x00,0x00,0x00,0x02,0x00,0xbe,0x07,
 0x00,0x08,0x00,0x00,0xaf,0xef,0xff,0x0f,0x00,0x00,0x08,0x00,0x00,0xc0,0xff,
 0x6f,0x10,0x00,0x00,0x00,0x08,0x01,0x00,0x00,0x00,0x04,0x00,0x00,0x00,0x00,
 0x00,0x00,0x00,0x00,0x00,0x02,0x00,0x00,0x00,0x00,0x08,0x00,0x00,0x00,0x00,
 0x00,0x00,0x00,0x00,0x08,0x00,0x00,0x00,0x00,0x38,0x10,0x00,0x00,0x00,0x08,
 0x01,0x00,0x00,0x00,0x04,0x00,0x00,0x00,0x00,0x00,0x00,0x00,0x00,0x00,0x02,
 0x00,0x00,0x00,0x00,0x08,0x00,0x00,0x00,0x00,0x00,0x00,0x00,0x00,0x08,0x00,
 0x00,0x00,0x00,0x00,0x1e,0x00,0x00,0x00,0x08,0x01,0x00,0x00,0x00,0x04,0x00,
 0x00,0x00,0x00,0x00,0x00,0x00,0x00,0x00,0x02,0x00,0x00,0x00,0x00,0x08,0x00,
 0x00,0x00,0x00,0x00,0x00,0x00,0x00,0x08,0x00,0x00,0x00,0x00,0x00,0x0e,0x00,
 0x00,0x00,0x08,0x01,0x00,0x00,0x00,0x04,0x00,0x00,0x00,0x00,0x00,0x00,0x00,
 0x00,0x00,0x02,0x00,0x00,0x00,0x00,0x08,0x00,0x00,0x00,0x00,0x00,0x00,0x00,
 0x00,0x08,0x00,0x00,0x00,0x00,0x00,0x00,0x00,0x00,0x00,0x08,0x01,0x00,0x00,
 0x00,0x04,0x00,0x00,0x00,0x00,0x00,0x00,0x00,0x00,0x00,0x02,0x00,0x00,0x00,
 0x00,0x08,0x00,0x00,0x00,0x00,0x00,0x00,0x00,0x00,0x08,0x00,0x00,0x00,0x00,
 0x00,0x00,0x00,0x00,0x00,0x08,0xff,0xff,0xff,0xff,0xff,0xff,0xff,0xff,0xff,
 0xff,0xff,0xff,0xff,0xff,0xff,0xff,0xff,0xff,0xff,0xff,0xff,0xff,0xff,0xff,
 0xff,0xff,0xff,0xff,0xff,0xff,0xff,0xff,0xff,0xff,0xff,0xff,0xff,0xff,0x0f,
 0x01,0x00,0x00,0x00,0x04,0x00,0x00,0x00,0x00,0x00,0x00,0x00,0x00,0x00,0x02,
 0x00,0x00,0x00,0x00,0x08,0x00,0x00,0x00,0x00,0x00,0x00,0x00,0x00,0x08,0x00,
 0x00,0x00,0x00,0x00,0x00,0x00,0x00,0x00,0x08,0x01,0x00,0x00,0x00,0x04,0x00,
 0x00,0x00,0x00,0x00,0x00,0x00,0x00,0x00,0x02,0x00,0x00,0x00,0x00,0x08,0x00,
 0x00,0x00,0x00,0x00,0x00,0x00,0x00,0x08,0x00,0x00,0x00,0x00,0x00,0x00,0x00,
 0x00,0x00,0x08,0x01,0x30,0x18,0x00,0x04,0x00,0x38,0x0c,0x06,0x80,0xc3,0x61,
 0x00,0x00,0x02,0x80,0xe0,0x30,0x00,0x08,0x00,0x00,0x00,0x90,0x01,0x00,0x00,
 0x00,0x08,0x00,0x00,0x00,0x30,0x40,0x06,0x00,0x00,0x00,0x08,0x01,0xd8,0x6c,
 0x00,0x04,0x00,0x6c,0x36,0x1b,0xc0,0x66,0xb3,0x01,0x00,0x02,0xe0,0xb0,0xd9,
 0x00,0x08,0x00,0x00,0x00,0xf0,0x00,0x00,0x00,0x00,0x08,0x00,0x00,0x00,0xd8,
 0xc0,0x03,0x00,0x00,0x00,0x08,0x01,0xcc,0x6e,0x00,0x04,0x00,0x6c,0x37,0x19,
 0xc0,0x66,0x93,0x01,0x00,0x02,0x80,0xb0,0xc9,0x00,0x08,0x00,0x00,0x00,0x10,
 0x00,0x00,0x00,0x00,0x08,0x00,0x00,0x00,0xc8,0x40,0x00,0x00,0x00,0x00,0x08,
 0x01,0x8c,0x4e,0x00,0x04,0x00,0x6c,0xa7,0x11,0xc0,0x66,0x1b,0x01,0x00,0x02,
 0x80,0xb0,0x8d,0x00,0x08,0x00,0x00,0x00,0x10,0x00,0x00,0x00,0x00,0x08,0x00,
 0x00,0x00,0x8c,0x40,0x00,0x00,0x00,0x00,0x08,0x01,0x8c,0x60,0x00,0x04,0x00,
 0x30,0xb0,0x11,0x00,0x83,0x19,0x01,0x00,0x02,0x80,0xc0,0x8c,0x00,0x08,0x00,
 0x00,0x00,0xf0,0x00,0x00,0x00,0x00,0x08,0x00,0x00,0x00,0x8c,0xc0,0x03,0x00,
 0x00,0x00,0x08,0x01,0xc8,0x60,0x00,0x04,0x00,0x78,0xb0,0x11,0x80,0xc7,0x1b,
 0x01,0x00,0x02,0x80,0xe0,0x8d,0x00,0x08,0x00,0x00,0x00,0x90,0x01,0x00,0x00,
 0x00,0x08,0x00,0x00,0x00,0x8c,0x40,0x06,0x00,0x00,0x00,0x08,0x01,0xf8,0x30,
 0x00,0x04,0x00,0x60,0x98,0xd1,0x1f,0x06,0x1b,0x01,0x00,0x02,0x80,0x80,0x8d,
 0x00,0x08,0x00,0x00,0x00,0x80,0x01,0x00,0x00,0x00,0x08,0x00,0x00,0x00,0x8c,
 0x00,0x06,0x00,0x00,0x00,0x08,0x01,0xc0,0x58,0x00,0x04,0x00,0x6e,0xac,0x11,
 0xe0,0x76,0x1b,0x01,0x00,0x02,0x80,0xb8,0x8d,0x00,0x08,0x00,0x00,0x00,0x98,
 0x01,0x00,0x00,0x00,0x08,0x00,0x00,0x00,0x8c,0x60,0x06,0x00,0x00,0x00,0x08,
 0x01,0xd8,0x4c,0x00,0x04,0x00,0x6e,0x26,0x19,0xe0,0x76,0x93,0x01,0x00,0x02,
 0x80,0xb8,0xc9,0x00,0x08,0x00,0x00,0x00,0x98,0x01,0x00,0x00,0x00,0x08,0x00,
 0x00,0x00,0xc8,0x6c,0x06,0x00,0x00,0x00,0x08,0x01,0x68,0x7e,0x00,0x04,0x00,
 0x6c,0x3f,0x1b,0xc0,0x66,0xb3,0x01,0x00,0x02,0xe0,0xb3,0xd9,0x00,0x08,0x00,
 0x00,0x00,0xf0,0x01,0x00,0x00,0x00,0x08,0x00,0x00,0x00,0xd8,0xcc,0x07,0x00,
 0x00,0x00,0x08,0x01,0x30,0x00,0x00,0x04,0x00,0x18,0x00,0x0e,0x80,0xc1,0xe0,
 0x00,0x00,0x02,0x00,0x60,0x70,0x00,0x08,0x00,0x00,0x00,0x60,0x00,0x00,0x00,
 0x00,0x08,0x00,0x00,0x00,0x70,0x80,0x01,0x00,0x00,0x00,0x08,0x01,0x00,0x00,
 0x00,0x04,0x00,0x00,0x00,0x00,0x00,0x00,0x00,0x00,0x00,0x02,0x00,0x00,0x00,
 0x00,0x08,0x00,0x00,0x00,0x00,0x00,0x00,0x00,0x00,0x08,0x00,0x00,0x00,0x00,
 0x00,0x00,0x00,0x00,0x00,0x08,0x01,0x00,0x00,0x00,0x04,0x00,0x00,0x00,0x00,
 0x00,0x00,0x00,0x00,0x00,0x02,0x00,0x00,0x00,0x00,0x08,0x00,0x00,0x00,0x00,
 0x00,0x00,0x00,0x00,0x08,0x00,0x00,0x00,0x00,0x00,0x00,0x00,0x00,0x00,0x08,
 0x01,0x00,0x00,0x00,0x04,0x00,0x00,0x00,0x00,0x00,0x00,0x00,0x00,0x00,0x02,
 0x00,0x00,0x00,0x00,0x08,0x00,0x00,0x00,0x00,0x00,0x00,0x00,0x00,0x08,0x00,
 0x00,0x00,0x00,0x00,0x00,0x00,0x00,0x00,0x08,0x01,0x00,0x00,0x00,0x04,0x00,
 0x00,0x00,0x00,0x00,0x00,0x00,0x00,0x00,0x02,0x00,0x00,0x00,0x00,0x08,0x00,
 0x00,0x00,0x00,0x00,0x00,0x00,0x00,0x08,0x00,0x00,0x00,0x00,0x00,0x00,0x00,
 0x00,0x00,0x08,0x01,0x00,0x00,0x00,0x04,0x00,0x00,0x00,0x00,0x00,0x00,0x00,
 0x00,0x00,0x02,0x00,0x00,0x00,0x00,0x08,0x00,0x00,0x00,0x00,0x00,0x00,0x00,
 0x00,0x08,0x00,0x00,0x00,0x00,0x00,0x00,0x00,0x00,0x00,0x08,0x01,0x40,0x18,
 0x00,0x04,0x00,0x30,0x0c,0x01,0x00,0x83,0x60,0x00,0x00,0x02,0x80,0x40,0x30,
 0x00,0x08,0x00,0x00,0x00,0x03,0x64,0x00,0x00,0x00,0x08,0x00,0x00,0x00,0x30,
 0x00,0x03,0x00,0x00,0x00,0x08,0x01,0x60,0x6c,0x00,0x04,0x00,0x78,0x36,0x3f,
 0x80,0xe7,0xb0,0x01,0x00,0x02,0xe0,0x70,0xd8,0x00,0x08,0x00,0x00,0x80,0x0d,
 0x3c,0x00,0x00,0x00,0x08,0x00,0x00,0x00,0xd8,0x80,0x07,0x00,0x00,0x00,0x08,
 0x01,0x60,0x66,0x00,0x04,0x00,0x6c,0xb2,0x11,0xc0,0x86,0x90,0x01,0x00,0x02,
 0x80,0x40,0xc8,0x00,0x08,0x00,0x00,0xc0,0x0d,0x04,0x00,0x00,0x00,0x08,0x00,
 0x00,0x00,0xc8,0xc0,0x06,0x00,0x00,0x00,0x08,0x01,0x70,0x46,0x00,0x04,0x00,
 0x04,0xa3,0x08,0x40,0x80,0x18,0x01,0x00,0x02,0x80,0x40,0x8c,0x00,0x08,0x00,
 0x00,0xc0,0x09,0x04,0x00,0x00,0x00,0x08,0x00,0x00,0x00,0x8c,0x40,0x00,0x00,
 0x00,0x00,0x08,0x01,0x58,0x46,0x00,0x04,0x00,0x3e,0x23,0x0c,0xe0,0x83,0x18,
 0x01,0x00,0x02,0x80,0x40,0x8c,0x00,0x08,0x00,0x00,0x00,0x0c,0x3c,0x00,0x00,
 0x00,0x08,0x00,0x00,0x00,0x8c,0xe0,0x03,0x00,0x00,0x00,0x08,0x01,0x48,0x64,
 0x00,0x04,0x00,0x66,0x23,0x04,0x60,0x86,0x18,0x01,0x00,0x02,0x80,0x40,0x8c,
 0x00,0x08,0x00,0x00,0x00,0x0c,0x64,0x00,0x00,0x00,0x08,0x00,0x00,0x00,0x8c,
 0x60,0x06,0x00,0x00,0x00,0x08,0x01,0x4c,0x7c,0x00,0x04,0x00,0x46,0x23,0xc6,
 0x7f,0x84,0x18,0x01,0x00,0x02,0x80,0x40,0x8c,0x00,0x08,0x00,0x00,0x00,0x06,
 0x60,0x00,0x00,0x00,0x08,0x00,0x00,0x00,0x8c,0x60,0x04,0x00,0x00,0x00,0x08,
 0x01,0xfc,0x61,0x00,0x04,0x00,0x46,0x23,0x06,0x60,0x84,0x18,0x01,0x00,0x02,
 0x80,0x40,0x8c,0x00,0x08,0x00,0x00,0x00,0x0b,0x66,0x00,0x00,0x00,0x08,0x00,
 0x00,0x00,0x8c,0x60,0x04,0x00,0x00,0x00,0x08,0x01,0x40,0x6c,0x00,0x04,0x00,
 0x64,0x32,0x06,0x40,0x86,0x90,0x01,0x00,0x02,0x80,0x40,0xc8,0x00,0x08,0x00,
 0x00,0x80,0xc9,0x66,0x00,0x00,0x00,0x08,0x00,0x00,0x00,0xc8,0x4c,0x06,0x00,
 0x00,0x00,0x08,0x01,0xf0,0x35,0x00,0x04,0x00,0x6c,0x36,0x06,0xc0,0xe6,0xb3,
 0x01,0x00,0x02,0xe0,0xf3,0xd9,0x00,0x08,0x00,0x00,0xc0,0xcf,0x7c,0x00,0x00,
 0x00,0x08,0x00,0x00,0x00,0xd8,0xcc,0x06,0x00,0x00,0x00,0x08,0x01,0x00,0x18,
 0x00,0x04,0x00,0x38,0x1c,0x06,0x80,0x03,0xe0,0x00,0x00,0x02,0x00,0x00,0x70,
 0x00,0x08,0x00,0x00,0x00,0x00,0x18,0x00,0x00,0x00,0x08,0x00,0x00,0x00,0x70,
 0x80,0x03,0x00,0x00,0x00,0x08,0x01,0x00,0x00,0x00,0x04,0x00,0x00,0x00,0x00,
 0x00,0x00,0x00,0x00,0x00,0x02,0x00,0x00,0x00,0x00,0x08,0x00,0x00,0x00,0x00,
 0x00,0x00,0x00,0x00,0x08,0x00,0x00,0x00,0x00,0x00,0x00,0x00,0x00,0x00,0x08,
 0x01,0x00,0x00,0x00,0x04,0x00,0x00,0x00,0x00,0x00,0x00,0x00,0x00,0x00,0x02,
 0x00,0x00,0x00,0x00,0x08,0x00,0x00,0x00,0x00,0x00,0x00,0x00,0x00,0x08,0x00,
 0x00,0x00,0x00,0x00,0x00,0x00,0x00,0x00,0x08,0x01,0x00,0x00,0x00,0x04,0x00,
 0x00,0x00,0x00,0x00,0x00,0x00,0x00,0x00,0x02,0x00,0x00,0x00,0x00,0x08,0x00,
 0x00,0x00,0x00,0x00,0x00,0x00,0x00,0x08,0x00,0x00,0x00,0x00,0x00,0x00,0x00,
 0x00,0x00,0x08,0x01,0x00,0x00,0x00,0x04,0x00,0x00,0x00,0x00,0x00,0x00,0x00,
 0x00,0x00,0x02,0x00,0x00,0x00,0x00,0x08,0x00,0x00,0x00,0x00,0x00,0x00,0x00,
 0x00,0x08,0x00,0x00,0x00,0x00,0x00,0x00,0x00,0x00,0x00,0x08,0x01,0x00,0x00,
 0x00,0x04,0x00,0x00,0x00,0x00,0x00,0x00,0x00,0x00,0x00,0x02,0x00,0x00,0x00,
 0x00,0x08,0x00,0x00,0x00,0x00,0x00,0x00,0x00,0x00,0x08,0x00,0x00,0x00,0x00,
 0x00,0x00,0x00,0x00,0x00,0x08,0x01,0x00,0x00,0x00,0x04,0x00,0x00,0x00,0x00,
 0x00,0x00,0x00,0x00,0x00,0x02,0x00,0x00,0x00,0x00,0x08,0x00,0x00,0x00,0x00,
 0x00,0x00,0x00,0x00,0x08,0x00,0x00,0x00,0x00,0x00,0x00,0x00,0x00,0x00,0x08,
 0x01,0x30,0x10,0x00,0x04,0x40,0x70,0x30,0x32,0x00,0x01,0x61,0xc8,0x00,0x02,
 0x00,0x0c,0x03,0x00,0x08,0x00,0x00,0x00,0x18,0x06,0x00,0x00,0x00,0x08,0x00,
 0x00,0x00,0x06,0x30,0x30,0x00,0x00,0x00,0x08,0x01,0xd8,0x1c,0x00,0x04,0x70,
 0xd8,0x78,0x1e,0xc0,0x81,0xb1,0x79,0x00,0x02,0x00,0x9e,0x0d,0x00,0x08,0x00,
 0x00,0x00,0x3c,0x1b,0x00,0x00,0x00,0x08,0x00,0x00,0x00,0x1b,0xd8,0x78,0x00,
 0x00,0x00,0x08,0x01,0xdc,0x10,0x00,0x04,0x40,0xd8,0x6c,0x02,0x00,0x81,0xb9,
 0x09,0x00,0x02,0x00,0x9b,0x0c,0x00,0x08,0x00,0x00,0x00,0x36,0x19,0x00,0x00,
 0x00,0x08,0x00,0x00,0x00,0x19,0xc8,0x6c,0x00,0x00,0x00,0x08,0x01,0x9c,0x10,
 0x00,0x04,0x40,0xd8,0x04,0x02,0x00,0xc1,0x39,0x09,0x00,0x02,0x00,0xc1,0x08,
 0x00,0x08,0x00,0x00,0x00,0x82,0x11,0x00,0x00,0x00,0x08,0x00,0x00,0x80,0x11,
 0x8c,0x04,0x00,0x00,0x00,0x08,0x01,0xc0,0x10,0x00,0x04,0x40,0x60,0x3e,0x1e,
 0x00,0x61,0x81,0x79,0x00,0x02,0x80,0xcf,0x08,0x00,0x08,0x00,0x00,0x00,0x9f,
 0x11,0x00,0x00,0x00,0x08,0x00,0x00,0x80,0x11,0x8c,0x3e,0x00,0x00,0x00,0x08,
 0x01,0xc0,0x10,0x00,0x04,0x40,0xf0,0x66,0x32,0x00,0x21,0x81,0xc9,0x00,0x02,
 0x80,0xd9,0x08,0x00,0x08,0x00,0x00,0x00,0xb3,0x11,0x00,0x00,0x00,0x08,0x00,
 0x00,0x80,0x11,0x8c,0x66,0x00,0x00,0x00,0x08,0x01,0x60,0x10,0x00,0x04,0x40,
 0xc0,0x46,0xb0,0x3f,0x31,0xc1,0xc0,0x00,0x02,0x80,0xd1,0x08,0x00,0x08,0x00,
 0x00,0x00,0xa3,0x11,0x00,0x00,0x00,0x08,0x00,0x00,0x80,0x11,0x8c,0x46,0x00,
 0x00,0x00,0x08,0x01,0xb0,0x10,0x00,0x04,0x40,0xdc,0x46,0x33,0x00,0xf1,0x67,
 0xcd,0x00,0x02,0x80,0xd1,0x08,0x00,0x08,0x00,0x00,0x00,0xa3,0x11,0x00,0x00,
 0x00,0x08,0x00,0x00,0x80,0x11,0x8c,0x46,0x00,0x00,0x00,0x08,0x01,0x98,0x10,
 0x00,0x04,0x40,0xdc,0x64,0x33,0x00,0x01,0x31,0xcd,0x00,0x02,0x00,0x99,0x0c,
 0x00,0x08,0x00,0x00,0x00,0x32,0x19,0x00,0x00,0x00,0x08,0x00,0x00,0x00,0x99,
 0xc9,0x64,0x00,0x00,0x00,0x08,0x01,0xfc,0x7c,0x00,0x04,0xf0,0xd9,0x6c,0x3e,
 0xc0,0xc7,0xff,0xf9,0x00,0x02,0x00,0x9b,0x0d,0x00,0x08,0x00,0x00,0x00,0x36,
 0x1b,0x00,0x00,0x00,0x08,0x00,0x00,0x00,0x9b,0xd9,0x6c,0x00,0x00,0x00,0x08,
 0x01,0x00,0x00,0x00,0x04,0x00,0x30,0x38,0x0c,0x00,0x00,0x00,0x30,0x00,0x02,
 0x00,0x0e,0x07,0x00,0x08,0x00,0x00,0x00,0x1c,0x0e,0x00,0x00,0x00,0x08,0x00,
 0x00,0x00,0x0e,0x70,0x38,0x00,0x00,0x00,0x08,0x01,0x00,0x00,0x00,0x04,0x00,
 0x00,0x00,0x00,0x00,0x00,0x00,0x00,0x00,0x02,0x00,0x00,0x00,0x00,0x08,0x00,
 0x00,0x00,0x00,0x00,0x00,0x00,0x00,0x08,0x00,0x00,0x00,0x00,0x00,0x00,0x00,
 0x00,0x00,0x08,0x01,0x00,0x00,0x00,0x04,0x00,0x00,0x00,0x00,0x00,0x00,0x00,
 0x00,0x00,0x02,0x00,0x00,0x00,0x00,0x08,0x00,0x00,0x00,0x00,0x00,0x00,0x00,
 0x00,0x08,0x00,0x00,0x00,0x00,0x00,0x00,0x00,0x00,0x00,0x08,0x01,0x00,0x00,
 0x00,0x04,0x00,0x00,0x00,0x00,0x00,0x00,0x00,0x00,0x00,0x02,0x00,0x00,0x00,
 0x00,0x08,0x00,0x00,0x00,0x00,0x00,0x00,0x00,0x00,0x08,0x00,0x00,0x00,0x00,
 0x00,0x00,0x00,0x00,0x00,0x08,0x01,0x00,0x00,0x00,0x04,0x00,0x00,0x00,0x00,
 0x00,0x00,0x00,0x00,0x00,0x02,0x00,0x00,0x00,0x00,0x08,0x00,0x00,0x00,0x00,
 0x00,0x00,0x00,0x00,0x08,0x00,0x00,0x00,0x00,0x00,0x00,0x00,0x00,0x00,0x08,
 0x01,0x00,0x00,0x00,0x04,0x00,0x00,0x00,0x00,0x00,0x00,0x00,0x00,0x00,0x02,
 0x00,0x00,0x00,0x00,0x08,0x00,0x00,0x00,0x00,0x00,0x00,0x00,0x00,0x08,0x00,
 0x00,0x00,0x00,0x00,0x00,0x00,0x00,0x00,0x08,0x01,0x20,0x38,0x00,0x04,0x40,
 0xc8,0x18,0x0c,0x00,0x21,0xe0,0x30,0x00,0x02,0x00,0x0c,0x03,0x00,0x08,0x00,
 0x00,0x00,0x1c,0x06,0x00,0x00,0x00,0x08,0x00,0x00,0x00,0x06,0x20,0x64,0x00,
 0x00,0x00,0x08,0x01,0x38,0x6c,0x00,0x04,0x70,0x78,0x6c,0x36,0xc0,0xe1,0xb7,
 0xd9,0x00,0x02,0x00,0x9e,0x0d,0x00,0x08,0x00,0x00,0x00,0x36,0x1b,0x00,0x00,
 0x00,0x08,0x00,0x00,0x00,0x1b,0x38,0x3c,0x00,0x00,0x00,0x08,0x01,0x20,0x44,
 0x00,0x04,0x40,0x08,0x66,0x32,0x00,0x31,0xb2,0xc9,0x00,0x02,0x00,0x9b,0x0c,
 0x00,0x08,0x00,0x00,0x00,0x22,0x19,0x00,0x00,0x00,0x08,0x00,0x00,0x00,0x19,
 0x20,0x04,0x00,0x00,0x00,0x08,0x01,0x20,0x6c,0x00,0x04,0x40,0x08,0x46,0x23,
 0x00,0x11,0xb1,0x8d,0x00,0x02,0x00,0xc1,0x08,0x00,0x08,0x00,0x00,0x00,0xb6,
 0x11,0x00,0x00,0x00,0x08,0x00,0x00,0x80,0x11,0x20,0x04,0x00,0x00,0x00,0x08,
 0x01,0x20,0x3c,0x00,0x04,0x40,0x78,0x46,0x23,0x00,0x81,0xc1,0x8c,0x00,0x02,
 0x80,0xcf,0x08,0x00,0x08,0x00,0x00,0x00,0x9e,0x11,0x00,0x00,0x00,0x08,0x00,
 0x00,0x80,0x11,0x20,0x3c,0x00,0x00,0x00,0x08,0x01,0x20,0x7c,0x00,0x04,0x40,
 0xc8,0x64,0x23,0x00,0x81,0xe0,0x8d,0x00,0x02,0x80,0xd9,0x08,0x00,0x08,0x00,
 0x00,0x00,0xbe,0x11,0x00,0x00,0x00,0x08,0x00,0x00,0x80,0x11,0x20,0x64,0x00,
 0x00,0x00,0x08,0x01,0x20,0x74,0x00,0x04,0x40,0xc0,0x7c,0xa3,0x3f,0xc1,0x80,
 0x8d,0x00,0x02,0x80,0xd1,0x08,0x00,0x08,0x00,0x00,0x00,0xba,0x11,0x00,0x00,
 0x00,0x08,0x00,0x00,0x80,0x11,0x20,0x60,0x00,0x00,0x00,0x08,0x01,0x20,0x46,
 0x00,0x04,0x40,0xcc,0x60,0x23,0x00,0xc1,0xb8,0x8d,0x00,0x02,0x80,0xd1,0x08,
 0x00,0x08,0x00,0x00,0x00,0xa3,0x11,0x00,0x00,0x00,0x08,0x00,0x00,0x80,0x11,
 0x20,0x66,0x00,0x00,0x00,0x08,0x01,0x20,0x46,0x00,0x04,0x40,0xcc,0x6c,0x32,
 0x00,0xc1,0xb8,0xc9,0x00,0x02,0x00,0x99,0x0c,0x00,0x08,0x00,0x00,0x00,0x23,
 0x19,0x00,0x00,0x00,0x08,0x00,0x00,0x00,0x99,0x21,0x66,0x00,0x00,0x00,0x08,
 0x01,0xf8,0x6c,0x00,0x04,0xf0,0xf9,0x34,0x36,0xc0,0xc7,0xb0,0xd9,0x00,0x02,
 0x00,0x9b,0x0d,0x00,0x08,0x00,0x00,0x00,0x36,0x1b,0x00,0x00,0x00,0x08,0x00,
 0x00,0x00,0x9b,0xf9,0x7c,0x00,0x00,0x00,0x08,0x01,0x00,0x38,0x00,0x04,0x00,
 0x30,0x18,0x1c,0x00,0xc0,0x60,0x70,0x00,0x02,0x00,0x0e,0x07,0x00,0x08,0x00,
 0x00,0x00,0x1c,0x0e,0x00,0x00,0x00,0x08,0x00,0x00,0x00,0x0e,0x00,0x18,0x00,
 0x00,0x00,0x08,0x01,0x00,0x00,0x00,0x04,0x00,0x00,0x00,0x00,0x00,0x00,0x00,
 0x00,0x00,0x02,0x00,0x00,0x00,0x00,0x08,0x00,0x00,0x00,0x00,0x00,0x00,0x00,
 0x00,0x08,0x00,0x00,0x00,0x00,0x00,0x00,0x00,0x00,0x00,0x08,0x01,0x00,0x00,
 0x00,0x04,0x00,0x00,0x00,0x00,0x00,0x00,0x00,0x00,0x00,0x02,0x00,0x00,0x00,
 0x00,0x08,0x00,0x00,0x00,0x00,0x00,0x00,0x00,0x00,0x08,0x00,0x00,0x00,0x00,
 0x00,0x00,0x00,0x00,0x00,0x08,0x01,0x00,0x00,0x00,0x04,0x00,0x00,0x00,0x00,
 0x00,0x00,0x00,0x00,0x00,0x02,0x00,0x00,0x00,0x00,0x08,0x00,0x00,0x00,0x00,
 0x00,0x00,0x00,0x00,0x08,0x00,0x00,0x00,0x00,0x00,0x00,0x00,0x00,0x00,0x08,
 0x01,0x00,0x00,0x00,0x04,0x00,0x00,0x00,0x00,0x00,0x00,0x00,0x00,0x00,0x02,
 0x00,0x00,0x00,0x00,0x08,0x00,0x00,0x00,0x00,0x00,0x00,0x00,0x00,0x08,0x00,
 0x00,0x00,0x00,0x00,0x00,0x00,0x00,0x00,0x08,0x01,0x00,0x00,0x00,0x04,0x00,
 0x00,0x00,0x00,0x00,0x00,0x00,0x00,0x00,0x02,0x00,0x00,0x00,0x00,0x08,0x00,
 0x00,0x00,0x00,0x00,0x00,0x00,0x00,0x08,0x00,0x00,0x00,0x00,0x00,0x00,0x00,
 0x00,0x00,0x08,0x01,0x00,0x00,0x00,0x04,0x00,0x00,0x00,0x00,0x00,0x00,0x00,
 0x00,0x00,0x02,0x00,0x00,0x00,0x00,0x08,0x00,0x00,0x00,0x00,0x00,0x00,0x00,
 0x00,0x08,0x00,0x00,0x00,0x00,0x00,0x00,0x00,0x00,0x00,0x08,0x01,0x00,0x06,
 0x00,0x04,0x80,0x08,0x04,0x0c,0x40,0xc6,0x60,0x30,0x00,0x02,0x80,0x40,0x30,
 0x00,0x08,0x00,0x00,0x00,0x1c,0x06,0x00,0x00,0x00,0x08,0x00,0x00,0x00,0x06,
 0x30,0x04,0x00,0x00,0x00,0x08,0x01,0x00,0x0f,0x00,0x04,0xc0,0xf8,0xfd,0x36,
 0xc0,0x63,0xb3,0xd9,0x00,0x02,0xe0,0x70,0xd8,0x00,0x08,0x00,0x00,0x00,0x36,
 0x1b,0x00,0x00,0x00,0x08,0x00,0x00,0x00,0x1b,0xd8,0xfc,0x00,0x00,0x00,0x08,
 0x01,0x80,0x0d,0x00,0x04,0xc0,0x8c,0x46,0x32,0x40,0x20,0xbb,0xc9,0x00,0x02,
 0x80,0x40,0xc8,0x00,0x08,0x00,0x00,0x00,0x22,0x19,0x00,0x00,0x00,0x08,0x00,
 0x00,0x00,0x19,0xc8,0x46,0x00,0x00,0x00,0x08,0x01,0x80,0x00,0x00,0x04,0xe0,
 0x44,0x22,0x23,0x40,0x30,0x3a,0x8d,0x00,0x02,0x80,0x40,0x8c,0x00,0x08,0x00,
 0x00,0x00,0xb6,0x11,0x00,0x00,0x00,0x08,0x00,0x00,0x80,0x11,0x8c,0x22,0x00,
 0x00,0x00,0x08,0x01,0xc0,0x07,0x00,0x04,0xb0,0x60,0x30,0x23,0xc0,0x33,0x82,
 0x8d,0x00,0x02,0x80,0x40,0x8c,0x00,0x08,0x00,0x00,0x00,0x9e,0x11,0x00,0x00,
 0x00,0x08,0x00,0x00,0x80,0x11,0x8c,0x30,0x00,0x00,0x00,0x08,0x01,0xc0,0x0c,
 0x00,0x04,0x90,0x20,0x10,0x23,0x40,0x36,0x82,0x8d,0x00,0x02,0x80,0x40,0x8c,
 0x00,0x08,0x00,0x00,0x00,0xbe,0x11,0x00,0x00,0x00,0x08,0x00,0x00,0x80,0x11,
 0x8c,0x10,0x00,0x00,0x00,0x08,0x01,0xc0,0x08,0x00,0x04,0x98,0x30,0x18,0xa3,
 0x3f,0x36,0xc2,0x8c,0x00,0x02,0x80,0x40,0x8c,0x00,0x08,0x00,0x00,0x00,0xba,
 0x11,0x00,0x00,0x00,0x08,0x00,0x00,0x80,0x11,0x8c,0x18,0x00,0x00,0x00,0x08,
 0x01,0xc0,0x08,0x00,0x04,0xf8,0x33,0x18,0x23,0x60,0x36,0x62,0x8d,0x00,0x02,
 0x80,0x40,0x8c,0x00,0x08,0x00,0x00,0x00,0xa3,0x11,0x00,0x00,0x00,0x08,0x00,
 0x00,0x80,0x11,0x8c,0x18,0x00,0x00,0x00,0x08,0x01,0x80,0x0c,0x00,0x04,0x80,
 0x30,0x18,0x32,0x60,0x26,0x33,0xc9,0x00,0x02,0x80,0x40,0xc8,0x00,0x08,0x00,
 0x00,0x00,0x23,0x19,0x00,0x00,0x00,0x08,0x00,0x00,0x00,0x99,0xc9,0x18,0x00,
 0x00,0x00,0x08,0x01,0x80,0x0d,0x00,0x04,0xe0,0x33,0x18,0x36,0xc0,0x67,0xfb,
 0xd9,0x00,0x02,0xe0,0xf3,0xd9,0x00,0x08,0x00,0x00,0x00,0x36,0x1b,0x00,0x00,
 0x00,0x08,0x00,0x00,0x00,0x9b,0xd9,0x18,0x00,0x00,0x00,0x08,0x01,0x00,0x07,
 0x00,0x04,0x00,0x30,0x18,0x1c,0x80,0xc1,0x01,0x70,0x00,0x02,0x00,0x00,0x70,
 0x00,0x08,0x00,0x00,0x00,0x1c,0x0e,0x00,0x00,0x00,0x08,0x00,0x00,0x00,0x0e,
 0x70,0x18,0x00,0x00,0x00,0x08,0x01,0x00,0x00,0x00,0x04,0x00,0x00,0x00,0x00,
 0x00,0x00,0x00,0x00,0x00,0x02,0x00,0x00,0x00,0x00,0x08,0x00,0x00,0x00,0x00,
 0x00,0x00,0x00,0x00,0x08,0x00,0x00,0x00,0x00,0x00,0x00,0x00,0x00,0x00,0x08,
 0x01,0x00,0x00,0x00,0x04,0x00,0x00,0x00,0x00,0x00,0x00,0x00,0x00,0x00,0x02,
 0x00,0x00,0x00,0x00,0x08,0x00,0x00,0x00,0x00,0x00,0x00,0x00,0x00,0x08,0x00,
 0x00,0x00,0x00,0x00,0x00,0x00,0x00,0x00,0x08,0x01,0x00,0x00,0x00,0x04,0x00,
 0x00,0x00,0x00,0x00,0x00,0x00,0x00,0x00,0x02,0x00,0x00,0x00,0x00,0x08,0x00,
 0x00,0x00,0x00,0x00,0x00,0x00,0x00,0x08,0x00,0x00,0x00,0x00,0x00,0x00,0x00,
 0x00,0x00,0x08,0x01,0x00,0x00,0x00,0x04,0x00,0x00,0x00,0x00,0x00,0x00,0x00,
 0x00,0x00,0x02,0x00,0x00,0x00,0x00,0x08,0x00,0x00,0x00,0x00,0x00,0x00,0x00,
 0x00,0x08,0x00,0x00,0x00,0x00,0x00,0x00,0x00,0x00,0x00,0x08,0xff,0xff,0xff,
 0xff,0xff,0xff,0xff,0xff,0xff,0xff,0xff,0xff,0xff,0xff,0xff,0xff,0xff,0xff,
 0xff,0xff,0xff,0xff,0xff,0xff,0xff,0xff,0xff,0xff,0xff,0xff,0xff,0xff,0xff,
 0xff,0xff,0xff,0xff,0xff,0x0f};
