#define noname_width 7
#define noname_height 7
static char noname_bits[] = {
 0x61,0x33,0x1e,0x0c,0x1e,0x33,0x61};
