#define noname_width 23
#define noname_height 14
static char noname_bits[] = {
 0xfe,0x03,0x00,0x36,0x03,0x00,0x33,0x02,0x00,0x31,0x02,0x00,0x10,0x00,0x00,
 0x18,0x00,0x00,0x18,0x00,0x00,0x18,0x4c,0x62,0x08,0xee,0x72,0x3f,0x6e,0x72,
 0x00,0x4f,0x7b,0x00,0xcf,0x7b,0x00,0x60,0x01,0x00,0xe0,0x01};
