#define noname_width 356
#define noname_height 96
static char noname_bits[] = {
 0xff,0x01,0x00,0x00,0x40,0x00,0x00,0x00,0x00,0x00,0xc0,0x01,0x0e,0x80,0x03,
 0x08,0x00,0x00,0x00,0x00,0x00,0x80,0x01,0x07,0x00,0x00,0x00,0x00,0x00,0x00,
 0x00,0x30,0x00,0x00,0x60,0xc0,0x00,0x0c,0x00,0x07,0x03,0x00,0x00,0x00,0x00,
 0x33,0x01,0x00,0x00,0x70,0x00,0x00,0x00,0x00,0x00,0x80,0x01,0x0c,0x00,0x03,
 0x0e,0x00,0x00,0x00,0x00,0x00,0xc0,0x03,0x06,0x00,0x00,0x00,0x00,0x00,0x00,
 0x00,0x30,0x00,0x00,0xb0,0xc1,0x00,0x0c,0x80,0x8d,0x07,0x00,0x00,0x00,0x00,
 0x31,0x03,0x00,0x00,0x40,0x00,0x00,0x00,0x00,0x00,0x80,0x01,0x0c,0x00,0x03,
 0x08,0x00,0x00,0x00,0x00,0x00,0x60,0x03,0x06,0x00,0x00,0x00,0x00,0x00,0x00,
 0x00,0x00,0x00,0x00,0x98,0xc1,0x00,0x00,0x80,0xcd,0x06,0x00,0x00,0x00,0x00,
 0x31,0x02,0x00,0x00,0x40,0x00,0x00,0x00,0x00,0x00,0x80,0x01,0x0c,0x00,0x03,
 0x08,0x00,0x00,0x00,0x00,0x00,0x20,0x00,0x06,0x00,0x00,0x00,0x00,0x00,0x00,
 0x00,0x00,0x00,0x10,0x18,0xe1,0x01,0x00,0x80,0x4d,0x00,0x00,0x00,0x00,0x00,
 0x30,0x3c,0x3f,0x1e,0x40,0x18,0x00,0x00,0x00,0x00,0x80,0x79,0x7c,0x3c,0x03,
 0x08,0x03,0x00,0x00,0x00,0x00,0xf0,0x01,0x3e,0xdf,0xcd,0xff,0x00,0xbe,0x9f,
 0xc7,0xbf,0x1f,0x3f,0x18,0xa1,0x01,0xee,0x03,0xe6,0x03,0xfe,0x07,0x00,0x00,
 0x30,0x6c,0x66,0x33,0x40,0x18,0x00,0x00,0x00,0x00,0x80,0xd9,0xcc,0x66,0x03,
 0x08,0x03,0x00,0x00,0x00,0x00,0x30,0x03,0xa6,0x91,0x89,0x9f,0x00,0x26,0xb3,
 0x6d,0x36,0x93,0x09,0x90,0xa1,0x01,0x6c,0x02,0x6f,0x06,0xcc,0x0c,0x00,0x00,
 0x30,0x78,0x46,0x3f,0x40,0x00,0x00,0x00,0x00,0x00,0x80,0xf1,0x8c,0x7e,0x03,
 0x08,0x00,0x00,0x00,0x00,0x00,0x30,0x02,0xa6,0xb1,0x89,0x79,0x00,0x1e,0x23,
 0x6f,0x30,0x93,0x09,0xf0,0xf1,0x03,0xec,0x01,0x6c,0x04,0xcc,0x0c,0x00,0x00,
 0x30,0x6c,0x46,0x03,0x40,0x00,0x00,0x00,0x00,0x00,0x80,0xd9,0x8c,0x06,0x03,
 0x08,0x00,0x00,0x00,0x00,0x00,0x30,0x02,0xa6,0xb1,0x89,0xf9,0x00,0x3e,0xa3,
 0x6d,0x30,0x13,0x0f,0x80,0x11,0x03,0xec,0xc3,0x6d,0x04,0xcc,0x0c,0x00,0x00,
 0x30,0xe6,0x66,0x23,0x40,0x18,0x00,0x00,0x00,0x00,0x80,0xcd,0xcd,0x46,0x03,
 0x08,0x03,0x00,0x00,0x00,0x00,0x20,0x03,0xa6,0x91,0x8d,0x89,0x0c,0x22,0xf3,
 0x7c,0x34,0x13,0x01,0xb0,0x19,0x07,0x2c,0xc2,0x4d,0x06,0xcc,0x0c,0x00,0x00,
 0xfc,0xfc,0x3e,0x1e,0xf0,0x19,0x00,0x00,0x00,0x00,0xc0,0xfb,0x7d,0xbc,0x07,
 0x3e,0x03,0x00,0x00,0x00,0x00,0x60,0x03,0x7f,0x9f,0xdf,0xfb,0x0c,0x3e,0x9f,
 0xdf,0xfb,0x3f,0x1f,0xd0,0x9c,0x0f,0xfe,0x83,0xcd,0x06,0xfe,0x1f,0x00,0x00,
 0x00,0x00,0x06,0x00,0x00,0x00,0x00,0x00,0x00,0x00,0x00,0x00,0x00,0x00,0x00,
 0x00,0x00,0x00,0x00,0x00,0x00,0xc0,0x01,0x00,0x00,0x00,0x00,0x08,0x00,0x03,
 0x00,0x00,0x80,0x31,0x60,0x00,0x00,0x00,0x00,0x83,0x03,0x00,0x00,0x00,0x00,
 0x00,0x00,0x06,0x00,0x00,0x00,0x00,0x00,0x00,0x00,0x00,0x00,0x00,0x00,0x00,
 0x00,0x00,0x00,0x00,0x00,0x00,0x00,0x00,0x00,0x00,0x00,0x00,0x08,0x00,0x03,
 0x00,0x00,0x80,0x31,0x00,0x00,0x00,0x00,0x00,0x00,0x00,0x00,0x00,0x00,0x00,
 0x00,0x00,0x0f,0x00,0x00,0x00,0x00,0x00,0x00,0x00,0x00,0x00,0x00,0x00,0x00,
 0x00,0x00,0x00,0x00,0x00,0x00,0x00,0x00,0x00,0x00,0x00,0x00,0x04,0x80,0x07,
 0x00,0x00,0x00,0x1f,0x00,0x00,0x00,0x00,0x00,0x00,0x00,0x00,0x00,0x00,0x00,
 0x00,0x00,0x00,0x00,0x00,0x00,0x00,0x00,0x00,0x00,0x00,0x00,0x00,0x00,0x00,
 0x00,0x00,0x00,0x00,0x00,0x00,0x00,0x00,0x00,0x00,0x00,0x00,0x00,0x00,0x00,
 0x00,0x00,0x00,0x00,0x00,0x00,0x00,0x00,0x00,0x00,0x00,0x00,0x00,0x00,0x00,
 0x00,0x00,0x00,0x00,0x00,0x00,0x00,0x00,0x00,0x00,0x00,0x00,0x00,0x00,0x00,
 0x00,0x00,0x00,0x00,0x00,0x00,0x00,0x00,0x00,0x00,0x00,0x00,0x00,0x00,0x00,
 0x00,0x00,0x00,0x00,0x00,0x00,0x00,0x00,0x00,0x00,0x00,0x00,0x00,0x00,0x00,
 0x00,0x00,0x00,0x00,0x00,0x00,0x00,0x00,0x00,0x00,0x00,0x00,0x00,0x00,0x00,
 0x00,0x00,0x00,0x00,0x00,0x00,0x00,0x00,0x00,0x00,0x00,0x00,0x00,0x00,0x00,
 0x00,0x00,0x00,0x00,0x00,0x00,0x00,0x00,0x00,0x00,0x00,0x00,0x00,0x00,0x00,
 0x00,0x00,0x00,0x00,0x00,0x00,0x00,0x00,0x00,0x00,0x00,0x00,0x00,0x00,0x00,
 0x00,0x00,0x00,0x00,0x00,0x00,0x00,0x00,0x00,0x00,0x00,0x00,0x00,0x00,0x00,
 0x00,0x00,0x00,0x00,0x00,0x00,0x00,0x00,0x00,0x00,0x00,0x00,0x00,0x00,0x00,
 0x00,0x00,0x00,0x00,0x00,0x00,0x00,0x00,0x00,0x00,0xc0,0x01,0x0e,0x80,0x03,
 0x0c,0x00,0x00,0x00,0x00,0x00,0x80,0x01,0x07,0x00,0x00,0x00,0x00,0x38,0x18,
 0x00,0x00,0x00,0x00,0x00,0x00,0x00,0x00,0x00,0x00,0x00,0x00,0x00,0x00,0x00,
 0x00,0x00,0x00,0x00,0x00,0x00,0x00,0x00,0x00,0x00,0x80,0x01,0x0c,0x00,0x03,
 0x36,0x00,0x00,0x00,0x00,0x00,0xc0,0x03,0x06,0x00,0x00,0x00,0x00,0x6c,0x3c,
 0x00,0x00,0x00,0x00,0x00,0x00,0x00,0x00,0x00,0x00,0x00,0x00,0x00,0x00,0x00,
 0x00,0x00,0x00,0x00,0x00,0x00,0x00,0x00,0x00,0x00,0x80,0x01,0x0c,0x00,0x03,
 0x37,0x00,0x00,0x00,0x00,0x00,0x60,0x03,0x06,0x00,0x00,0x00,0x00,0x6c,0x36,
 0x00,0x00,0x00,0x00,0x00,0x00,0x00,0x00,0x00,0x00,0x00,0x00,0x00,0x00,0x00,
 0x00,0x00,0x00,0x00,0x00,0x00,0x00,0x00,0x00,0x00,0x80,0x01,0x0c,0x00,0x03,
 0x27,0x00,0x00,0x00,0x00,0x00,0x20,0x00,0x06,0x00,0x00,0x00,0x00,0x6c,0x02,
 0x00,0x00,0x00,0x00,0x00,0x00,0x00,0x00,0x00,0x00,0x00,0x00,0x00,0x00,0x00,
 0x00,0x00,0x00,0x00,0x00,0x00,0x00,0x00,0x00,0x00,0x80,0x79,0x7c,0x3c,0x03,
 0x30,0x03,0x00,0x00,0x00,0x00,0xf0,0x01,0x3e,0xdf,0xcd,0xff,0x00,0x30,0x1f,
 0xf0,0x3f,0x00,0x00,0x00,0x00,0x00,0x00,0x00,0x00,0x00,0x00,0x00,0x00,0x00,
 0x00,0x00,0x00,0x00,0x00,0x00,0x00,0x00,0x00,0x00,0x80,0xd9,0xcc,0x66,0x03,
 0x30,0x03,0x00,0x00,0x00,0x00,0x30,0x03,0xa6,0x91,0x89,0x9f,0x00,0x78,0x33,
 0x60,0x66,0x00,0x00,0x00,0x00,0x00,0x00,0x00,0x00,0x00,0x00,0x00,0x00,0x00,
 0x00,0x00,0x00,0x00,0x00,0x00,0x00,0x00,0x00,0x00,0x80,0xf1,0x8c,0x7e,0x03,
 0x18,0x00,0x00,0x00,0x00,0x00,0x30,0x02,0xa6,0xb1,0x89,0x79,0x00,0x60,0x23,
 0x60,0x66,0x00,0x00,0x00,0x00,0x00,0x00,0x00,0x00,0x00,0x00,0x00,0x00,0x00,
 0x00,0x00,0x00,0x00,0x00,0x00,0x00,0x00,0x00,0x00,0x80,0xd9,0x8c,0x06,0x03,
 0x2c,0x00,0x00,0x00,0x00,0x00,0x30,0x02,0xa6,0xb1,0x89,0xf9,0x00,0x6e,0x23,
 0x60,0x66,0x00,0x00,0x00,0x00,0x00,0x00,0x00,0x00,0x00,0x00,0x00,0x00,0x00,
 0x00,0x00,0x00,0x00,0x00,0x00,0x00,0x00,0x00,0x00,0x80,0xcd,0xcd,0x46,0x03,
 0x26,0x03,0x00,0x00,0x00,0x00,0x20,0x03,0xa6,0x91,0x8d,0x89,0x0c,0x6e,0x32,
 0x60,0x66,0x00,0x00,0x00,0x00,0x00,0x00,0x00,0x00,0x00,0x00,0x00,0x00,0x00,
 0x00,0x00,0x00,0x00,0x00,0x00,0x00,0x00,0x00,0x00,0xc0,0xfb,0x7d,0xbc,0x07,
 0x3f,0x03,0x00,0x00,0x00,0x00,0x60,0x03,0x7f,0x9f,0xdf,0xfb,0x0c,0x6c,0x36,
 0xf0,0xff,0x00,0x00,0x00,0x00,0x00,0x00,0x00,0x00,0x00,0x00,0x00,0x00,0x00,
 0x00,0x00,0x00,0x00,0x00,0x00,0x00,0x00,0x00,0x00,0x00,0x00,0x00,0x00,0x00,
 0x00,0x00,0x00,0x00,0x00,0x00,0xc0,0x01,0x00,0x00,0x00,0x00,0x08,0x18,0x1c,
 0x00,0x00,0x00,0x00,0x00,0x00,0x00,0x00,0x00,0x00,0x00,0x00,0x00,0x00,0x00,
 0x00,0x00,0x00,0x00,0x00,0x00,0x00,0x00,0x00,0x00,0x00,0x00,0x00,0x00,0x00,
 0x00,0x00,0x00,0x00,0x00,0x00,0x00,0x00,0x00,0x00,0x00,0x00,0x08,0x00,0x00,
 0x00,0x00,0x00,0x00,0x00,0x00,0x00,0x00,0x00,0x00,0x00,0x00,0x00,0x00,0x00,
 0x00,0x00,0x00,0x00,0x00,0x00,0x00,0x00,0x00,0x00,0x00,0x00,0x00,0x00,0x00,
 0x00,0x00,0x00,0x00,0x00,0x00,0x00,0x00,0x00,0x00,0x00,0x00,0x04,0x00,0x00,
 0x00,0x00,0x00,0x00,0x00,0x00,0x00,0x00,0x00,0x00,0x00,0x00,0x00,0x00,0x00,
 0x00,0x00,0x00,0x00,0x00,0x00,0x00,0x00,0x00,0x00,0x00,0x00,0x00,0x00,0x00,
 0x00,0x00,0x00,0x00,0x00,0x00,0x00,0x00,0x00,0x00,0x00,0x00,0x00,0x00,0x00,
 0x00,0x00,0x00,0x00,0x00,0x00,0x00,0x00,0x00,0x00,0x00,0x00,0x00,0x00,0x00,
 0x00,0x00,0x00,0x00,0x00,0x00,0x00,0x00,0x00,0x00,0x00,0x00,0x00,0x00,0x00,
 0x00,0x00,0x00,0x00,0x00,0x00,0x00,0x00,0x00,0x00,0x00,0x00,0x00,0x00,0x00,
 0x00,0x00,0x00,0x00,0x00,0x00,0x00,0x00,0x00,0x00,0x00,0x00,0x00,0x00,0x00,
 0x00,0x00,0x00,0x00,0x00,0x00,0x00,0x00,0x00,0x00,0x00,0x00,0x00,0x00,0x00,
 0x00,0x00,0x00,0x00,0x00,0x00,0x00,0x00,0x00,0x00,0x00,0x00,0x00,0x00,0x00,
 0x00,0x00,0x00,0x00,0x00,0x00,0x00,0x00,0x00,0x00,0x00,0x00,0x00,0x00,0x00,
 0xff,0x01,0x00,0x00,0x60,0x00,0x00,0x00,0x00,0x00,0xc0,0x01,0x0e,0x80,0x03,
 0x08,0x00,0x00,0x00,0x00,0x00,0x80,0x60,0x80,0x03,0x00,0x00,0x00,0xc0,0x01,
 0x00,0xf0,0x80,0x83,0x01,0x80,0xc3,0x00,0x32,0x06,0x80,0x80,0x01,0x00,0x00,
 0x33,0x01,0x00,0x00,0xb0,0x01,0x00,0x00,0x00,0x00,0x80,0x01,0x0c,0x00,0x03,
 0x0e,0x00,0x00,0x00,0x00,0x00,0xe0,0xb0,0x01,0x03,0x00,0x00,0x00,0xe0,0x01,
 0x00,0xd8,0x00,0x03,0x01,0xc0,0x66,0x03,0x1e,0x1b,0x80,0xdf,0x06,0x00,0x00,
 0x31,0x03,0x00,0x00,0xb8,0x01,0x00,0x00,0x00,0x00,0x80,0x01,0x0c,0x00,0x03,
 0x08,0x00,0x00,0x00,0x00,0x00,0x80,0xb8,0x01,0x03,0x00,0x00,0x00,0x60,0x00,
 0x00,0x98,0x00,0x03,0x01,0xc0,0x26,0x03,0x82,0x19,0xc0,0xe8,0x06,0x00,0x00,
 0x31,0x02,0x00,0x00,0x38,0x01,0x00,0x00,0x00,0x00,0x80,0x01,0x0c,0x00,0x03,
 0x08,0x00,0x00,0x00,0x00,0x00,0x80,0x38,0x01,0x03,0x00,0x00,0x00,0x60,0x00,
 0x00,0x18,0x00,0x03,0x01,0xc0,0x36,0x02,0x82,0x11,0x40,0xe4,0x04,0x00,0x00,
 0x30,0x3c,0x3f,0x1e,0x80,0x19,0x00,0x00,0x00,0x00,0x80,0x79,0x7c,0x3c,0x03,
 0x08,0x03,0x00,0x00,0x00,0x00,0x80,0x80,0x01,0x9f,0xef,0xe6,0x7f,0xf0,0x7c,
 0x1f,0xfc,0x3c,0xf3,0xf9,0x00,0x33,0x02,0x9e,0x11,0x00,0x06,0x06,0xff,0x03,
 0x30,0x6c,0x66,0x33,0x80,0x19,0x00,0x00,0x00,0x00,0x80,0xd9,0xcc,0x66,0x03,
 0x08,0x03,0x00,0x00,0x00,0x00,0x80,0x80,0x01,0xd3,0xc8,0xc4,0x4f,0x60,0x46,
 0x1e,0x98,0x66,0x1b,0x99,0x80,0x37,0x02,0x32,0x19,0x00,0x02,0x06,0x66,0x06,
 0x30,0x78,0x46,0x3f,0xc0,0x00,0x00,0x00,0x00,0x00,0x80,0xf1,0x8c,0x7e,0x03,
 0x08,0x00,0x00,0x00,0x00,0x00,0x80,0xc0,0x00,0xd3,0xd8,0xc4,0x3c,0x60,0xc6,
 0x06,0x98,0x7e,0x1b,0x79,0x00,0x36,0x7a,0x30,0x1f,0x00,0x03,0x03,0x66,0x06,
 0x30,0x6c,0x46,0x03,0x60,0x01,0x00,0x00,0x00,0x00,0x80,0xd9,0x8c,0x06,0x03,
 0x08,0x00,0x00,0x00,0x00,0x00,0x80,0x60,0x01,0xd3,0xd8,0xc4,0x7c,0x60,0xc6,
 0x06,0x98,0x06,0x1b,0xf9,0xe0,0x36,0x7a,0x33,0x18,0x00,0x83,0x05,0x66,0x06,
 0x30,0xe6,0x66,0x23,0x30,0x19,0x00,0x00,0x00,0x00,0x80,0xcd,0xcd,0x46,0x03,
 0x08,0x03,0x00,0x00,0x00,0x00,0x80,0x30,0x01,0xd3,0xc8,0xc6,0x44,0x60,0x46,
 0x06,0x98,0x46,0x1b,0x89,0xe0,0x26,0x03,0x33,0x9b,0x01,0xc3,0x04,0x66,0x06,
 0xfc,0xfc,0x3e,0x1e,0xf8,0x19,0x00,0x00,0x00,0x00,0xc0,0xfb,0x7d,0xbc,0x07,
 0x3e,0x03,0x00,0x00,0x00,0x00,0xe0,0xfb,0x81,0xbf,0xcf,0xef,0x7d,0xf0,0x7c,
 0x0f,0xdc,0xbd,0xf7,0xfb,0xc0,0x66,0x03,0x3e,0x8d,0x01,0xe3,0x07,0xff,0x0f,
 0x00,0x00,0x06,0x00,0x00,0x00,0x00,0x00,0x00,0x00,0x00,0x00,0x00,0x00,0x00,
 0x00,0x00,0x00,0x00,0x00,0x00,0x00,0x00,0x00,0x00,0x00,0x00,0x00,0x00,0x00,
 0x00,0x00,0x00,0x00,0x00,0x80,0xc1,0x01,0x0c,0x06,0x01,0x03,0x00,0x00,0x00,
 0x00,0x00,0x06,0x00,0x00,0x00,0x00,0x00,0x00,0x00,0x00,0x00,0x00,0x00,0x00,
 0x00,0x00,0x00,0x00,0x00,0x00,0x00,0x00,0x00,0x00,0x00,0x00,0x00,0x00,0x00,
 0x00,0x00,0x00,0x00,0x00,0x00,0x00,0x00,0x00,0x00,0x01,0x00,0x00,0x00,0x00,
 0x00,0x00,0x0f,0x00,0x00,0x00,0x00,0x00,0x00,0x00,0x00,0x00,0x00,0x00,0x00,
 0x00,0x00,0x00,0x00,0x00,0x00,0x00,0x00,0x00,0x00,0x00,0x00,0x00,0x00,0x00,
 0x00,0x00,0x00,0x00,0x00,0x00,0x00,0x00,0x00,0x80,0x00,0x00,0x00,0x00,0x00,
 0x00,0x00,0x00,0x00,0x00,0x00,0x00,0x00,0x00,0x00,0x00,0x00,0x00,0x00,0x00,
 0x00,0x00,0x00,0x00,0x00,0x00,0x00,0x00,0x00,0x00,0x00,0x00,0x00,0x00,0x00,
 0x00,0x00,0x00,0x00,0x00,0x00,0x00,0x00,0x00,0x00,0x00,0x00,0x00,0x00,0x00,
 0x00,0x00,0x00,0x00,0x00,0x00,0x00,0x00,0x00,0x00,0x00,0x00,0x00,0x00,0x00,
 0x00,0x00,0x00,0x00,0x00,0x00,0x00,0x00,0x00,0x00,0x00,0x00,0x00,0x00,0x00,
 0x00,0x00,0x00,0x00,0x00,0x00,0x00,0x00,0x00,0x00,0x00,0x00,0x00,0x00,0x00,
 0x00,0x00,0x00,0x00,0x00,0x00,0x00,0x00,0x00,0x00,0x00,0x00,0x00,0x00,0x00,
 0x00,0x00,0x00,0x00,0x00,0x00,0x00,0x00,0x00,0x00,0x00,0x00,0x00,0x00,0x00,
 0x00,0x00,0x00,0x00,0x00,0x00,0x00,0x00,0x00,0x00,0x00,0x00,0x00,0x00,0x00,
 0x00,0x00,0x00,0x00,0x00,0x00,0x00,0x00,0x00,0x00,0x00,0x00,0x00,0x00,0x00,
 0x00,0x00,0x00,0x00,0x00,0x00,0x00,0x00,0x00,0x00,0x00,0x00,0x00,0x00,0x00,
 0x00,0x00,0x00,0x00,0x00,0x00,0x00,0x00,0x00,0x00,0x00,0x00,0x00,0x00,0x00,
 0x00,0x00,0x00,0x00,0x00,0x00,0x00,0x00,0x00,0x00,0xc0,0x01,0x0e,0x80,0x03,
 0x0c,0x00,0x00,0x00,0x00,0x00,0x80,0x60,0x80,0x03,0x00,0x00,0x00,0xc0,0x01,
 0x00,0xf0,0x80,0x83,0x01,0x80,0x01,0x18,0x0c,0x00,0x01,0x03,0x00,0x00,0x00,
 0x00,0x00,0x00,0x00,0x00,0x00,0x00,0x00,0x00,0x00,0x80,0x01,0x0c,0x00,0x03,
 0x36,0x00,0x00,0x00,0x00,0x00,0xe0,0xb0,0x01,0x03,0x00,0x00,0x00,0xe0,0x01,
 0x00,0xd8,0x00,0x03,0x01,0xc0,0x06,0x6c,0x36,0x00,0xbf,0x0d,0x00,0x00,0x00,
 0x00,0x00,0x00,0x00,0x00,0x00,0x00,0x00,0x00,0x00,0x80,0x01,0x0c,0x00,0x03,
 0x37,0x00,0x00,0x00,0x00,0x00,0x80,0xb8,0x01,0x03,0x00,0x00,0x00,0x60,0x00,
 0x00,0x98,0x00,0x03,0x01,0x40,0x06,0x6e,0x33,0x80,0xd1,0x0d,0x00,0x00,0x00,
 0x00,0x00,0x00,0x00,0x00,0x00,0x00,0x00,0x00,0x00,0x80,0x01,0x0c,0x00,0x03,
 0x27,0x00,0x00,0x00,0x00,0x00,0x80,0x38,0x01,0x03,0x00,0x00,0x00,0x60,0x00,
 0x00,0x18,0x00,0x03,0x01,0x60,0x04,0x4e,0x23,0x80,0xc8,0x09,0x00,0x00,0x00,
 0x00,0x00,0x00,0x00,0x00,0x00,0x00,0x00,0x00,0x00,0x80,0x79,0x7c,0x3c,0x03,
 0x30,0x03,0x00,0x00,0x00,0x00,0x80,0x80,0x01,0x9f,0xef,0xe6,0x7f,0xf0,0x7c,
 0x1f,0xfc,0x3c,0xf3,0xf9,0x60,0x04,0x60,0x23,0x00,0x0c,0x0c,0xfe,0x07,0x00,
 0x00,0x00,0x00,0x00,0x00,0x00,0x00,0x00,0x00,0x00,0x80,0xd9,0xcc,0x66,0x03,
 0x30,0x03,0x00,0x00,0x00,0x00,0x80,0x80,0x01,0xd3,0xc8,0xc4,0x4f,0x60,0x46,
 0x1e,0x98,0x66,0x1b,0x99,0x60,0x04,0x60,0x32,0x00,0x04,0x0c,0xcc,0x0c,0x00,
 0x00,0x00,0x00,0x00,0x00,0x00,0x00,0x00,0x00,0x00,0x80,0xf1,0x8c,0x7e,0x03,
 0x18,0x00,0x00,0x00,0x00,0x00,0x80,0xc0,0x00,0xd3,0xd8,0xc4,0x3c,0x60,0xc6,
 0x06,0x98,0x7e,0x1b,0x79,0x60,0xf4,0x30,0x3e,0x00,0x06,0x06,0xcc,0x0c,0x00,
 0x00,0x00,0x00,0x00,0x00,0x00,0x00,0x00,0x00,0x00,0x80,0xd9,0x8c,0x06,0x03,
 0x2c,0x00,0x00,0x00,0x00,0x00,0x80,0x60,0x01,0xd3,0xd8,0xc4,0x7c,0x60,0xc6,
 0x06,0x98,0x06,0x1b,0xf9,0x60,0xf4,0x58,0x30,0x00,0x06,0x0b,0xcc,0x0c,0x00,
 0x00,0x00,0x00,0x00,0x00,0x00,0x00,0x00,0x00,0x00,0x80,0xcd,0xcd,0x46,0x03,
 0x26,0x03,0x00,0x00,0x00,0x00,0x80,0x30,0x01,0xd3,0xc8,0xc6,0x44,0x60,0x46,
 0x06,0x98,0x46,0x1b,0x89,0x40,0x06,0x4c,0x36,0x03,0x86,0x09,0xcc,0x0c,0x00,
 0x00,0x00,0x00,0x00,0x00,0x00,0x00,0x00,0x00,0x00,0xc0,0xfb,0x7d,0xbc,0x07,
 0x3f,0x03,0x00,0x00,0x00,0x00,0xe0,0xfb,0x81,0xbf,0xcf,0xef,0x7d,0xf0,0x7c,
 0x0f,0xdc,0xbd,0xf7,0xfb,0xc0,0x06,0x7e,0x1a,0x03,0xc6,0x0f,0xfe,0x1f,0x00,
 0x00,0x00,0x00,0x00,0x00,0x00,0x00,0x00,0x00,0x00,0x00,0x00,0x00,0x00,0x00,
 0x00,0x00,0x00,0x00,0x00,0x00,0x00,0x00,0x00,0x00,0x00,0x00,0x00,0x00,0x00,
 0x00,0x00,0x00,0x00,0x00,0x80,0x03,0x00,0x0c,0x02,0x06,0x00,0x00,0x00,0x00,
 0x00,0x00,0x00,0x00,0x00,0x00,0x00,0x00,0x00,0x00,0x00,0x00,0x00,0x00,0x00,
 0x00,0x00,0x00,0x00,0x00,0x00,0x00,0x00,0x00,0x00,0x00,0x00,0x00,0x00,0x00,
 0x00,0x00,0x00,0x00,0x00,0x00,0x00,0x00,0x00,0x02,0x00,0x00,0x00,0x00,0x00,
 0x00,0x00,0x00,0x00,0x00,0x00,0x00,0x00,0x00,0x00,0x00,0x00,0x00,0x00,0x00,
 0x00,0x00,0x00,0x00,0x00,0x00,0x00,0x00,0x00,0x00,0x00,0x00,0x00,0x00,0x00,
 0x00,0x00,0x00,0x00,0x00,0x00,0x00,0x00,0x00,0x01,0x00,0x00,0x00,0x00,0x00,
 0x00,0x00,0x00,0x00,0x00,0x00,0x00,0x00,0x00,0x00,0x00,0x00,0x00,0x00,0x00,
 0x00,0x00,0x00,0x00,0x00,0x00,0x00,0x00,0x00,0x00,0x00,0x00,0x00,0x00,0x00,
 0x00,0x00,0x00,0x00,0x00,0x00,0x00,0x00,0x00,0x00,0x00,0x00,0x00,0x00,0x00,
 0x00,0x00,0x00,0x00,0x00,0x00,0x00,0x00,0x00,0x00,0x00,0x00,0x00,0x00,0x00,
 0x00,0x00,0x00,0x00,0x00,0x00,0x00,0x00,0x00,0x00,0x00,0x00,0x00,0x00,0x00,
 0x00,0x00,0x00,0x00,0x00,0x00,0x00,0x00,0x00,0x00,0x00,0x00,0x00,0x00,0x00,
 0x00,0x00,0x00,0x00,0x00,0x00,0x00,0x00,0x00,0x00,0x00,0x00,0x00,0x00,0x00,
 0x00,0x00,0x00,0x00,0x00,0x00,0x00,0x00,0x00,0x00,0x00,0x00,0x00,0x00,0x00,
 0x00,0x00,0x00,0x00,0x00,0x00,0x00,0x00,0x00,0x00,0x00,0x00,0x00,0x00,0x00,
 0xff,0x01,0x00,0x00,0xe0,0x00,0x00,0x00,0x00,0x00,0xc0,0x01,0x0e,0x80,0x03,
 0x08,0x00,0x00,0x00,0x00,0x00,0x80,0x60,0x80,0x03,0x00,0x00,0x00,0x00,0xb8,
 0x03,0x3c,0xe0,0x60,0x00,0xe0,0x00,0x00,0x10,0x0e,0x00,0x00,0x00,0x00,0x00,
 0x33,0x01,0x00,0x00,0xb0,0x01,0x00,0x00,0x00,0x00,0x80,0x01,0x0c,0x00,0x03,
 0x0e,0x00,0x00,0x00,0x00,0x00,0xe0,0xb0,0x01,0x03,0x00,0x00,0x00,0x00,0x30,
 0x03,0x36,0xc0,0x40,0x00,0xf0,0x00,0x00,0x18,0x1b,0x00,0x00,0x00,0x00,0x00,
 0x31,0x03,0x00,0x00,0xb0,0x01,0x00,0x00,0x00,0x00,0x80,0x01,0x0c,0x00,0x03,
 0x08,0x00,0x00,0x00,0x00,0x00,0x80,0xb8,0x01,0x03,0x00,0x00,0x00,0x00,0x30,
 0x03,0x26,0xc0,0x40,0x00,0x30,0x00,0x00,0x18,0x11,0x00,0x00,0x00,0x00,0x00,
 0x31,0x02,0x00,0x00,0xb0,0x01,0x00,0x00,0x00,0x00,0x80,0x01,0x0c,0x00,0x03,
 0x08,0x00,0x00,0x00,0x00,0x00,0x80,0x38,0x01,0x03,0x00,0x00,0x00,0x00,0x30,
 0x03,0x06,0xc0,0x40,0x00,0x30,0x00,0x00,0x1c,0x1b,0x00,0x00,0x00,0x00,0x00,
 0x30,0x3c,0x3f,0x1e,0xc0,0x18,0x00,0x00,0x00,0x00,0x80,0x79,0x7c,0x3c,0x03,
 0x08,0x03,0x00,0x00,0x00,0x00,0x80,0x80,0x01,0x9f,0xef,0xe6,0x7f,0xe0,0x31,
 0x03,0x3f,0xcf,0x7c,0x3e,0x78,0xdf,0x07,0x16,0x0f,0xf8,0x1f,0x00,0x00,0x00,
 0x30,0x6c,0x66,0x33,0xe0,0x19,0x00,0x00,0x00,0x00,0x80,0xd9,0xcc,0x66,0x03,
 0x08,0x03,0x00,0x00,0x00,0x00,0x80,0x80,0x01,0xd3,0xc8,0xc4,0x4f,0x60,0x33,
 0x03,0xa6,0xd9,0x46,0x26,0xb0,0x91,0x07,0x12,0x1f,0x30,0x33,0x00,0x00,0x00,
 0x30,0x78,0x46,0x3f,0x80,0x01,0x00,0x00,0x00,0x00,0x80,0xf1,0x8c,0x7e,0x03,
 0x08,0x00,0x00,0x00,0x00,0x00,0x80,0xc0,0x00,0xd3,0xd8,0xc4,0x3c,0xc0,0x33,
 0x03,0xa6,0xdf,0x46,0x1e,0xb0,0xb1,0x01,0x13,0x1d,0x30,0x33,0x00,0x00,0x00,
 0x30,0x6c,0x46,0x03,0xb8,0x01,0x00,0x00,0x00,0x00,0x80,0xd9,0x8c,0x06,0x03,
 0x08,0x00,0x00,0x00,0x00,0x00,0x80,0x60,0x01,0xd3,0xd8,0xc4,0x7c,0x60,0x33,
 0x03,0xa6,0xc1,0x46,0x3e,0xb0,0xb1,0x01,0xff,0x11,0x30,0x33,0x00,0x00,0x00,
 0x30,0xe6,0x66,0x23,0xb8,0x19,0x00,0x00,0x00,0x00,0x80,0xcd,0xcd,0x46,0x03,
 0x08,0x03,0x00,0x00,0x00,0x00,0x80,0x30,0x01,0xd3,0xc8,0xc6,0x44,0x30,0x37,
 0x03,0xa6,0xd1,0x46,0x22,0xb0,0x91,0x01,0x90,0x11,0x30,0x33,0x00,0x00,0x00,
 0xfc,0xfc,0x3e,0x1e,0xb0,0x19,0x00,0x00,0x00,0x00,0xc0,0xfb,0x7d,0xbc,0x07,
 0x3e,0x03,0x00,0x00,0x00,0x00,0xe0,0xfb,0x81,0xbf,0xcf,0xef,0x7d,0xe0,0xff,
 0x07,0x77,0xef,0xfd,0x3e,0x78,0xdf,0x03,0x7c,0x1b,0xf8,0x7f,0x00,0x00,0x00,
 0x00,0x00,0x06,0x00,0x60,0x00,0x00,0x00,0x00,0x00,0x00,0x00,0x00,0x00,0x00,
 0x00,0x00,0x00,0x00,0x00,0x00,0x00,0x00,0x00,0x00,0x00,0x00,0x00,0x00,0x00,
 0x00,0x00,0x00,0x00,0x00,0x00,0x00,0x00,0x00,0x0e,0x00,0x00,0x00,0x00,0x00,
 0x00,0x00,0x06,0x00,0x00,0x00,0x00,0x00,0x00,0x00,0x00,0x00,0x00,0x00,0x00,
 0x00,0x00,0x00,0x00,0x00,0x00,0x00,0x00,0x00,0x00,0x00,0x00,0x00,0x00,0x00,
 0x00,0x00,0x00,0x00,0x00,0x00,0x00,0x00,0x00,0x00,0x00,0x00,0x00,0x00,0x00,
 0x00,0x00,0x0f,0x00,0x00,0x00,0x00,0x00,0x00,0x00,0x00,0x00,0x00,0x00,0x00,
 0x00,0x00,0x00,0x00,0x00,0x00,0x00,0x00,0x00,0x00,0x00,0x00,0x00,0x00,0x00,
 0x00,0x00,0x00,0x00,0x00,0x00,0x00,0x00,0x00,0x00,0x00,0x00,0x00,0x00,0x00,
 0x00,0x00,0x00,0x00,0x00,0x00,0x00,0x00,0x00,0x00,0x00,0x00,0x00,0x00,0x00,
 0x00,0x00,0x00,0x00,0x00,0x00,0x00,0x00,0x00,0x00,0x00,0x00,0x00,0x00,0x00,
 0x00,0x00,0x00,0x00,0x00,0x00,0x00,0x00,0x00,0x00,0x00,0x00,0x00,0x00,0x00,
 0x00,0x00,0x00,0x00,0x00,0x00,0x00,0x00,0x00,0x00,0x00,0x00,0x00,0x00,0x00,
 0x00,0x00,0x00,0x00,0x00,0x00,0x00,0x00,0x00,0x00,0x00,0x00,0x00,0x00,0x00,
 0x00,0x00,0x00,0x00,0x00,0x00,0x00,0x00,0x00,0x00,0x00,0x00,0x00,0x00,0x00,
 0x00,0x00,0x00,0x00,0x00,0x00,0x00,0x00,0x00,0x00,0x00,0x00,0x00,0x00,0x00,
 0x00,0x00,0x00,0x00,0x00,0x00,0x00,0x00,0x00,0x00,0x00,0x00,0x00,0x00,0x00,
 0x00,0x00,0x00,0x00,0x00,0x00,0x00,0x00,0x00,0x00,0x00,0x00,0x00,0x00,0x00,
 0x00,0x00,0x00,0x00,0x00,0x00,0x00,0x00,0x00,0x00,0x00,0x00,0x00,0x00,0x00,
 0x00,0x00,0x00,0x00,0x00,0x00,0x00,0x00,0x00,0x00,0x00,0x00,0x00,0x00,0x00,
 0x00,0x00,0x00,0x00,0x00,0x00,0x00,0x00,0x00,0x00,0x00,0x00,0x00,0x00,0x00,
 0xff,0x01,0x00,0x00,0x80,0x00,0x00,0x00,0x00,0x00,0xc0,0x01,0x0e,0x80,0x03,
 0x08,0x00,0x00,0x00,0x00,0x00,0x80,0x60,0x80,0x03,0x00,0x00,0x00,0x00,0xb8,
 0x03,0x3c,0xe0,0x60,0x00,0xe0,0x00,0x00,0x0c,0x06,0x00,0x00,0x00,0x00,0x00,
 0x33,0x01,0x00,0x00,0xc0,0x00,0x00,0x00,0x00,0x00,0x80,0x01,0x0c,0x00,0x03,
 0x0e,0x00,0x00,0x00,0x00,0x00,0xe0,0xb0,0x01,0x03,0x00,0x00,0x00,0x00,0x30,
 0x03,0x36,0xc0,0x40,0x00,0xf0,0x00,0x00,0x36,0x1b,0x00,0x00,0x00,0x00,0x00,
 0x31,0x03,0x00,0x00,0xc0,0x00,0x00,0x00,0x00,0x00,0x80,0x01,0x0c,0x00,0x03,
 0x08,0x00,0x00,0x00,0x00,0x00,0x80,0xb8,0x01,0x03,0x00,0x00,0x00,0x00,0x30,
 0x03,0x26,0xc0,0x40,0x00,0x30,0x00,0x00,0x33,0x19,0x00,0x00,0x00,0x00,0x00,
 0x31,0x02,0x00,0x00,0xe0,0x00,0x00,0x00,0x00,0x00,0x80,0x01,0x0c,0x00,0x03,
 0x08,0x00,0x00,0x00,0x00,0x00,0x80,0x38,0x01,0x03,0x00,0x00,0x00,0x00,0x30,
 0x03,0x06,0xc0,0x40,0x00,0x30,0x00,0x00,0xa3,0x11,0x00,0x00,0x00,0x00,0x00,
 0x30,0x3c,0x3f,0x1e,0xb0,0x18,0x00,0x00,0x00,0x00,0x80,0x79,0x7c,0x3c,0x03,
 0x08,0x03,0x00,0x00,0x00,0x00,0x80,0x80,0x01,0x9f,0xef,0xe6,0x7f,0xe0,0x31,
 0x03,0x3f,0xcf,0x7c,0x3e,0x78,0xdf,0x07,0xa3,0x11,0xf8,0x1f,0x00,0x00,0x00,
 0x30,0x6c,0x66,0x33,0x90,0x18,0x00,0x00,0x00,0x00,0x80,0xd9,0xcc,0x66,0x03,
 0x08,0x03,0x00,0x00,0x00,0x00,0x80,0x80,0x01,0xd3,0xc8,0xc4,0x4f,0x60,0x33,
 0x03,0xa6,0xd9,0x46,0x26,0xb0,0x91,0x07,0xb2,0x11,0x30,0x33,0x00,0x00,0x00,
 0x30,0x78,0x46,0x3f,0x98,0x00,0x00,0x00,0x00,0x00,0x80,0xf1,0x8c,0x7e,0x03,
 0x08,0x00,0x00,0x00,0x00,0x00,0x80,0xc0,0x00,0xd3,0xd8,0xc4,0x3c,0xc0,0x33,
 0x03,0xa6,0xdf,0x46,0x1e,0xb0,0xb1,0x01,0xbe,0x11,0x30,0x33,0x00,0x00,0x00,
 0x30,0x6c,0x46,0x03,0xf8,0x03,0x00,0x00,0x00,0x00,0x80,0xd9,0x8c,0x06,0x03,
 0x08,0x00,0x00,0x00,0x00,0x00,0x80,0x60,0x01,0xd3,0xd8,0xc4,0x7c,0x60,0x33,
 0x03,0xa6,0xc1,0x46,0x3e,0xb0,0xb1,0x01,0xb0,0x11,0x30,0x33,0x00,0x00,0x00,
 0x30,0xe6,0x66,0x23,0x80,0x18,0x00,0x00,0x00,0x00,0x80,0xcd,0xcd,0x46,0x03,
 0x08,0x03,0x00,0x00,0x00,0x00,0x80,0x30,0x01,0xd3,0xc8,0xc6,0x44,0x30,0x37,
 0x03,0xa6,0xd1,0x46,0x22,0xb0,0x91,0x01,0x36,0x19,0x30,0x33,0x00,0x00,0x00,
 0xfc,0xfc,0x3e,0x1e,0xe0,0x1b,0x00,0x00,0x00,0x00,0xc0,0xfb,0x7d,0xbc,0x07,
 0x3e,0x03,0x00,0x00,0x00,0x00,0xe0,0xfb,0x81,0xbf,0xcf,0xef,0x7d,0xe0,0xff,
 0x07,0x77,0xef,0xfd,0x3e,0x78,0xdf,0x03,0x1a,0x1b,0xf8,0x7f,0x00,0x00,0x00,
 0x00,0x00,0x06,0x00,0x00,0x00,0x00,0x00,0x00,0x00,0x00,0x00,0x00,0x00,0x00,
 0x00,0x00,0x00,0x00,0x00,0x00,0x00,0x00,0x00,0x00,0x00,0x00,0x00,0x00,0x00,
 0x00,0x00,0x00,0x00,0x00,0x00,0x00,0x00,0x0c,0x0e,0x00,0x00,0x00,0x00,0x00,
 0x00,0x00,0x06,0x00,0x00,0x00,0x00,0x00,0x00,0x00,0x00,0x00,0x00,0x00,0x00,
 0x00,0x00,0x00,0x00,0x00,0x00,0x00,0x00,0x00,0x00,0x00,0x00,0x00,0x00,0x00,
 0x00,0x00,0x00,0x00,0x00,0x00,0x00,0x00,0x00,0x00,0x00,0x00,0x00,0x00,0x00,
 0x00,0x00,0x0f,0x00,0x00,0x00,0x00,0x00,0x00,0x00,0x00,0x00,0x00,0x00,0x00,
 0x00,0x00,0x00,0x00,0x00,0x00,0x00,0x00,0x00,0x00,0x00,0x00,0x00,0x00,0x00,
 0x00,0x00,0x00,0x00,0x00,0x00,0x00,0x00,0x00,0x00,0x00,0x00,0x00,0x00,0x00};
