#define noname_width 546
#define noname_height 63
static char noname_bits[] = {
 0xff,0x01,0x00,0x00,0x40,0x00,0x00,0x00,0x00,0x00,0x00,0x00,0x00,0x00,0x00,
 0x00,0x00,0x00,0x00,0x00,0x00,0x00,0x00,0x00,0x00,0x00,0x00,0x00,0x00,0x00,
 0x00,0x00,0x00,0x00,0x00,0x00,0x00,0x00,0x00,0x00,0x00,0x00,0x00,0x00,0x00,
 0x00,0x00,0x00,0x38,0x1e,0x00,0x00,0x00,0x00,0x00,0x00,0x03,0x00,0x00,0x00,
 0x00,0x80,0x03,0x00,0x00,0x00,0x38,0xc0,0x00,0x33,0x01,0x00,0x00,0x70,0x00,
 0x00,0x00,0x00,0x00,0x00,0x07,0x80,0x03,0xe0,0x00,0xf8,0x38,0x00,0x1c,0x00,
 0x0c,0x06,0x80,0x03,0xf0,0x01,0x00,0x1c,0x00,0x0c,0x80,0x03,0xe0,0xe3,0x00,
 0x70,0x00,0x30,0x18,0x00,0x0e,0xc0,0x07,0x00,0x00,0x00,0x00,0x70,0x0c,0x80,
 0x00,0x00,0x00,0x00,0x08,0x03,0x00,0x00,0x00,0x00,0x00,0x03,0x00,0x00,0x00,
 0x30,0x60,0x03,0x31,0x03,0x00,0x00,0x40,0x00,0x00,0x00,0x00,0x00,0x80,0x0f,
 0xc0,0x07,0xf0,0x01,0xf8,0x7c,0x00,0x3e,0x00,0x1e,0x07,0xc0,0x07,0xf0,0x01,
 0x00,0x3e,0x00,0x0c,0xc0,0x07,0xe0,0xf3,0x01,0xf8,0x00,0x78,0x1c,0x00,0x1f,
 0xc0,0x07,0x00,0x00,0x00,0x00,0xf0,0x08,0xc0,0x00,0x00,0x00,0x00,0x0c,0x00,
 0x00,0x00,0x00,0x00,0x00,0x03,0x00,0x00,0x00,0x30,0x20,0x03,0x31,0x02,0x00,
 0x00,0x40,0x00,0x00,0x00,0x00,0x00,0x80,0x0d,0xc0,0x06,0xb0,0x01,0x08,0x66,
 0x00,0x36,0x00,0x1b,0x07,0xc0,0x06,0x10,0x00,0x00,0x36,0x00,0x0f,0xc0,0x06,
 0x20,0x98,0x01,0xd8,0x00,0x6c,0x1c,0x00,0x1b,0x40,0x00,0x00,0x00,0x00,0x00,
 0xd0,0x09,0xc0,0x00,0x00,0x00,0x00,0x0c,0x00,0x00,0x00,0x00,0x00,0x00,0x03,
 0x00,0x00,0x00,0x30,0x30,0x02,0x30,0x3c,0x3f,0x1e,0x40,0x18,0x00,0x00,0x00,
 0x00,0xc0,0x18,0x60,0x0c,0x18,0x03,0x08,0xc6,0x00,0x63,0x80,0x8f,0x05,0x60,
 0x0c,0x10,0x00,0x00,0x63,0x00,0x0f,0x60,0x0c,0x20,0x18,0x03,0x8c,0x01,0x3e,
 0x16,0x80,0x31,0x40,0x00,0x00,0x00,0x00,0x00,0x90,0x89,0xef,0x79,0xc0,0xf7,
 0xfd,0x9e,0xfb,0xdd,0xdc,0xfe,0x07,0x7c,0x1f,0xcf,0xef,0xc7,0x33,0x30,0x02,
 0x30,0x6c,0x66,0x33,0x40,0x18,0x00,0x00,0x00,0x00,0xc0,0x18,0x60,0x0c,0x18,
 0xfb,0xfb,0xee,0x00,0xe3,0xbf,0xdf,0x05,0x60,0xfc,0xf7,0x01,0x00,0x63,0x00,
 0x0c,0x60,0xec,0xef,0xbb,0x03,0x8c,0xff,0x7e,0x17,0x80,0xf1,0xdf,0x07,0x00,
 0x00,0x00,0x00,0x90,0xcb,0xc8,0xcc,0x60,0x1e,0x99,0x0c,0x33,0x99,0x98,0xcc,
 0x0c,0x66,0x13,0x9b,0xc9,0x64,0x36,0x30,0x02,0x30,0x78,0x46,0x3f,0x40,0x00,
 0x00,0x00,0x00,0x00,0xc0,0x18,0x60,0x0c,0x18,0xfb,0xdb,0xfd,0x00,0xe3,0xbf,
 0xf1,0x1f,0x60,0xfc,0xb7,0x03,0x00,0x63,0x00,0x0c,0x60,0xec,0x6f,0xf7,0x03,
 0x8c,0xff,0xc6,0x7f,0x80,0xf1,0xdf,0x0e,0x00,0x00,0x00,0x00,0x10,0xcf,0xd8,
 0xfc,0x60,0x18,0x9b,0x0c,0x33,0x99,0x98,0xcc,0x0c,0x06,0x13,0x9e,0xc9,0xe4,
 0x37,0x30,0x02,0x30,0x6c,0x46,0x03,0x40,0x00,0x00,0x00,0x00,0x00,0xc0,0x18,
 0x60,0x0c,0x18,0x03,0x8c,0x45,0x00,0x63,0x80,0xf1,0x1f,0x60,0x0c,0x18,0x03,
 0x00,0x63,0x00,0x0c,0x60,0x0c,0x30,0x16,0x01,0x8c,0x01,0xc6,0x7f,0x80,0x31,
 0x60,0x0c,0x00,0x00,0x00,0x00,0x10,0xce,0xd8,0x0e,0x60,0x18,0x9b,0x2c,0x33,
 0x99,0x98,0xcc,0x0c,0x06,0x13,0x9b,0xc9,0x64,0x30,0x30,0x02,0x30,0xe6,0x66,
 0x23,0x40,0x18,0x00,0x00,0x00,0x00,0x80,0x8d,0xc3,0xc6,0xb1,0x01,0xdc,0x7d,
 0x38,0x36,0x00,0x3b,0x84,0xc3,0x06,0xb8,0xe3,0x00,0x36,0x0e,0x0c,0xc7,0x06,
 0x70,0xf7,0xe1,0xd8,0x00,0xec,0x10,0x0e,0x1b,0xe0,0x0e,0x00,0x00,0x00,0x00,
 0x10,0xce,0xc8,0x8e,0x60,0x1c,0x99,0x2c,0x33,0xd9,0xd8,0xcc,0x0c,0x46,0x93,
 0xb9,0xc9,0x64,0x34,0x20,0x03,0xfc,0xfc,0x3e,0x1e,0xf0,0x19,0x00,0x00,0x00,
 0x00,0x80,0x8f,0xc3,0xc7,0xf1,0x01,0xf8,0x3c,0x38,0x3e,0x00,0x1f,0x9f,0xc3,
 0x07,0xf0,0xe1,0x00,0x3e,0x0e,0x1f,0xc7,0x07,0xe0,0xf3,0xe0,0xf8,0x00,0x7c,
 0x7c,0x0e,0x1f,0xc0,0x07,0x00,0x00,0x00,0x00,0x78,0x8c,0xcf,0x7b,0xc0,0xf3,
 0xfd,0xbd,0xff,0xfb,0xf9,0xff,0x1f,0xbc,0x3f,0xff,0xff,0xcf,0x7b,0x60,0x03,
 0x00,0x00,0x06,0x00,0x00,0x00,0x00,0x00,0x00,0x00,0x00,0x00,0x00,0x00,0x00,
 0x00,0x00,0x00,0x00,0x00,0x00,0x00,0x00,0x00,0x00,0x00,0xc0,0x00,0x00,0x00,
 0x00,0x00,0x00,0x00,0x00,0x00,0x00,0x00,0x00,0x00,0x00,0x00,0x00,0x00,0x00,
 0x00,0x00,0x00,0x00,0x00,0x00,0x00,0x00,0x00,0x00,0x00,0x00,0x00,0x00,0x00,
 0x00,0x00,0x00,0x00,0x00,0x00,0x00,0xc0,0x01,0x00,0x00,0x06,0x00,0x00,0x00,
 0x00,0x00,0x00,0x00,0x00,0x00,0x00,0x00,0x00,0x00,0x00,0x00,0x00,0x00,0x00,
 0x00,0x00,0x00,0x00,0x00,0x60,0x00,0x00,0x00,0x00,0x00,0x00,0x00,0x00,0x00,
 0x00,0x00,0x00,0x00,0x00,0x00,0x00,0x00,0x00,0x00,0x00,0x00,0x00,0x00,0x00,
 0x00,0x00,0x00,0x00,0x00,0x00,0x00,0x00,0x00,0x00,0x00,0x00,0x00,0x00,0x00,
 0x00,0x00,0x00,0x00,0x00,0x0f,0x00,0x00,0x00,0x00,0x00,0x00,0x00,0x00,0x00,
 0x00,0x00,0x00,0x00,0x00,0x00,0x00,0x00,0x00,0x00,0x00,0x00,0x00,0x00,0x00,
 0x00,0x00,0x00,0x00,0x00,0x00,0x00,0x00,0x00,0x00,0x00,0x00,0x00,0x00,0x00,
 0x00,0x00,0x00,0x00,0x00,0x00,0x00,0x00,0x00,0x00,0x00,0x00,0x00,0x00,0x00,
 0x00,0x00,0x00,0x00,0x00,0x00,0x00,0x00,0x00,0x00,0x00,0x00,0x00,0x00,0x00,
 0x00,0x00,0x00,0x00,0x00,0x00,0x00,0x00,0x00,0x00,0x00,0x00,0x00,0x00,0x00,
 0x00,0x00,0x00,0x00,0x00,0x00,0x00,0x00,0x00,0x00,0x00,0x00,0x00,0x00,0x00,
 0x00,0x00,0x00,0x00,0x00,0x00,0x00,0x00,0x00,0x00,0x00,0x00,0x00,0x00,0x00,
 0x00,0x00,0x00,0x00,0x00,0x00,0x00,0x00,0x00,0x00,0x00,0x00,0x00,0x00,0x00,
 0x00,0x00,0x00,0x00,0x00,0x00,0x00,0x00,0x00,0x00,0x00,0x00,0x00,0x00,0x00,
 0x00,0x00,0x00,0x00,0x00,0x00,0x00,0x00,0x00,0x00,0x00,0x00,0x00,0x00,0x00,
 0x00,0x00,0x00,0x00,0x00,0x00,0x00,0x00,0x00,0x00,0x00,0x00,0x00,0x00,0x00,
 0x00,0x00,0x00,0x00,0x00,0x00,0x00,0x00,0x00,0x00,0x00,0x00,0x00,0x00,0x00,
 0x00,0x00,0x00,0x00,0x00,0x00,0x00,0x00,0x00,0x00,0x00,0x00,0x00,0x00,0x00,
 0x00,0x00,0x00,0x00,0x00,0x00,0x00,0x00,0x00,0x00,0x00,0x00,0x00,0x00,0x00,
 0x00,0x00,0x00,0x00,0x00,0x00,0x00,0x00,0x00,0x00,0x00,0x00,0x00,0x00,0x00,
 0x00,0x00,0x00,0x00,0x00,0x00,0x00,0x00,0x00,0x00,0x00,0x00,0x00,0x00,0x00,
 0x00,0x00,0x00,0x00,0x00,0x00,0x00,0x00,0x00,0x00,0x00,0x00,0x00,0x00,0x00,
 0x00,0x00,0x00,0x00,0x00,0x00,0x00,0x00,0x00,0x00,0x00,0x00,0x00,0x00,0x00,
 0x00,0x00,0x00,0x00,0x00,0x00,0x00,0x00,0x00,0x00,0x00,0x00,0x00,0x00,0x00,
 0x00,0x00,0x00,0x00,0x00,0x00,0x00,0x00,0x00,0x00,0x00,0x00,0x00,0x00,0x00,
 0x00,0x00,0x00,0x00,0x00,0x00,0x00,0x00,0x00,0x00,0x00,0x00,0x00,0x00,0x00,
 0x00,0x00,0x00,0x00,0x00,0x00,0x00,0x00,0x00,0x00,0x00,0x00,0x00,0x00,0x00,
 0x00,0x00,0x00,0xff,0x01,0x00,0x00,0x60,0x00,0x00,0x00,0x00,0x00,0x00,0x00,
 0x00,0x00,0x00,0x00,0x00,0x00,0x00,0x00,0x00,0x00,0x00,0x00,0x00,0x00,0x00,
 0x00,0x00,0x00,0x00,0x00,0x00,0x00,0x00,0x00,0x00,0x00,0x00,0x00,0x00,0x00,
 0x00,0x00,0x00,0x00,0x00,0x00,0x00,0x00,0x00,0x00,0x00,0x00,0x00,0x00,0x00,
 0x00,0x00,0x00,0x00,0x00,0x00,0x00,0x00,0x00,0x00,0x00,0x00,0x33,0x01,0x00,
 0x00,0xb0,0x01,0x00,0x00,0x00,0x00,0x00,0x06,0x80,0x03,0xe0,0xe0,0x00,0x7c,
 0x38,0x00,0x0e,0x00,0x06,0x03,0xc0,0x01,0xc0,0x60,0x00,0x00,0x0c,0x00,0x03,
 0xc0,0x01,0xe0,0x70,0x00,0x38,0x00,0x0c,0x0c,0x80,0x03,0x80,0xc1,0x00,0x00,
 0x00,0x00,0x00,0x00,0x00,0x00,0x00,0x00,0x00,0x00,0x00,0x00,0x00,0x00,0x00,
 0x00,0x00,0x00,0x00,0x00,0x00,0x31,0x03,0x00,0x00,0xb8,0x01,0x00,0x00,0x00,
 0x00,0x00,0x06,0xc0,0x07,0xf0,0xf1,0x01,0x7c,0x7c,0x00,0x1f,0x00,0x8f,0x03,
 0xe0,0x03,0xc0,0x60,0x00,0x00,0x0c,0x00,0x03,0xe0,0x03,0xf0,0xf9,0x00,0x7c,
 0x00,0x1e,0x0e,0xc0,0x07,0x80,0xc1,0x00,0x00,0x00,0x00,0x00,0x00,0x00,0x00,
 0x00,0x00,0x00,0x00,0x00,0x00,0x00,0x00,0x00,0x00,0x00,0x00,0x00,0x00,0x00,
 0x31,0x02,0x00,0x00,0x38,0x01,0x00,0x00,0x00,0x00,0x80,0x07,0xc0,0x06,0x30,
 0xb1,0x01,0x04,0x66,0x00,0x1b,0x80,0x8d,0x03,0x60,0x03,0xf0,0x78,0x00,0x00,
 0x0f,0xc0,0x03,0x60,0x03,0x18,0xcf,0x00,0x6c,0x00,0x1b,0x0e,0xc0,0x06,0xe0,
 0xf1,0x00,0x00,0x00,0x00,0x00,0x00,0x00,0x00,0x00,0x00,0x00,0x00,0x00,0x00,
 0x00,0x00,0x00,0x00,0x00,0x00,0x00,0x00,0x00,0x30,0x3c,0x3f,0x1e,0x80,0x19,
 0x00,0x00,0x00,0x00,0x80,0x07,0x60,0x0c,0x80,0x19,0x03,0x04,0xc6,0x80,0x31,
 0xc0,0xc7,0x02,0x30,0x06,0xf0,0x78,0x00,0x00,0x0f,0xc0,0x03,0x30,0x06,0x10,
 0x8f,0x01,0xc6,0x80,0x0f,0x0b,0x60,0x0c,0xe0,0xf1,0x00,0x00,0x00,0x00,0x00,
 0x00,0x00,0x00,0x00,0x00,0x00,0x00,0x00,0x00,0x00,0x00,0x00,0x00,0x00,0x00,
 0x00,0x00,0x00,0x30,0x6c,0x66,0x33,0x80,0x19,0x00,0x00,0x00,0x00,0x00,0x06,
 0x60,0x0c,0xe0,0x19,0xff,0x7d,0xee,0x80,0xb1,0xff,0xef,0x02,0x30,0xfe,0xc3,
 0x60,0x00,0x00,0x0c,0x00,0x03,0x30,0xfe,0x83,0xdd,0x01,0xc6,0xff,0x9f,0x0b,
 0x60,0xec,0x8f,0xc1,0x00,0x00,0x00,0x00,0x00,0x00,0x00,0x00,0x00,0x00,0x00,
 0x00,0x00,0x00,0x00,0x00,0x00,0x00,0x00,0x00,0x00,0x00,0x00,0x30,0x78,0x46,
 0x3f,0xc0,0x00,0x00,0x00,0x00,0x00,0x00,0x06,0x60,0x0c,0x80,0x19,0xff,0xed,
 0xfc,0x80,0xb1,0xff,0xf8,0x0f,0x30,0xfe,0xc3,0x60,0x00,0x00,0x0c,0x00,0x03,
 0x30,0xfe,0xc3,0xf9,0x01,0xc6,0xff,0xb1,0x3f,0x60,0xec,0x8f,0xc1,0x00,0x00,
 0x00,0x00,0x00,0x00,0x00,0x00,0x00,0x00,0x00,0x00,0x00,0x00,0x00,0x00,0x00,
 0x00,0x00,0x00,0x00,0x00,0x00,0x30,0x6c,0x46,0x03,0x60,0x01,0x00,0x00,0x00,
 0x00,0x00,0x06,0x60,0x0c,0x10,0x1b,0x03,0xc6,0x44,0x80,0x31,0xc0,0xf8,0x0f,
 0x30,0x06,0xc0,0x60,0x00,0x00,0x0c,0x00,0x03,0x30,0x06,0xe0,0x88,0x00,0xc6,
 0x80,0xb1,0x3f,0x60,0x0c,0x80,0xc1,0x00,0x00,0x00,0x00,0x00,0x00,0x00,0x00,
 0x00,0x00,0x00,0x00,0x00,0x00,0x00,0x00,0x00,0x00,0x00,0x00,0x00,0x00,0x00,
 0x30,0xe6,0x66,0x23,0x30,0x19,0x00,0x00,0x00,0x00,0x00,0x86,0xc3,0xc6,0xb9,
 0xb3,0x01,0xee,0x7c,0x1c,0x1b,0x80,0x1d,0x82,0x63,0x03,0xc0,0x60,0x38,0x00,
 0x0c,0x07,0x83,0x63,0x03,0x70,0xfb,0x38,0x6c,0x00,0x3b,0x08,0xc7,0x06,0x80,
 0xc1,0x00,0x00,0x00,0x00,0x00,0x00,0x00,0x00,0x00,0x00,0x00,0x00,0x00,0x00,
 0x00,0x00,0x00,0x00,0x00,0x00,0x00,0x00,0x00,0xfc,0xfc,0x3e,0x1e,0xf8,0x19,
 0x00,0x00,0x00,0x00,0x80,0x8f,0xc3,0xc7,0xf1,0xf1,0x01,0x7c,0x3c,0x1c,0x1f,
 0x80,0x8f,0x8f,0xe3,0x03,0xf0,0xf9,0x38,0x00,0x1f,0xc7,0x87,0xe3,0x03,0xf8,
 0x7b,0x38,0x7c,0x00,0x1f,0x3e,0xc7,0x07,0xe0,0xf3,0x01,0x00,0x00,0x00,0x00,
 0x00,0x00,0x00,0x00,0x00,0x00,0x00,0x00,0x00,0x00,0x00,0x00,0x00,0x00,0x00,
 0x00,0x00,0x00,0x00,0x00,0x06,0x00,0x00,0x00,0x00,0x00,0x00,0x00,0x00,0x00,
 0x00,0x00,0x00,0x00,0x00,0x00,0x00,0x00,0x00,0x00,0x00,0x00,0x00,0x00,0x00,
 0x00,0x30,0x00,0x00,0x00,0x00,0x00,0x00,0x00,0x00,0x00,0x00,0x00,0x00,0x00,
 0x00,0x00,0x00,0x00,0x00,0x00,0x00,0x00,0x00,0x00,0x00,0x00,0x00,0x00,0x00,
 0x00,0x00,0x00,0x00,0x00,0x00,0x00,0x00,0x00,0x00,0x00,0x00,0x00,0x00,0x06,
 0x00,0x00,0x00,0x00,0x00,0x00,0x00,0x00,0x00,0x00,0x00,0x00,0x00,0x00,0x00,
 0x00,0x00,0x00,0x00,0x00,0x00,0x00,0x00,0x00,0x00,0x18,0x00,0x00,0x00,0x00,
 0x00,0x00,0x00,0x00,0x00,0x00,0x00,0x00,0x00,0x00,0x00,0x00,0x00,0x00,0x00,
 0x00,0x00,0x00,0x00,0x00,0x00,0x00,0x00,0x00,0x00,0x00,0x00,0x00,0x00,0x00,
 0x00,0x00,0x00,0x00,0x00,0x00,0x00,0x00,0x0f,0x00,0x00,0x00,0x00,0x00,0x00,
 0x00,0x00,0x00,0x00,0x00,0x00,0x00,0x00,0x00,0x00,0x00,0x00,0x00,0x00,0x00,
 0x00,0x00,0x00,0x00,0x00,0x00,0x00,0x00,0x00,0x00,0x00,0x00,0x00,0x00,0x00,
 0x00,0x00,0x00,0x00,0x00,0x00,0x00,0x00,0x00,0x00,0x00,0x00,0x00,0x00,0x00,
 0x00,0x00,0x00,0x00,0x00,0x00,0x00,0x00,0x00,0x00,0x00,0x00,0x00,0x00,0x00,
 0x00,0x00,0x00,0x00,0x00,0x00,0x00,0x00,0x00,0x00,0x00,0x00,0x00,0x00,0x00,
 0x00,0x00,0x00,0x00,0x00,0x00,0x00,0x00,0x00,0x00,0x00,0x00,0x00,0x00,0x00,
 0x00,0x00,0x00,0x00,0x00,0x00,0x00,0x00,0x00,0x00,0x00,0x00,0x00,0x00,0x00,
 0x00,0x00,0x00,0x00,0x00,0x00,0x00,0x00,0x00,0x00,0x00,0x00,0x00,0x00,0x00,
 0x00,0x00,0x00,0x00,0x00,0x00,0x00,0x00,0x00,0x00,0x00,0x00,0x00,0x00,0x00,
 0x00,0x00,0x00,0x00,0x00,0x00,0x00,0x00,0x00,0x00,0x00,0x00,0x00,0x00,0x00,
 0x00,0x00,0x00,0x00,0x00,0x00,0x00,0x00,0x00,0x00,0x00,0x00,0x00,0x00,0x00,
 0x00,0x00,0x00,0x00,0x00,0x00,0x00,0x00,0x00,0x00,0x00,0x00,0x00,0x00,0x00,
 0x00,0x00,0x00,0x00,0x00,0x00,0x00,0x00,0x00,0x00,0x00,0x00,0x00,0x00,0x00,
 0x00,0x00,0x00,0x00,0x00,0x00,0x00,0x00,0x00,0x00,0x00,0x00,0x00,0x00,0x00,
 0x00,0x00,0x00,0x00,0x00,0x00,0x00,0x00,0x00,0x00,0x00,0x00,0x00,0x00,0x00,
 0x00,0x00,0x00,0x00,0x00,0x00,0x00,0x00,0x00,0x00,0x00,0x00,0x00,0x00,0x00,
 0x00,0x00,0x00,0x00,0x00,0x00,0x00,0x00,0x00,0x00,0x00,0x00,0x00,0x00,0x00,
 0x00,0x00,0x00,0x00,0x00,0x00,0x00,0x00,0x00,0x00,0x00,0x00,0xff,0x01,0x00,
 0x00,0xe0,0x00,0x00,0x00,0x00,0x00,0x00,0x00,0x00,0x00,0x00,0x00,0x00,0x00,
 0x00,0x00,0x00,0x00,0x00,0x00,0x00,0x00,0x00,0x00,0x00,0x00,0x00,0x00,0x00,
 0x00,0x00,0x00,0x00,0x00,0x00,0x00,0x00,0x00,0x00,0x00,0x00,0x00,0x00,0x00,
 0x00,0x00,0x00,0x00,0x00,0x00,0x00,0x00,0x00,0x00,0x00,0x00,0x00,0x00,0x00,
 0x00,0x00,0x00,0x00,0x00,0x00,0x33,0x01,0x00,0x00,0xb0,0x01,0x00,0x00,0x00,
 0x00,0x00,0x07,0x80,0x03,0xe0,0x00,0xf8,0x38,0x00,0x1c,0x00,0x0c,0x06,0x80,
 0x03,0xc0,0xc0,0x00,0x00,0x00,0x00,0x00,0x00,0x00,0x00,0x00,0x00,0x00,0x00,
 0x00,0x00,0x00,0x00,0x00,0x00,0x00,0x00,0x00,0x00,0x00,0x00,0x00,0x00,0x00,
 0x00,0x00,0x00,0x00,0x00,0x00,0x00,0x00,0x00,0x00,0x00,0x00,0x00,0x00,0x00,
 0x31,0x03,0x00,0x00,0xb0,0x01,0x00,0x00,0x00,0x00,0x80,0x0f,0xc0,0x07,0xf0,
 0x01,0xf8,0x7c,0x00,0x3e,0x00,0x1e,0x07,0xc0,0x07,0xc0,0xc0,0x00,0x00,0x00,
 0x00,0x00,0x00,0x00,0x00,0x00,0x00,0x00,0x00,0x00,0x00,0x00,0x00,0x00,0x00,
 0x00,0x00,0x00,0x00,0x00,0x00,0x00,0x00,0x00,0x00,0x00,0x00,0x00,0x00,0x00,
 0x00,0x00,0x00,0x00,0x00,0x00,0x00,0x00,0x00,0x31,0x02,0x00,0x00,0xb0,0x01,
 0x00,0x00,0x00,0x00,0xc0,0x18,0xc0,0x06,0xb0,0x01,0x08,0x66,0x00,0x36,0x00,
 0x1b,0x07,0xc0,0x06,0xf0,0xf0,0x00,0x00,0x00,0x00,0x00,0x00,0x00,0x00,0x00,
 0x00,0x00,0x00,0x00,0x00,0x00,0x00,0x00,0x00,0x00,0x00,0x00,0x00,0x00,0x00,
 0x00,0x00,0x00,0x00,0x00,0x00,0x00,0x00,0x00,0x00,0x00,0x00,0x00,0x00,0x00,
 0x00,0x00,0x00,0x30,0x3c,0x3f,0x1e,0xc0,0x18,0x00,0x00,0x00,0x00,0x80,0x18,
 0x60,0x0c,0x18,0x03,0x08,0xc6,0x00,0x63,0x80,0x8f,0x05,0x60,0x0c,0xf0,0xf0,
 0x00,0x00,0x00,0x00,0x00,0x00,0x00,0x00,0x00,0x00,0x00,0x00,0x00,0x00,0x00,
 0x00,0x00,0x00,0x00,0x00,0x00,0x00,0x00,0x00,0x00,0x00,0x00,0x00,0x00,0x00,
 0x00,0x00,0x00,0x00,0x00,0x00,0x00,0x00,0x00,0x00,0x00,0x00,0x30,0x6c,0x66,
 0x33,0xe0,0x19,0x00,0x00,0x00,0x00,0x00,0x0c,0x60,0x0c,0x18,0xfb,0xfb,0xee,
 0x00,0xe3,0xbf,0xdf,0x05,0x60,0xfc,0xc7,0xc0,0x00,0x00,0x00,0x00,0x00,0x00,
 0x00,0x00,0x00,0x00,0x00,0x00,0x00,0x00,0x00,0x00,0x00,0x00,0x00,0x00,0x00,
 0x00,0x00,0x00,0x00,0x00,0x00,0x00,0x00,0x00,0x00,0x00,0x00,0x00,0x00,0x00,
 0x00,0x00,0x00,0x00,0x00,0x00,0x30,0x78,0x46,0x3f,0x80,0x01,0x00,0x00,0x00,
 0x00,0x00,0x0e,0x60,0x0c,0x18,0xfb,0xdb,0xfd,0x00,0xe3,0xbf,0xf1,0x1f,0x60,
 0xfc,0xc7,0xc0,0x00,0x00,0x00,0x00,0x00,0x00,0x00,0x00,0x00,0x00,0x00,0x00,
 0x00,0x00,0x00,0x00,0x00,0x00,0x00,0x00,0x00,0x00,0x00,0x00,0x00,0x00,0x00,
 0x00,0x00,0x00,0x00,0x00,0x00,0x00,0x00,0x00,0x00,0x00,0x00,0x00,0x00,0x00,
 0x30,0x6c,0x46,0x03,0xb8,0x01,0x00,0x00,0x00,0x00,0x00,0x07,0x60,0x0c,0x18,
 0x03,0x8c,0x45,0x00,0x63,0x80,0xf1,0x1f,0x60,0x0c,0xc0,0xc0,0x00,0x00,0x00,
 0x00,0x00,0x00,0x00,0x00,0x00,0x00,0x00,0x00,0x00,0x00,0x00,0x00,0x00,0x00,
 0x00,0x00,0x00,0x00,0x00,0x00,0x00,0x00,0x00,0x00,0x00,0x00,0x00,0x00,0x00,
 0x00,0x00,0x00,0x00,0x00,0x00,0x00,0x00,0x00,0x30,0xe6,0x66,0x23,0xb8,0x19,
 0x00,0x00,0x00,0x00,0x80,0x9b,0xc3,0xc6,0xb1,0x01,0xdc,0x7d,0x38,0x36,0x00,
 0x3b,0x84,0xc3,0x06,0xc0,0xc0,0x00,0x00,0x00,0x00,0x00,0x00,0x00,0x00,0x00,
 0x00,0x00,0x00,0x00,0x00,0x00,0x00,0x00,0x00,0x00,0x00,0x00,0x00,0x00,0x00,
 0x00,0x00,0x00,0x00,0x00,0x00,0x00,0x00,0x00,0x00,0x00,0x00,0x00,0x00,0x00,
 0x00,0x00,0x00,0xfc,0xfc,0x3e,0x1e,0xb0,0x19,0x00,0x00,0x00,0x00,0xc0,0x9f,
 0xc3,0xc7,0xf1,0x01,0xf8,0x3c,0x38,0x3e,0x00,0x1f,0x9f,0xc3,0x07,0xf0,0xf1,
 0x01,0x00,0x00,0x00,0x00,0x00,0x00,0x00,0x00,0x00,0x00,0x00,0x00,0x00,0x00,
 0x00,0x00,0x00,0x00,0x00,0x00,0x00,0x00,0x00,0x00,0x00,0x00,0x00,0x00,0x00,
 0x00,0x00,0x00,0x00,0x00,0x00,0x00,0x00,0x00,0x00,0x00,0x00,0x00,0x00,0x06,
 0x00,0x60,0x00,0x00,0x00,0x00,0x00,0x00,0x00,0x00,0x00,0x00,0x00,0x00,0x00,
 0x00,0x00,0x00,0x00,0x00,0x00,0x00,0x00,0x00,0x00,0x00,0x00,0x00,0x00,0x00,
 0x00,0x00,0x00,0x00,0x00,0x00,0x00,0x00,0x00,0x00,0x00,0x00,0x00,0x00,0x00,
 0x00,0x00,0x00,0x00,0x00,0x00,0x00,0x00,0x00,0x00,0x00,0x00,0x00,0x00,0x00,
 0x00,0x00,0x00,0x00,0x00,0x00,0x00,0x00,0x06,0x00,0x00,0x00,0x00,0x00,0x00,
 0x00,0x00,0x00,0x00,0x00,0x00,0x00,0x00,0x00,0x00,0x00,0x00,0x00,0x00,0x00,
 0x00,0x00,0x00,0x00,0x00,0x00,0x00,0x00,0x00,0x00,0x00,0x00,0x00,0x00,0x00,
 0x00,0x00,0x00,0x00,0x00,0x00,0x00,0x00,0x00,0x00,0x00,0x00,0x00,0x00,0x00,
 0x00,0x00,0x00,0x00,0x00,0x00,0x00,0x00,0x00,0x00,0x00,0x00,0x00,0x00,0x00,
 0x00,0x00,0x0f,0x00,0x00,0x00,0x00,0x00,0x00,0x00,0x00,0x00,0x00,0x00,0x00,
 0x00,0x00,0x00,0x00,0x00,0x00,0x00,0x00,0x00,0x00,0x00,0x00,0x00,0x00,0x00,
 0x00,0x00,0x00,0x00,0x00,0x00,0x00,0x00,0x00,0x00,0x00,0x00,0x00,0x00,0x00,
 0x00,0x00,0x00,0x00,0x00,0x00,0x00,0x00,0x00,0x00,0x00,0x00,0x00,0x00,0x00,
 0x00,0x00,0x00,0x00,0x00,0x00,0x00,0x00,0x00,0x00,0x00,0x00,0x00,0x00,0x00,
 0x00,0x00,0x00,0x00,0x00,0x00,0x00,0x00,0x00,0x00,0x00,0x00,0x00,0x00,0x00,
 0x00,0x00,0x00,0x00,0x00,0x00,0x00,0x00,0x00,0x00,0x00,0x00,0x00,0x00,0x00,
 0x00,0x00,0x00,0x00,0x00,0x00,0x00,0x00,0x00,0x00,0x00,0x00,0x00,0x00,0x00,
 0x00,0x00,0x00,0x00,0x00,0x00,0x00,0x00,0x00,0x00,0x00,0x00,0x00,0x00,0x00,
 0x00,0x00,0x00,0x00,0x00,0x00,0x00,0x00,0x00,0x00,0x00,0x00,0x00,0x00,0x00,
 0x00,0x00,0x00,0x00,0x00,0x00,0x00,0x00,0x00,0x00,0x00,0x00,0x00,0x00,0x00,
 0x00,0x00,0x00,0x00,0x00,0x00,0x00,0x00,0x00,0x00,0x00,0x00,0x00,0x00,0x00,
 0x00,0x00,0x00,0x00,0x00,0x00,0x00,0x00,0x00,0x00,0x00,0x00,0x00,0x00,0x00,
 0x00,0x00,0x00,0x00,0x00,0x00,0x00,0x00,0x00,0x00,0x00,0x00,0x00,0x00,0x00,
 0x00,0x00,0x00,0x00,0x00,0x00,0x00,0x00,0x00,0x00,0x00,0x00,0x00,0x00,0x00,
 0x00,0x00,0x00,0x00,0x00,0x00,0x00,0x00,0x00,0x00,0x00,0x00,0x00,0x00,0x00,
 0x00,0x00,0x00,0x00,0x00,0x00,0x00,0x00,0x00,0x00,0x00,0x00,0x00,0x00,0x00,
 0x00,0x00,0x00,0x00,0x00,0x00,0x00,0x00,0x00,0x00,0x00,0x00,0x00,0x00,0x00,
 0x00,0x00,0x00,0x00,0x00,0x00,0x00,0x00,0x00,0x00,0x00,0x00,0x00,0x00,0x00,
 0x00,0x00,0x00,0x00,0x00,0x00,0x00,0x00,0x00,0x00,0x00,0x00,0x00,0x00,0x00,
 0x00,0x00,0x00,0x00,0x00,0x00,0x00,0x00,0x00,0x00,0x00,0x00,0x00,0x00,0x00,
 0x00,0x00,0x00,0x00,0x00,0x00,0x00,0x00,0x00,0x00,0x00,0x00,0x00,0x00,0x00,
 0x00,0x00,0x00,0x00,0x00,0x00,0x00,0x00,0x00,0x00,0x00,0x00,0x00,0x00,0x00,
 0xff,0x01,0x00,0x00,0x80,0x00,0x00,0x00,0x00,0x00,0x00,0x00,0x00,0x00,0x00,
 0x00,0x00,0x00,0x00,0x00,0x00,0x00,0x00,0x00,0x00,0x00,0x00,0x00,0x00,0x00,
 0x00,0x00,0x00,0x00,0x00,0x00,0x00,0x00,0x00,0x00,0x00,0x00,0x00,0x00,0x00,
 0x00,0x00,0x00,0x00,0x00,0x00,0x00,0x00,0x00,0x00,0x00,0x00,0x00,0x00,0x00,
 0x00,0x00,0x00,0x00,0x00,0x00,0x00,0x00,0x00,0x33,0x01,0x00,0x00,0xc0,0x00,
 0x00,0x00,0x00,0x00,0x00,0x07,0x80,0x03,0xe0,0x00,0xf8,0x38,0x00,0x1c,0x00,
 0x0c,0x06,0x80,0x03,0xc0,0xc0,0x00,0x00,0x00,0x00,0x00,0x00,0x00,0x00,0x00,
 0x00,0x00,0x00,0x00,0x00,0x00,0x00,0x00,0x00,0x00,0x00,0x00,0x00,0x00,0x00,
 0x00,0x00,0x00,0x00,0x00,0x00,0x00,0x00,0x00,0x00,0x00,0x00,0x00,0x00,0x00,
 0x00,0x00,0x00,0x31,0x03,0x00,0x00,0xc0,0x00,0x00,0x00,0x00,0x00,0x80,0x0f,
 0xc0,0x07,0xf0,0x01,0xf8,0x7c,0x00,0x3e,0x00,0x1e,0x07,0xc0,0x07,0xc0,0xc0,
 0x00,0x00,0x00,0x00,0x00,0x00,0x00,0x00,0x00,0x00,0x00,0x00,0x00,0x00,0x00,
 0x00,0x00,0x00,0x00,0x00,0x00,0x00,0x00,0x00,0x00,0x00,0x00,0x00,0x00,0x00,
 0x00,0x00,0x00,0x00,0x00,0x00,0x00,0x00,0x00,0x00,0x00,0x00,0x31,0x02,0x00,
 0x00,0xe0,0x00,0x00,0x00,0x00,0x00,0x80,0x09,0xc0,0x06,0xb0,0x01,0x08,0x66,
 0x00,0x36,0x00,0x1b,0x07,0xc0,0x06,0xf0,0xf0,0x00,0x00,0x00,0x00,0x00,0x00,
 0x00,0x00,0x00,0x00,0x00,0x00,0x00,0x00,0x00,0x00,0x00,0x00,0x00,0x00,0x00,
 0x00,0x00,0x00,0x00,0x00,0x00,0x00,0x00,0x00,0x00,0x00,0x00,0x00,0x00,0x00,
 0x00,0x00,0x00,0x00,0x00,0x00,0x30,0x3c,0x3f,0x1e,0xb0,0x18,0x00,0x00,0x00,
 0x00,0x00,0x0c,0x60,0x0c,0x18,0x03,0x08,0xc6,0x00,0x63,0x80,0x8f,0x05,0x60,
 0x0c,0xf0,0xf0,0x00,0x00,0x00,0x00,0x00,0x00,0x00,0x00,0x00,0x00,0x00,0x00,
 0x00,0x00,0x00,0x00,0x00,0x00,0x00,0x00,0x00,0x00,0x00,0x00,0x00,0x00,0x00,
 0x00,0x00,0x00,0x00,0x00,0x00,0x00,0x00,0x00,0x00,0x00,0x00,0x00,0x00,0x00,
 0x30,0x6c,0x66,0x33,0x90,0x18,0x00,0x00,0x00,0x00,0x00,0x0f,0x60,0x0c,0x18,
 0xfb,0xfb,0xee,0x00,0xe3,0xbf,0xdf,0x05,0x60,0xfc,0xc7,0xc0,0x00,0x00,0x00,
 0x00,0x00,0x00,0x00,0x00,0x00,0x00,0x00,0x00,0x00,0x00,0x00,0x00,0x00,0x00,
 0x00,0x00,0x00,0x00,0x00,0x00,0x00,0x00,0x00,0x00,0x00,0x00,0x00,0x00,0x00,
 0x00,0x00,0x00,0x00,0x00,0x00,0x00,0x00,0x00,0x30,0x78,0x46,0x3f,0x98,0x00,
 0x00,0x00,0x00,0x00,0x00,0x0c,0x60,0x0c,0x18,0xfb,0xdb,0xfd,0x00,0xe3,0xbf,
 0xf1,0x1f,0x60,0xfc,0xc7,0xc0,0x00,0x00,0x00,0x00,0x00,0x00,0x00,0x00,0x00,
 0x00,0x00,0x00,0x00,0x00,0x00,0x00,0x00,0x00,0x00,0x00,0x00,0x00,0x00,0x00,
 0x00,0x00,0x00,0x00,0x00,0x00,0x00,0x00,0x00,0x00,0x00,0x00,0x00,0x00,0x00,
 0x00,0x00,0x00,0x30,0x6c,0x46,0x03,0xf8,0x03,0x00,0x00,0x00,0x00,0x80,0x18,
 0x60,0x0c,0x18,0x03,0x8c,0x45,0x00,0x63,0x80,0xf1,0x1f,0x60,0x0c,0xc0,0xc0,
 0x00,0x00,0x00,0x00,0x00,0x00,0x00,0x00,0x00,0x00,0x00,0x00,0x00,0x00,0x00,
 0x00,0x00,0x00,0x00,0x00,0x00,0x00,0x00,0x00,0x00,0x00,0x00,0x00,0x00,0x00,
 0x00,0x00,0x00,0x00,0x00,0x00,0x00,0x00,0x00,0x00,0x00,0x00,0x30,0xe6,0x66,
 0x23,0x80,0x18,0x00,0x00,0x00,0x00,0xc0,0x9d,0xc3,0xc6,0xb1,0x01,0xdc,0x7d,
 0x38,0x36,0x00,0x3b,0x84,0xc3,0x06,0xc0,0xc0,0x00,0x00,0x00,0x00,0x00,0x00,
 0x00,0x00,0x00,0x00,0x00,0x00,0x00,0x00,0x00,0x00,0x00,0x00,0x00,0x00,0x00,
 0x00,0x00,0x00,0x00,0x00,0x00,0x00,0x00,0x00,0x00,0x00,0x00,0x00,0x00,0x00,
 0x00,0x00,0x00,0x00,0x00,0x00,0xfc,0xfc,0x3e,0x1e,0xe0,0x1b,0x00,0x00,0x00,
 0x00,0x80,0x8f,0xc3,0xc7,0xf1,0x01,0xf8,0x3c,0x38,0x3e,0x00,0x1f,0x9f,0xc3,
 0x07,0xf0,0xf1,0x01,0x00,0x00,0x00,0x00,0x00,0x00,0x00,0x00,0x00,0x00,0x00,
 0x00,0x00,0x00,0x00,0x00,0x00,0x00,0x00,0x00,0x00,0x00,0x00,0x00,0x00,0x00,
 0x00,0x00,0x00,0x00,0x00,0x00,0x00,0x00,0x00,0x00,0x00,0x00,0x00,0x00,0x00,
 0x00,0x00,0x06,0x00,0x00,0x00,0x00,0x00,0x00,0x00,0x00,0x00,0x00,0x00,0x00,
 0x00,0x00,0x00,0x00,0x00,0x00,0x00,0x00,0x00,0x00,0x00,0x00,0x00,0x00,0x00,
 0x00,0x00,0x00,0x00,0x00,0x00,0x00,0x00,0x00,0x00,0x00,0x00,0x00,0x00,0x00,
 0x00,0x00,0x00,0x00,0x00,0x00,0x00,0x00,0x00,0x00,0x00,0x00,0x00,0x00,0x00,
 0x00,0x00,0x00,0x00,0x00,0x00,0x00,0x00,0x00,0x00,0x00,0x06,0x00,0x00,0x00,
 0x00,0x00,0x00,0x00,0x00,0x00,0x00,0x00,0x00,0x00,0x00,0x00,0x00,0x00,0x00,
 0x00,0x00,0x00,0x00,0x00,0x00,0x00,0x00,0x00,0x00,0x00,0x00,0x00,0x00,0x00,
 0x00,0x00,0x00,0x00,0x00,0x00,0x00,0x00,0x00,0x00,0x00,0x00,0x00,0x00,0x00,
 0x00,0x00,0x00,0x00,0x00,0x00,0x00,0x00,0x00,0x00,0x00,0x00,0x00,0x00,0x00,
 0x00,0x00,0x00,0x00,0x00,0x0f,0x00,0x00,0x00,0x00,0x00,0x00,0x00,0x00,0x00,
 0x00,0x00,0x00,0x00,0x00,0x00,0x00,0x00,0x00,0x00,0x00,0x00,0x00,0x00,0x00,
 0x00,0x00,0x00,0x00,0x00,0x00,0x00,0x00,0x00,0x00,0x00,0x00,0x00,0x00,0x00,
 0x00,0x00,0x00,0x00,0x00,0x00,0x00,0x00,0x00,0x00,0x00,0x00,0x00,0x00,0x00,
 0x00,0x00,0x00,0x00,0x00,0x00,0x00,0x00,0x00,0x00,0x00,0x00};
