#define noname_width 89
#define noname_height 15
static char noname_bits[] = {
 0x00,0x00,0x00,0x00,0x00,0x00,0x00,0x00,0x00,0x00,0x00,0x01,0x00,0x00,0x00,
 0x00,0x00,0x00,0x00,0x00,0x00,0x00,0x00,0x01,0xe0,0x0e,0x00,0x00,0x00,0x00,
 0x1c,0x00,0x00,0x00,0x98,0x00,0xf0,0x0c,0x00,0x00,0x00,0x00,0x1e,0x00,0x00,
 0x00,0xdc,0x01,0x30,0x06,0x00,0x00,0x00,0x00,0x06,0x00,0x00,0x00,0xdc,0x00,
 0x30,0x06,0x00,0x00,0x18,0x00,0x06,0x00,0x00,0x00,0x9e,0x01,0x7c,0xe6,0xe6,
 0x07,0x18,0x80,0xcf,0xc7,0xf1,0xdc,0xde,0x01,0x18,0xf6,0xa6,0x07,0x00,0x00,
 0xe3,0x67,0xdb,0xde,0x00,0x00,0x18,0x63,0x86,0x81,0xff,0x01,0xc3,0xf0,0xcd,
 0xcc,0x00,0x00,0x18,0x63,0x82,0x00,0x00,0x00,0xc3,0x30,0x4c,0x4c,0x00,0x00,
 0x18,0x67,0xf7,0x06,0x00,0x00,0xc3,0x30,0x6f,0xec,0x00,0x00,0x08,0xe7,0xf7,
 0x03,0x18,0x00,0xc1,0xe0,0x79,0xfc,0x00,0x00,0x0c,0x00,0x00,0x00,0x18,0x80,
 0x01,0x00,0x60,0x00,0x00,0x00,0x0f,0x00,0x00,0x00,0x00,0xe0,0x01,0x00,0x20,
 0x00,0x00,0x00,0x07,0x00,0x00,0x00,0x00,0xe0,0x00,0x00,0x78,0x00,0x00,0x00};
