#define noname_width 215
#define noname_height 16
static char noname_bits[] = {
 0x00,0x00,0x00,0x00,0x00,0x00,0x00,0x00,0x00,0x00,0x00,0x00,0x00,0x00,0x00,
 0x00,0x00,0x0e,0x00,0x00,0x00,0x00,0x00,0x00,0x00,0x00,0x38,0x00,0x00,0x00,
 0x00,0x00,0x00,0x00,0x00,0x00,0x00,0x40,0x00,0x04,0x00,0x00,0x00,0x00,0x5b,
 0x00,0x00,0x00,0x00,0x00,0x00,0x10,0x00,0x6c,0x00,0x00,0x00,0x00,0x00,0x00,
 0x00,0x00,0x00,0x00,0x20,0x00,0x04,0x0e,0x00,0x00,0x00,0x9b,0x00,0x08,0x00,
 0x00,0x00,0x60,0x10,0x00,0x6c,0x00,0x80,0x01,0x00,0x00,0x00,0x00,0x00,0x00,
 0x00,0x30,0x00,0x06,0x0f,0x00,0x00,0x00,0x98,0x01,0x0c,0x00,0x00,0x00,0x60,
 0x18,0x00,0x60,0x00,0x80,0x01,0x00,0x00,0x00,0x00,0x00,0x00,0x00,0x10,0x00,
 0x06,0x03,0x00,0x00,0x00,0x0c,0x01,0x00,0x00,0x00,0x00,0x60,0x18,0x00,0x30,
 0x00,0x80,0x00,0x00,0x00,0x00,0x00,0x00,0x40,0x18,0x18,0x00,0x02,0x03,0x00,
 0x00,0x00,0x16,0x03,0x00,0x00,0x00,0x00,0x60,0x08,0x00,0x58,0x3e,0xfe,0x01,
 0xf0,0x1f,0x80,0xcf,0xff,0xc0,0x0c,0x18,0x1e,0xc3,0xe7,0xe3,0x78,0x6e,0x1f,
 0x03,0xce,0x0f,0xf8,0x3c,0x3c,0x8c,0xff,0x7d,0x3f,0xd3,0x00,0xf8,0x1f,0xc0,
 0xef,0xd9,0x80,0x07,0x18,0x1b,0x81,0xf1,0xb3,0x6d,0x6f,0x00,0x03,0xef,0x0d,
 0xfc,0x36,0x36,0xc4,0xb3,0x01,0x86,0xf1,0x00,0x00,0x00,0x80,0xc1,0xcc,0x00,
 0x03,0x98,0x01,0x81,0x61,0xf8,0x66,0x66,0x00,0x03,0xc6,0x0c,0x18,0x33,0x33,
 0x84,0x99,0x01,0x86,0x59,0x00,0x00,0x00,0x80,0xc1,0xcc,0x80,0x07,0x98,0x81,
 0x81,0x61,0x18,0x26,0x26,0x00,0x03,0xc6,0x0c,0x18,0x33,0x33,0x86,0x99,0x01,
 0x86,0x79,0x01,0xf8,0x1f,0x80,0xc1,0x6c,0xc1,0x0c,0x98,0x99,0x80,0x61,0x98,
 0x37,0x76,0x00,0x03,0xce,0x16,0x18,0x53,0x53,0x82,0xd9,0x02,0x06,0xef,0x01,
 0x00,0x00,0x80,0xc1,0xec,0x40,0x18,0x18,0xcf,0x80,0x60,0xf0,0x3c,0x7e,0x00,
 0x03,0xce,0x0e,0x18,0x7e,0x7e,0x83,0xd9,0x01,0x00,0x00,0x00,0x00,0x00,0x00,
 0x00,0x00,0x00,0x00,0x10,0xc0,0xc0,0x00,0x00,0x30,0x00,0x00,0x01,0x00,0x00,
 0x00,0x00,0x00,0x03,0x00,0x00,0x00,0x00,0x00,0x00,0x00,0x00,0x00,0x00,0x00,
 0x00,0x30,0x40,0xf0,0x00,0x00,0x10,0x00,0x80,0x01,0x00,0x00,0x00,0x00,0x00,
 0x01,0x00,0x00,0x00,0x00,0x00,0x00,0x00,0x00,0x00,0x00,0x00,0x00,0x30,0x60,
 0x70,0x00,0x00,0x3c,0x00,0x80,0x01,0x00,0x00,0x00,0x00,0x80,0x01,0x00,0x00,
 0x00,0x00,0x00,0x00,0x00,0x00,0x00,0x00,0x00,0x00,0x60,0x60,0x00,0x00,0x00,
 0x00,0x00,0xc0,0x00,0x00,0x00,0x00,0x00,0x80,0x01,0x00,0x00};
