#define noname_width 18
#define noname_height 23
static char noname_bits[] = {
 0xff,0xff,0x03,0x01,0x00,0x02,0x01,0x00,0x02,0x01,0x00,0x02,0x01,0x00,0x02,
 0x01,0x03,0x02,0x01,0x03,0x02,0xc1,0x0f,0x02,0xc1,0x0f,0x02,0x81,0x07,0x02,
 0xc1,0x0f,0x02,0x41,0x0f,0x02,0x01,0x03,0x02,0x01,0x00,0x02,0x01,0x00,0x02,
 0x01,0x00,0x02,0x01,0x00,0x02,0x01,0x00,0x02,0x01,0x00,0x02,0x01,0x00,0x02,
 0x01,0x00,0x02,0x01,0x00,0x02,0xff,0xff,0x03};
