#define noname_width 15
#define noname_height 2
static char noname_bits[] = {
 0xc3,0x60,0xc3,0x60};
