#define noname_width 19
#define noname_height 10
static char noname_bits[] = {
 0xfc,0x00,0x00,0xde,0x00,0x03,0xcc,0x80,0x06,0xcc,0xd2,0x04,0x6c,0xd7,0x04,
 0x3c,0xd3,0x04,0x06,0xda,0x06,0x06,0x9e,0x07,0x0f,0x0b,0x00,0x00,0x0f,0x00};
