#define noname_width 20
#define noname_height 14
static char noname_bits[] = {
 0x86,0x00,0x00,0x87,0x01,0x00,0x8c,0x01,0x00,0x0c,0x01,0x00,0x8c,0x00,0x00,
 0xcc,0x00,0x00,0x6c,0x00,0x00,0x7c,0x1e,0x09,0x3c,0xbf,0x0b,0x1c,0x85,0x09,
 0x04,0x15,0x0d,0x00,0x1f,0x0f,0x00,0x80,0x05,0x00,0x80,0x07};
