#define noname_width 450
#define noname_height 77
static char noname_bits[] = {
 0x00,0x00,0x00,0x00,0x00,0x00,0x00,0x00,0x00,0x00,0x00,0x00,0x00,0x00,0x00,
 0x00,0x00,0x00,0x00,0x01,0x1c,0x00,0x00,0x08,0x00,0x00,0x00,0x00,0x00,0x04,
 0x00,0x00,0x00,0x00,0x00,0x00,0x00,0x02,0x00,0x00,0x00,0x00,0x00,0xc2,0x01,
 0x00,0x00,0x00,0x00,0x00,0x00,0x00,0x00,0x00,0x00,0x00,0x00,0x00,0x00,0x00,
 0x00,0x00,0x00,0x00,0x00,0x43,0x00,0x00,0x00,0x00,0x00,0xf0,0x07,0x00,0x00,
 0x80,0xe0,0x1d,0x00,0x00,0x04,0x04,0x00,0x00,0x00,0x02,0x08,0x00,0x00,0x00,
 0x00,0x00,0x18,0x00,0x01,0x01,0x00,0x00,0x80,0x00,0xc4,0x01,0x00,0x00,0x00,
 0x00,0x00,0x00,0x00,0x00,0x00,0x00,0x00,0x00,0x00,0x00,0x00,0x00,0x00,0x00,
 0x00,0x80,0xc3,0x00,0x00,0x00,0x00,0x00,0x18,0x07,0x00,0x00,0xc0,0xc0,0x04,
 0x00,0x00,0x06,0x04,0x00,0x00,0x00,0x02,0x18,0x00,0x00,0x00,0x00,0x00,0x18,
 0x80,0x01,0x01,0x00,0x00,0x80,0x00,0x8c,0x01,0x00,0x00,0x00,0x00,0x00,0x00,
 0x00,0x00,0x00,0x00,0x00,0x00,0x00,0x00,0x00,0x00,0x00,0x00,0x00,0x00,0xc6,
 0x00,0x00,0x00,0x00,0x00,0x0c,0x02,0x00,0x00,0x40,0x60,0x04,0x00,0x00,0x02,
 0x04,0x00,0x00,0x00,0x02,0x10,0x00,0x00,0x00,0x00,0x00,0x00,0x80,0x00,0x01,
 0x00,0x00,0x80,0x00,0x88,0x01,0x00,0x00,0x00,0x00,0x00,0x00,0x00,0x00,0x00,
 0x00,0x00,0x00,0x00,0x00,0x00,0x00,0x00,0x00,0x00,0x00,0x86,0x00,0x00,0x00,
 0x00,0x00,0x06,0x02,0x00,0x00,0x60,0x60,0x04,0x00,0x00,0x03,0x06,0x00,0x00,
 0x00,0x03,0x30,0x00,0x00,0x00,0x00,0x00,0x00,0xc0,0x80,0x01,0x00,0x00,0xc0,
 0x00,0x98,0x01,0x00,0x00,0x00,0x00,0x00,0x00,0x00,0x00,0x00,0x00,0x00,0x00,
 0x00,0x00,0x00,0x00,0x00,0x00,0x00,0x00,0x46,0x00,0x80,0xff,0x01,0x00,0x06,
 0x00,0x00,0x00,0x60,0x60,0xc4,0xf7,0x7d,0x83,0x0f,0x00,0x00,0xc0,0x07,0x30,
 0x00,0x00,0x38,0x00,0xf0,0xdd,0xcf,0xe0,0x03,0x00,0x00,0xf0,0x01,0x98,0x01,
 0x00,0x00,0x00,0x00,0x00,0x00,0x00,0x00,0x00,0x00,0x00,0x00,0x00,0x00,0x00,
 0x00,0x00,0x00,0x00,0x00,0x66,0xc4,0x81,0xff,0x01,0x00,0x07,0x20,0x1c,0x00,
 0x60,0x60,0x64,0x1e,0x4d,0xc3,0x9a,0x00,0x00,0x60,0xed,0x30,0x00,0x00,0x0c,
 0xe1,0x30,0x99,0xc9,0xb0,0x26,0x00,0x00,0x58,0x3b,0x98,0x01,0x00,0x00,0x00,
 0x00,0x00,0x00,0x00,0x00,0x00,0x00,0x00,0x00,0x00,0x00,0x00,0x00,0x00,0x00,
 0x00,0x00,0x36,0x66,0x03,0x00,0x00,0x00,0xc3,0x33,0x36,0x00,0x60,0x30,0x64,
 0x18,0x3f,0x63,0xda,0x80,0xff,0x30,0xbd,0x31,0xf0,0x1f,0x9e,0xb1,0xf1,0x98,
 0xc9,0x98,0x36,0xe0,0x3f,0x4c,0x6f,0x98,0x01,0x00,0x00,0x00,0x00,0x00,0x00,
 0x00,0x00,0x00,0x00,0x00,0x00,0x00,0x00,0x00,0x00,0x00,0x00,0x00,0x00,0x3e,
 0x64,0x03,0x00,0x00,0x00,0x83,0x21,0x36,0x00,0x60,0x30,0x64,0x18,0x7f,0x63,
 0x9b,0x00,0x00,0xb0,0xbd,0x31,0x00,0x00,0x06,0xb1,0xf1,0x99,0xc9,0xd8,0x26,
 0x00,0x00,0x6c,0x6f,0x98,0x01,0x00,0x00,0x00,0x00,0x00,0x00,0x00,0x00,0x00,
 0x00,0x00,0x00,0x00,0x00,0x00,0x00,0x00,0x00,0x00,0x00,0x1e,0x04,0x83,0xff,
 0x01,0x00,0x86,0x21,0x30,0x00,0x60,0x30,0x64,0x1c,0x45,0x63,0x8d,0x00,0x00,
 0xb0,0x86,0x31,0x00,0x00,0x06,0x81,0x11,0x99,0xc9,0x58,0x23,0x00,0x00,0xac,
 0x61,0x98,0x01,0x00,0x00,0x00,0x00,0x00,0x00,0x00,0x00,0x00,0x00,0x00,0x00,
 0x00,0x00,0x00,0x00,0x00,0x00,0x00,0x00,0x0e,0x84,0x01,0x00,0x00,0x00,0xee,
 0x21,0x18,0x00,0x60,0x7c,0xc4,0xf3,0x7d,0xc3,0x87,0x00,0x00,0xe0,0xc3,0x30,
 0x00,0x00,0x3c,0xc1,0xf0,0xfd,0xdf,0xf0,0x21,0x00,0x00,0xf8,0x30,0x98,0x01,
 0x00,0x00,0x00,0x00,0x00,0x00,0x00,0x00,0x00,0x00,0x00,0x00,0x00,0x00,0x00,
 0x00,0x00,0x00,0x00,0x00,0x02,0xc4,0x02,0x00,0x00,0x00,0x38,0x20,0x2c,0x00,
 0x40,0x00,0x04,0x00,0x00,0x02,0x81,0x00,0x00,0x80,0x60,0x11,0x00,0x00,0x00,
 0x61,0x01,0x00,0x80,0x40,0x20,0x00,0x00,0x20,0x58,0x88,0x01,0x00,0x00,0x00,
 0x00,0x00,0x00,0x00,0x00,0x00,0x00,0x00,0x00,0x00,0x00,0x00,0x00,0x00,0x00,
 0x00,0x00,0x00,0xfe,0x03,0x00,0x00,0x00,0x00,0xf0,0x3e,0x00,0xc0,0x00,0x04,
 0x00,0x00,0x86,0xc1,0x03,0x00,0xc0,0xf0,0x19,0x00,0x00,0x80,0xf7,0x01,0x00,
 0x80,0x61,0xf0,0x00,0x00,0x30,0x7c,0x8c,0x01,0x00,0x00,0x00,0x00,0x00,0x00,
 0x00,0x00,0x00,0x00,0x00,0x00,0x00,0x00,0x00,0x00,0x00,0x00,0x00,0x00,0x00,
 0x00,0x00,0x00,0x00,0x00,0x00,0x00,0x00,0x00,0xc0,0x00,0x1c,0x00,0x00,0x86,
 0x00,0x00,0x00,0x40,0x00,0x18,0x00,0x00,0x00,0x00,0x00,0x00,0x80,0x21,0x00,
 0x00,0x00,0x10,0x00,0xcc,0x01,0x00,0x00,0x00,0x00,0x00,0x00,0x00,0x00,0x00,
 0x00,0x00,0x00,0x00,0x00,0x00,0x00,0x00,0x00,0x00,0x00,0x00,0x00,0x00,0x00,
 0x00,0x00,0x00,0x00,0x00,0x00,0x80,0x01,0x1c,0x00,0x00,0x0c,0x00,0x00,0x00,
 0x00,0x00,0x0c,0x00,0x00,0x00,0x00,0x00,0x00,0x00,0x03,0x00,0x00,0x00,0x00,
 0x00,0xc6,0x01,0x00,0x00,0x00,0x00,0x00,0x00,0x00,0x00,0x00,0x00,0x00,0x00,
 0x00,0x00,0x00,0x00,0x00,0x00,0x00,0x00,0x00,0x00,0x00,0x00,0x00,0x00,0x00,
 0x00,0x00,0x00,0x00,0x00,0x00,0x00,0x00,0x00,0x00,0x00,0x00,0x00,0x00,0x00,
 0x00,0x00,0x00,0x00,0x00,0x00,0x00,0x00,0x00,0x00,0x00,0x00,0x00,0x00,0x00,
 0x00,0x00,0x00,0x00,0x00,0x00,0x00,0x00,0x00,0x00,0x00,0x00,0x00,0x00,0x00,
 0x00,0x00,0x00,0x00,0x00,0x00,0x00,0x00,0x00,0x00,0x00,0x00,0x00,0x00,0x00,
 0x00,0x00,0x00,0x00,0x00,0x00,0x00,0x00,0x00,0x00,0x00,0x00,0x00,0x00,0x00,
 0x00,0x00,0x00,0x00,0x00,0x00,0x00,0x00,0x00,0x00,0x00,0x00,0x00,0x00,0x00,
 0x00,0x00,0x00,0x00,0x00,0x00,0x00,0x00,0x00,0x00,0x00,0x00,0x00,0x00,0x00,
 0x00,0x00,0x00,0x00,0x00,0x00,0x00,0x00,0x00,0x00,0x00,0x00,0x00,0x00,0x00,
 0x00,0x00,0x00,0x00,0x00,0x00,0x00,0x00,0x00,0x00,0x00,0x00,0x00,0x00,0x00,
 0x00,0x00,0x00,0x00,0x00,0x00,0x00,0x00,0x00,0x00,0x00,0x00,0x00,0x00,0x00,
 0x00,0x00,0x00,0x00,0x00,0x00,0x00,0x00,0x00,0x00,0x00,0x00,0x00,0x00,0x00,
 0x00,0x00,0x00,0x00,0x00,0x00,0x00,0x00,0x00,0x00,0x00,0x00,0x00,0x00,0x00,
 0x00,0x00,0x00,0x00,0x00,0x00,0x00,0x00,0x00,0x00,0x00,0x00,0x00,0x00,0x00,
 0x00,0x00,0x00,0x00,0x00,0x00,0x00,0x00,0x00,0x00,0x00,0x00,0x00,0x00,0x00,
 0x00,0x00,0x00,0x00,0x00,0x00,0x00,0x00,0x00,0x00,0x00,0x00,0x00,0x00,0x00,
 0x00,0x00,0x00,0x00,0x00,0x00,0x00,0x00,0x00,0x00,0x00,0x00,0x00,0x00,0x00,
 0x00,0x00,0x00,0x00,0x00,0x00,0x00,0x00,0x00,0x00,0x00,0x00,0x00,0x00,0x00,
 0x00,0x00,0x00,0x00,0x00,0x00,0x00,0x00,0x00,0x00,0x00,0x00,0x00,0x00,0x00,
 0x00,0x00,0x00,0x00,0x00,0x00,0x00,0x00,0x00,0x00,0x00,0x00,0x00,0x00,0x00,
 0x00,0x00,0x00,0x00,0x00,0x00,0x00,0x00,0x00,0x00,0x00,0x00,0x00,0x00,0x00,
 0x00,0x00,0x00,0x00,0x00,0x00,0x00,0x00,0x00,0x00,0x00,0x00,0x00,0x00,0x00,
 0x00,0x00,0x00,0x00,0x00,0x00,0x00,0x00,0x00,0x00,0x00,0x00,0x00,0x00,0x00,
 0x00,0x00,0x00,0x00,0x00,0x00,0x00,0x00,0x00,0x00,0x00,0x00,0x00,0x00,0x00,
 0x00,0x00,0x07,0x00,0x00,0x04,0x00,0x00,0x00,0x00,0x00,0x02,0x00,0x00,0x00,
 0x00,0x00,0x00,0x00,0x02,0x00,0x00,0x00,0x00,0x00,0xc1,0x01,0x00,0x00,0x00,
 0x00,0x00,0x00,0x00,0x00,0x00,0x00,0x00,0x00,0x00,0x00,0x00,0x00,0x00,0x00,
 0x00,0x00,0x00,0x00,0x00,0x00,0x00,0x00,0x00,0x00,0x00,0x00,0x00,0x1f,0x07,
 0x00,0x00,0x02,0x01,0x00,0x00,0x80,0x00,0x04,0x00,0x00,0x00,0x00,0x00,0x0c,
 0x00,0x81,0x00,0x00,0x00,0x80,0x00,0xc2,0x01,0x00,0x00,0x00,0x00,0x00,0x00,
 0x00,0x00,0x00,0x00,0x00,0x00,0x00,0x00,0x00,0x00,0x00,0x00,0x00,0x00,0x00,
 0x00,0x00,0x00,0x00,0x00,0x00,0x00,0x00,0x00,0x80,0x31,0x01,0x00,0x00,0x03,
 0x01,0x00,0x00,0x80,0x00,0x0c,0x00,0x00,0x00,0x00,0x00,0x0c,0x80,0x81,0x00,
 0x00,0x00,0x80,0x00,0x86,0x01,0x00,0x00,0x00,0x00,0x00,0x00,0x00,0x00,0x00,
 0x00,0x00,0x00,0x00,0x00,0x00,0x00,0x00,0x00,0x00,0x00,0x00,0x00,0x00,0x00,
 0x00,0x00,0x00,0x08,0x00,0x00,0xc0,0x30,0x01,0x00,0x00,0x01,0x01,0x00,0x04,
 0x80,0x00,0x08,0x00,0x00,0x00,0x00,0x00,0x00,0x80,0x80,0x00,0x00,0x02,0x80,
 0x00,0x84,0x01,0x00,0x00,0x00,0x00,0x00,0x00,0x00,0x00,0x00,0x00,0x00,0x00,
 0x00,0x00,0x00,0x00,0x00,0x00,0x00,0x00,0x00,0x00,0x00,0x00,0x00,0x00,0x00,
 0x08,0x00,0x00,0x60,0x30,0x01,0x00,0x80,0x81,0x01,0x00,0x04,0xc0,0x00,0x18,
 0x00,0x00,0x00,0x00,0x00,0x00,0xc0,0xc0,0x00,0x00,0x02,0xc0,0x00,0x8c,0x01,
 0x00,0x00,0x00,0x00,0x00,0x00,0x00,0x00,0x00,0x00,0x00,0x00,0x00,0x00,0x00,
 0x00,0x00,0x00,0x00,0x00,0x00,0x00,0x00,0x00,0x00,0x00,0x00,0x08,0x00,0x00,
 0x60,0x30,0xf1,0x7d,0x9f,0xe1,0x03,0x00,0x04,0xf0,0x01,0x18,0x00,0x00,0x3f,
 0x00,0xf0,0xef,0xc7,0xf0,0x01,0x00,0x02,0xf0,0x01,0x8c,0x01,0x00,0x00,0x00,
 0x00,0x00,0x00,0x00,0x00,0x00,0x00,0x00,0x00,0x00,0x00,0x00,0x00,0x00,0x00,
 0x00,0x00,0x00,0x00,0x00,0x00,0x00,0x00,0x00,0x08,0x00,0x00,0x70,0x30,0x99,
 0x47,0x93,0xb1,0x26,0x00,0x04,0x58,0x73,0x18,0x00,0x80,0x37,0xe1,0x30,0xcd,
 0xc4,0x58,0x23,0x00,0x02,0x58,0x3b,0x8c,0x01,0x00,0x00,0x00,0x00,0x00,0x00,
 0x00,0x00,0x00,0x00,0x00,0x00,0x00,0x00,0x00,0x00,0x00,0x00,0x00,0x00,0x00,
 0x00,0x00,0x00,0x00,0x00,0xc0,0xff,0x00,0x00,0x30,0x30,0x19,0xc6,0x8f,0x99,
 0x36,0xe0,0x7f,0x4c,0xdb,0x18,0xfc,0x07,0xb3,0xb1,0xf1,0xcc,0xc4,0x4c,0x33,
 0xf0,0x3f,0x4c,0x6f,0x8c,0x01,0x00,0x00,0x00,0x00,0x00,0x00,0x00,0x00,0x00,
 0x00,0x00,0x00,0x00,0x00,0x00,0x00,0x00,0x00,0x00,0x00,0x00,0x00,0x00,0x00,
 0x00,0x00,0x00,0x08,0x00,0x00,0x30,0x18,0x19,0xc6,0x9f,0xd9,0x26,0x00,0x04,
 0x6c,0xdb,0x18,0x00,0x00,0x33,0xb1,0xf1,0xcd,0xc4,0x6c,0x23,0x00,0x02,0x6c,
 0x6f,0x8c,0x01,0x00,0x00,0x00,0x00,0x00,0x00,0x00,0x00,0x00,0x00,0x00,0x00,
 0x00,0x00,0x00,0x00,0x00,0x00,0x00,0x00,0x00,0x00,0x00,0x00,0x00,0x00,0x00,
 0x08,0x00,0x00,0xe0,0x1f,0x19,0x47,0x91,0x59,0x23,0x00,0x04,0xac,0xc1,0x18,
 0x00,0x00,0x13,0x81,0x11,0xcd,0xc4,0xac,0x21,0x00,0x02,0xac,0x61,0x8c,0x01,
 0x00,0x00,0x00,0x00,0x00,0x00,0x00,0x00,0x00,0x00,0x00,0x00,0x00,0x00,0x00,
 0x00,0x00,0x00,0x00,0x00,0x00,0x00,0x00,0x00,0x00,0x00,0x00,0x08,0x00,0x00,
 0xe0,0x1e,0xf1,0x7c,0x9f,0xf1,0x21,0x00,0x04,0xf8,0x60,0x18,0x00,0x00,0x1b,
 0xc1,0xf0,0xff,0xcf,0xf8,0x20,0x00,0x02,0xf8,0x30,0x8c,0x01,0x00,0x00,0x00,
 0x00,0x00,0x00,0x00,0x00,0x00,0x00,0x00,0x00,0x00,0x00,0x00,0x00,0x00,0x00,
 0x00,0x00,0x00,0x00,0x00,0x00,0x00,0x00,0x00,0x08,0x00,0x00,0x80,0x13,0x01,
 0x00,0x00,0x41,0x20,0x00,0x04,0x20,0xb0,0x08,0x00,0x00,0x18,0x61,0x01,0x00,
 0x80,0x20,0x20,0x00,0x02,0x20,0x58,0x84,0x01,0x00,0x00,0x00,0x00,0x00,0x00,
 0x00,0x00,0x00,0x00,0x00,0x00,0x00,0x00,0x00,0x00,0x00,0x00,0x00,0x00,0x00,
 0x00,0x00,0x00,0x00,0x00,0x00,0x08,0x00,0x00,0x00,0x1e,0x01,0x00,0x00,0x63,
 0xf0,0x00,0x04,0x30,0xf8,0x0c,0x00,0x00,0x98,0xf7,0x01,0x00,0x80,0x31,0xf0,
 0x00,0x02,0x30,0x7c,0x86,0x01,0x00,0x00,0x00,0x00,0x00,0x00,0x00,0x00,0x00,
 0x00,0x00,0x00,0x00,0x00,0x00,0x00,0x00,0x00,0x00,0x00,0x00,0x00,0x00,0x00,
 0x00,0x00,0x00,0x00,0x00,0x00,0x00,0x0e,0x07,0x00,0x00,0x23,0x00,0x00,0x00,
 0x10,0x00,0x0c,0x00,0x00,0x08,0x00,0x00,0x00,0x80,0x11,0x00,0x00,0x00,0x10,
 0x00,0xc6,0x01,0x00,0x00,0x00,0x00,0x00,0x00,0x00,0x00,0x00,0x00,0x00,0x00,
 0x00,0x00,0x00,0x00,0x00,0x00,0x00,0x00,0x00,0x00,0x00,0x00,0x00,0x00,0x00,
 0x00,0x00,0x00,0x00,0x00,0x07,0x00,0x00,0x06,0x00,0x00,0x00,0x00,0x00,0x06,
 0x00,0x00,0x00,0x00,0x00,0x00,0x00,0x03,0x00,0x00,0x00,0x00,0x00,0xc3,0x01,
 0x00,0x00,0x00,0x00,0x00,0x00,0x00,0x00,0x00,0x00,0x00,0x00,0x00,0x00,0x00,
 0x00,0x00,0x00,0x00,0x00,0x00,0x00,0x00,0x00,0x00,0x00,0x00,0x00,0x00,0x00,
 0x00,0x00,0x00,0x00,0x00,0x00,0x00,0x00,0x00,0x00,0x00,0x00,0x00,0x00,0x00,
 0x00,0x00,0x00,0x00,0x00,0x00,0x00,0x00,0x00,0x00,0x00,0x00,0x00,0x00,0x00,
 0x00,0x00,0x00,0x00,0x00,0x00,0x00,0x00,0x00,0x00,0x00,0x00,0x00,0x00,0x00,
 0x00,0x00,0x00,0x00,0x00,0x00,0x00,0x00,0x00,0x00,0x00,0x00,0x00,0x00,0x00,
 0x00,0x00,0x00,0x00,0x00,0x00,0x00,0x00,0x00,0x00,0x00,0x00,0x00,0x00,0x00,
 0x00,0x00,0x00,0x00,0x00,0x00,0x00,0x00,0x00,0x00,0x00,0x00,0x00,0x00,0x00,
 0x00,0x00,0x00,0x00,0x00,0x00,0x00,0x00,0x00,0x00,0x00,0x00,0x00,0x00,0x00,
 0x00,0x00,0x00,0x00,0x00,0x00,0x00,0x00,0x00,0x00,0x00,0x00,0x00,0x00,0x00,
 0x00,0x00,0x00,0x00,0x00,0x00,0x00,0x00,0x00,0x00,0x00,0x00,0x00,0x00,0x00,
 0x00,0x00,0x00,0x00,0x00,0x00,0x00,0x00,0x00,0x00,0x00,0x00,0x00,0x00,0x00,
 0x00,0x00,0x00,0x00,0x00,0x00,0x00,0x00,0x00,0x00,0x00,0x00,0x00,0x00,0x00,
 0x00,0x00,0x00,0x00,0x00,0x00,0x00,0x00,0x00,0x00,0x00,0x00,0x00,0x00,0x00,
 0x00,0x00,0x00,0x00,0x00,0x00,0x00,0x00,0x00,0x00,0x00,0x00,0x00,0x00,0x00,
 0x00,0x00,0x00,0x00,0x00,0x00,0x00,0x00,0x00,0x00,0x00,0x00,0x00,0x00,0x00,
 0x00,0x00,0x00,0x00,0x00,0x00,0x00,0x00,0x00,0x00,0x00,0x00,0x00,0x00,0x00,
 0x00,0x00,0x00,0x00,0x00,0x00,0x00,0x00,0x00,0x00,0x00,0x00,0x00,0x00,0x00,
 0x00,0x00,0x00,0x00,0x00,0x00,0x00,0x00,0x00,0x00,0x00,0x00,0x00,0x00,0x00,
 0x00,0x00,0x00,0x00,0x00,0x00,0x00,0x00,0x00,0x00,0x00,0x00,0x00,0x00,0x00,
 0x00,0x00,0x00,0x00,0x00,0x00,0x00,0x00,0x00,0x00,0x00,0x00,0x00,0x00,0x00,
 0x00,0x00,0x07,0x00,0x00,0x01,0x00,0x00,0x00,0x00,0x80,0x00,0x00,0x00,0x00,
 0x00,0x00,0x00,0x00,0x02,0x00,0x00,0x00,0x00,0x00,0xc1,0x01,0x00,0x00,0x00,
 0x00,0x00,0x00,0x00,0x00,0x00,0x00,0x00,0x00,0x00,0x00,0x00,0x00,0x00,0x00,
 0x00,0x00,0x00,0x00,0x00,0x00,0x00,0x00,0x00,0x00,0x00,0x00,0xe0,0x39,0x07,
 0x0c,0x80,0x40,0x00,0x00,0x00,0x40,0x00,0x01,0x00,0x00,0x00,0x00,0x00,0x00,
 0x00,0x81,0x00,0x00,0x00,0x80,0x00,0xc2,0x01,0x00,0x00,0x00,0x00,0x00,0x00,
 0x00,0x00,0x00,0x00,0x00,0x00,0x00,0x00,0x00,0x00,0x00,0x00,0x00,0x00,0x00,
 0x00,0x00,0x00,0x00,0x00,0x00,0x00,0x00,0x00,0xc0,0x10,0x01,0x0c,0xc0,0x40,
 0x00,0x00,0x00,0x40,0x00,0x03,0x00,0x00,0x00,0x00,0x00,0x00,0x80,0x81,0x00,
 0x00,0x00,0x80,0x00,0x86,0x01,0x00,0x00,0x00,0x00,0x00,0x00,0x00,0x00,0x00,
 0x00,0x00,0x00,0x00,0x00,0x00,0x00,0x00,0x00,0x00,0x00,0x00,0x00,0x00,0x00,
 0x00,0x00,0x00,0x08,0x00,0x00,0xc0,0x18,0x01,0x00,0x40,0x40,0x00,0x00,0x01,
 0x40,0x00,0x02,0x20,0x00,0x00,0x00,0x00,0x00,0x80,0x80,0x00,0x00,0x02,0x80,
 0x00,0x84,0x01,0x00,0x00,0x00,0x00,0x00,0x00,0x00,0x00,0x00,0x00,0x00,0x00,
 0x00,0x00,0x00,0x00,0x00,0x00,0x00,0x00,0x00,0x00,0x00,0x00,0x00,0x00,0x00,
 0x08,0x00,0x00,0x40,0x08,0x01,0x00,0x60,0x60,0x00,0x00,0x01,0x60,0x00,0x06,
 0x20,0x00,0x00,0x00,0x00,0x00,0xc0,0xc0,0x00,0x00,0x02,0xc0,0x00,0x8c,0x01,
 0x00,0x00,0x00,0x00,0x00,0x00,0x00,0x00,0x00,0x00,0x00,0x00,0x00,0x00,0x00,
 0x00,0x00,0x00,0x00,0x00,0x00,0x00,0x00,0x00,0x00,0x00,0x00,0x08,0x00,0x00,
 0x60,0x08,0xf9,0xee,0x67,0xf8,0x00,0x00,0x01,0xf8,0x00,0x06,0x20,0x80,0x1f,
 0x00,0xf8,0xbe,0xcf,0xf0,0x01,0x00,0x02,0xf0,0x01,0x8c,0x01,0x00,0x00,0x00,
 0x00,0x00,0x00,0x00,0x00,0x00,0x00,0x00,0x00,0x00,0x00,0x00,0x00,0x00,0x00,
 0x00,0x00,0x00,0x00,0x00,0x00,0x00,0x00,0x00,0x08,0x00,0x00,0x60,0x08,0x99,
 0xcc,0x64,0xac,0x11,0x00,0x01,0xac,0x1d,0x06,0x20,0xc0,0x9b,0x38,0xcc,0xa3,
 0xc9,0x58,0x23,0x00,0x02,0x58,0x3b,0x8c,0x01,0x00,0x00,0x00,0x00,0x00,0x00,
 0x00,0x00,0x00,0x00,0x00,0x00,0x00,0x00,0x00,0x00,0x00,0x00,0x00,0x00,0x00,
 0x00,0x00,0x00,0x00,0x00,0xc0,0xff,0x00,0x00,0x60,0x0c,0x79,0xcc,0x64,0xa6,
 0x19,0xf8,0x1f,0xa6,0x37,0x06,0xff,0x83,0xd9,0x6c,0x0c,0xe3,0xc7,0x4c,0x33,
 0xf0,0x3f,0x4c,0x6f,0x8c,0x01,0x00,0x00,0x00,0x00,0x00,0x00,0x00,0x00,0x00,
 0x00,0x00,0x00,0x00,0x00,0x00,0x00,0x00,0x00,0x00,0x00,0x00,0x00,0x00,0x00,
 0x00,0x00,0x00,0x08,0x00,0x00,0x20,0x04,0xf9,0xcc,0x64,0xb6,0x11,0x00,0x01,
 0xb6,0x37,0x06,0x20,0x80,0x99,0x6c,0x0c,0xe3,0xcf,0x6c,0x23,0x00,0x02,0x6c,
 0x6f,0x8c,0x01,0x00,0x00,0x00,0x00,0x00,0x00,0x00,0x00,0x00,0x00,0x00,0x00,
 0x00,0x00,0x00,0x00,0x00,0x00,0x00,0x00,0x00,0x00,0x00,0x00,0x00,0x00,0x00,
 0x08,0x00,0x00,0x20,0x06,0x89,0xcc,0x64,0xd6,0x10,0x00,0x01,0xd6,0x30,0x06,
 0x20,0x80,0x89,0x60,0x8c,0xa3,0xc8,0xac,0x21,0x00,0x02,0xac,0x61,0x8c,0x01,
 0x00,0x00,0x00,0x00,0x00,0x00,0x00,0x00,0x00,0x00,0x00,0x00,0x00,0x00,0x00,
 0x00,0x00,0x00,0x00,0x00,0x00,0x00,0x00,0x00,0x00,0x00,0x00,0x08,0x00,0x00,
 0x60,0x03,0xf9,0xfe,0x6f,0x7c,0x10,0x00,0x01,0x7c,0x18,0x06,0x20,0x80,0x8d,
 0x30,0x78,0xbe,0xcf,0xf8,0x20,0x00,0x02,0xf8,0x30,0x8c,0x01,0x00,0x00,0x00,
 0x00,0x00,0x00,0x00,0x00,0x00,0x00,0x00,0x00,0x00,0x00,0x00,0x00,0x00,0x00,
 0x00,0x00,0x00,0x00,0x00,0x00,0x00,0x00,0x00,0x08,0x00,0x00,0xc0,0x01,0x01,
 0x00,0x40,0x10,0x10,0x00,0x01,0x10,0x2c,0x02,0x20,0x00,0x8c,0x58,0x00,0x00,
 0x80,0x20,0x20,0x00,0x02,0x20,0x58,0x84,0x01,0x00,0x00,0x00,0x00,0x00,0x00,
 0x00,0x00,0x00,0x00,0x00,0x00,0x00,0x00,0x00,0x00,0x00,0x00,0x00,0x00,0x00,
 0x00,0x00,0x00,0x00,0x00,0x00,0x08,0x00,0x00,0x00,0x00,0x01,0x00,0xc0,0x18,
 0x78,0x00,0x01,0x18,0x3e,0x03,0x20,0x00,0xcc,0x7f,0x00,0x00,0x80,0x31,0xf0,
 0x00,0x02,0x30,0x7c,0x86,0x01,0x00,0x00,0x00,0x00,0x00,0x00,0x00,0x00,0x00,
 0x00,0x00,0x00,0x00,0x00,0x00,0x00,0x00,0x00,0x00,0x00,0x00,0x00,0x00,0x00,
 0x00,0x00,0x00,0x00,0x00,0x00,0x00,0x00,0x07,0x00,0xc0,0x08,0x00,0x00,0x00,
 0x08,0x00,0x03,0x00,0x00,0x04,0x00,0x00,0x00,0x80,0x11,0x00,0x00,0x00,0x10,
 0x00,0xc6,0x01,0x00,0x00,0x00,0x00,0x00,0x00,0x00,0x00,0x00,0x00,0x00,0x00,
 0x00,0x00,0x00,0x00,0x00,0x00,0x00,0x00,0x00,0x00,0x00,0x00,0x00,0x00,0x00,
 0x00,0x00,0x00,0x00,0x00,0x07,0x00,0x80,0x01,0x00,0x00,0x00,0x00,0x80,0x01,
 0x00,0x00,0x00,0x00,0x00,0x00,0x00,0x03,0x00,0x00,0x00,0x00,0x00,0xc3,0x01,
 0x00,0x00,0x00,0x00,0x00,0x00,0x00,0x00,0x00,0x00,0x00,0x00,0x00,0x00,0x00,
 0x00,0x00,0x00,0x00,0x00,0x00,0x00,0x00,0x00,0x00,0x00,0x00,0x00,0x00,0x00,
 0x00,0x00,0x00,0x00,0x00,0x00,0x00,0x00,0x00,0x00,0x00,0x00,0x00,0x00,0x00,
 0x00,0x00,0x00,0x00,0x00,0x00,0x00,0x00,0x00,0x00,0x00,0x00,0x00,0x00,0x00,
 0x00,0x00,0x00,0x00,0x00,0x00,0x00,0x00,0x00,0x00,0x00,0x00,0x00,0x00,0x00,
 0x00,0x00,0x00,0x00,0x00,0x00,0x00,0x00,0x00,0x00,0x00,0x00,0x00,0x00,0x00,
 0x00,0x00,0x00,0x00,0x00,0x00,0x00,0x00,0x00,0x00,0x00,0x00,0x00,0x00,0x00,
 0x00,0x00,0x00,0x00,0x00,0x00,0x00,0x00,0x00,0x00,0x00,0x00,0x00,0x00,0x00,
 0x00,0x00,0x00,0x00,0x00,0x00,0x00,0x00,0x00,0x00,0x00,0x00,0x00,0x00,0x00,
 0x00,0x00,0x00,0x00,0x00,0x00,0x00,0x00,0x00,0x00,0x00,0x00,0x00,0x00,0x00,
 0x00,0x00,0x00,0x00,0x00,0x00,0x00,0x00,0x00,0x00,0x00,0x00,0x00,0x00,0x00,
 0x00,0x00,0x00,0x00,0x00,0x00,0x00,0x00,0x00,0x00,0x00,0x00,0x00,0x00,0x00,
 0x00,0x00,0x00,0x00,0x00,0x00,0x00,0x00,0x00,0x00,0x00,0x00,0x00,0x00,0x00,
 0x00,0x00,0x00,0x00,0x00,0x00,0x00,0x00,0x00,0x00,0x00,0x00,0x00,0x00,0x00,
 0x00,0x00,0x00,0x00,0x00,0x00,0x00,0x00,0x00,0x00,0x00,0x00,0x00,0x00,0x00,
 0x00,0x00,0x00,0x00,0x00,0x00,0x00,0x00,0x00,0x00,0x00,0x00,0x00,0x00,0x00,
 0x00,0x00,0x00,0x00,0x00,0x00,0x00,0x00,0x00,0x00,0x00,0x00,0x00,0x00,0x00,
 0x00,0x00,0x00,0x00,0x00,0x00,0x00,0x00,0x00,0x00,0x00,0x00,0x00,0x00,0x00,
 0x00,0x00,0x00,0x00,0x00,0x00,0x00,0x00,0x00,0x00,0x00,0x00,0x00,0x00,0x00,
 0x00,0x00,0x00,0x00,0x00,0x00,0x00,0x00,0x00,0x00,0x00,0x00,0x00,0x00,0x00,
 0x00,0x00,0x00,0x00,0x00,0x00,0x00,0x00,0x00,0x00,0x00,0x00,0x00,0x00,0x00,
 0x00,0x00,0x00,0x00,0x00,0x00,0x00,0x00,0x00,0x00,0x00,0x00,0x00,0x00,0x00,
 0x00,0x00,0x00,0x00,0x00,0x00,0x00,0x00,0x00,0x00,0x00,0x00,0x00,0x00,0x00,
 0x00,0x00,0x00,0x00,0x00,0x00,0x00,0x00,0x00,0x00,0x00,0x00,0x00,0x00,0x00,
 0x00,0x00,0x00,0x00,0x00,0x00,0x00,0x00,0x00,0x00,0x00,0x00,0x00,0x00,0xe0,
 0x00,0x00,0x20,0x00,0x00,0x00,0x00,0x00,0x10,0x00,0x00,0x00,0x00,0x00,0x00,
 0x00,0x20,0x00,0x00,0x00,0x00,0x00,0x10,0x2e,0x00,0x00,0x00,0x00,0x00,0x00,
 0x00,0x00,0x00,0x40,0x40,0x00,0x00,0x00,0x00,0x00,0x00,0x00,0x00,0x00,0x00,
 0x00,0x00,0x00,0x00,0x00,0x00,0x00,0x00,0x00,0x80,0x3c,0xef,0x80,0x01,0x10,
 0x08,0x00,0x00,0x00,0x08,0x20,0x00,0x00,0x00,0x00,0x00,0x00,0x00,0x10,0x08,
 0x00,0x00,0x00,0x04,0x20,0x4e,0x00,0x00,0x00,0x00,0x00,0x00,0x00,0x00,0x00,
 0x20,0x84,0x00,0x00,0x00,0x00,0x00,0x00,0x00,0x00,0x00,0x00,0x00,0x00,0x00,
 0x00,0x00,0x00,0x00,0x00,0x00,0xc0,0x08,0x26,0x80,0x01,0x18,0x08,0x00,0x00,
 0x00,0x08,0x60,0x00,0x00,0x00,0x00,0x00,0x00,0x00,0x18,0x08,0x00,0x00,0x00,
 0x04,0x60,0xcc,0x00,0x00,0x00,0x00,0x00,0x00,0x00,0x00,0x00,0x30,0x87,0x01,
 0x00,0x00,0x00,0x00,0x00,0x00,0x00,0x00,0x00,0x00,0x00,0x00,0x00,0x00,0x00,
 0x00,0x00,0x00,0x00,0x08,0x23,0x00,0x00,0x08,0x08,0x00,0x00,0x00,0x08,0x40,
 0x00,0x04,0x00,0x00,0x00,0x00,0x00,0x08,0x08,0x00,0x00,0x00,0x04,0x40,0x8c,
 0x00,0x00,0x00,0x00,0x00,0x00,0x00,0x00,0x00,0x10,0x04,0x01,0x00,0x00,0x00,
 0x00,0x00,0x00,0x00,0x00,0x00,0x00,0x00,0x00,0x00,0x00,0x00,0x00,0x00,0x00,
 0x00,0x18,0x21,0x00,0x00,0x0c,0x0c,0x00,0x00,0x00,0x0c,0xc0,0x00,0x04,0x00,
 0x00,0x00,0x00,0x00,0x0c,0x0c,0x00,0x00,0x00,0x06,0xc0,0x8c,0x01,0x00,0x00,
 0x00,0x00,0x00,0x00,0x00,0x00,0x18,0x04,0x03,0x00,0x00,0x00,0x00,0x00,0x00,
 0x00,0x00,0x00,0x00,0x00,0x00,0x00,0x00,0x00,0x00,0x00,0x00,0xe0,0x98,0x21,
 0xdf,0xfd,0x0c,0x1f,0x00,0x00,0x00,0x1f,0xc0,0x00,0x04,0xe0,0x00,0x80,0xef,
 0xfb,0x0c,0x1f,0x00,0x00,0x80,0x0f,0xc0,0x8c,0x01,0x00,0x00,0x00,0x00,0x00,
 0x00,0x00,0x00,0x18,0x04,0x03,0x00,0x00,0x00,0x00,0x00,0x00,0x00,0x00,0x00,
 0x00,0x00,0x00,0x00,0x00,0x00,0x00,0x00,0x00,0xf0,0x98,0x20,0x93,0x99,0x8c,
 0x35,0x02,0x00,0x80,0xb5,0xc3,0x00,0x04,0x30,0x84,0xc3,0x3c,0x9a,0x8c,0x35,
 0x01,0x00,0xc0,0x9a,0xc3,0x8c,0x01,0x00,0x00,0x00,0x00,0x00,0x00,0x00,0x00,
 0x18,0x04,0x03,0x00,0x00,0x00,0x00,0x00,0x00,0x00,0x00,0x00,0x00,0x00,0x00,
 0x00,0x00,0x80,0xff,0x00,0x00,0x60,0x58,0x20,0x8f,0x99,0xcc,0x34,0x03,0xfe,
 0xc3,0xf4,0xc6,0xe0,0x7f,0x78,0xc6,0xc6,0x30,0x7e,0xcc,0xb4,0x01,0xfe,0x63,
 0xda,0xc6,0x8c,0x01,0x00,0x00,0x00,0x00,0x00,0x00,0x00,0x00,0x18,0x04,0x03,
 0x00,0x00,0x00,0x00,0x00,0x00,0x00,0x00,0x00,0x00,0x00,0x00,0x00,0x00,0x00,
 0x00,0x00,0x00,0x60,0x78,0x20,0x9f,0x99,0xcc,0x36,0x02,0x00,0xc0,0xf6,0xc6,
 0x00,0x04,0x18,0xc4,0xc6,0x30,0xfe,0xcc,0x36,0x01,0x00,0x60,0xdb,0xc6,0x8c,
 0x01,0x00,0x00,0x00,0x00,0x00,0x00,0x00,0x00,0x18,0x04,0x03,0x00,0x00,0x00,
 0x00,0x00,0x00,0x00,0x00,0x00,0x00,0x00,0x00,0x00,0x00,0x00,0x00,0x00,0x00,
 0xe0,0x38,0x20,0x91,0x99,0xcc,0x1a,0x02,0x00,0xc0,0x1a,0xc6,0x00,0x04,0x18,
 0x04,0xc6,0x38,0x8a,0xcc,0x1a,0x01,0x00,0x60,0x0d,0xc6,0x8c,0x01,0x00,0x00,
 0x00,0x00,0x00,0x00,0x00,0x00,0x18,0x04,0x03,0x00,0x00,0x00,0x00,0x00,0x00,
 0x00,0x00,0x00,0x00,0x00,0x00,0x00,0x00,0x00,0x00,0x00,0x00,0xe0,0x10,0x20,
 0xdf,0xff,0x8d,0x0f,0x02,0x00,0x80,0x0f,0xc3,0x00,0x04,0xf0,0x04,0x83,0xe7,
 0xfb,0x8c,0x0f,0x01,0x00,0xc0,0x07,0xc3,0x8c,0x01,0x00,0x00,0x00,0x00,0x00,
 0x00,0x00,0x00,0x18,0x1f,0x03,0x00,0x00,0x00,0x00,0x00,0x00,0x00,0x00,0x00,
 0x00,0x00,0x00,0x00,0x00,0x00,0x00,0x00,0x00,0x00,0x10,0x20,0x00,0x00,0x08,
 0x02,0x02,0x00,0x00,0x82,0x45,0x00,0x04,0x00,0x84,0x05,0x00,0x00,0x08,0x02,
 0x01,0x00,0x00,0x81,0x45,0x8c,0x00,0x00,0x00,0x00,0x00,0x00,0x00,0x00,0x00,
 0x10,0x00,0x01,0x00,0x00,0x00,0x00,0x00,0x00,0x00,0x00,0x00,0x00,0x00,0x00,
 0x00,0x00,0x00,0x00,0x00,0x00,0x00,0x00,0x20,0x00,0x00,0x18,0x03,0x0f,0x00,
 0x00,0xc3,0x67,0x00,0x04,0x00,0xde,0x07,0x00,0x00,0x18,0x83,0x07,0x00,0x80,
 0xc1,0x67,0xcc,0x00,0x00,0x00,0x00,0x00,0x00,0x00,0x00,0x00,0x30,0x80,0x01,
 0x00,0x00,0x00,0x00,0x00,0x00,0x00,0x00,0x00,0x00,0x00,0x00,0x00,0x00,0x00,
 0x00,0x00,0x00,0x00,0x00,0xe0,0x00,0x00,0x18,0x01,0x00,0x00,0x00,0x01,0x60,
 0x00,0x00,0x00,0x00,0x00,0x00,0x00,0x18,0x01,0x00,0x00,0x80,0x00,0x60,0xce,
 0x00,0x00,0x00,0x00,0x00,0x00,0x00,0x00,0x00,0x30,0x80,0x01,0x00,0x00,0x00,
 0x00,0x00,0x00,0x00,0x00,0x00,0x00,0x00,0x00,0x00,0x00,0x00,0x00,0x00,0x00,
 0x00,0x00,0xe0,0x00,0x00,0x30,0x00,0x00,0x00,0x00,0x00,0x30,0x00,0x00,0x00,
 0x00,0x00,0x00,0x00,0x30,0x00,0x00,0x00,0x00,0x00,0x30,0x6e,0x00,0x00,0x00,
 0x00,0x00,0x00,0x00,0x00,0x00,0x60,0xc0,0x00};
