#define noname_width 450
#define noname_height 15
static char noname_bits[] = {
 0x00,0x00,0x00,0x00,0x00,0x00,0x00,0x00,0x00,0x00,0x00,0x00,0x00,0x00,0x00,
 0x02,0x00,0x00,0x00,0x00,0x00,0x00,0x00,0x10,0x00,0x00,0x00,0x00,0x00,0x00,
 0x04,0x00,0x00,0x00,0x02,0x00,0x00,0x00,0x00,0x00,0x20,0x00,0x00,0x00,0x00,
 0x00,0x00,0x00,0x00,0x00,0x00,0x00,0x00,0x80,0x00,0x40,0x00,0x00,0x00,0x00,
 0x00,0x00,0x00,0x00,0x00,0x00,0x00,0x00,0x00,0x43,0x00,0x00,0xc2,0x03,0x00,
 0x00,0x00,0x00,0x00,0x00,0x08,0x04,0x00,0x00,0x00,0x20,0x00,0x08,0x00,0x00,
 0x08,0xe1,0x01,0x00,0x00,0x80,0x07,0x40,0x00,0x00,0x00,0x00,0x00,0x00,0x00,
 0x00,0x00,0x00,0x00,0x00,0x40,0x08,0x84,0x00,0x00,0x00,0x00,0x00,0x00,0x00,
 0x00,0x00,0x00,0x00,0x00,0x80,0xc3,0x00,0x00,0x83,0x01,0x00,0x00,0x00,0x00,
 0x00,0x00,0x0c,0x0e,0x00,0x00,0x00,0x70,0x00,0x18,0x00,0x00,0x8c,0x31,0x07,
 0x00,0x00,0xc0,0x1c,0xc0,0x00,0x00,0x00,0x00,0x00,0x00,0x00,0x00,0x00,0x00,
 0x00,0x00,0x60,0x0e,0x87,0x01,0x00,0x00,0x00,0x00,0x00,0x00,0x00,0x00,0x00,
 0x00,0x00,0x00,0xc6,0x00,0x00,0xc3,0x00,0x00,0x00,0x00,0x00,0x00,0x00,0x04,
 0x0e,0x00,0x00,0x00,0x70,0x00,0x10,0x00,0x00,0x80,0x18,0x06,0x00,0x08,0x60,
 0x18,0x80,0x00,0x00,0x00,0x00,0x00,0x00,0x00,0x00,0x00,0x00,0x00,0x00,0x20,
 0x08,0x04,0x01,0x00,0x00,0x00,0x00,0x00,0x00,0x00,0x00,0x00,0x00,0x00,0x00,
 0x86,0x00,0x00,0xc1,0x00,0x00,0x00,0x00,0x00,0x00,0x00,0x06,0x1f,0x00,0x00,
 0x00,0xf8,0x00,0x30,0x00,0x00,0xc0,0x18,0x0c,0x00,0x08,0x60,0x30,0x80,0x01,
 0x00,0x00,0x00,0x00,0x00,0x00,0x00,0x00,0x00,0x00,0x00,0x30,0x08,0x04,0x03,
 0x00,0x00,0x00,0x00,0x00,0x00,0x00,0x00,0x00,0x00,0x00,0x00,0x46,0x00,0x80,
 0xc1,0xc0,0xff,0xc0,0x01,0x00,0xfe,0x07,0x06,0x19,0x00,0x00,0x00,0xc8,0x00,
 0x30,0x00,0x00,0xce,0xec,0x0f,0x00,0x08,0xb0,0x3f,0x80,0x01,0x00,0x00,0x00,
 0x00,0x00,0x00,0x00,0x00,0x00,0x00,0x00,0x30,0x08,0x04,0x03,0x00,0x00,0x00,
 0x00,0x00,0x00,0x00,0x00,0x00,0x00,0x00,0x00,0x66,0xc4,0x81,0xc0,0xc0,0xff,
 0x60,0x10,0x07,0xfe,0x07,0x86,0x39,0x08,0x00,0x00,0xcc,0xe1,0x30,0x00,0x00,
 0xcf,0xec,0x8f,0x00,0x08,0xb0,0x3f,0x87,0x01,0x00,0x00,0x00,0x00,0x00,0x00,
 0x00,0x00,0x00,0x00,0x00,0x30,0x08,0x04,0x03,0x00,0x00,0x00,0x00,0x00,0x00,
 0x00,0x00,0x00,0x00,0x00,0x00,0x36,0x66,0x83,0x60,0x00,0x00,0xf0,0x98,0x0d,
 0x00,0x00,0x86,0x30,0x0c,0xf8,0x0f,0x84,0xb1,0x31,0xf8,0x0f,0xc6,0x0c,0xcc,
 0xc0,0xff,0x30,0xb0,0x8d,0x01,0x00,0x00,0x00,0x00,0x00,0x00,0x00,0x00,0x00,
 0x00,0x00,0x30,0x08,0x04,0x03,0x00,0x00,0x00,0x00,0x00,0x00,0x00,0x00,0x00,
 0x00,0x00,0x00,0x3e,0x64,0xc3,0x60,0x00,0x00,0x30,0x90,0x0d,0x00,0x00,0xc6,
 0x70,0x08,0x00,0x00,0x86,0xb3,0x31,0x00,0x00,0xc6,0x18,0x8c,0x00,0x08,0x60,
 0xb0,0x8d,0x01,0x00,0x00,0x00,0x00,0x00,0x00,0x00,0x00,0x00,0x00,0x00,0x30,
 0x08,0x04,0x03,0x00,0x00,0x00,0x00,0x00,0x00,0x00,0x00,0x00,0x00,0x00,0x00,
 0x1e,0x04,0x43,0x60,0xc0,0xff,0x30,0x10,0x0c,0xfe,0x07,0x46,0xe0,0x08,0x00,
 0x00,0x02,0x87,0x31,0x00,0x00,0xce,0x18,0x86,0x00,0x08,0x60,0x18,0x8c,0x01,
 0x00,0x00,0x00,0x00,0x00,0x00,0x00,0x00,0x00,0x00,0x00,0x30,0x08,0x04,0x03,
 0x00,0x00,0x00,0x00,0x00,0x00,0x00,0x00,0x00,0x00,0x00,0x00,0x0e,0x84,0x61,
 0xf8,0x00,0x00,0xe0,0x11,0x06,0x00,0x00,0xe6,0xff,0x08,0x00,0x00,0xff,0xc7,
 0x30,0x00,0x00,0xce,0x70,0x83,0x00,0x08,0xc0,0x0d,0x86,0x01,0x00,0x00,0x00,
 0x00,0x00,0x00,0x00,0x00,0x00,0x00,0x00,0x30,0x3e,0x1f,0x03,0x00,0x00,0x00,
 0x00,0x00,0x00,0x00,0x00,0x00,0x00,0x00,0x00,0x02,0xc4,0x62,0x00,0x00,0x00,
 0x00,0x10,0x0b,0x00,0x00,0x04,0x00,0x08,0x00,0x00,0x00,0x60,0x11,0x00,0x00,
 0x80,0xc0,0x81,0x00,0x08,0x00,0x07,0x8b,0x00,0x00,0x00,0x00,0x00,0x00,0x00,
 0x00,0x00,0x00,0x00,0x00,0x20,0x00,0x00,0x01,0x00,0x00,0x00,0x00,0x00,0x00,
 0x00,0x00,0x00,0x00,0x00,0x00,0x00,0xfe,0x23,0x00,0x00,0x00,0x00,0xf8,0x0f,
 0x00,0x00,0x0c,0x00,0x3c,0x00,0x00,0x00,0xf0,0x19,0x00,0x00,0x80,0x01,0xc0,
 0x03,0x08,0x00,0x80,0xcf,0x00,0x00,0x00,0x00,0x00,0x00,0x00,0x00,0x00,0x00,
 0x00,0x00,0x60,0x00,0x80,0x01,0x00,0x00,0x00,0x00,0x00,0x00,0x00,0x00,0x00,
 0x00,0x00,0x00,0x00,0x00,0x30,0x00,0x00,0x00,0x00,0x00,0x00,0x00,0x00,0x0c,
 0x00,0x00,0x00,0x00,0x00,0x00,0x18,0x00,0x00,0x80,0x01,0x00,0x00,0x00,0x00,
 0x00,0xc0,0x00,0x00,0x00,0x00,0x00,0x00,0x00,0x00,0x00,0x00,0x00,0x00,0x60,
 0x00,0x80,0x01,0x00,0x00,0x00,0x00,0x00,0x00,0x00,0x00,0x00,0x00,0x00,0x00,
 0x00,0x00,0x30,0x00,0x00,0x00,0x00,0x00,0x00,0x00,0x00,0x18,0x00,0x00,0x00,
 0x00,0x00,0x00,0x0c,0x00,0x00,0x00,0x03,0x00,0x00,0x00,0x00,0x00,0x60,0x00,
 0x00,0x00,0x00,0x00,0x00,0x00,0x00,0x00,0x00,0x00,0x00,0xc0,0x00,0xc0,0x00};
