#define noname_width 450
#define noname_height 15
static char noname_bits[] = {
 0x00,0x00,0x00,0x00,0x00,0x00,0x00,0x00,0x00,0x00,0x00,0x00,0x00,0x00,0x00,
 0x10,0x00,0x00,0x02,0x00,0x00,0x00,0x00,0x40,0x08,0x00,0x00,0x00,0x00,0x00,
 0x10,0x00,0x00,0x00,0x00,0x00,0x00,0x00,0x00,0x02,0x00,0x00,0x00,0x00,0x20,
 0x08,0x00,0x00,0x00,0x00,0x00,0x00,0x00,0x00,0x40,0x40,0x00,0x00,0x00,0x00,
 0x00,0xfc,0x01,0x00,0x00,0x00,0x00,0x00,0x00,0x00,0x00,0x00,0x08,0x00,0x08,
 0x01,0x00,0x00,0x00,0x00,0x80,0x10,0x00,0x00,0x00,0x00,0x00,0x08,0x00,0x00,
 0x00,0x00,0x00,0x00,0x00,0x08,0x01,0x00,0x00,0x00,0x00,0x40,0x10,0x00,0x00,
 0x00,0x00,0x00,0x00,0x00,0x00,0x20,0x8e,0x00,0x00,0x00,0x00,0x00,0xc6,0x01,
 0x00,0x00,0x00,0x00,0x00,0x00,0x00,0x00,0x00,0x0c,0x00,0x8c,0x01,0x00,0x00,
 0x00,0x00,0x80,0x31,0x00,0x00,0x00,0x00,0x00,0x0c,0x00,0x00,0x00,0x00,0x00,
 0x00,0x00,0x8c,0x01,0x00,0x00,0x00,0x00,0xc0,0x30,0x00,0x00,0x00,0x00,0x00,
 0x00,0x00,0x00,0x30,0x9b,0x01,0x00,0x00,0x00,0x00,0x83,0x00,0x00,0x00,0x00,
 0x00,0x00,0x00,0x00,0x00,0x00,0x04,0x00,0x80,0x00,0x00,0x00,0x00,0x00,0x00,
 0x21,0x00,0x00,0x00,0x00,0x00,0x04,0x00,0x00,0x04,0x00,0x00,0x00,0x00,0x80,
 0x00,0x00,0x00,0x00,0x00,0x80,0x20,0x00,0x00,0x00,0x00,0x00,0x00,0x00,0x00,
 0x10,0x1b,0x01,0x00,0x00,0x00,0x80,0x81,0x00,0x00,0x00,0x00,0x00,0x00,0x00,
 0x00,0x00,0x00,0x06,0x00,0xc0,0x00,0x00,0x00,0x00,0x00,0x00,0x63,0x00,0x00,
 0x00,0x00,0x00,0x06,0x00,0x00,0x04,0x00,0x00,0x00,0x00,0xc0,0x00,0x00,0x00,
 0x00,0x00,0x80,0x61,0x00,0x00,0x00,0x00,0x00,0x00,0x00,0x00,0x18,0x1b,0x03,
 0x00,0x00,0x00,0x80,0x01,0x00,0x00,0xff,0x03,0x1e,0xc0,0x03,0xf0,0xee,0x3f,
 0x06,0x00,0xce,0xf8,0x01,0x00,0x00,0x7e,0x00,0x63,0xf0,0x3f,0xf0,0xee,0x3f,
 0x86,0x07,0x00,0x04,0xe0,0x01,0x00,0x00,0xce,0xf8,0x01,0x00,0x00,0x7e,0x80,
 0x61,0x00,0x00,0x00,0x00,0x00,0x00,0x00,0x00,0x18,0x0c,0x03,0x00,0x00,0x00,
 0xc0,0x01,0x08,0x07,0xff,0x03,0x1b,0x61,0x3b,0x98,0x3d,0x66,0x06,0x00,0xcf,
 0xbc,0x09,0x00,0x00,0x6f,0x07,0x63,0xf0,0x3f,0x98,0x3d,0x66,0xc6,0x46,0x00,
 0x04,0xb0,0x1d,0x00,0x00,0xcf,0xbc,0x09,0x00,0x00,0x6f,0x87,0x61,0x00,0x00,
 0x00,0x00,0x00,0x00,0x00,0x00,0x18,0x1e,0x03,0x00,0x00,0x00,0xc0,0xf0,0x8c,
 0x0d,0x00,0x00,0x9b,0x61,0x6f,0xf8,0x39,0x46,0xc6,0x7f,0xc6,0x98,0x0d,0xf0,
 0x1f,0xe6,0x0d,0x63,0x00,0x00,0xf8,0x39,0x46,0x66,0x66,0xe0,0x7f,0x98,0x37,
 0xf8,0x0f,0xc6,0x98,0x0d,0xf8,0x0f,0xe6,0x8d,0x61,0x00,0x00,0x00,0x00,0x00,
 0x00,0x00,0x00,0x18,0x18,0x03,0x00,0x00,0x00,0xc0,0x60,0x88,0x0d,0x00,0x00,
 0x19,0x21,0x6f,0x18,0x38,0x46,0x06,0x00,0xc6,0x98,0x09,0x00,0x00,0xe6,0x0d,
 0x63,0x00,0x00,0x18,0x38,0x46,0x66,0x42,0x00,0x04,0x98,0x36,0x00,0x00,0xc6,
 0x98,0x09,0x00,0x00,0xe6,0x8d,0x61,0x00,0x00,0x00,0x00,0x00,0x00,0x00,0x00,
 0x98,0x1b,0x03,0x00,0x00,0x00,0x80,0x61,0x08,0x0c,0xff,0x03,0x09,0x21,0x61,
 0x18,0x6d,0x66,0x06,0x00,0xce,0xd8,0x08,0x00,0x00,0x36,0x0c,0x63,0xf0,0x3f,
 0x18,0x6d,0x66,0x66,0x43,0x00,0x04,0xd8,0x30,0x00,0x00,0xce,0xd8,0x08,0x00,
 0x00,0x36,0x8c,0x61,0x00,0x00,0x00,0x00,0x00,0x00,0x00,0x00,0x98,0x1b,0x03,
 0x00,0x00,0x00,0x80,0x7b,0x08,0x06,0x00,0x00,0x0f,0xe1,0x31,0xf0,0xee,0x3e,
 0x06,0x00,0xce,0x78,0x08,0x00,0x00,0x1e,0x06,0x63,0x00,0x00,0xf0,0xee,0x3e,
 0xc6,0x43,0x00,0x04,0xf0,0x18,0x00,0x00,0xce,0x78,0x08,0x00,0x00,0x1e,0x86,
 0x61,0x00,0x00,0x00,0x00,0x00,0x00,0x00,0x00,0x18,0x1b,0x03,0x00,0x00,0x00,
 0x00,0x0e,0x08,0x0b,0x00,0x00,0x0c,0x81,0x59,0x00,0x00,0x06,0x04,0x00,0x80,
 0x0c,0x08,0x00,0x00,0x03,0x0b,0x21,0x00,0x00,0x00,0x00,0x06,0x04,0x43,0x00,
 0x04,0xc0,0x2c,0x00,0x00,0x80,0x0c,0x08,0x00,0x00,0x03,0x8b,0x20,0x00,0x00,
 0x00,0x00,0x00,0x00,0x00,0x00,0x10,0x06,0x01,0x00,0x00,0x00,0x00,0x00,0xbc,
 0x0f,0x00,0x80,0x8d,0xb7,0x7d,0x00,0x00,0x06,0x0c,0x00,0x80,0x0d,0x3c,0x00,
 0x00,0x83,0x8f,0x31,0x00,0x00,0x00,0x00,0x06,0x0c,0xe1,0x01,0x04,0x40,0x3e,
 0x00,0x00,0x80,0x0d,0x3c,0x00,0x00,0x83,0xcf,0x30,0x00,0x00,0x00,0x00,0x00,
 0x00,0x00,0x00,0x30,0x80,0x01,0x00,0x00,0x00,0x00,0x00,0x00,0x00,0x00,0x80,
 0x07,0xf0,0x00,0x00,0x00,0x0f,0x0c,0x00,0x80,0x1f,0x00,0x00,0x80,0x07,0x80,
 0x31,0x00,0x00,0x00,0x00,0x0f,0xcc,0x03,0x00,0x00,0xf0,0x00,0x00,0x00,0x80,
 0x1f,0x00,0x00,0x80,0x07,0xc0,0x30,0x00,0x00,0x00,0x00,0x00,0x00,0x00,0x00,
 0x30,0x80,0x01,0x00,0x00,0x00,0x00,0x00,0x00,0x00,0x00,0x00,0x00,0x00,0x00,
 0x00,0x00,0x00,0x18,0x00,0x00,0x03,0x00,0x00,0x00,0x00,0xc0,0x18,0x00,0x00,
 0x00,0x00,0x00,0x18,0x00,0x00,0x00,0x00,0x00,0x00,0x00,0x00,0x03,0x00,0x00,
 0x00,0x00,0x60,0x18,0x00,0x00,0x00,0x00,0x00,0x00,0x00,0x00,0x60,0xc0,0x00};
