#define noname_width 450
#define noname_height 77
static char noname_bits[] = {
 0x00,0x00,0x00,0x00,0x00,0x00,0x00,0x00,0x00,0x00,0x00,0x00,0x40,0x00,0x08,
 0x00,0x00,0x00,0x00,0x80,0x00,0x00,0x00,0x00,0x10,0x00,0x00,0x00,0x00,0x00,
 0x02,0x00,0x00,0x00,0x80,0x00,0x00,0x00,0x00,0x00,0x10,0x00,0x00,0x00,0x00,
 0x40,0x00,0x00,0x00,0x00,0x00,0x04,0x01,0x00,0x00,0x00,0x00,0xc0,0x10,0x00,
 0x00,0x00,0x00,0x00,0x00,0x00,0xc0,0x1f,0x00,0x20,0x78,0x84,0x00,0x00,0x00,
 0x00,0x00,0x01,0x00,0x00,0x3e,0x08,0x01,0x00,0x00,0x00,0x00,0x04,0x00,0x00,
 0x9e,0x43,0x08,0x00,0x00,0x00,0x00,0x20,0x00,0x00,0x20,0xcf,0x23,0x08,0x00,
 0x00,0x00,0x00,0x08,0x02,0x00,0x00,0x00,0x00,0xe0,0x30,0x00,0x00,0x00,0x00,
 0x00,0x00,0x00,0x60,0x1c,0x00,0x30,0x30,0xe6,0x00,0x00,0x00,0x00,0x00,0x03,
 0x00,0x00,0x63,0xcc,0x01,0x00,0x00,0x00,0x00,0x0c,0x00,0x00,0x0c,0x61,0x0e,
 0x00,0x00,0x00,0x00,0x60,0x00,0x00,0x30,0x82,0x31,0x0e,0x00,0x00,0x00,0x00,
 0x18,0x06,0x00,0x00,0x00,0x00,0x80,0x31,0x00,0x00,0x00,0x00,0x00,0x00,0x00,
 0x30,0x08,0x00,0x10,0x18,0x82,0x00,0x00,0x00,0x00,0x00,0x02,0x00,0x80,0x61,
 0x04,0x01,0x10,0x00,0x00,0x00,0x08,0x80,0x00,0x8c,0x21,0x08,0x00,0x00,0x00,
 0x00,0x40,0x00,0x02,0x00,0xc2,0x10,0x08,0x00,0x00,0x00,0x00,0x10,0x04,0x00,
 0x00,0x00,0x00,0x80,0x21,0x00,0x00,0x00,0x00,0x00,0x00,0x00,0x18,0x08,0x00,
 0x18,0x18,0x83,0x00,0x00,0x00,0x00,0x00,0x06,0x00,0xc0,0x60,0x06,0x01,0x10,
 0x00,0x00,0x00,0x18,0x80,0x00,0x84,0x30,0x08,0x00,0x00,0x00,0x00,0xc0,0x00,
 0x02,0x00,0x46,0x18,0x08,0x00,0x00,0x00,0x00,0x30,0x0c,0x00,0x00,0x00,0x00,
 0x80,0x11,0x00,0x00,0x00,0xff,0x03,0x00,0x00,0x18,0x00,0x00,0x18,0x18,0x83,
 0x00,0x00,0xc0,0x01,0x00,0x06,0x00,0xc0,0x60,0x06,0x01,0x10,0xc0,0x0f,0x00,
 0x18,0x80,0x00,0x86,0x30,0x08,0x00,0x00,0x7e,0x00,0xc0,0x00,0x02,0x38,0x66,
 0x18,0x08,0x00,0x00,0x0e,0x00,0x30,0x0c,0x00,0x00,0x00,0x00,0x80,0x19,0x00,
 0x00,0x00,0xff,0x03,0x00,0x00,0x1c,0x00,0x00,0x18,0x18,0x83,0x00,0x00,0x60,
 0x00,0x00,0x06,0x00,0xe0,0x60,0x06,0x01,0x10,0xe0,0x0d,0x00,0x18,0x80,0x00,
 0x86,0x30,0x08,0x00,0x00,0x6f,0x00,0xc0,0x00,0x02,0x3c,0x26,0x18,0x08,0x00,
 0x00,0x03,0x00,0x30,0x0c,0x00,0x00,0x00,0x00,0x80,0x0d,0x00,0x00,0x00,0x00,
 0x00,0x00,0x00,0x0c,0x0f,0x00,0x18,0x0c,0x83,0x80,0xff,0xf0,0x00,0x00,0x06,
 0xff,0x61,0x60,0x06,0x81,0xff,0xc1,0x0c,0x00,0x18,0xfc,0x0f,0xc6,0x30,0x08,
 0xf8,0x0f,0x66,0x00,0xc0,0xf0,0x3f,0x18,0x16,0x18,0x08,0xf8,0x8f,0x07,0x00,
 0x30,0x0c,0x00,0x00,0x00,0x00,0x80,0xcf,0xf3,0x00,0x00,0x00,0x00,0x00,0x00,
 0x0c,0xc6,0xf3,0x18,0x0c,0x83,0x00,0x00,0x30,0x78,0x1e,0x06,0x00,0x60,0x30,
 0x06,0x01,0x10,0xc0,0xec,0xf1,0x18,0x80,0x00,0x42,0x30,0x08,0x00,0x00,0x66,
 0xcf,0xc3,0x00,0x02,0x18,0x1e,0x18,0x08,0x00,0x80,0xc1,0xf3,0x30,0x0c,0x00,
 0x00,0x00,0x00,0x80,0xe7,0xff,0x01,0x00,0xff,0x03,0x00,0x00,0x18,0xe6,0xff,
 0x19,0x0c,0x83,0x00,0x00,0x30,0xfc,0x3f,0x06,0x00,0xc0,0x3f,0x06,0x01,0x10,
 0xc0,0xf4,0xfb,0x19,0x80,0x00,0x62,0x30,0x08,0x00,0x00,0xa6,0xff,0xc7,0x00,
 0x02,0x38,0x0e,0x18,0x08,0x00,0x80,0xe1,0xff,0x31,0x0c,0x00,0x00,0x00,0x00,
 0x80,0xa3,0x28,0x00,0x00,0x00,0x00,0x00,0x00,0xb8,0xa7,0x28,0x18,0x1f,0xe3,
 0x03,0x00,0xe0,0x15,0x05,0x06,0x00,0xc0,0x3d,0xc6,0x07,0x10,0xc0,0x56,0x28,
 0x18,0x80,0x00,0x36,0x30,0x3e,0x00,0x00,0xb6,0xa2,0xc0,0x00,0x02,0x38,0x04,
 0x18,0x3e,0x00,0x00,0xaf,0x28,0x30,0x0c,0x00,0x00,0x00,0x00,0x80,0xa0,0xaa,
 0x00,0x00,0x00,0x00,0x00,0x00,0xe0,0xa0,0xaa,0x10,0x00,0x02,0x00,0x00,0x00,
 0x54,0x15,0x02,0x00,0x00,0x27,0x04,0x00,0x10,0x00,0x56,0xa9,0x08,0x80,0x00,
 0x1c,0x20,0x00,0x00,0x00,0xb0,0xaa,0x42,0x00,0x02,0x00,0x04,0x10,0x00,0x00,
 0x00,0xa0,0xaa,0x10,0x04,0x00,0x00,0x00,0x00,0x00,0xe0,0xfb,0x00,0x00,0x00,
 0x00,0x00,0x00,0x00,0xe0,0xfb,0x30,0x00,0x06,0x00,0x00,0x00,0x7c,0x1f,0x03,
 0x00,0x00,0x3c,0x0c,0x00,0x10,0x00,0xf6,0xf9,0x0c,0x80,0x00,0x00,0x60,0x00,
 0x00,0x00,0xb0,0xef,0x63,0x00,0x02,0x00,0x00,0x30,0x00,0x00,0x00,0xe0,0xfb,
 0x18,0x06,0x00,0x00,0x00,0x00,0x00,0x00,0x00,0x00,0x00,0x00,0x00,0x00,0x00,
 0x00,0x00,0x00,0x30,0x00,0x06,0x00,0x00,0x00,0x00,0x00,0x03,0x00,0x00,0x1c,
 0x0c,0x00,0x00,0x00,0x02,0x00,0x0c,0x00,0x00,0x00,0x60,0x00,0x00,0x00,0x10,
 0x00,0x60,0x00,0x00,0x00,0x00,0x30,0x00,0x00,0x00,0x00,0x00,0x18,0x06,0x00,
 0x00,0x00,0x00,0x00,0x00,0x00,0x00,0x00,0x00,0x00,0x00,0x00,0x00,0x00,0x00,
 0x60,0x00,0x0c,0x00,0x00,0x00,0x00,0x80,0x01,0x00,0x00,0x00,0x18,0x00,0x00,
 0x00,0x00,0x00,0x06,0x00,0x00,0x00,0xc0,0x00,0x00,0x00,0x00,0x00,0x30,0x00,
 0x00,0x00,0x00,0x60,0x00,0x00,0x00,0x00,0x00,0x0c,0x03,0x00,0x00,0x00,0x00,
 0x00,0x00,0x00,0x00,0x00,0x00,0x00,0x00,0x00,0x00,0x00,0x00,0x00,0x00,0x00,
 0x00,0x00,0x00,0x00,0x00,0x00,0x00,0x00,0x00,0x00,0x00,0x00,0x00,0x00,0x00,
 0x00,0x00,0x00,0x00,0x00,0x00,0x00,0x00,0x00,0x00,0x00,0x00,0x00,0x00,0x00,
 0x00,0x00,0x00,0x00,0x00,0x00,0x00,0x00,0x00,0x00,0x00,0x00,0x00,0x00,0x00,
 0x00,0x00,0x00,0x00,0x00,0x00,0x00,0x00,0x00,0x00,0x00,0x00,0x00,0x00,0x00,
 0x00,0x00,0x00,0x00,0x00,0x00,0x00,0x00,0x00,0x00,0x00,0x00,0x00,0x00,0x00,
 0x00,0x00,0x00,0x00,0x00,0x00,0x00,0x00,0x00,0x00,0x00,0x00,0x00,0x00,0x00,
 0x00,0x00,0x00,0x00,0x00,0x00,0x00,0x00,0x00,0x00,0x00,0x00,0x00,0x00,0x00,
 0x00,0x00,0x00,0x00,0x00,0x00,0x00,0x00,0x00,0x00,0x00,0x00,0x00,0x00,0x00,
 0x00,0x00,0x00,0x00,0x00,0x00,0x00,0x00,0x00,0x00,0x00,0x00,0x00,0x00,0x00,
 0x00,0x00,0x00,0x00,0x00,0x00,0x00,0x00,0x00,0x00,0x00,0x00,0x00,0x00,0x00,
 0x00,0x00,0x00,0x00,0x00,0x00,0x00,0x00,0x00,0x00,0x00,0x00,0x00,0x00,0x00,
 0x00,0x00,0x00,0x00,0x00,0x00,0x00,0x00,0x00,0x00,0x00,0x00,0x00,0x00,0x00,
 0x00,0x00,0x00,0x00,0x00,0x00,0x00,0x00,0x00,0x00,0x00,0x00,0x00,0x00,0x00,
 0x00,0x00,0x00,0x00,0x00,0x00,0x00,0x00,0x00,0x00,0x00,0x00,0x00,0x00,0x00,
 0x00,0x00,0x00,0x00,0x00,0x00,0x00,0x00,0x00,0x00,0x00,0x00,0x00,0x00,0x00,
 0x00,0x00,0x00,0x00,0x00,0x00,0x00,0x00,0x00,0x00,0x00,0x00,0x00,0x00,0x00,
 0x00,0x00,0x00,0x00,0x00,0x00,0x00,0x00,0x00,0x00,0x00,0x00,0x00,0x00,0x00,
 0x00,0x00,0x00,0x00,0x00,0x00,0x00,0x00,0x00,0x00,0x00,0x00,0x00,0x00,0x00,
 0x00,0x00,0x00,0x00,0x00,0x00,0x00,0x00,0x00,0x00,0x00,0x00,0x00,0x00,0x00,
 0x00,0x00,0x00,0x00,0x00,0x00,0x00,0x00,0x00,0x00,0x00,0x00,0x00,0x00,0x00,
 0x00,0x00,0x00,0x00,0x00,0x00,0x00,0x00,0x00,0x00,0x00,0x00,0x00,0x00,0x00,
 0x00,0x00,0x00,0x00,0x00,0x00,0x00,0x00,0x00,0x00,0x00,0x00,0x00,0x00,0x00,
 0x00,0x00,0x00,0x00,0x00,0x00,0x00,0x00,0x00,0x40,0x00,0x04,0x00,0x00,0x00,
 0x00,0x40,0x00,0x00,0x00,0x00,0x08,0x00,0x00,0x00,0x00,0x00,0x01,0x00,0x00,
 0x00,0x20,0x00,0x00,0x00,0x00,0x00,0x02,0x00,0x00,0x00,0x00,0x10,0x00,0x00,
 0x00,0x00,0x80,0x10,0x00,0x00,0x00,0x00,0x00,0xc0,0x10,0x00,0x00,0x00,0x00,
 0x00,0x00,0x00,0xc0,0x1f,0x00,0x20,0x3c,0x42,0x00,0x00,0x00,0x00,0x80,0x00,
 0x00,0x00,0x1f,0x84,0x00,0x00,0x00,0x00,0x00,0x02,0x00,0x80,0xe7,0x10,0x02,
 0x00,0x00,0x00,0x00,0x04,0x00,0x00,0xe8,0x79,0x08,0x01,0x00,0x00,0x00,0x00,
 0x21,0x00,0x00,0x00,0x00,0x00,0xe0,0x30,0x00,0x00,0x00,0x00,0x00,0x00,0x00,
 0x60,0x1c,0x00,0x30,0x18,0x73,0x00,0x00,0x00,0x00,0x80,0x01,0x00,0x80,0x31,
 0xe6,0x00,0x00,0x00,0x00,0x00,0x06,0x00,0x00,0x43,0x98,0x03,0x00,0x00,0x00,
 0x00,0x0c,0x00,0x00,0x4c,0x30,0xcc,0x01,0x00,0x00,0x00,0x00,0x63,0x00,0x00,
 0x00,0x00,0x00,0x80,0x31,0x00,0x00,0x00,0x00,0x00,0x00,0x00,0x30,0x08,0x00,
 0x10,0x0c,0x41,0x00,0x08,0x00,0x00,0x00,0x01,0x08,0xc0,0x30,0x82,0x00,0x08,
 0x00,0x00,0x00,0x04,0x00,0x00,0x63,0x08,0x02,0x00,0x00,0x00,0x00,0x08,0x80,
 0x00,0x40,0x18,0x04,0x01,0x00,0x00,0x00,0x00,0x42,0x00,0x00,0x00,0x00,0x00,
 0x80,0x21,0x00,0x00,0x00,0x00,0x00,0x00,0x00,0x18,0x08,0x00,0x18,0x8c,0x41,
 0x00,0x08,0x00,0x00,0x00,0x03,0x08,0x60,0x30,0x83,0x00,0x08,0x00,0x00,0x00,
 0x0c,0x00,0x00,0x21,0x0c,0x02,0x00,0x00,0x00,0x00,0x18,0x80,0x00,0xc0,0x08,
 0x06,0x01,0x00,0x00,0x00,0x00,0xc6,0x00,0x00,0x00,0x00,0x00,0x80,0x11,0x00,
 0x00,0x00,0xff,0x03,0x00,0x00,0x18,0x00,0x00,0x18,0x8c,0x41,0x00,0x08,0xe0,
 0x00,0x00,0x03,0x08,0x60,0x30,0x83,0x00,0x08,0xe0,0x07,0x00,0x0c,0x00,0x80,
 0x21,0x0c,0x02,0x00,0x80,0x1f,0x00,0x18,0x80,0x00,0xce,0x0c,0x06,0x01,0x00,
 0x80,0x03,0x00,0xc6,0x00,0x00,0x00,0x00,0x00,0x80,0x19,0x00,0x00,0x00,0xff,
 0x03,0x00,0x00,0x1c,0x00,0x00,0x18,0x8c,0x41,0x00,0x08,0x30,0x00,0x00,0x03,
 0x08,0x70,0x30,0x83,0x00,0x08,0xf0,0x06,0x00,0x0c,0x00,0x80,0x21,0x0c,0x02,
 0x00,0xc0,0x1b,0x00,0x18,0x80,0x00,0xcf,0x04,0x06,0x01,0x00,0xc0,0x00,0x00,
 0xc6,0x00,0x00,0x00,0x00,0x00,0x80,0x0d,0x00,0x00,0x00,0x00,0x00,0x00,0x00,
 0x0c,0x0f,0x00,0x18,0x86,0x41,0xc0,0xff,0x78,0x00,0x00,0xc3,0xff,0x30,0x30,
 0x83,0xc0,0xff,0x60,0x06,0x00,0x0c,0xfe,0x83,0x31,0x0c,0x02,0xfe,0x83,0x19,
 0x00,0x18,0xfc,0x0f,0xc6,0x02,0x06,0x01,0xff,0xe1,0x01,0x00,0xc6,0x00,0x00,
 0x00,0x00,0x00,0x80,0x8f,0x24,0x01,0x00,0x00,0x00,0x00,0x00,0x0c,0x46,0x92,
 0x18,0x86,0x41,0x00,0x08,0x18,0x24,0x09,0x03,0x08,0x30,0x18,0x83,0x00,0x08,
 0x60,0x96,0x24,0x0c,0x00,0x80,0x10,0x0c,0x02,0x00,0x80,0x59,0x92,0x18,0x80,
 0x00,0xc6,0x03,0x06,0x01,0x00,0x60,0x90,0x24,0xc6,0x00,0x00,0x00,0x00,0x00,
 0x80,0xc7,0x75,0x01,0x00,0xff,0x03,0x00,0x00,0x18,0xe6,0xba,0x18,0x86,0x41,
 0x00,0x08,0x18,0xae,0x0b,0x03,0x08,0xe0,0x1f,0x83,0x00,0x08,0x60,0xba,0x2e,
 0x0c,0x00,0x80,0x18,0x0c,0x02,0x00,0x80,0xe9,0xba,0x18,0x80,0x00,0xce,0x01,
 0x06,0x01,0x00,0x60,0xb8,0x2e,0xc6,0x00,0x00,0x00,0x00,0x00,0x80,0xc3,0x34,
 0x01,0x00,0x00,0x00,0x00,0x00,0xb8,0x67,0x9a,0x98,0x8f,0xf1,0x01,0x08,0xf0,
 0xa6,0x09,0x03,0x08,0xe0,0x1e,0xe3,0x03,0x08,0x60,0x9b,0x26,0x0c,0x00,0x80,
 0x0d,0x8c,0x0f,0x00,0x80,0x6d,0x9a,0x18,0x80,0x00,0x8e,0x00,0xc6,0x07,0x00,
 0xc0,0x9b,0x26,0xc6,0x00,0x00,0x00,0x00,0x00,0x80,0x80,0xa6,0x01,0x00,0x00,
 0x00,0x00,0x00,0xe0,0x40,0xd3,0x10,0x00,0x01,0x00,0x08,0x00,0x34,0x0d,0x01,
 0x08,0x80,0x13,0x02,0x00,0x08,0x00,0xd3,0x34,0x04,0x00,0x00,0x07,0x08,0x00,
 0x00,0x00,0x4c,0xd3,0x08,0x80,0x00,0x80,0x00,0x04,0x00,0x00,0x00,0xd0,0x34,
 0x42,0x00,0x00,0x00,0x00,0x00,0x00,0x80,0xe7,0x01,0x00,0x00,0x00,0x00,0x00,
 0x00,0xc0,0xf3,0x30,0x00,0x03,0x00,0x08,0x00,0x3c,0x8f,0x01,0x08,0x00,0x1e,
 0x06,0x00,0x08,0x00,0xf3,0x3c,0x06,0x00,0x00,0x00,0x18,0x00,0x00,0x00,0xcc,
 0xf3,0x0c,0x80,0x00,0x00,0x00,0x0c,0x00,0x00,0x00,0xf0,0x3c,0x63,0x00,0x00,
 0x00,0x00,0x00,0x00,0xc0,0xb2,0x00,0x00,0x00,0x00,0x00,0x00,0x00,0x60,0x59,
 0x30,0x00,0x03,0x00,0x00,0x00,0x96,0x85,0x01,0x00,0x00,0x0e,0x06,0x00,0x00,
 0x00,0x59,0x16,0x06,0x00,0x00,0x00,0x18,0x00,0x00,0x00,0x64,0x59,0x0c,0x00,
 0x00,0x00,0x00,0x0c,0x00,0x00,0x00,0x58,0x16,0x63,0x00,0x00,0x00,0x00,0x00,
 0x00,0xc0,0xf3,0x00,0x00,0x00,0x00,0x00,0x00,0x00,0xe0,0x79,0x60,0x00,0x06,
 0x00,0x00,0x00,0x9e,0xc7,0x00,0x00,0x00,0x00,0x0c,0x00,0x00,0x00,0x78,0x1e,
 0x03,0x00,0x00,0x00,0x30,0x00,0x00,0x00,0xe0,0x79,0x06,0x00,0x00,0x00,0x00,
 0x18,0x00,0x00,0x00,0x78,0x9e,0x31,0x00,0x00,0x00,0x00,0x00,0x00,0x00,0x00,
 0x00,0x00,0x00,0x00,0x00,0x00,0x00,0x00,0x00,0x00,0x00,0x00,0x00,0x00,0x00,
 0x00,0x00,0x00,0x00,0x00,0x00,0x00,0x00,0x00,0x00,0x00,0x00,0x00,0x00,0x00,
 0x00,0x00,0x00,0x00,0x00,0x00,0x00,0x00,0x00,0x00,0x00,0x00,0x00,0x00,0x00,
 0x00,0x00,0x00,0x00,0x00,0x00,0x00,0x00,0x00,0x00,0x00,0x00,0x00,0x00,0x00,
 0x00,0x00,0x00,0x00,0x00,0x00,0x00,0x00,0x00,0x00,0x00,0x00,0x00,0x00,0x00,
 0x00,0x00,0x00,0x00,0x00,0x00,0x00,0x00,0x00,0x00,0x00,0x00,0x00,0x00,0x00,
 0x00,0x00,0x00,0x00,0x00,0x00,0x00,0x00,0x00,0x00,0x00,0x00,0x00,0x00,0x00,
 0x00,0x00,0x00,0x00,0x00,0x00,0x00,0x00,0x00,0x00,0x00,0x00,0x00,0x00,0x00,
 0x00,0x00,0x00,0x00,0x00,0x00,0x00,0x00,0x00,0x00,0x00,0x00,0x00,0x00,0x00,
 0x00,0x00,0x00,0x00,0x00,0x00,0x00,0x00,0x00,0x00,0x00,0x00,0x00,0x00,0x00,
 0x00,0x00,0x00,0x00,0x00,0x00,0x00,0x00,0x00,0x00,0x00,0x00,0x00,0x00,0x00,
 0x00,0x00,0x00,0x00,0x00,0x00,0x00,0x00,0x00,0x00,0x00,0x00,0x00,0x00,0x00,
 0x00,0x00,0x00,0x00,0x00,0x00,0x00,0x00,0x00,0x00,0x00,0x00,0x00,0x00,0x00,
 0x00,0x00,0x00,0x00,0x00,0x00,0x00,0x00,0x00,0x00,0x00,0x00,0x00,0x00,0x00,
 0x00,0x00,0x00,0x00,0x00,0x00,0x00,0x00,0x00,0x00,0x00,0x00,0x00,0x00,0x00,
 0x00,0x00,0x00,0x00,0x00,0x00,0x00,0x00,0x00,0x00,0x00,0x00,0x00,0x00,0x00,
 0x00,0x00,0x00,0x00,0x00,0x00,0x00,0x00,0x00,0x00,0x00,0x00,0x00,0x00,0x00,
 0x00,0x00,0x00,0x00,0x00,0x00,0x00,0x00,0x00,0x00,0x00,0x00,0x00,0x00,0x00,
 0x00,0x00,0x00,0x00,0x00,0x00,0x00,0x00,0x00,0x00,0x00,0x00,0x00,0x00,0x00,
 0x00,0x00,0x00,0x00,0x00,0x00,0x00,0x00,0x00,0x80,0x00,0x10,0x00,0x00,0x00,
 0x00,0x00,0x01,0x00,0x00,0x00,0x20,0x00,0x00,0x00,0x00,0x00,0x04,0x00,0x00,
 0x00,0x80,0x00,0x00,0x00,0x00,0x00,0x00,0x00,0x00,0x00,0x00,0x02,0x00,0x00,
 0x00,0x00,0x20,0x04,0x00,0x00,0x00,0x00,0x00,0xc0,0x10,0x00,0x00,0x00,0x00,
 0x00,0x00,0x00,0x00,0x7f,0x00,0x40,0xf0,0x08,0x01,0x00,0x00,0x00,0x00,0x02,
 0x00,0x00,0x7c,0x10,0x02,0x00,0x00,0x00,0x00,0x08,0x00,0x00,0x9e,0x43,0x10,
 0x00,0x00,0x00,0x00,0x00,0x00,0x00,0x79,0x1e,0x21,0x00,0x00,0x00,0x00,0x40,
 0x08,0x00,0x00,0x00,0x00,0x00,0xe0,0x30,0x00,0x00,0x00,0x00,0x00,0x00,0x00,
 0x80,0x71,0x00,0x60,0x60,0xcc,0x01,0x00,0x00,0x00,0x00,0x06,0x00,0x00,0xc6,
 0x98,0x03,0x00,0x00,0x00,0x00,0x18,0x00,0x00,0x0c,0x61,0x1c,0x00,0x00,0x00,
 0x00,0x00,0x00,0x80,0x11,0x8c,0x39,0x00,0x00,0x00,0x00,0xc0,0x18,0x00,0x00,
 0x00,0x00,0x00,0x80,0x31,0x00,0x00,0x00,0x00,0x00,0x00,0x00,0xc0,0x20,0x00,
 0x20,0x30,0x04,0x01,0x00,0x00,0x00,0x00,0x04,0x20,0x00,0xc3,0x08,0x02,0x00,
 0x00,0x00,0x00,0x10,0x80,0x00,0x8c,0x21,0x10,0x00,0x01,0x00,0x00,0x00,0x00,
 0x00,0x10,0x86,0x20,0x00,0x02,0x00,0x00,0x80,0x10,0x00,0x00,0x00,0x00,0x00,
 0x80,0x21,0x00,0x00,0x00,0x00,0x00,0x00,0x00,0x60,0x20,0x00,0x30,0x30,0x06,
 0x01,0x00,0x00,0x00,0x00,0x0c,0x20,0x80,0xc1,0x0c,0x02,0x00,0x00,0x00,0x00,
 0x30,0x80,0x00,0x84,0x30,0x10,0x00,0x01,0x00,0x00,0x00,0x00,0x00,0x30,0xc2,
 0x20,0x00,0x02,0x00,0x00,0x80,0x31,0x00,0x00,0x00,0x00,0x00,0x80,0x11,0x00,
 0x00,0x00,0xff,0x03,0x00,0x00,0x60,0x00,0x00,0x30,0x30,0x06,0x01,0x00,0x80,
 0x03,0x00,0x0c,0x20,0x80,0xc1,0x0c,0x02,0x00,0x80,0x1f,0x00,0x30,0x80,0x00,
 0x86,0x30,0x10,0x00,0x01,0x7e,0x00,0x00,0x00,0xc0,0x31,0xc3,0x20,0x00,0x02,
 0x70,0x00,0x80,0x31,0x00,0x00,0x00,0x00,0x00,0x80,0x19,0x00,0x00,0x00,0xff,
 0x03,0x00,0x00,0x70,0x00,0x00,0x30,0x30,0x06,0x01,0x00,0xc0,0x00,0x00,0x0c,
 0x20,0xc0,0xc1,0x0c,0x02,0x00,0xc0,0x1b,0x00,0x30,0x80,0x00,0x86,0x30,0x10,
 0x00,0x01,0x6f,0x00,0x00,0x00,0xe0,0x31,0xc1,0x20,0x00,0x02,0x18,0x00,0x80,
 0x31,0x00,0x00,0x00,0x00,0x00,0x80,0x0d,0x00,0x00,0x00,0x00,0x00,0x00,0xfc,
 0x37,0x3c,0x00,0x30,0x18,0x06,0x01,0xff,0xe1,0x01,0x00,0x0c,0xff,0xc3,0xc0,
 0x0c,0x02,0xfe,0x83,0x19,0x00,0x30,0xfc,0x0f,0xc6,0x30,0x10,0xf8,0x1f,0x66,
 0x00,0x00,0xff,0xc1,0xb0,0xc0,0x20,0xf0,0x3f,0x3c,0x00,0x80,0x31,0x00,0x00,
 0x00,0x00,0x00,0x80,0xcf,0x23,0x01,0x00,0x00,0x00,0x00,0x00,0x30,0x18,0x4f,
 0x32,0x18,0x06,0x01,0x00,0x60,0xf0,0x24,0x0c,0x20,0xc0,0x60,0x0c,0x02,0x00,
 0x80,0xd9,0x23,0x31,0x80,0x00,0x42,0x30,0x10,0x00,0x01,0x66,0x8f,0x04,0x00,
 0xc0,0xf0,0xc0,0x20,0x00,0x02,0x0c,0x9e,0x84,0x31,0x00,0x00,0x00,0x00,0x00,
 0x80,0xe7,0x77,0x01,0x00,0xff,0x03,0x00,0x00,0x60,0x98,0xff,0x32,0x18,0x06,
 0x01,0x00,0x60,0xf8,0x2f,0x0c,0x20,0x80,0x7f,0x0c,0x02,0x00,0x80,0xe9,0x77,
 0x31,0x80,0x00,0x62,0x30,0x10,0x00,0x01,0xa6,0xdf,0x05,0x00,0xc0,0x71,0xc0,
 0x20,0x00,0x02,0x0c,0xff,0x85,0x31,0x00,0x00,0x00,0x00,0x00,0x80,0xa3,0x30,
 0x01,0x00,0x00,0x00,0x00,0x00,0xe0,0x9e,0x62,0x32,0x3e,0xc6,0x07,0x00,0xc0,
 0x2b,0x26,0x0c,0x20,0x80,0x7b,0x8c,0x0f,0x00,0x80,0xad,0x30,0x31,0x80,0x00,
 0x36,0x30,0x7c,0x00,0x01,0xb6,0xc2,0x04,0x00,0xc0,0x21,0xc0,0xf8,0x00,0x02,
 0x78,0xc5,0x84,0x31,0x00,0x00,0x00,0x00,0x00,0x80,0xa0,0xa2,0x01,0x00,0x00,
 0x00,0x00,0x00,0x80,0x83,0x4a,0x23,0x00,0x04,0x00,0x00,0x00,0xa8,0x34,0x04,
 0x20,0x00,0x4e,0x08,0x00,0x00,0x00,0xac,0xa2,0x11,0x80,0x00,0x1c,0x20,0x00,
 0x00,0x01,0xb0,0x8a,0x06,0x00,0x00,0x20,0x80,0x00,0x00,0x02,0x00,0x95,0x86,
 0x10,0x00,0x00,0x00,0x00,0x00,0x00,0xe0,0xe3,0x01,0x00,0x00,0x00,0x00,0x00,
 0x00,0x80,0xcf,0x63,0x00,0x0c,0x00,0x00,0x00,0xf8,0x3c,0x06,0x20,0x00,0x78,
 0x18,0x00,0x00,0x00,0xec,0xe3,0x19,0x80,0x00,0x00,0x60,0x00,0x00,0x01,0xb0,
 0x8f,0x07,0x00,0x00,0x00,0x80,0x01,0x00,0x02,0x00,0x9f,0xc7,0x18,0x00,0x00,
 0x00,0x00,0x00,0x00,0x00,0xb0,0x00,0x00,0x00,0x00,0x00,0x00,0x00,0x00,0x60,
 0x61,0x00,0x0c,0x00,0x00,0x00,0x00,0x16,0x06,0x00,0x00,0x38,0x18,0x00,0x00,
 0x00,0x04,0xb0,0x18,0x00,0x00,0x00,0x60,0x00,0x00,0x00,0x10,0xc0,0x02,0x00,
 0x00,0x00,0x80,0x01,0x00,0x00,0x00,0xc0,0xc2,0x18,0x00,0x00,0x00,0x00,0x00,
 0x00,0x00,0xf0,0x00,0x00,0x00,0x00,0x00,0x00,0x00,0x00,0xe0,0xc1,0x00,0x18,
 0x00,0x00,0x00,0x00,0x1e,0x03,0x00,0x00,0x00,0x30,0x00,0x00,0x00,0x00,0xf0,
 0x0c,0x00,0x00,0x00,0xc0,0x00,0x00,0x00,0x00,0xc0,0x03,0x00,0x00,0x00,0x00,
 0x03,0x00,0x00,0x00,0xc0,0x63,0x0c,0x00,0x00,0x00,0x00,0x00,0x00,0x00,0x00,
 0x00,0x00,0x00,0x00,0x00,0x00,0x00,0x00,0x00,0x00,0x00,0x00,0x00,0x00,0x00,
 0x00,0x00,0x00,0x00,0x00,0x00,0x00,0x00,0x00,0x00,0x00,0x00,0x00,0x00,0x00,
 0x00,0x00,0x00,0x00,0x00,0x00,0x00,0x00,0x00,0x00,0x00,0x00,0x00,0x00,0x00,
 0x00,0x00,0x00,0x00,0x00,0x00,0x00,0x00,0x00,0x00,0x00,0x00,0x00,0x00,0x00,
 0x00,0x00,0x00,0x00,0x00,0x00,0x00,0x00,0x00,0x00,0x00,0x00,0x00,0x00,0x00,
 0x00,0x00,0x00,0x00,0x00,0x00,0x00,0x00,0x00,0x00,0x00,0x00,0x00,0x00,0x00,
 0x00,0x00,0x00,0x00,0x00,0x00,0x00,0x00,0x00,0x00,0x00,0x00,0x00,0x00,0x00,
 0x00,0x00,0x00,0x00,0x00,0x00,0x00,0x00,0x00,0x00,0x00,0x00,0x00,0x00,0x00,
 0x00,0x00,0x00,0x00,0x00,0x00,0x00,0x00,0x00,0x00,0x00,0x00,0x00,0x00,0x00,
 0x00,0x00,0x00,0x00,0x00,0x00,0x00,0x00,0x00,0x00,0x00,0x00,0x00,0x00,0x00,
 0x00,0x00,0x00,0x00,0x00,0x00,0x00,0x00,0x00,0x00,0x00,0x00,0x00,0x00,0x00,
 0x00,0x00,0x00,0x00,0x00,0x00,0x00,0x00,0x00,0x00,0x00,0x00,0x00,0x00,0x00,
 0x00,0x00,0x00,0x00,0x00,0x00,0x00,0x00,0x00,0x00,0x00,0x00,0x00,0x00,0x00,
 0x00,0x00,0x00,0x00,0x00,0x00,0x00,0x00,0x00,0x00,0x00,0x00,0x00,0x00,0x00,
 0x00,0x00,0x00,0x00,0x00,0x00,0x00,0x00,0x00,0x00,0x00,0x00,0x00,0x00,0x00,
 0x00,0x00,0x00,0x00,0x00,0x00,0x00,0x00,0x00,0x00,0x00,0x00,0x00,0x00,0x00,
 0x00,0x00,0x00,0x00,0x00,0x00,0x00,0x00,0x00,0x00,0x00,0x00,0x00,0x00,0x00,
 0x00,0x00,0x00,0x00,0x00,0x00,0x00,0x00,0x00,0x00,0x00,0x00,0x00,0x00,0x00,
 0x00,0x00,0x00,0x00,0x00,0x00,0x00,0x00,0x00,0x00,0x00,0x00,0x00,0x00,0x00,
 0x00,0x00,0x00,0x00,0x00,0x00,0x00,0x00,0x00,0x00,0x00,0x00,0x00,0x00,0x00,
 0x00,0x00,0x00,0x00,0x00,0x00,0x00,0x00,0x00,0x00,0x00,0x00,0x00,0x00,0x00,
 0x00,0x00,0x00,0x00,0x00,0x00,0x00,0x00,0x00,0x00,0x00,0x00,0x00,0x00,0x00,
 0x00,0x00,0x00,0x00,0x00,0x00,0x00,0x00,0x00,0x00,0x00,0x00,0x00,0x00,0x00,
 0x00,0x00,0x00,0x00,0x00,0x00,0x40,0x00,0x04,0x00,0x00,0x00,0x00,0x40,0x00,
 0x00,0x00,0x00,0x10,0x00,0x00,0x00,0x00,0x00,0x01,0x00,0x00,0x00,0x40,0x00,
 0x00,0x00,0x00,0x00,0x08,0x00,0x00,0x00,0x00,0x20,0x00,0x00,0x00,0x00,0x00,
 0x42,0x00,0x00,0x40,0x40,0x00,0xc0,0x10,0x00,0x00,0x00,0x00,0x00,0x00,0x00,
 0xc0,0x1f,0x00,0x20,0x3c,0x82,0x00,0x00,0x00,0x00,0x80,0x00,0x00,0x00,0x3e,
 0x08,0x01,0x00,0x00,0x00,0x00,0x02,0x00,0x00,0xcf,0x21,0x04,0x00,0x00,0x00,
 0x00,0x10,0x00,0x00,0x90,0xe7,0x11,0x02,0x00,0x00,0x00,0x00,0x84,0x00,0x00,
 0x20,0x86,0x00,0xe0,0x30,0x00,0x00,0x00,0x00,0x00,0x00,0x00,0x60,0x1c,0x00,
 0x30,0x18,0xe3,0x00,0x00,0x00,0x00,0x80,0x01,0x00,0x00,0x63,0xcc,0x01,0x00,
 0x00,0x00,0x00,0x06,0x00,0x00,0x86,0x30,0x07,0x00,0x00,0x00,0x00,0x30,0x00,
 0x00,0x18,0xc1,0x98,0x03,0x00,0x00,0x00,0x00,0x8c,0x01,0x00,0x30,0x9b,0x01,
 0x80,0x31,0x00,0x00,0x00,0x00,0x00,0x00,0x00,0x30,0x08,0x00,0x10,0x0c,0x81,
 0x00,0x00,0x00,0x00,0x00,0x01,0x00,0x80,0x61,0x04,0x01,0x00,0x00,0x00,0x00,
 0x04,0x00,0x00,0xc6,0x10,0x04,0x40,0x00,0x00,0x00,0x20,0x00,0x00,0x00,0x61,
 0x08,0x02,0x20,0x00,0x00,0x00,0x08,0x01,0x00,0x90,0x19,0x01,0x80,0x21,0x00,
 0x00,0x00,0x00,0x00,0x00,0x00,0x18,0x08,0x00,0x18,0x8c,0x81,0x00,0x00,0x00,
 0x00,0x00,0x03,0x00,0xc0,0x60,0x06,0x01,0x00,0x00,0x00,0x00,0x0c,0x00,0x00,
 0x42,0x18,0x04,0x40,0x00,0x00,0x00,0x60,0x00,0x00,0x00,0x23,0x0c,0x02,0x20,
 0x00,0x00,0x00,0x18,0x03,0x00,0x98,0x11,0x03,0x80,0x11,0x00,0x00,0x00,0xff,
 0x03,0x00,0x00,0x18,0x00,0x00,0x18,0x8c,0x81,0x00,0x00,0xc0,0x01,0x00,0x03,
 0x00,0xc0,0x60,0x06,0x01,0x00,0xc0,0x0f,0x00,0x0c,0x00,0x00,0x43,0x18,0x04,
 0x40,0x00,0x3f,0x00,0x60,0x00,0x00,0x1c,0x33,0x0c,0x02,0x20,0x00,0x07,0x00,
 0x18,0x03,0x00,0x98,0x11,0x03,0x80,0x19,0x00,0x00,0x00,0xff,0x03,0x00,0x00,
 0x1c,0x00,0x00,0x18,0x8c,0x81,0x00,0x00,0x60,0x00,0x00,0x03,0x00,0xe0,0x60,
 0x06,0x01,0x00,0xe0,0x0d,0x00,0x0c,0x00,0x00,0x43,0x18,0x04,0x40,0x80,0x37,
 0x00,0x60,0x00,0x00,0x1e,0x13,0x0c,0x02,0x20,0x80,0x01,0x00,0x18,0x03,0x00,
 0x18,0x19,0x03,0x80,0x0d,0x00,0x00,0x00,0x00,0x00,0x00,0x00,0x0c,0x0f,0x00,
 0x18,0x86,0x81,0x80,0xff,0xf0,0x00,0x00,0x03,0xff,0x61,0x60,0x06,0x01,0xff,
 0xc1,0x0c,0x00,0x0c,0xfc,0x07,0x63,0x18,0x04,0xfe,0x07,0x33,0x00,0x60,0xf0,
 0x1f,0x0c,0x0b,0x0c,0x02,0xff,0xc3,0x03,0x00,0x18,0x03,0x00,0x18,0x1f,0x03,
 0x80,0x4f,0xf2,0x00,0x00,0x00,0x00,0x00,0x00,0x0c,0x46,0xf2,0x18,0x86,0x81,
 0x00,0x00,0x30,0x24,0x0f,0x03,0x00,0x60,0x30,0x06,0x01,0x00,0xc0,0x2c,0x79,
 0x0c,0x00,0x00,0x21,0x18,0x04,0x40,0x00,0xb3,0xe4,0x61,0x00,0x00,0x0c,0x0f,
 0x0c,0x02,0x20,0xc0,0x20,0x79,0x18,0x03,0x00,0x18,0x18,0x03,0x80,0xe7,0xfa,
 0x01,0x00,0xff,0x03,0x00,0x00,0x18,0xe6,0xfa,0x19,0x86,0x81,0x00,0x00,0x30,
 0xae,0x1f,0x03,0x00,0xc0,0x3f,0x06,0x01,0x00,0xc0,0x74,0xfd,0x0c,0x00,0x00,
 0x31,0x18,0x04,0x40,0x00,0xd3,0xf5,0x63,0x00,0x00,0x1c,0x07,0x0c,0x02,0x20,
 0xc0,0x70,0xfd,0x18,0x03,0x00,0x18,0x1b,0x03,0x80,0x63,0x2a,0x00,0x00,0x00,
 0x00,0x00,0x00,0xb8,0x67,0x2a,0x98,0x8f,0xe1,0x03,0x00,0xe0,0xa7,0x02,0x03,
 0x00,0xc0,0x3d,0xc6,0x07,0x00,0xc0,0x36,0x15,0x0c,0x00,0x00,0x1b,0x18,0x1f,
 0x40,0x00,0xdb,0x54,0x60,0x00,0x00,0x1c,0x02,0x8c,0x0f,0x20,0x80,0x37,0x15,
 0x18,0x03,0x00,0x18,0x0d,0x03,0x80,0x40,0xab,0x00,0x00,0x00,0x00,0x00,0x00,
 0xe0,0x40,0xab,0x10,0x00,0x01,0x00,0x00,0x00,0xb4,0x0a,0x01,0x00,0x00,0x27,
 0x04,0x00,0x00,0x00,0xa6,0x55,0x04,0x00,0x00,0x0e,0x10,0x00,0x40,0x00,0x98,
 0x56,0x21,0x00,0x00,0x00,0x02,0x08,0x00,0x20,0x00,0xa0,0x55,0x08,0x01,0x00,
 0x10,0x06,0x01,0x00,0xc0,0xfb,0x00,0x00,0x00,0x00,0x00,0x00,0x00,0xc0,0xfb,
 0x30,0x00,0x03,0x00,0x00,0x00,0xbc,0x8f,0x01,0x00,0x00,0x3c,0x0c,0x00,0x00,
 0x00,0xe6,0x7d,0x06,0x00,0x00,0x00,0x30,0x00,0x40,0x00,0x98,0xf7,0x31,0x00,
 0x00,0x00,0x00,0x18,0x00,0x20,0x00,0xe0,0x7d,0x8c,0x01,0x00,0x30,0x80,0x01,
 0x00,0x60,0x01,0x00,0x00,0x00,0x00,0x00,0x00,0x00,0x60,0x01,0x30,0x00,0x03,
 0x00,0x00,0x00,0x16,0x80,0x01,0x00,0x00,0x1c,0x0c,0x00,0x00,0x00,0xb2,0x00,
 0x06,0x00,0x00,0x00,0x30,0x00,0x00,0x00,0xc8,0x02,0x30,0x00,0x00,0x00,0x00,
 0x18,0x00,0x00,0x00,0xb0,0x00,0x8c,0x01,0x00,0x30,0x80,0x01,0x00,0xe0,0x01,
 0x00,0x00,0x00,0x00,0x00,0x00,0x00,0xe0,0x01,0x60,0x00,0x06,0x00,0x00,0x00,
 0x1e,0xc0,0x00,0x00,0x00,0x00,0x18,0x00,0x00,0x00,0xf0,0x00,0x03,0x00,0x00,
 0x00,0x60,0x00,0x00,0x00,0xc0,0x03,0x18,0x00,0x00,0x00,0x00,0x30,0x00,0x00,
 0x00,0xf0,0x00,0xc6,0x00,0x00,0x60,0xc0,0x00};
