#define noname_width 17
#define noname_height 10
static char noname_bits[] = {
 0x1c,0x00,0x00,0x06,0x00,0x00,0x0f,0x00,0x00,0x83,0x27,0x01,0xc3,0x7f,0x01,
 0x5e,0x31,0x01,0x40,0xa5,0x01,0xc0,0xe7,0x01,0x00,0xb0,0x00,0x00,0xf0,0x00};
