#define noname_width 34
#define noname_height 11
static char noname_bits[] = {
 0xcf,0x01,0x00,0xc0,0x00,0x86,0x00,0x00,0x60,0x03,0xc6,0x00,0x00,0x20,0x03,
 0x42,0x00,0x00,0x30,0x02,0x43,0x80,0xff,0x30,0x02,0x43,0xc0,0xff,0x30,0x02,
 0x63,0x00,0x00,0x30,0x02,0x21,0x00,0x00,0x30,0x02,0x31,0xc0,0xff,0x20,0x03,
 0x1b,0x00,0x00,0x60,0x03,0x0e,0x00,0x00,0xc0,0x01};
