#define noname_width 20
#define noname_height 10
static char noname_bits[] = {
 0x20,0x00,0x00,0x20,0x20,0x0c,0x20,0x60,0x06,0x20,0xc0,0x03,0xff,0x83,0x01,
 0x20,0xc0,0x03,0x20,0x60,0x06,0x20,0x20,0x0c,0x20,0x00,0x00,0x20,0x00,0x00};
