#define noname_width 23
#define noname_height 14
static char noname_bits[] = {
 0xf0,0x07,0x00,0x18,0x07,0x00,0x0c,0x02,0x00,0x06,0x02,0x00,0x06,0x00,0x00,
 0x07,0x00,0x00,0xc3,0x03,0x00,0x83,0x91,0x3c,0x86,0xb9,0x7e,0xee,0x99,0x0a,
 0x38,0xd0,0x2a,0x00,0xf0,0x3e,0x00,0x58,0x00,0x00,0x78,0x00};
