#define noname_width 19
#define noname_height 11
static char noname_bits[] = {
 0x10,0x99,0x03,0x18,0x8f,0x02,0x18,0xc1,0x06,0x1c,0xc1,0x06,0x16,0x8f,0x03,
 0x12,0x19,0x00,0x13,0x18,0x00,0xff,0x19,0x00,0x90,0x19,0x00,0x7c,0x1f,0x00,
 0x00,0x06,0x00};
