#define noname_width 35
#define noname_height 11
static char noname_bits[] = {
 0xf0,0x07,0x00,0x00,0x01,0x18,0x07,0x00,0xc0,0x01,0x0c,0x02,0x00,0x00,0x01,
 0x06,0x02,0x00,0x00,0x01,0x06,0x00,0xff,0x01,0x01,0x07,0x80,0xff,0x01,0x01,
 0xc3,0x03,0x00,0x00,0x01,0x83,0x01,0x00,0x00,0x01,0x86,0x81,0xff,0x01,0x01,
 0xee,0x01,0x00,0xc0,0x07,0x38,0x00,0x00,0x00,0x00};
