#define noname_width 29
#define noname_height 20
static char noname_bits[] = {
 0xff,0xff,0xff,0x1f,0x01,0x00,0x00,0x10,0x01,0x00,0x00,0x10,0x01,0x00,0x00,
 0x10,0x01,0x00,0x00,0x10,0x01,0x00,0x30,0x10,0x01,0x00,0x30,0x10,0x81,0xe3,
 0xf8,0x10,0xc1,0xf7,0xf9,0x10,0x61,0x3e,0x33,0x10,0xe1,0xfb,0x33,0x10,0xc1,
 0xff,0x33,0x10,0x01,0x1e,0x30,0x10,0x61,0x3e,0xb3,0x10,0xe1,0xf7,0xf3,0x10,
 0x01,0x00,0x00,0x10,0x01,0x00,0x00,0x10,0x01,0x00,0x00,0x10,0x01,0x00,0x00,
 0x10,0xff,0xff,0xff,0x1f};
