#define noname_width 24
#define noname_height 21
static char noname_bits[] = {
 0xff,0xff,0xff,0x01,0x00,0x80,0x01,0x00,0x80,0x01,0x00,0x80,0x01,0x40,0x80,
 0x01,0x78,0x80,0x01,0x78,0x80,0x01,0x60,0x80,0x01,0x60,0x80,0x01,0x60,0x80,
 0x01,0x60,0x80,0xe1,0x63,0x80,0xe1,0x63,0x80,0x01,0x60,0x80,0x01,0x60,0x80,
 0x01,0xf8,0x81,0x01,0x00,0x80,0x01,0x00,0x80,0x01,0x00,0x80,0x01,0x00,0x80,
 0xff,0xff,0x7f};
