#define noname_width 49
#define noname_height 15
static char noname_bits[] = {
 0x00,0x00,0x00,0x00,0x00,0xe0,0x00,0x00,0x00,0x00,0x00,0x00,0xb0,0x01,0x00,
 0x00,0x00,0x00,0x00,0xb0,0x01,0x00,0x00,0x00,0x00,0x00,0x80,0x01,0x00,0x00,
 0x00,0x00,0xf0,0xc3,0x00,0x00,0x00,0x00,0x00,0x00,0x60,0x01,0x8e,0xe0,0x39,
 0x30,0x02,0xf0,0x01,0x4c,0x20,0x0f,0x30,0x03,0x00,0x00,0x38,0x10,0x06,0x30,
 0x03,0x00,0x00,0x38,0x10,0x0e,0xb0,0x01,0x00,0x00,0x18,0x20,0x0f,0xd0,0x00,
 0x00,0x00,0x1c,0xe0,0x39,0x78,0x00,0x00,0x00,0x36,0x00,0x00,0x00,0x00,0x00,
 0x00,0xb2,0x00,0x00,0x00,0x00,0x00,0x00,0x61,0x00,0x00,0x00,0x00,0x00,0x00};
