#define noname_width 6
#define noname_height 13
static char noname_bits[] = {
 0x30,0x30,0x00,0x00,0x1c,0x1e,0x18,0x18,0x08,0x0c,0x0c,0x0f,0x07};
