#define noname_width 19
#define noname_height 14
static char noname_bits[] = {
 0xf0,0x07,0x00,0x18,0x07,0x00,0x0c,0x02,0x00,0x06,0x02,0x00,0x06,0x00,0x00,
 0x07,0x20,0x04,0xc3,0x23,0x04,0x83,0x11,0x02,0x86,0x39,0x07,0xee,0x19,0x07,
 0x38,0x30,0x02,0x00,0x38,0x02,0x00,0x80,0x03,0x00,0xc0,0x03};
