#define noname_width 38
#define noname_height 17
static char noname_bits[] = {
 0xff,0xff,0xff,0xff,0x3f,0x01,0x00,0x00,0x00,0x20,0x01,0x00,0x00,0x00,0x20,
 0x01,0x00,0x00,0x00,0x20,0xe1,0xcf,0xb1,0x38,0x20,0xe1,0xef,0xf3,0xfc,0x20,
 0x01,0x77,0x76,0xce,0x20,0x01,0xf3,0x37,0x86,0x21,0x81,0xf3,0x37,0x86,0x21,
 0xc1,0x31,0x30,0xc6,0x21,0xe1,0x70,0x36,0xee,0x20,0xe1,0xef,0x37,0x7c,0x20,
 0x01,0x00,0x00,0x00,0x20,0x01,0x00,0x00,0x00,0x20,0x01,0x00,0x00,0x00,0x20,
 0x01,0x00,0x00,0x00,0x20,0xff,0xff,0xff,0xff,0x3f};
