#define noname_width 4
#define noname_height 10
static char noname_bits[] = {
 0x08,0x0c,0x00,0x00,0x0e,0x0f,0x06,0x06,0x0e,0x0e};
