#define noname_width 46
#define noname_height 13
static char noname_bits[] = {
 0x20,0x00,0x00,0x60,0x30,0x1c,0x20,0x00,0x00,0xb0,0xd9,0x14,0x20,0x00,0x00,
 0x98,0xc9,0x36,0x30,0x00,0x00,0x18,0x8d,0x36,0x7c,0xe0,0x3f,0x18,0x8d,0x1c,
 0xd6,0xf0,0x3f,0x90,0x8d,0x00,0xd3,0x00,0x00,0xf0,0x8d,0x00,0xdb,0x00,0x00,
 0x80,0x8d,0x00,0x6b,0xf0,0x3f,0xb0,0xc9,0x00,0x3e,0x00,0x00,0xd0,0xd8,0x00,
 0x08,0x00,0x00,0x60,0x70,0x00,0x0c,0x00,0x00,0x00,0x00,0x00,0x04,0x00,0x00,
 0x00,0x00,0x00};
