#define noname_width 107
#define noname_height 15
static char noname_bits[] = {
 0x00,0x00,0x00,0x40,0x00,0x00,0x00,0x00,0x00,0x00,0x00,0x01,0x08,0x00,0x78,
 0x00,0x00,0x20,0x43,0x00,0x00,0x00,0x60,0x08,0x00,0x02,0x88,0x01,0x30,0x00,
 0x00,0xb0,0xc3,0x00,0x00,0x00,0x70,0x18,0x00,0x06,0xcc,0x06,0x18,0x00,0x00,
 0x10,0xc6,0x00,0x00,0x08,0xc0,0x18,0x00,0x04,0xec,0x06,0x18,0x00,0x00,0x18,
 0x86,0x00,0x00,0x08,0xc0,0x10,0x00,0x0c,0xe4,0x04,0x18,0xf0,0x1f,0x18,0x46,
 0x00,0x00,0x08,0xc0,0x08,0x00,0x0c,0x06,0x06,0x18,0xf8,0x1f,0x18,0x66,0x82,
 0x00,0x08,0xc0,0xec,0x38,0x0c,0x02,0x06,0x0c,0x00,0x00,0x18,0x36,0xc3,0xc0,
 0xff,0xc0,0xb6,0x6d,0x0c,0x02,0x03,0x0c,0x00,0x00,0x18,0x3e,0x82,0x00,0x08,
 0xc0,0xb7,0x6d,0x0c,0x83,0x05,0x0c,0xf8,0x1f,0x18,0x1e,0x82,0x00,0x08,0xc0,
 0x83,0x61,0x0c,0xc1,0x04,0x1f,0x00,0x00,0x18,0x0e,0x82,0x00,0x08,0xc0,0xc1,
 0x30,0x8c,0xe1,0x07,0x00,0x00,0x00,0x10,0x02,0x82,0x00,0x08,0x40,0x60,0x59,
 0x84,0x01,0x00,0x00,0x00,0x00,0x30,0x00,0xcf,0x03,0x08,0x00,0xf0,0x7d,0x86,
 0x00,0x00,0x00,0x00,0x00,0x30,0x00,0x00,0x00,0x00,0x00,0x00,0x00,0xc6,0x00,
 0x00,0x00,0x00,0x00,0x60,0x00,0x00,0x00,0x00,0x00,0x00,0x00,0xc3,0x00,0x00};
