#define noname_width 35
#define noname_height 11
static char noname_bits[] = {
 0xcf,0x03,0x00,0x80,0x01,0x82,0x01,0x00,0xc0,0x06,0xc2,0x00,0x00,0x40,0x06,
 0x46,0x00,0x00,0x60,0x04,0x66,0x80,0xff,0x60,0x04,0x26,0xc0,0xff,0x60,0x04,
 0x16,0x00,0x00,0x60,0x04,0x1e,0x00,0x00,0x60,0x04,0x0e,0xc0,0xff,0x40,0x06,
 0x04,0x00,0x00,0xc0,0x06,0x04,0x00,0x00,0x80,0x03};
