#define noname_width 8
#define noname_height 9
static char noname_bits[] = {
 0x8e,0x4c,0x38,0x38,0x18,0x1c,0x36,0xb2,0x61};
