#define noname_width 39
#define noname_height 13
static char noname_bits[] = {
 0x20,0x00,0x00,0x60,0x38,0x20,0x00,0x00,0xb0,0x29,0x20,0x00,0x00,0x90,0x6d,
 0x30,0x00,0x00,0x18,0x6d,0x7c,0xe0,0x3f,0x18,0x39,0xd6,0xf0,0x3f,0x18,0x01,
 0xd3,0x00,0x00,0x18,0x01,0xdb,0x00,0x00,0x18,0x01,0x6b,0xf0,0x3f,0x90,0x01,
 0x3e,0x00,0x00,0xb0,0x01,0x08,0x00,0x00,0xe0,0x00,0x0c,0x00,0x00,0x00,0x00,
 0x04,0x00,0x00,0x00,0x00};
