#define noname_width 18
#define noname_height 10
static char noname_bits[] = {
 0x1c,0x00,0x00,0x06,0x00,0x00,0x0f,0x00,0x00,0x83,0xe4,0x01,0xc3,0xf5,0x03,
 0xde,0x54,0x00,0x80,0x56,0x01,0x80,0xf7,0x01,0xc0,0x02,0x00,0xc0,0x03,0x00};
