#define noname_width 129
#define noname_height 14
static char noname_bits[] = {
 0x40,0x00,0x00,0x00,0x00,0x00,0x00,0x00,0x00,0x00,0x00,0x00,0xc0,0x1f,0xff,
 0x3f,0x00,0x40,0x00,0x00,0x00,0x00,0x00,0x00,0x00,0x00,0x00,0x00,0x00,0x00,
 0x33,0x73,0xe6,0x00,0x20,0x00,0x00,0x00,0x00,0x00,0x00,0x00,0x00,0x00,0x00,
 0x00,0x00,0x63,0x39,0xc6,0x00,0x20,0x00,0x00,0x00,0x00,0x00,0x00,0x00,0x00,
 0x00,0x00,0x00,0x00,0x63,0x19,0x86,0x01,0xae,0xc1,0x7f,0xe0,0x07,0x00,0x00,
 0x00,0x7e,0x00,0x00,0xff,0x01,0x33,0x1c,0x86,0x01,0xaf,0xe1,0x7f,0xf0,0x06,
 0x18,0x00,0x00,0x6f,0x80,0x81,0xff,0x01,0x1f,0x0c,0x86,0x01,0x96,0x01,0x00,
 0x60,0x06,0x34,0xf8,0x0f,0x66,0x40,0x03,0x00,0x00,0x03,0x4e,0x86,0x01,0x96,
 0x00,0x00,0x60,0xf6,0x26,0x00,0x00,0x66,0x69,0x02,0x00,0x00,0x03,0x67,0x86,
 0x01,0xd6,0xe0,0x7f,0x60,0xfb,0x27,0x00,0x00,0xb6,0x6b,0x82,0xff,0x01,0x03,
 0x23,0xc6,0x00,0x7c,0x00,0x00,0xe0,0x29,0x26,0x00,0x00,0x9e,0x69,0x02,0x00,
 0xc0,0x87,0xbf,0x7f,0x00,0x08,0x00,0x00,0x30,0xa8,0x36,0x00,0x00,0x03,0x6d,
 0x03,0x00,0x00,0x00,0x00,0x00,0x00,0x08,0x00,0x00,0x30,0xf8,0x3c,0x00,0x00,
 0x03,0xcf,0x03,0x00,0x00,0x00,0x00,0x00,0x00,0x08,0x00,0x00,0x78,0x00,0x00,
 0x00,0x80,0x87,0x05,0x00,0x00,0x00,0x00,0x00,0x00,0x00,0x00,0x00,0x00,0x00,
 0x00,0x00,0x00,0x00,0x80,0x07,0x00,0x00,0x00,0x00,0x00,0x00,0x00};
