#define noname_width 8
#define noname_height 9
static char noname_bits[] = {
 0xfc,0xde,0xcc,0xcc,0x6c,0x3c,0x06,0x06,0x0f};
