#define noname_width 40
#define noname_height 17
static char noname_bits[] = {
 0xff,0xff,0xff,0xff,0x7f,0x01,0x00,0x00,0x00,0x80,0x01,0x00,0x00,0x00,0x80,
 0x01,0x00,0x00,0x00,0x80,0x81,0xc3,0xe1,0xf8,0x80,0xc1,0xf7,0xf3,0xf9,0x81,
 0x61,0x36,0x93,0x9b,0x81,0xe1,0x1b,0xc0,0x9b,0x81,0xc1,0x1f,0xf0,0x9b,0x81,
 0x01,0x3e,0x38,0x9b,0x81,0x61,0x76,0xbb,0x9b,0x81,0xe1,0xe7,0xf3,0x9b,0x81,
 0x01,0x00,0x00,0x00,0x80,0x01,0x00,0x00,0x00,0x80,0x01,0x00,0x00,0x00,0x80,
 0x01,0x00,0x00,0x00,0x80,0xff,0xff,0xff,0xff,0xff};
