#define noname_width 10
#define noname_height 11
static char noname_bits[] = {
 0xcf,0x03,0x82,0x01,0xc2,0x00,0x46,0x00,0x66,0x00,0x26,0x00,0x16,0x00,0x1e,
 0x00,0x0e,0x00,0x04,0x00,0x04,0x00};
