#define noname_width 8
#define noname_height 13
static char noname_bits[] = {
 0x20,0x20,0x20,0x30,0x7c,0xd6,0xd3,0xdb,0x6b,0x3e,0x08,0x0c,0x04};
