#define noname_width 30
#define noname_height 11
static char noname_bits[] = {
 0x00,0x00,0x00,0x0c,0x00,0x00,0x00,0x36,0x00,0x00,0x00,0x32,0x00,0x00,0x00,
 0x23,0x1c,0xfc,0x07,0x23,0x06,0xfe,0x07,0x23,0x0f,0x00,0x00,0x23,0x03,0x00,
 0x00,0x23,0x03,0xfe,0x07,0x32,0x1e,0x00,0x00,0x36,0x00,0x00,0x00,0x1c};
