#define noname_width 5
#define noname_height 6
static char noname_bits[] = {
 0x1c,0x06,0x0f,0x03,0x03,0x1e};
