#define noname_width 14
#define noname_height 12
static char noname_bits[] = {
 0x78,0x00,0xcc,0x01,0x86,0x01,0x06,0x03,0xfb,0x03,0xfb,0x23,0x03,0x23,0x06,
 0x13,0x86,0x39,0xdc,0x18,0x70,0x30,0x00,0x38};
