#define noname_width 9
#define noname_height 13
static char noname_bits[] = {
 0x40,0x00,0x40,0x00,0x20,0x00,0x20,0x00,0xae,0x01,0xaf,0x01,0x96,0x01,0x96,
 0x00,0xd6,0x00,0x7c,0x00,0x08,0x00,0x08,0x00,0x08,0x00};
