#define noname_width 21
#define noname_height 12
static char noname_bits[] = {
 0x86,0x00,0x00,0x87,0x01,0x00,0x8c,0x01,0x00,0x0c,0x01,0x00,0x8c,0x00,0x00,
 0xcc,0x00,0x00,0x6c,0x00,0x00,0x7c,0x1e,0x0f,0x3c,0xbf,0x1f,0x1c,0x85,0x02,
 0x04,0x95,0x0a,0x00,0x9f,0x0f};
