#define noname_width 10
#define noname_height 11
static char noname_bits[] = {
 0x78,0x00,0xcc,0x01,0x86,0x01,0x06,0x03,0xfb,0x03,0xfb,0x03,0x03,0x03,0x06,
 0x03,0x86,0x01,0xdc,0x00,0x70,0x00};
