#define noname_width 22
#define noname_height 14
static char noname_bits[] = {
 0xf0,0x07,0x00,0x18,0x07,0x00,0x0c,0x02,0x00,0x06,0x02,0x00,0x06,0x00,0x00,
 0x07,0x00,0x00,0xc3,0x03,0x00,0x83,0xf1,0x24,0x86,0xf9,0x2f,0xee,0x29,0x26,
 0x38,0xa8,0x34,0x00,0xf8,0x3c,0x00,0x00,0x16,0x00,0x00,0x1e};
