#define noname_width 11
#define noname_height 10
static char noname_bits[] = {
 0x20,0x00,0x70,0x00,0x70,0x00,0xf8,0x00,0xc8,0x00,0xcc,0x01,0x84,0x01,0x86,
 0x03,0x02,0x07,0xff,0x07};
