#define noname_width 19
#define noname_height 9
static char noname_bits[] = {
 0xfc,0x00,0x00,0xde,0x00,0x03,0xcc,0x80,0x06,0xcc,0xde,0x04,0x6c,0xff,0x04,
 0x3c,0xc5,0x04,0x06,0xd5,0x06,0x06,0x9f,0x07,0x0f,0x00,0x00};
