#define noname_width 19
#define noname_height 12
static char noname_bits[] = {
 0x86,0x00,0x00,0x87,0x01,0x00,0x8c,0x01,0x00,0x0c,0x01,0x00,0x8c,0x00,0x00,
 0xcc,0x84,0x03,0x6c,0xc6,0x06,0x7c,0xc4,0x06,0x3c,0x04,0x06,0x1c,0x04,0x03,
 0x04,0x84,0x05,0x00,0xde,0x07};
