#define noname_width 13
#define noname_height 13
static char noname_bits[] = {
 0x20,0x00,0x20,0x00,0x20,0x00,0x30,0x00,0x7c,0x00,0xd6,0x0e,0xd3,0x1b,0xdb,
 0x1b,0x6b,0x18,0x3e,0x0c,0x08,0x16,0x0c,0x1f,0x04,0x00};
