#define noname_width 18
#define noname_height 20
static char noname_bits[] = {
 0xff,0xff,0x03,0x01,0x00,0x02,0x01,0x00,0x02,0x01,0x00,0x02,0xc1,0x07,0x02,
 0xc1,0x0f,0x02,0xc1,0x0c,0x02,0xc1,0x1c,0x02,0xc1,0x18,0x02,0xc1,0x1c,0x02,
 0xc1,0x0f,0x02,0xc1,0x0f,0x02,0xc1,0x00,0x02,0xc1,0x00,0x02,0xc1,0x00,0x02,
 0xc1,0x00,0x02,0x01,0x00,0x02,0x01,0x00,0x02,0x01,0x00,0x02,0xff,0xff,0x03};
