#define noname_width 23
#define noname_height 12
static char noname_bits[] = {
 0xf0,0x07,0x00,0x18,0x07,0x00,0x0c,0x02,0x00,0x06,0x02,0x00,0x06,0x00,0x00,
 0x07,0x00,0x00,0xc3,0x03,0x00,0x83,0xf1,0x3c,0x86,0xf9,0x7f,0xee,0x29,0x0a,
 0x38,0xa8,0x2a,0x00,0xf8,0x3e};
