#define noname_width 15
#define noname_height 12
static char noname_bits[] = {
 0x20,0x00,0x70,0x00,0x70,0x00,0xf8,0x00,0xc8,0x00,0xcc,0x41,0x84,0x41,0x86,
 0x23,0x02,0x77,0xff,0x37,0x00,0x60,0x00,0x70};
