#define noname_width 95
#define noname_height 17
static char noname_bits[] = {
 0x00,0x00,0x00,0x00,0x00,0xfc,0xff,0xff,0xff,0xff,0xff,0x7f,0x00,0x00,0x00,
 0x00,0x00,0x04,0x00,0x00,0x00,0x00,0x00,0x00,0x00,0x00,0x00,0x00,0x00,0x06,
 0x80,0x03,0x00,0x00,0x00,0x0e,0xf8,0x01,0x00,0x00,0x00,0x82,0xcf,0x06,0x00,
 0xc0,0x73,0x1b,0x30,0x03,0x00,0x00,0x00,0xc3,0xd8,0x06,0x00,0x80,0x21,0x1b,
 0x18,0x03,0x00,0x00,0x00,0x61,0x18,0x06,0x10,0x80,0x31,0x18,0x18,0x03,0x00,
 0x00,0x80,0x31,0x18,0x03,0x10,0x80,0x10,0x0c,0x98,0x03,0xff,0x01,0x80,0x30,
 0x98,0x05,0x10,0xc0,0x10,0x16,0xf8,0x81,0xff,0x81,0xc0,0x38,0xd8,0x07,0x10,
 0xc0,0x10,0x1f,0x0c,0x00,0x00,0xc0,0x41,0x18,0x18,0x80,0xff,0xc1,0x18,0x00,
 0x0c,0x00,0x00,0x80,0x61,0x18,0x0c,0x00,0x10,0x40,0x08,0x00,0x0c,0x80,0xff,
 0x01,0x23,0xf0,0x0f,0x00,0x10,0x40,0x0c,0x00,0x1f,0x00,0x00,0x00,0x33,0x70,
 0x0f,0x00,0x10,0xc0,0x06,0x00,0x00,0x00,0x00,0x00,0x16,0xc0,0x09,0x00,0x10,
 0x80,0x03,0x00,0x00,0x00,0x00,0x00,0x1e,0x00,0x0f,0x00,0x10,0x00,0x00,0x00,
 0x00,0x00,0x00,0x00,0x0c,0x00,0x07,0x00,0x00,0x00,0x00,0x00,0x00,0x00,0x00,
 0x00,0x0c,0x00,0x00,0x00,0x00,0x00,0x00,0x00};
