#define noname_width 90
#define noname_height 14
static char noname_bits[] = {
 0xf0,0x07,0x00,0x00,0x00,0xc0,0x1f,0x00,0x00,0x00,0x80,0x00,0x18,0x07,0x00,
 0x00,0x00,0x60,0x1c,0x00,0x00,0x00,0xe0,0x00,0x0c,0x02,0x00,0x00,0x00,0x30,
 0x08,0x00,0x00,0x00,0x80,0x00,0x06,0x02,0x00,0x00,0x00,0x18,0x08,0x00,0x00,
 0x00,0x80,0x00,0x06,0x00,0x00,0xe0,0x3f,0x18,0x00,0x00,0x80,0xff,0x80,0x00,
 0x07,0x00,0x00,0xf0,0x3f,0x1c,0x00,0x00,0xc0,0xff,0x80,0x00,0xc3,0x03,0x00,
 0x00,0x00,0x0c,0x0f,0x00,0x00,0x00,0x80,0x00,0x83,0xf1,0x24,0x00,0x00,0x0c,
 0x46,0xf2,0x00,0x00,0x80,0x00,0x86,0xf9,0x2f,0xf0,0x3f,0x18,0xe6,0xfa,0xc1,
 0xff,0x80,0x00,0xee,0x29,0x26,0x00,0x00,0xb8,0x67,0x2a,0x00,0x00,0xe0,0x03,
 0x38,0xa8,0x34,0x00,0x00,0xe0,0x40,0xab,0x00,0x00,0x00,0x00,0x00,0xf8,0x3c,
 0x00,0x00,0x00,0xc0,0xfb,0x00,0x00,0x00,0x00,0x00,0x00,0x16,0x00,0x00,0x00,
 0x60,0x01,0x00,0x00,0x00,0x00,0x00,0x00,0x1e,0x00,0x00,0x00,0xe0,0x01,0x00,
 0x00,0x00,0x00};
