#define noname_width 63
#define noname_height 11
static char noname_bits[] = {
 0xf8,0xc1,0x1f,0x3f,0x00,0x00,0x60,0x38,0x30,0xc3,0x1c,0xe6,0x00,0x00,0xb0,
 0x29,0x18,0x63,0x0c,0xc3,0x00,0x00,0x90,0x6d,0x18,0x23,0x06,0xc3,0x00,0x00,
 0x18,0x6d,0x98,0x03,0x03,0xc3,0xc0,0x7f,0x18,0x39,0xf8,0x81,0x01,0xc3,0xe0,
 0x7f,0x18,0x01,0x0c,0xc0,0x8c,0xc1,0x00,0x00,0x18,0x01,0x0c,0x60,0x84,0x61,
 0x00,0x00,0x18,0x01,0x0c,0x70,0x86,0x71,0xe0,0x7f,0x90,0x01,0x1f,0xf8,0xe7,
 0x1f,0x00,0x00,0xb0,0x01,0x00,0x00,0x00,0x00,0x00,0x00,0xe0,0x00};
