#define noname_width 32
#define noname_height 22
static char noname_bits[] = {
 0xff,0xff,0xff,0xff,0x01,0x00,0x00,0x80,0x01,0x00,0x00,0x80,0x01,0x00,0x00,
 0x80,0x01,0x00,0x00,0x80,0x01,0x00,0x30,0x80,0x01,0x00,0x30,0x80,0x01,0x00,
 0x30,0x80,0x01,0x00,0x30,0x80,0x81,0x83,0x33,0x83,0xc1,0xc7,0xb7,0x83,0x41,
 0x6e,0xf6,0x81,0x01,0xef,0xf3,0x80,0xc1,0xcf,0xf7,0x81,0xe1,0x0c,0xb6,0x81,
 0xe1,0x6e,0xb6,0x83,0xc1,0xef,0x37,0x87,0x01,0x00,0x00,0x80,0x01,0x00,0x00,
 0x80,0x01,0x00,0x00,0x80,0x01,0x00,0x00,0x80,0xff,0xff,0xff,0xff};
