#define noname_width 23
#define noname_height 12
static char noname_bits[] = {
 0x00,0x00,0x30,0x00,0x00,0x78,0x00,0x00,0x0c,0x00,0x00,0x7c,0x00,0x00,0x4c,
 0x00,0x00,0x4c,0xbe,0xef,0x7b,0xf3,0x68,0x02,0xc3,0xf8,0x01,0xc3,0xf8,0x03,
 0xe3,0x28,0x02,0x9e,0xef,0x03};
