#define noname_width 20
#define noname_height 9
static char noname_bits[] = {
 0x1c,0xf0,0x00,0x36,0xd8,0x00,0x1f,0xd8,0x00,0x03,0xc8,0x00,0xb3,0x49,0x0c,
 0x9e,0x79,0x0c,0x00,0x60,0x00,0x00,0x6c,0x00,0x00,0x3c,0x00};
