#define noname_width 21
#define noname_height 15
static char noname_bits[] = {
 0x00,0x00,0x18,0x00,0x00,0x18,0x00,0x00,0x18,0x01,0x00,0x18,0x07,0x00,0x18,
 0x1c,0x00,0x18,0x70,0x00,0x18,0xc0,0x01,0x18,0xe0,0x00,0x18,0x38,0x00,0x18,
 0x0e,0x00,0x18,0x03,0x00,0x18,0x00,0x00,0x18,0x00,0x00,0x18,0x00,0x00,0x18};
