#define noname_width 37
#define noname_height 9
static char noname_bits[] = {
 0x80,0x01,0x00,0x10,0x00,0xe0,0x00,0x00,0x70,0x00,0x38,0x80,0x7f,0xc0,0x01,
 0x0e,0x80,0xcd,0x00,0x07,0x03,0x00,0xff,0x00,0x1c,0x0f,0x80,0x0d,0x00,0x0e,
 0x3c,0xc0,0x8c,0x80,0x03,0xf0,0x80,0x7f,0xe0,0x00,0xc0,0x01,0x00,0x30,0x00};
