#define noname_width 16
#define noname_height 6
static char noname_bits[] = {
 0x2e,0x1e,0x2f,0x1b,0x26,0x0f,0x26,0x1f,0xb6,0xc9,0x9e,0xcf};
