#define noname_width 24
#define noname_height 9
static char noname_bits[] = {
 0x80,0x01,0x00,0xe0,0x00,0x00,0x38,0x80,0x7f,0x0e,0x80,0xcd,0x03,0x00,0xff,
 0x0f,0x80,0x0d,0x3c,0xc0,0x8c,0xf0,0x80,0x7f,0xc0,0x01,0x00};
