#define noname_width 9
#define noname_height 10
static char noname_bits[] = {
 0x10,0x00,0x38,0x00,0x38,0x00,0x28,0x00,0x6c,0x00,0x44,0x00,0xc6,0x00,0x82,
 0x00,0x83,0x01,0x03,0x01};
