#define noname_width 10
#define noname_height 9
static char noname_bits[] = {
 0x3c,0x00,0x36,0x02,0x36,0x02,0x32,0x01,0x92,0x03,0x9e,0x01,0x18,0x03,0x9b,
 0x03,0x0f,0x00};
