#define noname_width 24
#define noname_height 11
static char noname_bits[] = {
 0xff,0xff,0x7f,0x01,0x00,0x80,0x01,0x00,0x80,0x01,0x00,0x80,0xc1,0x98,0x81,
 0xc1,0x98,0x81,0x01,0x00,0x80,0x01,0x00,0x80,0x01,0x00,0x80,0x01,0x00,0x80,
 0xff,0xff,0xff};
