#define noname_width 11
#define noname_height 9
static char noname_bits[] = {
 0xfc,0x00,0xde,0x04,0xcc,0x04,0xcc,0x02,0x6c,0x07,0x3c,0x03,0x06,0x06,0x06,
 0x07,0x0f,0x00};
