#define noname_width 25
#define noname_height 22
static char noname_bits[] = {
 0xff,0xff,0xff,0x01,0x01,0x00,0x00,0x01,0x01,0x00,0x00,0x01,0x01,0x00,0x00,
 0x01,0x01,0x00,0x00,0x01,0x01,0xc0,0x06,0x01,0x01,0xc0,0x06,0x01,0x01,0xc0,
 0x06,0x01,0x01,0xc0,0x06,0x01,0x81,0xc3,0x06,0x01,0xc1,0xc7,0x06,0x01,0x41,
 0xce,0x06,0x01,0x01,0xcf,0x06,0x01,0xc1,0xcf,0x06,0x01,0xe1,0xcc,0x06,0x01,
 0xe1,0xce,0x06,0x01,0xc1,0xcf,0x06,0x01,0x01,0x00,0x00,0x01,0x01,0x00,0x00,
 0x01,0x01,0x00,0x00,0x01,0x01,0x00,0x00,0x01,0xff,0xff,0xff,0x01};
