#define noname_width 29
#define noname_height 11
static char noname_bits[] = {
 0x00,0x00,0x03,0x00,0x00,0x80,0x0d,0x00,0x01,0xc0,0x0d,0x00,0x07,0xc0,0x09,
 0x00,0x1c,0x00,0x8c,0x1f,0x70,0x00,0xcc,0x06,0xc0,0x01,0x66,0x06,0xe0,0x00,
 0x6b,0x06,0x38,0x80,0x69,0x06,0x0e,0xc0,0xcf,0x03,0x03,0x00,0x00,0x00};
