#define noname_width 63
#define noname_height 11
static char noname_bits[] = {
 0x04,0x83,0x01,0x01,0x40,0x30,0x18,0x10,0x87,0xcd,0x86,0x01,0x70,0xd8,0x6c,
 0x18,0x84,0xec,0x86,0x01,0x40,0xc8,0x6e,0x18,0xc4,0xe8,0xc4,0x01,0x40,0x8c,
 0x4e,0x1c,0xc4,0x08,0x66,0xf1,0x43,0x8c,0x60,0x16,0xc4,0x08,0x26,0xd1,0x43,
 0x8c,0x60,0x12,0xc4,0x08,0x33,0xc1,0x40,0x8c,0x30,0x13,0xc4,0x88,0xf5,0x47,
 0x40,0x8c,0x58,0x7f,0x84,0xcc,0x04,0x79,0x43,0xc8,0x4c,0x10,0x9f,0xed,0xc7,
 0xff,0xf1,0xd9,0x7e,0x7c,0x00,0x07,0x00,0x00,0x00,0x70,0x00,0x00};
