#define noname_width 135
#define noname_height 11
static char noname_bits[] = {
 0x0c,0x60,0x00,0x02,0x00,0x00,0x46,0x06,0x08,0x00,0x00,0x0e,0x30,0x00,0x00,
 0x30,0x18,0x36,0xb0,0x81,0x03,0x00,0x00,0xcf,0x03,0x0e,0x00,0x00,0x1b,0xd8,
 0x00,0x00,0xd8,0x6c,0x32,0x90,0x01,0x02,0x00,0x80,0x4d,0x00,0x08,0x00,0x00,
 0x11,0xc8,0x00,0x00,0xdc,0x64,0x23,0x18,0x01,0x02,0x00,0x80,0x40,0x00,0x08,
 0x00,0x00,0x1b,0x8c,0x00,0x00,0x9c,0x46,0x23,0x18,0x01,0x02,0x00,0xc0,0xc7,
 0x03,0x08,0x00,0x00,0x0f,0x8c,0x00,0x00,0xc0,0x46,0x23,0x18,0x01,0x02,0x00,
 0xc0,0x4c,0x06,0x08,0x00,0x00,0x1f,0x8c,0x00,0x00,0xc0,0x46,0x23,0x18,0x01,
 0x02,0xfe,0xc3,0x08,0x06,0x08,0xfc,0x07,0x1d,0x8c,0xe0,0x3f,0x60,0x46,0x23,
 0x18,0x01,0x02,0x00,0xc0,0x68,0x06,0x08,0x00,0x80,0x11,0x8c,0x00,0x00,0xb0,
 0x46,0x32,0x93,0x19,0x02,0x00,0x80,0x6c,0x66,0x08,0x00,0x80,0x91,0xc9,0x00,
 0x00,0x98,0x64,0x36,0xb3,0x99,0x0f,0x00,0x80,0xcd,0x67,0x3e,0x00,0x00,0x9b,
 0xd9,0x00,0x00,0xfc,0x6c,0x1c,0xe0,0x00,0x00,0x00,0x00,0x87,0x01,0x00,0x00,
 0x00,0x0e,0x70,0x00,0x00,0x00,0x38};
