#define noname_width 54
#define noname_height 10
static char noname_bits[] = {
 0x84,0x03,0x0c,0x00,0x84,0x03,0x0c,0x87,0x02,0x36,0x00,0x87,0x02,0x36,0xc4,
 0x06,0x37,0x00,0xc4,0x06,0x37,0xc4,0x06,0x27,0x00,0xc4,0x06,0x27,0x84,0x03,
 0x30,0x3f,0x84,0x03,0x30,0x04,0x00,0x30,0x3d,0x04,0x00,0x30,0x04,0x00,0x18,
 0x0c,0x04,0x00,0x18,0x04,0x00,0x2c,0x04,0x04,0x00,0x2c,0x04,0x60,0xa6,0x37,
 0x04,0x60,0x26,0x1f,0x60,0xbf,0x1f,0x1f,0x60,0x3f};
