#define noname_width 44
#define noname_height 12
static char noname_bits[] = {
 0xf0,0x01,0x00,0x00,0x00,0x00,0x88,0x01,0x00,0x00,0x00,0x00,0x8c,0x01,0x00,
 0x18,0x00,0x00,0x8c,0x00,0x00,0x0e,0x00,0x00,0x3c,0x00,0x80,0x03,0xf8,0x07,
 0x78,0x06,0xe0,0x00,0xd8,0x0c,0xc0,0x04,0x30,0x00,0xf0,0x0f,0xc2,0x1e,0xf0,
 0x00,0xd8,0x00,0x42,0x16,0xc0,0x03,0xcc,0x08,0x67,0x12,0x00,0x0f,0xf8,0x07,
 0x1d,0x3a,0x00,0x1c,0x00,0x00,0x00,0x1b,0x00,0x00,0x00,0x00};
