#define noname_width 14
#define noname_height 12
static char noname_bits[] = {
 0xf0,0x01,0x88,0x01,0x8c,0x01,0x8c,0x00,0x3c,0x00,0x78,0x06,0xc0,0x04,0xc2,
 0x1e,0x42,0x16,0x67,0x12,0x1d,0x3a,0x00,0x1b};
