#define noname_width 152
#define noname_height 13
static char noname_bits[] = {
 0xf8,0x43,0x00,0x00,0x00,0x00,0x00,0x00,0x01,0x00,0x00,0x7f,0x0c,0x00,0x00,
 0x00,0x00,0x00,0x30,0x30,0x73,0x00,0x00,0x00,0x00,0x00,0xc0,0x01,0x00,0x00,
 0x66,0x36,0x00,0x00,0x00,0x00,0x00,0xd8,0x18,0x42,0x00,0x00,0x00,0x00,0x00,
 0x00,0x01,0x10,0x00,0x43,0x37,0x00,0x00,0x00,0x00,0x00,0xdc,0x98,0x42,0x80,
 0x30,0x00,0x00,0x00,0x00,0x01,0x10,0x00,0x53,0x27,0x10,0x06,0x00,0x00,0x00,
 0x9c,0xd8,0x40,0x80,0x19,0xf0,0x3f,0x9e,0x1f,0x01,0x10,0x00,0x1b,0x30,0x30,
 0x03,0xff,0xe3,0xf1,0xc3,0xf8,0x40,0x00,0x0f,0x78,0x36,0xdb,0x1b,0x01,0x10,
 0x00,0x1f,0x30,0xe0,0x81,0x67,0xb3,0x79,0xc3,0x4c,0x40,0x00,0x06,0x30,0xb3,
 0x99,0x19,0x81,0xff,0x81,0x09,0x18,0xc0,0x00,0x33,0x9b,0x31,0x63,0x0c,0x40,
 0x00,0x0f,0x30,0xb3,0x99,0x19,0x01,0x10,0x80,0x01,0x2c,0xe0,0x01,0x33,0x9b,
 0x31,0xb3,0x0c,0x40,0x80,0x19,0x30,0xdb,0xa9,0x0d,0x01,0x10,0x80,0x01,0x26,
 0x30,0x03,0xb3,0x9d,0xb2,0x99,0x1f,0xf0,0x81,0x30,0x30,0x3b,0xbf,0xc7,0x07,
 0x10,0xe0,0x03,0x3f,0x10,0x06,0xb3,0xf3,0xf3,0xfc,0x00,0x00,0x00,0x00,0x00,
 0x00,0xc0,0x00,0x00,0x10,0x00,0x00,0x00,0x00,0x00,0x00,0x00,0x18,0x00,0x00,
 0x00,0x00,0x00,0x00,0x00,0xc0,0x00,0x00,0x10,0x00,0x00,0x00,0x00,0x00,0x00,
 0x00,0x18,0x00,0x00,0x00,0x00,0x00,0x00,0x00,0xe0,0x01,0x00,0x00,0x00,0x00,
 0x00,0x00,0x00,0x00,0x00,0x3c,0x00};
