#define noname_width 29
#define noname_height 15
static char noname_bits[] = {
 0x00,0xf8,0xff,0x1f,0x00,0x0c,0x00,0x02,0x00,0x0c,0x80,0x03,0x00,0x06,0x00,
 0x02,0x00,0x06,0x00,0x02,0x00,0x03,0x00,0x02,0x00,0x03,0x00,0x02,0x86,0xf1,
 0x1f,0x02,0x8f,0x01,0x00,0x02,0xcc,0x00,0x00,0x02,0xcc,0x00,0x80,0x0f,0x78,
 0x00,0x00,0x00,0x78,0x00,0x00,0x00,0x30,0x00,0x00,0x00,0x30,0x00,0x00,0x00};
