#define noname_width 62
#define noname_height 15
static char noname_bits[] = {
 0x00,0x08,0x00,0x00,0x00,0x00,0x00,0x00,0x04,0xc8,0x01,0x00,0x00,0x47,0x00,
 0x00,0x07,0x8c,0x01,0x00,0x00,0x66,0x00,0x00,0x04,0xcc,0x00,0x00,0x00,0x03,
 0x00,0x00,0x04,0xc4,0x00,0x00,0x00,0x03,0x00,0x00,0x04,0xc6,0xe3,0xf1,0x38,
 0x73,0x7e,0x1c,0x04,0xc2,0xb6,0xd9,0x6c,0x7b,0x6f,0x36,0x04,0x62,0x9e,0x79,
 0xbe,0x31,0x66,0x1f,0x04,0x63,0x9a,0xf9,0x86,0x31,0x66,0x03,0x04,0x61,0x9b,
 0x4e,0xe6,0x73,0xb6,0x33,0x9f,0xc1,0xf1,0x7f,0xbc,0x73,0x76,0x1e,0x80,0x01,
 0x00,0x00,0x00,0x00,0x00,0x00,0x80,0x00,0x00,0x00,0x00,0x00,0x00,0x00,0xc0,
 0x00,0x00,0x00,0x00,0x00,0x00,0x00,0xc0,0x00,0x00,0x00,0x00,0x00,0x00,0x00};
