#define noname_width 292
#define noname_height 15
static char noname_bits[] = {
 0x08,0x00,0x00,0x00,0x00,0x00,0x00,0x00,0x00,0x00,0x00,0x00,0x00,0x00,0x00,
 0x00,0x00,0x00,0x00,0x20,0x00,0x41,0x00,0x00,0x80,0x00,0x00,0x04,0x00,0x00,
 0x00,0x00,0x00,0x01,0x00,0x08,0x01,0x84,0x3f,0x04,0x00,0x00,0x00,0x00,0x00,
 0x10,0x00,0x00,0xf0,0xc7,0x00,0x00,0x00,0x00,0x00,0x00,0x43,0x00,0x21,0x80,
 0x03,0x40,0xf8,0x43,0x08,0x00,0x00,0x00,0x07,0x80,0xf0,0xc7,0x10,0x02,0x06,
 0x33,0x07,0x00,0x00,0x00,0x00,0x00,0x1c,0x00,0x00,0x60,0x66,0x03,0x00,0x00,
 0x00,0x00,0x80,0xcd,0x80,0x31,0x00,0x03,0x60,0x30,0x73,0x18,0x00,0x00,0x00,
 0x06,0xc0,0x60,0x66,0x33,0x06,0x82,0x21,0x04,0x00,0x00,0x00,0x00,0x00,0x10,
 0x00,0x01,0x30,0x74,0x03,0x00,0x00,0x00,0x00,0xc0,0x8d,0x80,0x11,0x80,0x01,
 0x20,0x18,0x42,0x10,0x80,0x00,0x00,0x03,0x40,0x30,0x74,0x23,0x04,0x83,0x29,
 0x04,0x08,0x03,0x00,0x00,0x00,0x10,0x00,0x01,0x30,0x75,0x02,0x61,0x00,0x00,
 0x00,0xc0,0x89,0x81,0x18,0x80,0x01,0x30,0x98,0x42,0x30,0x80,0x00,0x00,0x03,
 0x60,0x30,0x75,0x62,0x0c,0x83,0x0d,0x04,0x98,0x01,0xff,0xe3,0xf9,0x11,0x00,
 0x01,0xb0,0x01,0x03,0x33,0xe0,0x7f,0x3c,0x3f,0x8c,0xc1,0x18,0x9e,0xc7,0x33,
 0xd8,0x40,0x30,0x80,0x00,0x3c,0x8f,0x67,0xb0,0x01,0x63,0x0c,0x83,0x0f,0x04,
 0xf0,0x80,0x67,0xb3,0xbd,0x11,0x00,0x01,0xf0,0x01,0x03,0x1e,0xf0,0x6c,0xb6,
 0x37,0x8c,0x41,0x18,0x9b,0x6d,0x33,0xf8,0x40,0x30,0x80,0x00,0x36,0xdb,0x66,
 0xf0,0x01,0x63,0x0c,0xc3,0x04,0x04,0x60,0x00,0x33,0x9b,0x99,0x11,0xf8,0x1f,
 0x98,0x80,0x01,0x0c,0x60,0x66,0x33,0x33,0x86,0x41,0x98,0xd9,0xec,0x31,0x4c,
 0x40,0x30,0xfc,0x0f,0xb3,0xd9,0x63,0x98,0x80,0x61,0x0c,0xc3,0x00,0x04,0xf0,
 0x00,0x33,0x9b,0x99,0x11,0x00,0x01,0x18,0xc0,0x02,0x1e,0x60,0x66,0x33,0x33,
 0x8b,0x61,0x98,0xd9,0xe4,0x33,0x0c,0x40,0x30,0x80,0x00,0xb3,0xc9,0x67,0x18,
 0xc0,0x62,0x0c,0xc3,0x00,0x04,0x98,0x01,0xb3,0x9d,0xda,0x10,0x00,0x01,0x18,
 0x60,0x02,0x33,0x60,0xb6,0x53,0x9b,0x89,0x21,0x98,0xe9,0x36,0x31,0x0c,0x40,
 0x30,0x80,0x00,0xd3,0x6d,0x62,0x18,0x60,0x62,0x0c,0xf3,0x01,0x1f,0x08,0x03,
 0xb3,0xf3,0x7b,0x7c,0x00,0x01,0x3e,0xf0,0x03,0x61,0x60,0x76,0x7e,0xcf,0x8f,
 0x31,0x18,0xbf,0xf3,0x31,0x1f,0xf0,0x31,0x80,0x00,0x7e,0xe7,0x63,0x3e,0xf0,
 0x63,0x0c,0x02,0x00,0x00,0x00,0x00,0x00,0x00,0x0c,0x00,0x00,0x01,0x00,0x00,
 0x00,0x00,0x00,0x00,0x80,0x01,0x80,0x30,0x10,0x00,0x00,0x20,0x00,0x00,0x10,
 0x80,0x00,0x00,0x00,0x40,0x00,0x00,0x20,0x04,0x06,0x00,0x00,0x00,0x00,0x00,
 0x00,0x0c,0x00,0x00,0x01,0x00,0x00,0x00,0x00,0x00,0x00,0x80,0x01,0xc0,0x10,
 0x30,0x00,0x00,0x60,0x00,0x00,0x18,0x80,0x00,0x00,0x00,0xc0,0x00,0x00,0x30,
 0x06,0x06,0x00,0x00,0x00,0x00,0x00,0x00,0x1e,0x00,0x00,0x00,0x00,0x00,0x00,
 0x00,0x00,0x00,0xc0,0x03,0xc0,0x18,0x30,0x00,0x00,0x60,0x00,0x00,0x18,0x00,
 0x00,0x00,0x00,0xc0,0x00,0x00,0x30,0x06,0x0c,0x00,0x00,0x00,0x00,0x00,0x00,
 0x00,0x00,0x00,0x00,0x00,0x00,0x00,0x00,0x00,0x00,0x00,0x00,0x60,0x18,0x60,
 0x00,0x00,0xc0,0x00,0x00,0x0c,0x00,0x00,0x00,0x00,0x80,0x01,0x00,0x18,0x03};
