#define noname_width 98
#define noname_height 16
static char noname_bits[] = {
 0x00,0x00,0x00,0x00,0x00,0x00,0x00,0x00,0x00,0x00,0x00,0x07,0x00,0x00,0x00,
 0x00,0x02,0x00,0x00,0x00,0x00,0x00,0x00,0x80,0x4d,0x00,0x00,0x00,0x00,0x01,
 0xc0,0x01,0x00,0x00,0x47,0x00,0x80,0x8d,0x00,0x00,0x00,0x80,0x01,0x80,0x01,
 0x00,0x00,0x66,0x00,0x00,0x8c,0x01,0x00,0x00,0x80,0x00,0xc0,0x00,0x00,0x00,
 0x03,0x00,0x00,0x06,0x01,0x00,0x00,0xc0,0x00,0xc0,0x00,0x00,0x00,0x03,0x00,
 0x00,0x0b,0x03,0xde,0xfd,0xc7,0x00,0xc0,0xe3,0xf1,0x38,0x73,0x7e,0x9c,0x0f,
 0x03,0xb3,0xc7,0xcc,0x00,0xc0,0xb6,0xd9,0x6c,0x7b,0x6f,0x36,0x00,0x03,0x3f,
 0xc7,0xc8,0xf8,0x6f,0x9e,0x79,0xbe,0x31,0x66,0x1f,0x00,0x03,0x03,0xc7,0xc8,
 0x00,0x60,0x9a,0xf9,0x86,0x31,0x66,0x03,0x00,0x03,0xa3,0xcd,0xcc,0x00,0x60,
 0x9b,0x4e,0xe6,0x73,0xb6,0x33,0x00,0x03,0xde,0xdd,0xc7,0x00,0xc0,0xf1,0x7f,
 0xbc,0x73,0x76,0x1e,0x00,0x03,0x00,0xc0,0x80,0x00,0x00,0x00,0x00,0x00,0x00,
 0x00,0x00,0x00,0x01,0x00,0xc0,0x80,0x01,0x00,0x00,0x00,0x00,0x00,0x00,0x00,
 0x80,0x01,0x00,0xe0,0x81,0x01,0x00,0x00,0x00,0x00,0x00,0x00,0x00,0x80,0x01,
 0x00,0x00,0x00,0x03,0x00,0x00,0x00,0x00,0x00,0x00,0x00,0xc0,0x00};
