#define noname_width 87
#define noname_height 16
static char noname_bits[] = {
 0x00,0x00,0x00,0x00,0x00,0x00,0x00,0x00,0x00,0xc0,0x01,0x00,0x08,0x02,0x00,
 0x00,0x00,0x00,0x00,0x00,0x60,0x0b,0x04,0x08,0x01,0x00,0x00,0x00,0x00,0x80,
 0x00,0x60,0x13,0x07,0x8c,0x01,0x00,0x00,0x00,0x00,0xc0,0x00,0x00,0x33,0x04,
 0x8c,0x00,0x00,0x00,0x00,0x00,0x00,0x00,0x80,0x21,0x04,0xc4,0x00,0x00,0x00,
 0x00,0x00,0x00,0x00,0xc0,0x62,0x04,0xc6,0xf8,0x1f,0x8f,0xdf,0x8f,0xe7,0x3c,
 0xee,0x63,0x04,0xc2,0x3c,0x9b,0xcd,0xfb,0xcd,0xf4,0x36,0x1b,0x60,0x04,0xc2,
 0x98,0xd9,0x8c,0xd9,0x6c,0x6c,0x9e,0x0f,0x60,0x04,0xc3,0x98,0xd9,0x8c,0xd9,
 0x6c,0x66,0xbe,0x01,0x60,0x04,0xc1,0x98,0xed,0x94,0xcd,0x76,0xe6,0x93,0x19,
 0x60,0x9f,0xc1,0x98,0x9d,0x9f,0xc7,0xce,0xe3,0x1f,0x0f,0x60,0x80,0x81,0x00,
 0x00,0xc0,0x00,0x00,0x00,0x00,0x00,0x20,0x80,0x80,0x01,0x00,0xc0,0x00,0x00,
 0x00,0x00,0x00,0x30,0xc0,0x80,0x01,0x00,0xe0,0x01,0x00,0x00,0x00,0x00,0x30,
 0xc0,0x00,0x03,0x00,0x00,0x00,0x00,0x00,0x00,0x00,0x18};
