#define noname_width 158
#define noname_height 15
static char noname_bits[] = {
 0x00,0x00,0x00,0x00,0x00,0x00,0x00,0x00,0x00,0x80,0x00,0x00,0x00,0x00,0x80,
 0x00,0x00,0x00,0x00,0x04,0x0c,0x90,0x01,0x00,0x00,0x00,0x00,0x00,0x00,0x40,
 0x00,0x00,0x00,0x40,0x80,0x00,0x00,0x00,0x60,0x08,0x36,0xf0,0x00,0x00,0x00,
 0x00,0x80,0x00,0x00,0x60,0x00,0x00,0x00,0x70,0xc0,0x00,0x00,0x00,0xb0,0x19,
 0x32,0x10,0x00,0x00,0x00,0x00,0xc0,0x00,0x00,0x20,0x00,0x00,0x00,0x40,0xc0,
 0x00,0x00,0x00,0xb8,0x11,0x23,0x10,0x80,0x30,0x00,0x00,0xc0,0x00,0x00,0x30,
 0x00,0x00,0x00,0x40,0x40,0x00,0x00,0x00,0x38,0x31,0x23,0xf0,0x80,0x19,0xf0,
 0x7c,0xff,0x79,0x7e,0x30,0xfc,0x8f,0xe7,0x47,0x60,0xfc,0x8f,0xe7,0x87,0x31,
 0x23,0x90,0x01,0x0f,0xb0,0xf9,0xd9,0xd8,0x4c,0x30,0x9e,0xcd,0xf6,0x46,0x20,
 0x9e,0xcd,0xf6,0x86,0x31,0x23,0x80,0x01,0x06,0xe0,0x99,0xc1,0xf0,0x4c,0x30,
 0xcc,0x6c,0x66,0x46,0x20,0xcc,0x6c,0x66,0xc6,0x30,0x23,0x98,0x01,0x0f,0xb0,
 0x99,0xc1,0xda,0x4c,0x30,0xcc,0x6c,0x66,0x46,0x30,0xcc,0x6c,0x66,0x66,0x31,
 0x32,0x9b,0x81,0x19,0x98,0x9b,0xd1,0xce,0x4d,0x30,0xcc,0x76,0x6a,0x43,0x10,
 0xcc,0x76,0x6a,0x33,0x31,0x36,0xf3,0x81,0x30,0xf0,0x3f,0xcf,0xfb,0xff,0x30,
 0xcc,0xce,0xef,0xf1,0x19,0xcc,0xce,0xef,0xf9,0x31,0x1c,0x60,0x00,0x00,0x00,
 0x00,0x00,0x00,0x00,0x20,0x00,0x00,0x30,0x00,0x18,0x00,0x00,0x30,0x00,0x10,
 0x00,0x00,0x00,0x00,0x00,0x00,0x00,0x00,0x00,0x60,0x00,0x00,0x30,0x00,0x08,
 0x00,0x00,0x30,0x00,0x18,0x00,0x00,0x00,0x00,0x00,0x00,0x00,0x00,0x00,0x60,
 0x00,0x00,0x78,0x00,0x0c,0x00,0x00,0x78,0x00,0x18,0x00,0x00,0x00,0x00,0x00,
 0x00,0x00,0x00,0x00,0xc0,0x00,0x00,0x00,0x00,0x0c,0x00,0x00,0x00,0x00,0x0c};
