#define noname_width 61
#define noname_height 13
static char noname_bits[] = {
 0xf8,0x43,0x00,0x00,0x00,0x00,0x00,0x00,0x30,0x73,0x00,0x00,0x00,0x00,0x00,
 0x00,0x18,0x42,0x00,0x00,0x00,0x00,0x00,0x00,0x98,0x42,0x80,0x30,0x00,0x00,
 0x00,0x00,0xd8,0x40,0x80,0x19,0xf0,0x3f,0x9e,0x1f,0xf8,0x40,0x00,0x0f,0x78,
 0x36,0xdb,0x1b,0x4c,0x40,0x00,0x06,0x30,0xb3,0x99,0x19,0x0c,0x40,0x00,0x0f,
 0x30,0xb3,0x99,0x19,0x0c,0x40,0x80,0x19,0x30,0xdb,0xa9,0x0d,0x1f,0xf0,0x81,
 0x30,0x30,0x3b,0xbf,0x07,0x00,0x00,0x00,0x00,0x00,0x00,0xc0,0x00,0x00,0x00,
 0x00,0x00,0x00,0x00,0xc0,0x00,0x00,0x00,0x00,0x00,0x00,0x00,0xe0,0x01};
