#define noname_width 41
#define noname_height 11
static char noname_bits[] = {
 0x00,0x00,0x00,0xf8,0x43,0x00,0x00,0x00,0x00,0x30,0x73,0x00,0x80,0x01,0x00,
 0x18,0x42,0x00,0xe0,0x00,0x00,0x98,0x42,0x00,0x38,0x80,0x7f,0xd8,0x40,0x00,
 0x0e,0x80,0xcd,0xf8,0x40,0x00,0x03,0x00,0xff,0x4c,0x40,0x00,0x0f,0x80,0x0d,
 0x0c,0x40,0x00,0x3c,0xc0,0x8c,0x0c,0x40,0x00,0xf0,0x80,0x7f,0x1f,0xf0,0x01,
 0xc0,0x01,0x00,0x00,0x00,0x00};
