#define noname_width 31
#define noname_height 10
static char noname_bits[] = {
 0x10,0x00,0x00,0x10,0x18,0x00,0x00,0x18,0x18,0x00,0x00,0x18,0x1c,0x10,0x06,
 0x1c,0x16,0x30,0x03,0x16,0x12,0xe0,0x01,0x12,0x13,0xc0,0x00,0x13,0x7f,0xe0,
 0x01,0x7f,0x10,0x30,0x03,0x10,0x7c,0x10,0x06,0x7c};
