#define noname_width 63
#define noname_height 13
static char noname_bits[] = {
 0x00,0x02,0x00,0x00,0x00,0x00,0x00,0x00,0x00,0x03,0x00,0x00,0x00,0x00,0x00,
 0x00,0x00,0x00,0x00,0x00,0x00,0x00,0x00,0x00,0x00,0x00,0x00,0x80,0x30,0x00,
 0x00,0x00,0xbc,0xf3,0xe3,0x81,0x19,0x78,0x77,0x3f,0xf6,0x7b,0xb3,0x01,0x0f,
 0xcc,0x1e,0x66,0x9e,0x31,0x1b,0x00,0x06,0xfc,0x1c,0x46,0xbe,0x31,0x1b,0x00,
 0x0f,0x0c,0x1c,0x46,0x93,0xb3,0x9d,0x81,0x19,0x8c,0x36,0x66,0x9f,0xb3,0xf3,
 0x80,0x30,0x78,0x77,0x3e,0x00,0x00,0x00,0x00,0x00,0x00,0x00,0x06,0x00,0x00,
 0x00,0x00,0x00,0x00,0x00,0x06,0x00,0x00,0x00,0x00,0x00,0x00,0x00,0x0f};
