#define noname_width 110
#define noname_height 17
static char noname_bits[] = {
 0x00,0xf0,0xff,0xff,0xff,0xff,0xff,0xff,0xff,0xff,0xff,0xff,0xff,0x3f,0x00,
 0x10,0x00,0x00,0x00,0x00,0x00,0x00,0x00,0x00,0x00,0x00,0x00,0x00,0x00,0x18,
 0x00,0x00,0x00,0x80,0x03,0x00,0x00,0x00,0x00,0x00,0x00,0x07,0x00,0x08,0x00,
 0x00,0x00,0xc4,0x06,0x00,0x00,0x00,0x00,0x00,0x8c,0x0d,0x00,0x0c,0x00,0x00,
 0x00,0xc7,0x06,0x00,0x00,0x00,0x00,0x00,0xb6,0x0d,0x00,0x04,0x00,0x00,0x00,
 0x04,0x06,0x10,0x00,0x00,0x00,0x00,0x37,0x0c,0x00,0x06,0x00,0x00,0x00,0x04,
 0x03,0x10,0x00,0x00,0x00,0x00,0x27,0x06,0x00,0xc2,0xff,0x78,0x7e,0x84,0x05,
 0x10,0xc0,0xff,0x78,0xfc,0x30,0x0b,0x02,0xe3,0xd9,0x6c,0x6f,0xc4,0x07,0x10,
 0xe0,0xd9,0x6c,0xde,0xb0,0x0f,0x07,0xc1,0xcc,0x66,0x66,0x04,0x80,0xff,0xc1,
 0xcc,0x66,0xcc,0x18,0x00,0x86,0xc1,0xcc,0x66,0x66,0x04,0x00,0x10,0xc0,0xcc,
 0x66,0xcc,0x2c,0x00,0x8c,0xc0,0x6c,0xa7,0x36,0x04,0x00,0x10,0xc0,0x6c,0xa7,
 0x6c,0x26,0x00,0xcc,0xc0,0xec,0xfc,0x1e,0x1f,0x00,0x10,0xc0,0xec,0xfc,0x3c,
 0x3f,0x00,0x58,0x00,0x00,0x00,0x03,0x00,0x00,0x10,0x00,0x00,0x00,0x06,0x00,
 0x00,0x78,0x00,0x00,0x00,0x03,0x00,0x00,0x10,0x00,0x00,0x00,0x06,0x00,0x00,
 0x30,0x00,0x00,0x80,0x07,0x00,0x00,0x00,0x00,0x00,0x00,0x0f,0x00,0x00,0x30,
 0x00,0x00,0x00,0x00,0x00,0x00,0x00,0x00,0x00,0x00,0x00,0x00,0x00};
