#define noname_width 77
#define noname_height 11
static char noname_bits[] = {
 0xf8,0x81,0x0f,0x1e,0x00,0x00,0x00,0x80,0x3f,0x04,0x30,0xc3,0x18,0x0c,0x00,
 0x00,0x00,0x00,0x33,0x07,0x18,0x63,0x18,0x06,0x00,0x18,0x00,0x80,0x21,0x04,
 0x18,0x33,0x18,0x06,0x00,0x0e,0x00,0x80,0x29,0x04,0x98,0x33,0x18,0x06,0x80,
 0x03,0xf8,0x87,0x0d,0x04,0xf8,0x39,0x18,0x06,0xe0,0x00,0xd8,0x8c,0x0f,0x04,
 0x0c,0x18,0x18,0x43,0x30,0x00,0xf0,0xcf,0x04,0x04,0x0c,0x18,0x0c,0x63,0xf0,
 0x00,0xd8,0xc0,0x00,0x04,0x0c,0x30,0x0e,0x23,0xc0,0x03,0xcc,0xc8,0x00,0x04,
 0x1f,0x70,0xc7,0x3f,0x00,0x0f,0xf8,0xf7,0x01,0x1f,0x00,0xc0,0x01,0x00,0x00,
 0x1c,0x00,0x00,0x00,0x00};
