#define noname_width 30
#define noname_height 11
static char noname_bits[] = {
 0x18,0x00,0x00,0x18,0x3c,0x00,0x00,0x3c,0x36,0x00,0x00,0x36,0x02,0x10,0x06,
 0x02,0x1f,0x30,0x03,0x1f,0x33,0xe0,0x01,0x33,0x23,0xc0,0x00,0x23,0x23,0xe0,
 0x01,0x23,0x32,0x30,0x03,0x32,0x36,0x10,0x06,0x36,0x1c,0x00,0x00,0x1c};
