#define noname_width 450
#define noname_height 114
static char noname_bits[] = {
 0x06,0x00,0x00,0x00,0x00,0x00,0x00,0x00,0x00,0x00,0x00,0x00,0x00,0x00,0x00,
 0x18,0x00,0x70,0x00,0x30,0x00,0x0c,0x00,0x00,0x00,0xc0,0x01,0x00,0x00,0x00,
 0x00,0x1c,0x18,0x00,0x07,0x00,0x80,0x03,0x00,0x00,0x00,0x00,0x00,0x00,0x00,
 0x00,0x00,0x00,0x00,0x00,0x00,0x00,0x00,0x00,0x00,0x00,0x00,0x06,0x00,0x01,
 0x00,0x00,0x00,0x00,0x00,0x00,0x00,0x00,0x00,0x00,0x00,0x00,0x18,0x00,0x60,
 0x00,0x30,0x00,0x08,0x00,0x00,0x00,0x80,0x01,0x00,0x00,0x20,0x80,0x18,0x18,
 0x00,0x06,0x00,0x00,0x03,0x00,0x00,0x00,0x00,0x00,0x00,0x00,0x00,0x00,0x00,
 0x00,0x00,0x00,0x00,0x00,0x00,0x00,0x00,0x00,0x00,0x00,0x01,0x00,0x00,0x00,
 0x00,0x00,0x00,0x00,0x00,0x00,0x00,0x00,0x00,0x00,0x00,0x60,0x00,0x00,0x00,
 0x08,0x00,0x00,0x00,0x80,0x01,0x00,0x00,0x30,0xc0,0x18,0x00,0x00,0x06,0x00,
 0x00,0x03,0x00,0x00,0x00,0x00,0x00,0x00,0x00,0x00,0x00,0x00,0x00,0x00,0x00,
 0x00,0x00,0x00,0x00,0x00,0x00,0x00,0x80,0x01,0x00,0x00,0x00,0x00,0x00,0x00,
 0x00,0x00,0x00,0x00,0x00,0x00,0x00,0x00,0x64,0x00,0x00,0x00,0x08,0x00,0x00,
 0x00,0x80,0x01,0x00,0x00,0x30,0xc0,0x18,0x00,0x00,0x06,0x00,0x00,0x03,0x00,
 0x00,0x00,0x00,0x00,0x00,0x00,0x00,0x00,0x00,0x00,0x00,0x00,0x00,0x00,0x00,
 0x00,0x00,0x00,0xe7,0xcf,0x07,0x00,0x00,0x00,0x00,0x00,0x00,0x00,0x00,0x00,
 0x00,0x00,0xf0,0xdd,0xcf,0x6f,0x1e,0xb8,0x9f,0x8f,0x77,0x07,0x77,0x8f,0xdd,
 0x3c,0xe0,0x79,0xe0,0xf9,0xdc,0x07,0xe6,0xdd,0x3d,0x03,0x00,0x00,0x00,0x00,
 0x00,0x00,0x00,0x00,0x00,0x00,0x00,0x00,0x00,0x00,0x00,0x00,0x00,0x00,0x00,
 0xc6,0x9d,0x01,0x00,0x00,0x00,0x00,0x00,0x00,0x00,0x00,0x00,0x00,0x00,0x30,
 0x99,0x69,0x62,0x33,0x30,0xd3,0xc8,0xec,0x01,0x26,0x9b,0x99,0x66,0x60,0x33,
 0xc0,0x98,0xd8,0x04,0x36,0x9b,0x66,0x03,0x00,0x00,0x00,0x00,0x00,0x00,0x00,
 0x00,0x00,0x00,0x00,0x00,0x00,0x00,0x00,0x00,0x00,0x00,0x00,0xc6,0x9c,0x01,
 0x00,0x00,0x00,0x00,0x00,0x00,0x00,0x00,0x00,0x00,0x00,0xf0,0x98,0x69,0x62,
 0x3f,0x30,0xd3,0xc8,0xcf,0x01,0x36,0x9e,0x99,0x7e,0xc0,0x33,0xc0,0x98,0xd8,
 0x03,0xf6,0xdb,0x7e,0x03,0x00,0x00,0x00,0x00,0x00,0x00,0x00,0x00,0x00,0x00,
 0x00,0x00,0x00,0x00,0x00,0x00,0x00,0x00,0x00,0xc6,0x9c,0x05,0x00,0x00,0x00,
 0x00,0x00,0x00,0x00,0x00,0x00,0x00,0x00,0xf0,0x99,0xc9,0x63,0x03,0x30,0xd3,
 0xc8,0xc0,0x01,0x1c,0x9b,0x99,0x06,0x60,0xb3,0xc0,0x9a,0xd8,0x07,0x36,0x70,
 0x06,0x03,0x00,0x00,0x00,0x00,0x00,0x00,0x00,0x00,0x00,0x00,0x00,0x00,0x00,
 0x00,0x00,0x00,0x00,0x00,0x00,0xc6,0x9c,0x05,0x00,0x00,0x00,0x00,0x00,0x00,
 0x00,0x00,0x00,0x00,0x00,0x10,0x99,0x49,0x60,0x23,0x30,0xd3,0xc8,0x68,0x03,
 0x9c,0xb9,0xd9,0x46,0x30,0xb7,0xc0,0x9a,0x58,0x04,0x36,0x72,0x46,0x03,0x00,
 0x00,0x00,0x00,0x00,0x00,0x00,0x00,0x00,0x00,0x00,0x00,0x00,0x00,0x00,0x00,
 0x00,0x00,0x00,0xef,0xbf,0x07,0x00,0x00,0x00,0x00,0x00,0x00,0x00,0x00,0x00,
 0x00,0x00,0xf0,0xfd,0xdf,0xf7,0x1e,0xf8,0xbf,0x9f,0x77,0x07,0x08,0xff,0xfb,
 0x3d,0xe0,0xf7,0xc0,0xff,0xfd,0x07,0xef,0x21,0xbc,0x07,0x00,0x00,0x00,0x00,
 0x00,0x00,0x00,0x00,0x00,0x00,0x00,0x00,0x00,0x00,0x00,0x00,0x00,0x00,0x00,
 0x00,0x00,0x00,0x00,0x00,0x00,0x00,0x00,0x00,0x00,0x00,0x00,0x00,0x00,0x00,
 0x00,0x60,0x0c,0x00,0x00,0x00,0x00,0x00,0x00,0x00,0x00,0x00,0x00,0x00,0x00,
 0x00,0x00,0x00,0x00,0x00,0x00,0x00,0x00,0x00,0x00,0x00,0x00,0x00,0x00,0x00,
 0x00,0x00,0x00,0x00,0x00,0x00,0x00,0x00,0x00,0x00,0x00,0x00,0x00,0x00,0x00,
 0x00,0x00,0x00,0x00,0x00,0x00,0x00,0x00,0x00,0x00,0x00,0x00,0x00,0x60,0x0c,
 0x00,0x00,0x00,0x00,0x00,0x00,0x00,0x00,0x00,0x00,0x00,0x00,0x00,0x00,0x00,
 0x00,0x00,0x00,0x00,0x00,0x00,0x00,0x00,0x00,0x00,0x00,0x00,0x00,0x00,0x00,
 0x00,0x00,0x00,0x00,0x00,0x00,0x00,0x00,0x00,0x00,0x00,0x00,0x00,0x00,0x00,
 0x00,0x00,0x00,0x00,0x00,0x00,0x00,0x00,0x00,0x00,0xc0,0x07,0x00,0x00,0x00,
 0x00,0x00,0x00,0x00,0x00,0x00,0x00,0x00,0x00,0x00,0x00,0x00,0x00,0x00,0x00,
 0x00,0x00,0x00,0x00,0x00,0x00,0x00,0x00,0x00,0x00,0x00,0x00,0x00,0x00,0x00,
 0x00,0x00,0x00,0x00,0x00,0x00,0x00,0x00,0x00,0x00,0x00,0x00,0x00,0x00,0x00,
 0x00,0x00,0x00,0x00,0x00,0x00,0x00,0x00,0x00,0x00,0x00,0x00,0x00,0x00,0x00,
 0x00,0x00,0x00,0x00,0x00,0x00,0x00,0x00,0x00,0x00,0x00,0x00,0x00,0x00,0x00,
 0x00,0x00,0x00,0x00,0x00,0x00,0x00,0x00,0x00,0x00,0x00,0x00,0x00,0x00,0x00,
 0x00,0x00,0x00,0x00,0x00,0x00,0x00,0x00,0x00,0x00,0x00,0x00,0x00,0x00,0x00,
 0x00,0x00,0x00,0x00,0x00,0x00,0x00,0x00,0x00,0x00,0x00,0x00,0x00,0x00,0x00,
 0x00,0x00,0x00,0x00,0x00,0x00,0x00,0x00,0x00,0x00,0x00,0x00,0x00,0x00,0x00,
 0x00,0x00,0x00,0x00,0x00,0x00,0x00,0x00,0x00,0x00,0x00,0x00,0x00,0x00,0x00,
 0x00,0x00,0x00,0x00,0x00,0x00,0x00,0x00,0x00,0x00,0x00,0x00,0x00,0x00,0x00,
 0x00,0x00,0x00,0x00,0x00,0x00,0x00,0x00,0x00,0x00,0x00,0x00,0x00,0x00,0x00,
 0x00,0x00,0x00,0x00,0x00,0x00,0x00,0x00,0x00,0x00,0x00,0x00,0x00,0x00,0x00,
 0x00,0x00,0x00,0x00,0x00,0x00,0x00,0x00,0x00,0x00,0x00,0x00,0x00,0x00,0x00,
 0x00,0x00,0x00,0x00,0x00,0x00,0x00,0x00,0x00,0x00,0x00,0x00,0x00,0x00,0x00,
 0x00,0x00,0x00,0x00,0x00,0x00,0x00,0x00,0x00,0x00,0x00,0x00,0x00,0x00,0x00,
 0x00,0x00,0x00,0x00,0x00,0x00,0x00,0x00,0x00,0x00,0x00,0x00,0x00,0x00,0x00,
 0x00,0x00,0x00,0x00,0x00,0x00,0x00,0x00,0x00,0x00,0x00,0x00,0x00,0x00,0x00,
 0x00,0x00,0x00,0x00,0x00,0x00,0x00,0x00,0x00,0x80,0x1d,0x0c,0x00,0x00,0x30,
 0x00,0x00,0xee,0x00,0x00,0x00,0x00,0x3b,0x1c,0x00,0x0c,0x00,0x06,0x00,0x00,
 0x00,0x70,0x00,0x00,0x00,0x00,0x00,0xc0,0xc1,0x00,0x38,0x00,0x00,0x1c,0x00,
 0x00,0x00,0x00,0x00,0x00,0x00,0x00,0x00,0x00,0x00,0x00,0x00,0x00,0x00,0x00,
 0x00,0x00,0x00,0x00,0x00,0x00,0x80,0x19,0x08,0x00,0x00,0x20,0x00,0x00,0xcc,
 0x00,0x00,0x00,0x00,0x33,0x18,0x00,0x0c,0x00,0x04,0x00,0x00,0x00,0x60,0x00,
 0x00,0x00,0x00,0x02,0x84,0xc1,0x00,0x30,0x00,0x00,0x18,0x00,0x00,0x00,0x00,
 0x00,0x00,0x00,0x00,0x00,0x00,0x00,0x00,0x00,0x00,0x00,0x00,0x00,0x00,0x00,
 0x00,0x00,0x00,0x00,0x18,0x08,0x00,0x00,0x20,0x00,0x00,0xcc,0x00,0x00,0x00,
 0x00,0x30,0x18,0x00,0x00,0x00,0x04,0x00,0x00,0x00,0x60,0x00,0x00,0x00,0x00,
 0x03,0x86,0x01,0x00,0x30,0x00,0x00,0x18,0x00,0x00,0x00,0x00,0x00,0x00,0x00,
 0x08,0x00,0x00,0x00,0x00,0x00,0x00,0x00,0x00,0x00,0x00,0x00,0x00,0x00,0x00,
 0x00,0x18,0x08,0x00,0x00,0x20,0x00,0x00,0xcc,0x00,0x00,0x00,0x00,0x30,0x18,
 0x00,0x00,0x00,0x04,0x00,0x00,0x00,0x60,0x00,0x00,0x00,0x00,0x03,0x86,0x01,
 0x00,0x30,0x00,0x00,0x18,0x00,0x00,0x00,0x00,0x00,0x00,0x00,0x08,0x00,0x00,
 0x00,0x00,0x00,0x00,0x00,0x00,0x00,0x00,0x00,0x00,0x00,0xf0,0xff,0x99,0x8f,
 0xef,0xf9,0x3e,0x06,0x78,0xcc,0xe0,0xc7,0xf7,0xbf,0xf3,0x99,0x07,0xee,0xc7,
 0xe7,0xdd,0xc1,0xdd,0x63,0x37,0xde,0x07,0x9e,0x07,0x8f,0xef,0x3e,0x30,0xef,
 0xee,0x19,0x00,0x00,0x00,0x00,0x00,0x00,0x00,0x3e,0x00,0x00,0x00,0x00,0x00,
 0x00,0x00,0x00,0x00,0x00,0x00,0x00,0x00,0x60,0x9b,0xd9,0xc8,0x6c,0xf3,0x23,
 0x06,0xd8,0xcc,0xc0,0x6c,0x34,0x27,0x33,0xdb,0x0c,0xcc,0x64,0x34,0x7b,0x80,
 0xc9,0x66,0x26,0xf3,0x04,0x36,0x03,0x86,0xc9,0x26,0xb0,0xd9,0x34,0x1b,0x00,
 0x00,0x00,0x00,0x00,0x00,0x00,0x1c,0x00,0x00,0x00,0x00,0x00,0x00,0x00,0x00,
 0x00,0x00,0x00,0x00,0x00,0x60,0x8f,0xd9,0xc8,0xc0,0x33,0x23,0x00,0xf0,0xcc,
 0xc0,0x68,0xfc,0x1e,0x33,0xda,0x0f,0xcc,0x64,0xf4,0x73,0x80,0x8d,0x67,0x26,
 0xff,0x03,0x3c,0x03,0x86,0xc9,0x1e,0xb0,0xdf,0xf6,0x1b,0x00,0x00,0x00,0x00,
 0x00,0x00,0x00,0x3e,0x00,0x00,0x00,0x00,0x00,0x00,0x00,0x00,0x00,0x00,0x00,
 0x00,0x00,0xc0,0x8f,0xd9,0xc8,0x60,0x33,0x23,0x00,0xd8,0xcc,0xc0,0x68,0xfc,
 0x3f,0x33,0xda,0x00,0xcc,0x64,0x34,0x70,0x00,0xc7,0x66,0x26,0xc3,0x07,0x36,
 0x0b,0x96,0xc9,0x3e,0xb0,0x81,0x33,0x18,0x00,0x00,0x00,0x00,0x00,0x00,0x00,
 0x2a,0x00,0x00,0x00,0x00,0x00,0x00,0x00,0x00,0x00,0x00,0x00,0x00,0x00,0xc0,
 0x8e,0xd9,0xc8,0x38,0x37,0x23,0x06,0xcc,0xcd,0xc0,0x6c,0x14,0x23,0x33,0xdb,
 0x08,0xcc,0x64,0x34,0xda,0x00,0x67,0x6e,0x36,0x63,0x04,0x73,0x0b,0x96,0xc9,
 0x22,0xb0,0x91,0x33,0x1a,0x00,0x00,0x00,0x00,0x00,0x00,0x00,0x08,0x00,0x00,
 0x00,0x00,0x00,0x00,0x00,0x00,0x00,0x00,0x00,0x00,0x00,0xc0,0xc4,0xbf,0x9f,
 0xe7,0x7f,0x7e,0x06,0xf8,0xff,0xc1,0xc7,0xf7,0xbf,0xf7,0xbd,0x07,0xfe,0xcf,
 0xef,0xdd,0x01,0xc2,0xff,0x7e,0xde,0x07,0x7e,0x0f,0xde,0xff,0x3f,0x78,0x0f,
 0xe1,0x3d,0x00,0x00,0x00,0x00,0x00,0x00,0x00,0x00,0x00,0x00,0x00,0x00,0x00,
 0x00,0x00,0x00,0x00,0x00,0x00,0x00,0x00,0x00,0x00,0x00,0x00,0x00,0x00,0x00,
 0x00,0x00,0x00,0xc0,0x00,0x00,0x00,0x00,0x00,0x00,0x00,0x00,0x00,0x00,0x00,
 0x00,0x00,0x00,0x00,0x00,0x00,0x00,0x00,0x00,0x00,0x00,0x00,0x00,0x00,0x00,
 0x00,0x00,0x00,0x00,0x00,0x00,0x00,0x00,0x00,0x00,0x00,0x00,0x00,0x00,0x00,
 0x00,0x00,0x00,0x00,0x00,0x00,0x00,0x00,0x00,0x00,0x00,0x00,0x00,0x00,0x00,
 0xc0,0x00,0x00,0x00,0x00,0x00,0x00,0x00,0x00,0x00,0x00,0x00,0x00,0x00,0x00,
 0x00,0x00,0x00,0x00,0x00,0x00,0x00,0x00,0x00,0x00,0x00,0x00,0x00,0x00,0x00,
 0x00,0x00,0x00,0x00,0x00,0x00,0x00,0x00,0x00,0x00,0x00,0x00,0x00,0x00,0x00,
 0x00,0x00,0x00,0x00,0x00,0x00,0x00,0x00,0x00,0x00,0x00,0x00,0xe0,0x01,0x00,
 0x00,0x00,0x00,0x00,0x00,0x00,0x00,0x00,0x00,0x00,0x00,0x00,0x00,0x00,0x00,
 0x00,0x00,0x00,0x00,0x00,0x00,0x00,0x00,0x00,0x00,0x00,0x00,0x00,0x00,0x00,
 0x00,0x00,0x00,0x00,0x00,0x00,0x00,0x00,0x00,0x00,0x00,0x00,0x00,0x00,0x00,
 0x00,0x00,0x00,0x00,0x00,0x00,0x00,0x00,0x00,0x00,0x00,0x00,0x00,0x00,0x00,
 0x00,0x00,0x00,0x00,0x00,0x00,0x00,0x00,0x00,0x00,0x00,0x00,0x00,0x00,0x00,
 0x00,0x00,0x00,0x00,0x00,0x00,0x00,0x00,0x00,0x00,0x00,0x00,0x00,0x00,0x00,
 0x00,0x00,0x00,0x00,0x00,0x00,0x00,0x00,0x00,0x00,0x00,0x00,0x00,0x00,0x00,
 0x00,0x00,0x00,0x00,0x00,0x00,0x00,0x00,0x00,0x00,0x00,0x00,0x00,0x00,0x00,
 0x00,0x00,0x00,0x00,0x00,0x00,0x00,0x00,0x00,0x00,0x00,0x00,0x00,0x00,0x00,
 0x00,0x00,0x00,0x00,0x00,0x00,0x00,0x00,0x00,0x00,0x00,0x00,0x00,0x00,0x00,
 0x00,0x00,0x00,0x00,0x00,0x00,0x00,0x00,0x00,0x00,0x00,0x00,0x00,0x00,0x00,
 0x00,0x00,0x00,0x00,0x00,0x00,0x00,0x00,0x00,0x00,0x00,0x00,0x00,0x00,0x00,
 0x00,0x00,0x00,0x00,0x00,0x00,0x00,0x00,0x00,0x00,0x00,0x00,0x00,0x00,0x00,
 0x00,0x00,0x00,0x00,0x00,0x00,0x06,0x00,0x00,0x00,0x00,0x00,0x00,0x00,0x00,
 0x00,0x00,0x00,0x00,0x00,0x00,0xb8,0x03,0x06,0x80,0x01,0x00,0x00,0x00,0x1c,
 0x00,0x00,0x00,0x00,0x00,0x70,0x60,0x00,0x1c,0x00,0x00,0x0e,0x00,0x00,0x00,
 0x00,0x18,0x00,0x00,0x00,0x00,0x90,0x01,0x80,0x01,0x00,0x00,0x00,0x00,0x00,
 0x00,0x00,0x00,0x06,0x00,0x01,0x00,0x00,0x00,0x00,0x00,0x00,0x00,0x00,0x00,
 0x00,0x00,0x00,0x30,0x03,0x06,0x00,0x01,0x00,0x00,0x00,0x18,0x00,0x00,0x00,
 0x80,0x00,0x62,0x60,0x00,0x18,0x00,0x00,0x0c,0x00,0x20,0x00,0x40,0x18,0x00,
 0x00,0x00,0x04,0x88,0x01,0x88,0x01,0x00,0x00,0x00,0x00,0x00,0x00,0x00,0x00,
 0x00,0x00,0x01,0x00,0x00,0x00,0x00,0x00,0x00,0x00,0x00,0x00,0x00,0x00,0x00,
 0x30,0x03,0x00,0x00,0x01,0x00,0x00,0x00,0x18,0x00,0x00,0x00,0xc0,0x00,0x63,
 0x00,0x00,0x18,0x00,0x00,0x0c,0x00,0x30,0x00,0x60,0x00,0x00,0x00,0x00,0x06,
 0x08,0x00,0x0c,0x01,0x00,0x00,0x00,0x00,0x00,0x00,0x00,0x00,0x00,0x80,0x01,
 0x00,0x00,0x00,0x00,0x00,0x00,0x00,0x00,0x00,0x00,0x00,0x00,0x30,0x03,0x00,
 0x00,0x01,0x00,0x00,0x00,0x18,0x00,0x00,0x00,0xc0,0x00,0x63,0x00,0x00,0x18,
 0x00,0x00,0x0c,0x00,0x30,0x00,0x60,0x00,0x00,0x04,0x00,0x06,0x18,0x00,0x8c,
 0x01,0x00,0x00,0x00,0x00,0x00,0x00,0x00,0x00,0xe7,0xcf,0x07,0x00,0x00,0x00,
 0x00,0x00,0x00,0x00,0x00,0x00,0x00,0x00,0xe0,0x31,0x03,0xf7,0xf3,0xf1,0xee,
 0xe0,0xfe,0xd8,0x8d,0xf7,0x81,0xe7,0x81,0xe7,0x73,0x1f,0x98,0x77,0xf7,0x0c,
 0xe0,0x7b,0x9e,0xff,0xdc,0xcf,0x0f,0x3c,0x0f,0xd8,0xfd,0x9e,0x00,0x00,0x00,
 0x00,0x00,0x00,0x00,0x00,0x00,0xc6,0x9d,0x01,0x00,0x00,0x00,0x00,0x00,0x00,
 0x00,0x00,0x00,0x00,0x00,0x60,0x33,0x03,0x66,0x1a,0x99,0x3d,0xc0,0xb4,0x99,
 0xc9,0x3c,0x81,0xcd,0x00,0x63,0x62,0x13,0xd8,0x6c,0x9a,0x0d,0x60,0x32,0x36,
 0x6f,0x98,0x69,0x02,0x6c,0x06,0x80,0x99,0x0c,0x00,0x00,0x00,0x00,0x00,0x00,
 0x00,0x00,0x00,0xc6,0x9c,0xf1,0x01,0x00,0x00,0x00,0x00,0x00,0x00,0x00,0x00,
 0x00,0x00,0xc0,0x33,0x03,0x66,0x1a,0xf9,0x39,0xc0,0xe6,0x99,0xc9,0xff,0x00,
 0xcf,0x00,0x63,0x62,0x0f,0xd8,0x6f,0xfb,0x0d,0xe0,0x31,0x3c,0x63,0x98,0x69,
 0x02,0x78,0x06,0x80,0x99,0x0c,0x00,0x00,0x00,0x00,0x00,0x00,0x00,0x00,0x00,
 0xc6,0x9c,0xf5,0x01,0x00,0x00,0x00,0x00,0x00,0x00,0x00,0x00,0x00,0x00,0x60,
 0x33,0x03,0x66,0x1a,0x19,0x38,0x80,0xb3,0x99,0xc9,0xf0,0x81,0xcd,0x02,0x6b,
 0x62,0x1f,0xd8,0xc0,0x19,0x0c,0xe0,0xb3,0x36,0x63,0x99,0xc9,0x03,0x6c,0x16,
 0x80,0x99,0x2c,0x00,0x00,0x00,0x00,0x00,0x00,0x00,0x00,0x00,0xc6,0x9c,0x05,
 0x00,0x00,0x00,0x00,0x00,0x00,0x00,0x00,0x00,0x00,0x00,0x30,0x37,0x03,0x66,
 0x1a,0x19,0x6d,0x80,0x9b,0x9b,0xcd,0x18,0xc1,0xdc,0x02,0x6b,0x62,0x11,0xd8,
 0xc8,0x19,0xcd,0x20,0xb2,0x73,0x63,0x99,0x49,0x00,0xe6,0x16,0x80,0x99,0x2c,
 0x00,0x00,0x00,0x00,0x00,0x00,0x00,0x00,0x00,0xef,0xbf,0x07,0x00,0x00,0x00,
 0x00,0x00,0x00,0x00,0x00,0x00,0x00,0x00,0xe0,0xff,0x07,0xff,0xf7,0xf3,0xee,
 0x00,0xf1,0xbf,0x9f,0xf7,0x81,0xdf,0x03,0xff,0xf7,0x1f,0xbc,0x87,0xf0,0xde,
 0xe0,0xf3,0xfe,0xe7,0xfd,0xdf,0x07,0xfc,0x1e,0xc0,0xff,0x3d,0x00,0x00,0x00,
 0x00,0x00,0x00,0x00,0x00,0x00,0x00,0x00,0x00,0x00,0x00,0x00,0x00,0x00,0x00,
 0x00,0x00,0x00,0x00,0x00,0x00,0x00,0x00,0x00,0x00,0x00,0x00,0x00,0x00,0x00,
 0x00,0x00,0x00,0x00,0x00,0x00,0x00,0x00,0x00,0x00,0x00,0x80,0x00,0x00,0x00,
 0x00,0x00,0x60,0x0c,0x00,0x00,0x00,0x00,0x00,0x00,0x00,0x00,0x00,0x00,0x00,
 0x00,0x00,0x00,0x00,0x00,0x00,0x00,0x00,0x00,0x00,0x00,0x00,0x00,0x00,0x00,
 0x00,0x00,0x00,0x00,0x00,0x00,0x00,0x00,0x00,0x00,0x00,0x00,0x00,0x00,0x00,
 0x00,0x00,0x00,0x00,0x00,0x00,0x00,0x00,0x80,0x00,0x00,0x00,0x00,0x00,0x60,
 0x0c,0x00,0x00,0x00,0x00,0x00,0x00,0x00,0x00,0x00,0x00,0x00,0x00,0x00,0x00,
 0x00,0x00,0x00,0x00,0x00,0x00,0x00,0x00,0x00,0x00,0x00,0x00,0x00,0x00,0x00,
 0x00,0x00,0x00,0x00,0x00,0x00,0x00,0x00,0x00,0x00,0x00,0x00,0x00,0x00,0x00,
 0x00,0x00,0x00,0x00,0x00,0x40,0x00,0x00,0x00,0x00,0x00,0xc0,0x07,0x00,0x00,
 0x00,0x00,0x00,0x00,0x00,0x00,0x00,0x00,0x00,0x00,0x00,0x00,0x00,0x00,0x00,
 0x00,0x00,0x00,0x00,0x00,0x00,0x00,0x00,0x00,0x00,0x00,0x00,0x00,0x00,0x00,
 0x00,0x00,0x00,0x00,0x00,0x00,0x00,0x00,0x00,0x00,0x00,0x00,0x00,0x00,0x00,
 0x00,0x00,0x00,0x00,0x00,0x00,0x00,0x00,0x00,0x00,0x00,0x00,0x00,0x00,0x00,
 0x00,0x00,0x00,0x00,0x00,0x00,0x00,0x00,0x00,0x00,0x00,0x00,0x00,0x00,0x00,
 0x00,0x00,0x00,0x00,0x00,0x00,0x00,0x00,0x00,0x00,0x00,0x00,0x00,0x00,0x00,
 0x00,0x00,0x00,0x00,0x00,0x00,0x00,0x00,0x00,0x00,0x00,0x00,0x00,0x00,0x00,
 0x00,0x00,0x00,0x00,0x00,0x00,0x00,0x00,0x00,0x00,0x00,0x00,0x00,0x00,0x00,
 0x00,0x00,0x00,0x00,0x00,0x00,0x00,0x00,0x00,0x00,0x00,0x00,0x00,0x00,0x00,
 0x00,0x00,0x00,0x00,0x00,0x00,0x00,0x00,0x00,0x00,0x00,0x00,0x00,0x00,0x00,
 0x00,0x00,0x00,0x00,0x00,0x00,0x00,0x00,0x00,0x00,0x00,0x00,0x00,0x00,0x00,
 0x00,0x00,0x00,0x00,0x00,0x00,0x00,0x00,0x00,0x00,0x00,0x00,0x00,0x00,0x00,
 0x00,0x00,0x00,0x00,0x00,0x00,0x00,0x00,0x00,0x00,0xe0,0x00,0x00,0x00,0x00,
 0x07,0x00,0x00,0x00,0x00,0x00,0x00,0x00,0x00,0x00,0x00,0x00,0x00,0x00,0x00,
 0x00,0x00,0x00,0x00,0x00,0x00,0x00,0x00,0x00,0x00,0x00,0x00,0x00,0x00,0x00,
 0x00,0x00,0x00,0x00,0x00,0x00,0x00,0x00,0x80,0x00,0x00,0x00,0x00,0x40,0x00,
 0x06,0x00,0x00,0x00,0x0c,0x00,0x00,0xe0,0xc0,0x00,0x00,0x00,0x07,0x00,0x60,
 0x00,0x30,0x00,0x00,0x00,0x80,0x03,0x00,0x00,0x20,0x03,0x00,0x84,0x01,0x70,
 0x00,0x00,0x00,0x80,0x03,0x20,0x03,0x00,0x86,0x81,0x03,0x00,0x00,0x00,0x00,
 0x00,0x32,0x00,0xc0,0x31,0x40,0x30,0x3c,0x00,0x00,0x84,0x00,0x06,0x00,0xc1,
 0x01,0x0c,0x00,0xc1,0x2f,0xc0,0x00,0x10,0x3e,0x04,0x00,0x60,0x00,0x20,0x00,
 0x00,0x00,0x00,0x03,0x00,0x00,0x10,0x03,0x10,0x87,0x01,0x62,0x00,0x00,0x00,
 0x00,0x03,0x10,0x03,0x10,0x9b,0x01,0x03,0x00,0x00,0x02,0x00,0x00,0x31,0x00,
 0x61,0x33,0x60,0x20,0x36,0x02,0x00,0x87,0x01,0x00,0x00,0xe1,0x01,0x00,0x00,
 0xe1,0x2e,0x00,0x00,0x10,0x76,0x04,0x00,0x00,0x00,0x20,0x00,0x00,0x00,0x00,
 0x03,0x00,0x00,0x10,0x00,0x18,0x04,0x01,0x63,0x00,0x00,0x00,0x00,0x03,0x10,
 0x00,0x98,0x1b,0x01,0x03,0x00,0x00,0x03,0x00,0x00,0x01,0x80,0x61,0x23,0x20,
 0x20,0x26,0x03,0x00,0x04,0x01,0x00,0x80,0x81,0x01,0x00,0x80,0xe1,0x2c,0x00,
 0x00,0x18,0x76,0x04,0x00,0x00,0x00,0x20,0x00,0x00,0x00,0x00,0x03,0x00,0x00,
 0x30,0x00,0x18,0x84,0x01,0x63,0x00,0x00,0x00,0x20,0x03,0x30,0x00,0x98,0x93,
 0x01,0x03,0x00,0x00,0x03,0x00,0x00,0x03,0x80,0x61,0x33,0x30,0x20,0x26,0x03,
 0x00,0x04,0x03,0xe7,0xcf,0x87,0x01,0xce,0xdf,0x07,0x2c,0xec,0xfc,0x7d,0x70,
 0x04,0x00,0x70,0x3f,0x3e,0xde,0x1d,0xdc,0x1f,0xbb,0xf1,0x3e,0xb0,0xfb,0x3d,
 0x84,0x80,0xe7,0xf3,0x7d,0x37,0x7e,0x1f,0xb0,0xfb,0x3d,0x98,0x00,0xdf,0x1d,
 0xfc,0xe7,0xfd,0x00,0xbb,0xdf,0x83,0x11,0x30,0x3e,0xbf,0xc7,0x7f,0x04,0x03,
 0xc6,0x9d,0x81,0x01,0x8c,0xbb,0x01,0x2e,0xcc,0xb8,0x1b,0x7c,0x04,0x00,0x60,
 0x26,0x23,0xb3,0x07,0x98,0x36,0x33,0x99,0x27,0x00,0x33,0x19,0x04,0x00,0x63,
 0xe2,0x47,0x26,0x13,0x13,0x00,0x33,0x19,0x18,0x00,0xb3,0x09,0x4c,0x33,0x9b,
 0x01,0x30,0x93,0xc1,0x03,0x30,0x23,0x26,0xe3,0x7f,0x04,0x03,0xc6,0x9c,0x81,
 0xf1,0x8d,0xb9,0x01,0x23,0xc0,0x98,0x1b,0x60,0x04,0x00,0x60,0x26,0x23,0x3f,
 0x07,0xd8,0x3c,0x33,0xf9,0x1f,0x00,0x33,0x19,0x04,0x00,0x63,0x62,0xc6,0x26,
 0x13,0x13,0x00,0x33,0x19,0x0c,0x00,0xa3,0x0d,0x3c,0xf3,0x1b,0x01,0x30,0x93,
 0x01,0x03,0x30,0x23,0x26,0x03,0x00,0x04,0x03,0xc6,0x9c,0x85,0xf1,0x8d,0xb9,
 0x85,0x29,0xc0,0x98,0x5b,0x67,0x04,0x00,0x60,0x26,0x23,0x03,0x07,0x70,0x36,
 0x33,0x19,0x3e,0x00,0x33,0x59,0x04,0x00,0x6b,0x62,0xc6,0x26,0x1e,0x13,0x00,
 0x33,0x59,0x16,0x00,0x23,0x07,0x7c,0x3b,0x18,0x01,0x30,0x93,0x75,0x03,0x30,
 0x23,0x26,0x0b,0x00,0x04,0x03,0xc6,0x9c,0x85,0x01,0x8c,0xb9,0xc5,0x2f,0xcc,
 0x98,0x5b,0x77,0x04,0x00,0x60,0x26,0x23,0xa3,0x0d,0x70,0x73,0xb3,0x19,0x23,
 0x00,0x33,0x59,0x04,0x00,0x6b,0x62,0x46,0x36,0x02,0x13,0x00,0x33,0x59,0x13,
 0x00,0x33,0x07,0x44,0x3b,0x9a,0x01,0x30,0x93,0x75,0x03,0x30,0x23,0x26,0xeb,
 0x7f,0x04,0x03,0xef,0xbf,0xe7,0x07,0xde,0xff,0xe7,0x2f,0xec,0xfd,0x7f,0x3e,
 0x04,0x00,0xf0,0x7f,0x7e,0xde,0x1d,0x20,0xfe,0xf7,0xf3,0x3e,0x80,0xff,0x7b,
 0x1f,0x00,0xff,0xf7,0x7c,0x7e,0xbe,0x3f,0x80,0xff,0xfb,0x1f,0x00,0x1f,0x02,
 0x7c,0xef,0xf9,0x00,0xf8,0xbf,0x67,0x03,0x30,0x7e,0x7f,0x0f,0x00,0x1f,0x03,
 0x00,0x00,0x00,0x00,0x00,0x00,0x00,0x20,0x00,0x00,0x00,0x00,0x04,0x00,0x00,
 0x00,0x00,0x00,0x00,0x00,0x00,0x00,0x00,0x00,0x00,0x00,0x00,0x00,0x00,0x00,
 0x00,0x00,0x00,0x63,0x00,0x00,0x00,0x00,0x00,0x00,0x00,0x02,0x00,0x00,0x18,
 0x00,0x00,0x00,0xc0,0x00,0x20,0x00,0x00,0x00,0x00,0x00,0x01,0x00,0x00,0x00,
 0x00,0x00,0x00,0x00,0x20,0x00,0x00,0x00,0x00,0x04,0x00,0x00,0x00,0x00,0x00,
 0x00,0x00,0x00,0x00,0x00,0x00,0x00,0x00,0x00,0x00,0x00,0x00,0x00,0x00,0x00,
 0x63,0x00,0x00,0x00,0x00,0x00,0x00,0xc0,0x03,0x00,0x00,0x18,0x00,0x00,0x00,
 0x00,0x00,0x60,0x00,0x00,0x00,0x00,0x80,0x01,0x00,0x00,0x00,0x00,0x00,0x00,
 0x00,0xe0,0x00,0x00,0x00,0x00,0x07,0x00,0x00,0x00,0x00,0x00,0x00,0x00,0x00,
 0x00,0x00,0x00,0x00,0x00,0x00,0x00,0x00,0x00,0x00,0x00,0x00,0x3e,0x00,0x00,
 0x00,0x00,0x00,0x00,0xc0,0x01,0x00,0x00,0x3c,0x00,0x00,0x00,0x00,0x00,0x60,
 0x00,0x00,0x00,0x00,0x80,0x01,0x00,0x00,0x00,0x00,0x00,0x00,0x00,0xe0,0x00,
 0x00,0x00,0x00,0x07,0x00,0x00,0x00,0x00,0x00,0x00,0x00,0x00,0x00,0x00,0x00,
 0x00,0x00,0x00,0x00,0x00,0x00,0x00,0x00,0x00,0x00,0x00,0x00,0x00,0x00,0x00,
 0x00,0x00,0x00,0x00,0x00,0x00,0x00,0x00,0x00,0x00,0x00,0xc0,0x00,0x00,0x00,
 0x00,0xc0,0x00,0x00,0x00,0x00,0x00,0x00,0x00,0x00,0x00,0x00,0x00,0x00,0x00,
 0x00,0x00,0x00,0x00,0x00,0x00,0x00,0x00,0x00,0x00,0x00,0x00,0x00,0x00,0x00,
 0x00,0x00,0x00,0x00,0x00,0x00,0x00,0x00,0x00,0x00,0x00,0x00,0x00,0x00,0x00,
 0x00,0x00,0x00,0x00,0x00,0x00,0x00,0x00,0x00,0x00,0x00,0x00,0x00,0x00,0x00,
 0x00,0x00,0x00,0x00,0x00,0x00,0x00,0x00,0x00,0x00,0x00,0x00,0x00,0x00,0x00,
 0x00,0x00,0x00,0x00,0x00,0x00,0x00,0x00,0x00,0x00,0x00,0x00,0x00,0x00,0x00,
 0x00,0x00,0x00,0x00,0x00,0x00,0x00,0x00,0x00,0x00,0x00,0x00,0x00,0x00,0x00,
 0x00,0x00,0x00,0x00,0x00,0x00,0x00,0x00,0x00,0x00,0x00,0x00,0x00,0x00,0x00,
 0x00,0x00,0x00,0x00,0x00,0x00,0x00,0x00,0x00,0x00,0x00,0x00,0x00,0x00,0x00,
 0x00,0x00,0x00,0x00,0x00,0x00,0x00,0x00,0x00,0x00,0x00,0x00,0x00,0x00,0x00,
 0x00,0x00,0x00,0x00,0x00,0x00,0x00,0x00,0x00,0x00,0x00,0x00,0x00,0x00,0x00,
 0x00,0x00,0x00,0x00,0x00,0x00,0x00,0x00,0x00,0x06,0x00,0x00,0x00,0x06,0x00,
 0x00,0x00,0x00,0x00,0x00,0x00,0x00,0x00,0x60,0x00,0x00,0x00,0x00,0x00,0x00,
 0x00,0x18,0x00,0x00,0x60,0x00,0x00,0x01,0x00,0x60,0x00,0xc0,0x01,0x00,0x00,
 0x00,0x00,0x00,0x00,0x00,0x00,0x00,0x00,0x00,0x00,0x00,0x00,0x00,0x00,0x00,
 0x00,0x00,0x00,0x00,0x00,0x00,0x06,0x00,0xc1,0x01,0x06,0x80,0xe0,0x03,0x00,
 0x00,0x00,0x00,0x00,0x00,0x60,0x00,0x04,0x00,0x00,0x00,0x20,0x00,0x10,0x00,
 0x00,0x60,0x00,0xc4,0x01,0x00,0x60,0x00,0x62,0x03,0x00,0x00,0x00,0x00,0x00,
 0x00,0x00,0x00,0x00,0x00,0x00,0x00,0x00,0x00,0x00,0x00,0x00,0x00,0x00,0x00,
 0x00,0x00,0x00,0x00,0x00,0xe1,0x01,0x00,0x80,0x60,0x07,0x00,0x00,0x00,0x00,
 0x00,0x00,0x00,0x00,0x06,0x00,0x00,0x00,0x30,0x00,0x10,0x00,0x00,0x00,0x00,
 0x06,0x01,0x00,0x00,0x00,0x63,0x03,0x00,0x00,0x00,0x00,0x00,0x00,0x00,0x00,
 0x00,0x00,0x00,0x00,0x00,0x00,0x00,0x00,0x00,0x00,0x00,0x00,0x00,0x00,0x00,
 0x00,0x80,0x81,0x01,0x00,0xc0,0x60,0x07,0x00,0x00,0x00,0x00,0x00,0x00,0x00,
 0x00,0x06,0x00,0x00,0x00,0x30,0x00,0x10,0x00,0x00,0x00,0x00,0x06,0x01,0x10,
 0x00,0x00,0x63,0x03,0x00,0x00,0x00,0x00,0x00,0x00,0x00,0x00,0x00,0x00,0x00,
 0x00,0x00,0x00,0x00,0x00,0x00,0x00,0x00,0x00,0x00,0x00,0x00,0xe7,0xcf,0x87,
 0x61,0xe7,0xef,0x03,0x07,0x00,0x00,0x00,0x00,0x00,0x00,0x70,0x3f,0xcf,0xfb,
 0x3f,0xdf,0x7b,0x3c,0x1f,0xf0,0x7c,0x70,0x3f,0x0f,0x01,0x10,0x76,0xbf,0x87,
 0x01,0x00,0x00,0x00,0x00,0x00,0x00,0x00,0x00,0x00,0x00,0x00,0x00,0x00,0x00,
 0x00,0x00,0x00,0x00,0x00,0x00,0x00,0x00,0x00,0xc6,0x9d,0x81,0x61,0xc6,0xdd,
 0xc0,0x07,0x00,0x00,0x00,0x00,0x00,0x00,0x60,0x26,0x66,0xf6,0x66,0x7e,0x36,
 0xe6,0x11,0xb0,0x4d,0x60,0x26,0x06,0x01,0x7c,0x66,0x26,0xc3,0x03,0x00,0x00,
 0x00,0x00,0x00,0x00,0x00,0x00,0x00,0x00,0x00,0x00,0x00,0x00,0x00,0x00,0x00,
 0x00,0x00,0x00,0x00,0x00,0x00,0xc6,0x9c,0x81,0x01,0xc6,0xdc,0x00,0x06,0x00,
 0x00,0x00,0x00,0x00,0x00,0x60,0x26,0xe6,0x37,0x46,0xe6,0x37,0xfe,0x11,0xe0,
 0x3d,0x60,0x26,0x06,0xf1,0x38,0x60,0x26,0x03,0x03,0x00,0x00,0x00,0x00,0x00,
 0x00,0x00,0x00,0x00,0x00,0x00,0x00,0x00,0x00,0x00,0x00,0x00,0x00,0x00,0x00,
 0x00,0x00,0x00,0xc6,0x9c,0x85,0x01,0xc6,0xdc,0x72,0x06,0x00,0x00,0x00,0x00,
 0x00,0x00,0x60,0x26,0x76,0x30,0x46,0x66,0xb0,0x86,0x11,0xb0,0x7d,0x60,0x26,
 0x16,0xf1,0x7c,0x60,0x26,0x7b,0x03,0x00,0x00,0x00,0x00,0x00,0x00,0x00,0x00,
 0x00,0x00,0x00,0x00,0x00,0x00,0x00,0x00,0x00,0x00,0x00,0x00,0x00,0x00,0x00,
 0xc6,0x9c,0x85,0x61,0xc6,0xdc,0x72,0x07,0x00,0x00,0x00,0x00,0x00,0x00,0x60,
 0x26,0x76,0x34,0x66,0x66,0xb4,0xc6,0x11,0x98,0x47,0x60,0x26,0x16,0x01,0x54,
 0x66,0x26,0x7b,0x03,0x00,0x00,0x00,0x00,0x00,0x00,0x00,0x00,0x00,0x00,0x00,
 0x00,0x00,0x00,0x00,0x00,0x00,0x00,0x00,0x00,0x00,0x00,0x00,0xef,0xbf,0xe7,
 0x67,0xef,0xff,0xe3,0x03,0x00,0x00,0x00,0x00,0x00,0x00,0xf0,0x7f,0xde,0x7b,
 0x3e,0xcf,0xf3,0x3c,0x3f,0xf0,0x7f,0xf0,0x7f,0xde,0x07,0x10,0xf6,0x7f,0x6f,
 0x03,0x00,0x00,0x00,0x00,0x00,0x00,0x00,0x00,0x00,0x00,0x00,0x00,0x00,0x00,
 0x00,0x00,0x00,0x00,0x00,0x00,0x00,0x00,0x00,0x00,0x00,0x00,0x00,0x00,0x00,
 0x00,0x00,0x00,0x00,0x00,0x00,0x00,0x00,0x00,0x00,0x00,0x00,0x06,0x00,0x00,
 0x00,0x00,0x00,0x00,0x00,0x00,0x00,0x00,0x00,0x00,0x00,0xc0,0x00,0x00,0x00,
 0x00,0x00,0x00,0x00,0x00,0x00,0x00,0x00,0x00,0x00,0x00,0x00,0x00,0x00,0x00,
 0x00,0x00,0x00,0x00,0x00,0x00,0x00,0x00,0x00,0x00,0x00,0x00,0x00,0x00,0x00,
 0x00,0x00,0x00,0x00,0x00,0x00,0x00,0x00,0x00,0x06,0x00,0x00,0x00,0x00,0x00,
 0x00,0x00,0x00,0x00,0x00,0x00,0x00,0x00,0x00,0x00,0x00,0x00,0x00,0x00,0x00,
 0x00,0x00,0x00,0x00,0x00,0x00,0x00,0x00,0x00,0x00,0x00,0x00,0x00,0x00,0x00,
 0x00,0x00,0x00,0x00,0x00,0x00,0x00,0x00,0x00,0x00,0x00,0x00,0x00,0x00,0x00,
 0x00,0x00,0x00,0x00,0x00,0x00,0x0f,0x00,0x00,0x00,0x00,0x00,0x00,0x00,0x00,
 0x00,0x00,0x00,0x00,0x00,0x00,0x00,0x00,0x00,0x00,0x00,0x00,0x00,0x00,0x00,
 0x00,0x00,0x00,0x00,0x00,0x00,0x00,0x00,0x00,0x00,0x00,0x00,0x00,0x00,0x00,
 0x00,0x00,0x00,0x00,0x00,0x00,0x00,0x00,0x00,0x00,0x00,0x00,0x00,0x00,0x00,
 0x00,0x00,0x00,0x00,0x00,0x00,0x00,0x00,0x00,0x00,0x00,0x00,0x00,0x00,0x00,
 0x00,0x00,0x00,0x00,0x00,0x00,0x00,0x00,0x00,0x00,0x00,0x00,0x00,0x00,0x00,
 0x00,0x00,0x00,0x00,0x00,0x00,0x00,0x00,0x00,0x00,0x00,0x00,0x00,0x00,0x00,
 0x00,0x00,0x00,0x00,0x00,0x00,0x00,0x00,0x00,0x00,0x00,0x00,0x00,0x00,0x00,
 0x00,0x00,0x00,0x00,0x00,0x00,0x00,0x00,0x00,0x00,0x00,0x00,0x00,0x00,0x00,
 0x00,0x00,0x00,0x00,0x00,0x00,0x00,0x00,0x00,0x00,0x00,0x00,0x00,0x00,0x00,
 0x00,0x00,0x00,0x00,0x00,0x00,0x00,0x00,0x00,0x00,0x00,0x00,0x00,0x00,0x00,
 0x00,0x00,0x00,0x00,0x00,0x00,0x00,0x00,0x00,0x00,0x00,0x00,0x00,0x00,0x00,
 0x00,0x00,0x00,0x00,0x00,0x00,0x00,0x00,0x00,0x00,0x00,0x00,0x00,0x00,0x00,
 0x00,0x00,0x00,0x08,0x00,0x00,0x00,0x00,0x00,0x08,0x00,0x00,0x00,0x00,0x00,
 0x00,0x00,0x00,0x00,0x00,0x00,0x00,0x00,0x80,0x01,0x00,0x00,0x3c,0x00,0x00,
 0x00,0x00,0x00,0x00,0x00,0x60,0x00,0x00,0x1c,0x00,0x00,0x00,0x06,0x03,0x73,
 0x00,0x00,0x03,0x00,0x00,0x00,0x00,0x00,0x00,0x60,0x00,0x00,0x00,0x00,0x00,
 0x04,0x00,0x00,0x00,0x00,0x00,0x10,0x00,0x00,0x00,0x00,0x00,0x00,0x00,0x00,
 0x00,0x00,0x00,0x00,0x00,0x80,0x11,0x08,0x00,0x38,0x00,0x00,0x00,0x00,0x00,
 0x00,0x00,0x60,0x00,0x40,0x18,0x00,0x00,0x00,0x06,0x02,0x62,0x00,0x00,0x03,
 0x10,0x00,0x00,0x00,0x00,0x01,0x40,0x00,0x00,0x00,0x00,0x00,0x06,0x00,0x00,
 0x00,0x00,0x00,0x30,0x00,0x00,0x00,0x00,0x00,0x00,0x00,0x00,0x00,0x00,0x00,
 0x00,0x00,0x00,0x10,0x08,0x00,0x38,0x00,0x00,0x00,0x00,0x00,0x00,0x00,0x00,
 0x00,0x60,0x18,0x00,0x00,0x00,0x00,0x02,0x62,0x00,0x00,0x00,0x18,0x00,0x00,
 0x00,0x80,0x01,0x40,0x00,0x00,0x00,0x00,0x00,0x02,0x00,0x00,0x00,0x00,0x00,
 0x20,0x00,0x00,0x00,0x00,0x00,0x00,0x00,0x00,0x00,0x00,0x00,0x00,0x00,0x00,
 0x18,0x0c,0x00,0x38,0x00,0x00,0x00,0x00,0x00,0x00,0x00,0x00,0x00,0x60,0x18,
 0x00,0x00,0x00,0x00,0x02,0x62,0x00,0x00,0x00,0x18,0x00,0x00,0x00,0x80,0x01,
 0x40,0x00,0x00,0x00,0x40,0x00,0x03,0x80,0xff,0x01,0x00,0x01,0x60,0x00,0x00,
 0x00,0x00,0x00,0x00,0x00,0x00,0x00,0x00,0x00,0x7e,0xff,0xcf,0x7d,0x3e,0x9f,
 0x3f,0x00,0x00,0x00,0x00,0x00,0x00,0x00,0x70,0x3f,0xf0,0xf8,0x3c,0xf0,0x3f,
 0xe7,0xe3,0x63,0x9e,0x81,0xfb,0x3d,0xde,0xff,0xf9,0xde,0xf3,0x7c,0x80,0xe7,
 0x03,0x40,0x00,0x03,0x00,0x00,0x00,0x00,0x01,0x60,0x00,0x00,0x00,0x00,0x00,
 0x00,0x00,0x00,0x00,0x00,0x00,0x67,0xee,0x8c,0x19,0x8c,0xb3,0x39,0x00,0x00,
 0x00,0x00,0x00,0x00,0x00,0x60,0x26,0x60,0x98,0x66,0x60,0x66,0x36,0x32,0x62,
 0xb3,0x01,0x33,0x19,0xb3,0x37,0xf3,0xb3,0x99,0x47,0x80,0x6d,0x02,0xf0,0x01,
 0x03,0x00,0x00,0x00,0xc0,0x07,0x60,0x00,0x00,0x00,0x00,0x00,0x00,0x00,0x00,
 0x00,0x00,0x00,0xe3,0xe6,0x8c,0x19,0x8c,0xff,0x39,0x00,0x00,0x00,0x00,0x00,
 0x00,0x00,0x60,0x26,0x60,0x98,0x7e,0x60,0x66,0x36,0x32,0x62,0x3f,0x00,0x33,
 0x19,0xbf,0x31,0x32,0xbf,0xf9,0x47,0x00,0xef,0x01,0xe0,0x00,0x03,0x80,0xff,
 0x01,0x80,0x03,0x60,0x00,0x00,0x00,0x00,0x00,0x00,0x00,0x00,0x00,0x00,0x00,
 0xe3,0xe6,0x8c,0x59,0xac,0xc1,0x39,0x00,0x00,0x00,0x00,0x00,0x00,0x00,0x60,
 0x26,0x60,0x99,0x06,0x60,0x66,0x36,0x32,0x62,0x03,0x00,0x33,0x59,0x83,0x31,
 0x32,0x83,0x1d,0x46,0x80,0xed,0x03,0xf0,0x01,0x03,0x00,0x00,0x00,0xc0,0x07,
 0x60,0x00,0x00,0x00,0x00,0x00,0x00,0x00,0x00,0x00,0x00,0x00,0x67,0xe6,0x8c,
 0x59,0xac,0xa3,0x39,0x00,0x00,0x00,0x00,0x00,0x00,0x00,0x60,0x26,0x60,0x99,
 0x46,0x60,0x66,0x36,0x32,0x62,0xa3,0x01,0x33,0x59,0xa3,0x31,0x33,0xa3,0x1d,
 0x47,0xc0,0x3c,0x02,0x53,0x01,0x63,0x06,0x00,0x80,0x41,0x05,0x63,0x00,0x00,
 0x00,0x00,0x00,0x00,0x00,0x00,0x00,0x00,0x00,0x7e,0xff,0xdf,0x7b,0x3c,0xbf,
 0x7f,0x00,0x00,0x00,0x00,0x00,0x00,0x00,0xf0,0x7f,0xe0,0xfd,0x3d,0xf0,0xff,
 0xef,0xe7,0xf7,0x9e,0x81,0xff,0x7b,0xde,0xf3,0x79,0x9e,0xf7,0xfc,0x80,0xff,
 0x03,0x43,0x00,0x63,0x86,0xff,0x81,0x01,0x01,0x63,0x00,0x00,0x00,0x00,0x00,
 0x00,0x00,0x00,0x00,0x00,0x00,0x00,0x00,0x00,0x00,0x00,0x00,0x00,0x00,0x00,
 0x00,0x00,0x00,0x00,0x00,0x00,0x00,0x00,0x00,0x00,0x00,0x00,0x00,0x00,0x00,
 0x00,0x00,0x00,0x00,0x00,0x30,0x00,0x00,0x00,0x00,0x00,0x00,0x00,0x00,0x00,
 0x02,0x00,0x00,0x00,0x00,0x00,0x20,0x00,0x00,0x00,0x00,0x00,0x00,0x00,0x00,
 0x00,0x00,0x00,0x00,0x00,0x00,0x00,0x00,0x00,0x00,0x00,0x00,0x00,0x00,0x00,
 0x00,0x00,0x00,0x00,0x00,0x00,0x00,0x00,0x00,0x00,0x00,0x00,0x00,0x00,0x00,
 0x00,0x00,0x30,0x00,0x00,0x00,0x00,0x00,0x00,0x00,0x00,0x00,0x06,0x00,0x00,
 0x00,0x00,0x00,0x30,0x00,0x00,0x00,0x00,0x00,0x00,0x00,0x00,0x00,0x00,0x00,
 0x00,0x00,0x00,0x00,0x00,0x00,0x00,0x00,0x00,0x00,0x00,0x00,0x00,0x00,0x00,
 0x00,0x00,0x00,0x00,0x00,0x00,0x00,0x00,0x00,0x00,0x00,0x00,0x00,0x00,0x78,
 0x00,0x00,0x00,0x00,0x00,0x00,0x00,0x00,0x00,0x06,0x00,0x00,0x00,0x00,0x00,
 0x30,0x00,0x00,0x00,0x00,0x00,0x00,0x00,0x00,0x00,0x00,0x00,0x00,0x00,0x00,
 0x00,0x00,0x00,0x00,0x00,0x00,0x00,0x00,0x00,0x00,0x00,0x00,0x00,0x00,0x00,
 0x00,0x00,0x00,0x00,0x00,0x00,0x00,0x00,0x00,0x00,0x00,0x00,0x00,0x00,0x00,
 0x00,0x00,0x00,0x00,0x00,0x00,0x0c,0x00,0x00,0x00,0x00,0x00,0x18,0x00,0x00,
 0x00,0x00,0x00,0x00,0x00,0x00,0x00,0x00,0x00,0x00,0x00,0x00,0x00,0x00,0x00,
 0x00,0x00,0x00,0x00,0x00,0x00,0x00,0x00,0x00,0x00,0x00,0x00,0x00,0x00,0x00,
 0x00,0x00,0x00,0x00,0x00,0x00,0x00,0x00,0x00,0x00,0x00,0x00,0x00,0x00,0x00,
 0x00,0x00,0x00,0x00,0x00,0x00,0x00,0x00,0x00,0x00,0x00,0x00,0x00,0x00,0x00,
 0x00,0x00,0x00,0x00,0x00,0x00,0x00,0x00,0x00,0x00,0x00,0x00,0x00,0x00,0x00,
 0x00,0x00,0x00,0x00,0x00,0x00,0x00,0x00,0x00,0x00,0x00,0x00,0x00,0x00,0x00,
 0x00,0x00,0x00,0x00,0x00,0x00,0x00,0x00,0x00,0x00,0x00,0x00,0x00,0x00,0x00,
 0x00,0x00,0x00,0x00,0x00,0x00,0x00,0x00,0x00,0x00,0x00,0x00,0x00,0x00,0x00,
 0x00,0x00,0x00,0x00,0x00,0x00,0x00,0x00,0x00,0x00,0x00,0x00,0x00,0x00,0x00,
 0x00,0x00,0x00,0x00,0x00,0x00,0x00,0x00,0x00,0x00,0x00,0x00,0x00,0x00,0x00,
 0x00,0x00,0x00,0x00,0x00,0x00,0x00,0x00,0x00,0x00,0x01,0x00,0x00,0x00,0x00,
 0x00,0x00,0x00,0x00,0x00,0x00,0x00,0x00,0x00,0x04,0x00,0x00,0x00,0x00,0x00,
 0x00,0x00,0x80,0x01,0x00,0x00,0x3c,0x00,0x00,0x00,0x00,0x00,0x00,0x00,0x00,
 0x00,0x00,0x38,0x00,0x00,0x00,0x80,0x01,0xc0,0x00,0x00,0x00,0x00,0x00,0x00,
 0x00,0x18,0x00,0x00,0x00,0x00,0x80,0x00,0x18,0x00,0x00,0x00,0x00,0x00,0x00,
 0x03,0x00,0x00,0x00,0x00,0x00,0x08,0x00,0x00,0x00,0x00,0x00,0x00,0x00,0x80,
 0x11,0x08,0x00,0x38,0x00,0x00,0x00,0x00,0x00,0x00,0x00,0x00,0x20,0x80,0x30,
 0x00,0x00,0x00,0x00,0x01,0xc0,0x00,0x04,0x00,0x00,0x00,0x40,0x00,0x10,0x00,
 0x00,0x00,0x00,0xc0,0x00,0x6c,0x00,0x00,0x00,0x00,0x00,0x80,0x0d,0x00,0x00,
 0x00,0x00,0x00,0x18,0x00,0x00,0x00,0x00,0x00,0x00,0x00,0x00,0x10,0x08,0x00,
 0x38,0x00,0x00,0x00,0x00,0x00,0x00,0x00,0x00,0x30,0xc0,0x30,0x00,0x00,0x00,
 0x00,0x01,0x00,0x00,0x06,0x00,0x00,0x00,0x60,0x00,0x10,0x00,0x00,0x00,0x00,
 0x40,0x00,0x6e,0x00,0x00,0x00,0x00,0x00,0xc0,0x0d,0x00,0x00,0x00,0x00,0x00,
 0x10,0x00,0x00,0x00,0x00,0x00,0x00,0x00,0x00,0x18,0x0c,0x00,0x38,0x00,0x00,
 0x00,0x00,0x00,0x00,0x00,0x00,0x30,0xc0,0x30,0x00,0x00,0x00,0x00,0x01,0x00,
 0x00,0x06,0x00,0x00,0x00,0x60,0x00,0x10,0x00,0x00,0x00,0x10,0x60,0x00,0x4e,
 0xf0,0x3f,0x40,0x00,0x08,0xc0,0x09,0x80,0x00,0x00,0x01,0x40,0x30,0x00,0x00,
 0x00,0x00,0x00,0x7e,0xff,0xcf,0x7d,0x3e,0x9f,0x3f,0x00,0x00,0x00,0x00,0x00,
 0x00,0x00,0xe0,0x79,0xe0,0xf1,0x79,0xc0,0xfb,0xf1,0x19,0xe0,0x7e,0xcf,0xfb,
 0x7e,0x9f,0xf7,0x3c,0x1f,0xe0,0xf9,0x00,0x10,0x60,0x00,0x60,0x00,0x00,0x40,
 0x00,0x08,0x00,0x0c,0x80,0x00,0x00,0x01,0x40,0x30,0x00,0x00,0x00,0x00,0x00,
 0x67,0xee,0x8c,0x19,0x8c,0xb3,0x39,0x00,0x00,0x00,0x00,0x00,0x00,0x00,0x60,
 0x33,0xc0,0x30,0xcd,0x60,0x36,0x19,0x19,0xc0,0x4c,0x66,0xf6,0xcc,0xde,0x6c,
 0xe6,0x11,0x60,0x9b,0x00,0x7c,0x60,0x00,0x60,0x00,0x00,0xf0,0x01,0x3e,0x00,
 0x0c,0xe0,0x03,0xc0,0x07,0xf0,0x31,0x00,0x00,0x00,0x00,0x00,0xe3,0xe6,0x8c,
 0x19,0x8c,0xff,0x39,0x00,0x00,0x00,0x00,0x00,0x00,0x00,0xc0,0x33,0xc0,0x30,
 0xfd,0xe0,0x37,0x19,0x01,0xc0,0x4c,0xe6,0x37,0x8c,0xc6,0x6f,0xfe,0x11,0xc0,
 0x7b,0x00,0x38,0x60,0x00,0x30,0xf0,0x3f,0xe0,0x00,0x1c,0x00,0x06,0xc0,0x01,
 0x80,0x03,0xe0,0x30,0x00,0x00,0x00,0x00,0x00,0xe3,0xe6,0x8c,0x59,0xac,0xc1,
 0x39,0x00,0x00,0x00,0x00,0x00,0x00,0x00,0x60,0xb3,0xc0,0x32,0x0d,0x60,0x30,
 0x19,0x01,0xc0,0x4c,0x76,0x30,0x8c,0xc6,0x60,0x87,0x11,0x60,0xfb,0x00,0x7c,
 0x60,0x00,0x58,0x00,0x00,0xf0,0x01,0x3e,0x00,0x0b,0xe0,0x03,0xc0,0x07,0xf0,
 0x31,0x00,0x00,0x00,0x00,0x00,0x67,0xe6,0x8c,0x59,0xac,0xa3,0x39,0x00,0x00,
 0x00,0x00,0x00,0x00,0x00,0x30,0xb7,0xc0,0x32,0x8d,0x60,0x34,0x19,0x19,0xc0,
 0x4c,0x76,0x34,0xcc,0xc6,0x68,0xc7,0x11,0x30,0x8f,0xc0,0x54,0x60,0xcc,0x4c,
 0x00,0x00,0x50,0x19,0x2a,0x98,0xc9,0xa0,0x82,0x41,0x05,0x53,0x31,0x00,0x00,
 0x00,0x00,0x00,0x7e,0xff,0xdf,0x7b,0x3c,0xbf,0x7f,0x00,0x00,0x00,0x00,0x00,
 0x00,0x00,0xe0,0xf7,0xc0,0xfb,0x7b,0xc0,0xfb,0xf3,0x1b,0xe0,0xff,0xde,0x7b,
 0x7c,0x8f,0xe7,0x3d,0x3f,0xe0,0xff,0xc0,0x10,0x60,0xcc,0x7e,0xf0,0x3f,0x40,
 0x18,0x08,0xd8,0xcf,0x80,0x80,0x01,0x01,0x43,0x30,0x00,0x00,0x00,0x00,0x00,
 0x00,0x00,0x00,0x00,0x00,0x00,0x00,0x00,0x00,0x00,0x00,0x00,0x00,0x00,0x00,
 0x00,0x00,0x00,0x00,0x00,0x00,0x00,0x00,0x00,0x00,0x00,0x00,0x0c,0x00,0x00,
 0x00,0x00,0x00,0x00,0x00,0x00,0x40,0x00,0x00,0x00,0x00,0x00,0x00,0x00,0x00,
 0x00,0x00,0x00,0x00,0x00,0x00,0x10,0x00,0x00,0x00,0x00,0x00,0x00,0x00,0x00,
 0x00,0x00,0x00,0x00,0x00,0x00,0x00,0x00,0x00,0x00,0x00,0x00,0x00,0x00,0x00,
 0x00,0x00,0x00,0x00,0x00,0x00,0x00,0x00,0x00,0x0c,0x00,0x00,0x00,0x00,0x00,
 0x00,0x00,0x00,0xc0,0x00,0x00,0x00,0x00,0x00,0x00,0x00,0x00,0x00,0x00,0x00,
 0x00,0x00,0x00,0x18,0x00,0x00,0x00,0x00,0x00,0x00,0x00,0x00,0x00,0x00,0x00,
 0x00,0x00,0x00,0x00,0x00,0x00,0x00,0x00,0x00,0x00,0x00,0x00,0x00,0x00,0x00,
 0x00,0x00,0x00,0x00,0x00,0x00,0x1e,0x00,0x00,0x00,0x00,0x00,0x00,0x00,0x00,
 0xc0,0x00,0x00,0x00,0x00,0x00,0x00,0x00,0x00,0x00,0x00,0x00,0x00,0x00,0x00,
 0x18,0x00,0x00,0x00,0x00,0x00,0x00,0x00,0x00,0x00,0x00,0x00,0x00,0x00,0x00,
 0x00,0x00,0x00,0x00,0x00,0x00,0x00,0x00,0x00,0x00,0x00,0x00,0x00,0x00,0x00,
 0x00,0x00,0x00,0x00,0x00,0x00,0x00,0x00,0x00,0x00,0x00,0x00,0x80,0x01,0x00,
 0x00,0x00,0x00,0x00,0x00,0x00,0x00,0x00,0x00,0x00,0x00,0x00,0x0c,0x00,0x00,
 0x00,0x00,0x00};
