#define noname_width 193
#define noname_height 27
static char noname_bits[] = {
 0xff,0xff,0xff,0xff,0xff,0xff,0xff,0xff,0xff,0xff,0xff,0xff,0xff,0xff,0xff,
 0xff,0xff,0xff,0xff,0xff,0xff,0xff,0xff,0xff,0x01,0x01,0x00,0x00,0x00,0x00,
 0x00,0x00,0x00,0x00,0x00,0x00,0x00,0x00,0x00,0x00,0x00,0x00,0x00,0x00,0x00,
 0x00,0x00,0x00,0x00,0x01,0x01,0x00,0x00,0x00,0x00,0x00,0x00,0x00,0x00,0x00,
 0x00,0x00,0x00,0x00,0x00,0x00,0x00,0x00,0x00,0x00,0x00,0x00,0x00,0x00,0x01,
 0x01,0x00,0x00,0x00,0x00,0x00,0x00,0x00,0x00,0x00,0x00,0x00,0x00,0x00,0x00,
 0x00,0x00,0x00,0x00,0x00,0x00,0x00,0x00,0x00,0x01,0x01,0x00,0x00,0x00,0x00,
 0x00,0x00,0x00,0x00,0x00,0x00,0x00,0x00,0x00,0x00,0x00,0x00,0x00,0x00,0x00,
 0x00,0x00,0x00,0x00,0x01,0x01,0x00,0x00,0x20,0x00,0x01,0x00,0x00,0x00,0x00,
 0x00,0x00,0x00,0x00,0x00,0x00,0x00,0x00,0x00,0x00,0x00,0x00,0x00,0x00,0x01,
 0x01,0x00,0x00,0x30,0x0e,0x03,0x00,0x0e,0x0c,0x00,0x80,0x81,0xc1,0x01,0x00,
 0x00,0x00,0x0e,0x08,0xc0,0x00,0x00,0xc0,0x01,0x01,0x01,0x00,0x00,0x18,0x1f,
 0x06,0x00,0x1f,0x9f,0x3f,0xe0,0xe3,0xe3,0xf3,0x07,0x00,0x1c,0x1f,0x0f,0xf0,
 0xf9,0xf3,0xe3,0x01,0x01,0x01,0x30,0x00,0x18,0x31,0x06,0x00,0x31,0x33,0x30,
 0x60,0x66,0x66,0x06,0x06,0x00,0x1c,0x33,0x0f,0x30,0x03,0x33,0x70,0x00,0x01,
 0x01,0x30,0x00,0x8c,0x31,0x0c,0x80,0x31,0x33,0x38,0x70,0x66,0x26,0x06,0x07,
 0x00,0x1e,0x31,0x0c,0x38,0x83,0x33,0x30,0x00,0x01,0xc1,0xfa,0x7c,0x0c,0x31,
 0x0c,0x00,0x31,0x33,0x18,0x30,0x66,0x06,0x06,0x03,0x00,0x1e,0x30,0x0c,0x18,
 0x83,0x31,0xf8,0x01,0x01,0xc1,0xfb,0xfc,0x0c,0x30,0x0c,0x00,0x30,0x1f,0x0c,
 0x30,0xe6,0xc3,0x83,0x01,0x00,0x1b,0x1e,0x0c,0x18,0xc3,0xf0,0xf9,0x03,0x01,
 0xc1,0x31,0xcc,0x0c,0x38,0x0c,0x00,0x38,0x1f,0x0c,0x60,0xe6,0xc3,0x83,0x01,
 0x00,0x1b,0x1e,0x0c,0x30,0xc3,0xf0,0x3b,0x03,0x01,0xc1,0x30,0xcc,0x0d,0x1c,
 0x0c,0x00,0x1c,0x33,0x0c,0xe0,0x67,0x06,0x86,0x01,0x80,0x19,0x30,0x0c,0xf0,
 0xc3,0x30,0x1b,0x03,0x01,0xc1,0x30,0x8c,0x0d,0x0c,0x0c,0x00,0x8c,0x31,0x06,
 0xc0,0x37,0x06,0xc6,0x00,0x80,0x7f,0x30,0x0c,0xe0,0x63,0x00,0x1b,0x03,0x01,
 0xc1,0x30,0xcc,0x0d,0x06,0x0c,0x00,0x86,0x31,0x06,0x00,0x36,0x16,0xc6,0x00,
 0x00,0x98,0x30,0x0c,0x00,0x63,0x10,0x33,0x03,0x01,0xc1,0xb0,0xfc,0x0c,0x03,
 0x8c,0x01,0x03,0x33,0x06,0x23,0x63,0x36,0xc6,0x60,0x00,0x98,0x31,0x0c,0x93,
 0x61,0x18,0x33,0x03,0x01,0xc1,0xf0,0xfc,0x8c,0x3f,0x8c,0x81,0x3f,0x3f,0x06,
 0xe3,0xe3,0xe7,0xc7,0x60,0x00,0x18,0x3f,0x3f,0xf3,0x61,0xf0,0xf1,0x01,0x01,
 0x01,0x00,0x0c,0x0c,0x00,0x0c,0x01,0x00,0x0c,0x00,0xc0,0x80,0xc1,0x01,0x40,
 0x00,0x00,0x0e,0x00,0x60,0x00,0xe0,0xc0,0x00,0x01,0x01,0x00,0x0c,0x18,0x00,
 0x86,0x01,0x00,0x00,0x00,0x00,0x00,0x00,0x00,0x60,0x00,0x00,0x00,0x00,0x00,
 0x00,0x00,0x00,0x00,0x01,0x01,0x00,0x0c,0x18,0x00,0x06,0x00,0x00,0x00,0x00,
 0x00,0x00,0x00,0x00,0x00,0x00,0x00,0x00,0x00,0x00,0x00,0x00,0x00,0x00,0x01,
 0x01,0x00,0x0c,0x30,0x00,0x03,0x00,0x00,0x00,0x00,0x00,0x00,0x00,0x00,0x00,
 0x00,0x00,0x00,0x00,0x00,0x00,0x00,0x00,0x00,0x01,0x01,0x00,0x00,0x20,0x00,
 0x01,0x00,0x00,0x00,0x00,0x00,0x00,0x00,0x00,0x00,0x00,0x00,0x00,0x00,0x00,
 0x00,0x00,0x00,0x00,0x01,0x01,0x00,0x00,0x00,0x00,0x00,0x00,0x00,0x00,0x00,
 0x00,0x00,0x00,0x00,0x00,0x00,0x00,0x00,0x00,0x00,0x00,0x00,0x00,0x00,0x01,
 0x01,0x00,0x00,0x00,0x00,0x00,0x00,0x00,0x00,0x00,0x00,0x00,0x00,0x00,0x00,
 0x00,0x00,0x00,0x00,0x00,0x00,0x00,0x00,0x00,0x01,0x01,0x00,0x00,0x00,0x00,
 0x00,0x00,0x00,0x00,0x00,0x00,0x00,0x00,0x00,0x00,0x00,0x00,0x00,0x00,0x00,
 0x00,0x00,0x00,0x00,0x01,0xff,0xff,0xff,0xff,0xff,0xff,0xff,0xff,0xff,0xff,
 0xff,0xff,0xff,0xff,0xff,0xff,0xff,0xff,0xff,0xff,0xff,0xff,0xff,0xff,0x01};
