#define noname_width 432
#define noname_height 99
static char noname_bits[] = {
 0x00,0x00,0x00,0x00,0x00,0x00,0x00,0x00,0x00,0x00,0x00,0x00,0x00,0x00,0x00,
 0x00,0x00,0x00,0x00,0x00,0x00,0x00,0x00,0x00,0x00,0x00,0x00,0x00,0x00,0x00,
 0x00,0x00,0x00,0x00,0x40,0x00,0x00,0x00,0x00,0x00,0x00,0x00,0x00,0x00,0x00,
 0x00,0x00,0x00,0x00,0x00,0x00,0x00,0x00,0x00,0x00,0x00,0x00,0x00,0x00,0x00,
 0x00,0x00,0x00,0x00,0x00,0x00,0x00,0x00,0x00,0x00,0x00,0x00,0x00,0x00,0x00,
 0x00,0x00,0x00,0x40,0x00,0x00,0x00,0x00,0x00,0x00,0x00,0x00,0x00,0x60,0x00,
 0x00,0x00,0x00,0x00,0x00,0x00,0x00,0x00,0x00,0x00,0x00,0x00,0x00,0x00,0x00,
 0x00,0x00,0x00,0x00,0xe0,0x00,0x00,0x00,0x00,0x0c,0x00,0x00,0x00,0x0e,0x00,
 0x80,0x01,0x38,0x00,0x70,0x00,0x00,0x8c,0x01,0x80,0x03,0x00,0x40,0x00,0xc0,
 0x01,0x00,0xe0,0x00,0x00,0x00,0x00,0x40,0x00,0x00,0x00,0x00,0x00,0x00,0x00,
 0x00,0x00,0x00,0x00,0x00,0x00,0x00,0x00,0x00,0x00,0x00,0x00,0x00,0xc0,0x00,
 0x00,0x00,0x00,0x36,0x00,0x00,0x20,0x0c,0x00,0x00,0x01,0x3c,0x00,0x60,0x04,
 0x00,0x88,0x01,0x00,0x03,0x00,0x60,0x00,0x80,0x01,0x00,0xf0,0x00,0x00,0x00,
 0x00,0x42,0x00,0x00,0x00,0x00,0x00,0x00,0x00,0x00,0x00,0x00,0x00,0x00,0x00,
 0x00,0x00,0x00,0x00,0x00,0x00,0x00,0xc0,0x00,0x00,0x00,0x00,0x37,0x00,0x00,
 0x30,0x0c,0x00,0x00,0x01,0x0c,0x00,0x60,0x06,0x00,0x08,0x00,0x00,0x03,0x00,
 0x60,0x00,0x80,0x01,0x00,0x30,0x00,0x00,0x00,0x00,0x43,0x00,0x00,0x00,0x00,
 0x00,0x00,0x00,0x00,0x00,0x00,0x00,0x00,0x00,0x00,0x00,0x00,0x00,0x00,0x00,
 0x00,0xc0,0x00,0x00,0x00,0x00,0x27,0x00,0x00,0x30,0x0c,0x00,0x00,0x01,0x0c,
 0x00,0x60,0x06,0x00,0x08,0x00,0x00,0x03,0x00,0x20,0x00,0x80,0x01,0x00,0x30,
 0x00,0x00,0x00,0x00,0x43,0x00,0x00,0x00,0x00,0x00,0x00,0x00,0x00,0x00,0x00,
 0x00,0x00,0x00,0x00,0x00,0x00,0x00,0x00,0x00,0xbe,0xcf,0x6e,0xff,0xf3,0x03,
 0x30,0x03,0x00,0x78,0x7c,0x1e,0xf0,0xf1,0xde,0x73,0x63,0x0f,0x80,0xcf,0xfd,
 0x1f,0xf3,0xdc,0x31,0x77,0x8f,0xdd,0x3c,0x78,0xbe,0xff,0x3f,0x9e,0xe7,0x01,
 0x00,0x00,0x00,0x00,0x00,0x00,0x00,0x00,0x00,0x00,0x00,0x00,0x00,0x00,0x00,
 0x00,0x00,0x00,0xf3,0xc8,0x4c,0x66,0x66,0x02,0x30,0x03,0x00,0x30,0x4c,0x33,
 0x18,0x99,0xcd,0x66,0x62,0x06,0xc0,0x88,0x4d,0x33,0xb3,0x99,0x10,0x26,0x9b,
 0x99,0x66,0x30,0x23,0x6f,0x66,0x36,0x03,0x00,0x00,0x00,0x00,0x00,0x00,0x00,
 0x00,0x00,0x00,0x00,0x00,0x00,0x00,0x00,0x00,0x00,0x00,0x00,0xc3,0xd8,0x4c,
 0x66,0x66,0x02,0x18,0x00,0x00,0x30,0x4c,0x3f,0x18,0xf9,0x8d,0x67,0x62,0x06,
 0xc0,0x88,0x3d,0x23,0xe3,0xd9,0x10,0x36,0x9e,0x99,0x7e,0x30,0x63,0x63,0x66,
 0x3c,0x03,0x00,0x00,0x00,0x00,0x00,0x00,0x00,0x00,0x00,0x00,0x00,0x00,0x00,
 0x00,0x00,0x00,0x00,0x00,0x00,0xc3,0xd8,0x4c,0x66,0x66,0x02,0x2c,0x00,0x00,
 0xb0,0x4c,0x03,0x18,0x19,0xcc,0x66,0x62,0x16,0xc0,0x88,0x7d,0x23,0xb3,0x71,
 0x18,0x1c,0x9b,0x99,0x06,0x30,0x63,0x63,0x66,0x36,0x0b,0x00,0x00,0x00,0x00,
 0x00,0x00,0x00,0x00,0x00,0x00,0x00,0x00,0x00,0x00,0x00,0x00,0x00,0x00,0x00,
 0xe3,0xc8,0x6c,0x66,0x66,0x02,0x26,0x03,0x00,0xb0,0x4c,0x23,0x18,0x19,0x6d,
 0x6e,0x63,0x16,0xc0,0x88,0x45,0x33,0x9b,0x73,0x08,0x9c,0xb9,0xd9,0x46,0x30,
 0x23,0x63,0x66,0x73,0x0b,0x00,0x00,0x00,0x00,0x00,0x00,0x00,0x00,0x00,0x00,
 0x00,0x00,0x00,0x00,0x00,0x00,0x00,0x00,0x00,0x9e,0xef,0xfd,0xff,0xff,0x07,
 0x3f,0x03,0x00,0xf0,0xfe,0x1e,0xf0,0xf3,0xde,0xef,0xf7,0x1e,0x80,0xdf,0x7f,
 0x9f,0xf7,0x23,0x0c,0x08,0xff,0xfb,0x3d,0x78,0xbe,0xf7,0xff,0x7e,0x0f,0x00,
 0x00,0x00,0x00,0x00,0x00,0x00,0x00,0x00,0x00,0x00,0x00,0x00,0x00,0x00,0x00,
 0x00,0x00,0x00,0x00,0x00,0x00,0x00,0x00,0x00,0x00,0x00,0x00,0x00,0x00,0x00,
 0x00,0x00,0x00,0x00,0x00,0x00,0x00,0x00,0x00,0x03,0x00,0x20,0x0c,0x00,0x00,
 0x00,0x00,0x00,0x00,0x00,0x00,0x00,0x00,0x00,0x00,0x00,0x00,0x00,0x00,0x00,
 0x00,0x00,0x00,0x00,0x00,0x00,0x00,0x00,0x00,0x00,0x00,0x00,0x00,0x00,0x00,
 0x00,0x00,0x00,0x00,0x00,0x00,0x00,0x00,0x00,0x00,0x00,0x00,0x00,0x00,0x00,
 0x00,0x00,0x00,0x03,0x00,0x3c,0x04,0x00,0x00,0x00,0x00,0x00,0x00,0x00,0x00,
 0x00,0x00,0x00,0x00,0x00,0x00,0x00,0x00,0x00,0x00,0x00,0x00,0x00,0x00,0x00,
 0x00,0x00,0x00,0x00,0x00,0x00,0x00,0x00,0x00,0x00,0x00,0x00,0x00,0x00,0x00,
 0x00,0x00,0x00,0x00,0x00,0x00,0x00,0x00,0x00,0x00,0x00,0x80,0x07,0x00,0x1c,
 0x06,0x00,0x00,0x00,0x00,0x00,0x00,0x00,0x00,0x00,0x00,0x00,0x00,0x00,0x00,
 0x00,0x00,0x00,0x00,0x00,0x00,0x00,0x00,0x00,0x00,0x00,0x00,0x00,0x00,0x00,
 0x00,0x00,0x00,0x00,0x00,0x00,0x00,0x00,0x00,0x00,0x00,0x00,0x00,0x00,0x00,
 0x00,0x00,0x00,0x00,0x00,0x00,0x00,0x00,0x00,0x06,0x00,0x00,0x00,0x00,0x00,
 0x00,0x00,0x00,0x00,0x00,0x00,0x00,0x00,0x00,0x00,0x00,0x00,0x00,0x00,0x00,
 0x00,0x00,0x00,0x00,0x00,0x00,0x00,0x00,0x00,0x00,0x00,0x00,0x00,0x00,0x00,
 0x00,0x00,0x00,0x00,0x00,0x00,0x00,0x00,0x00,0x00,0x00,0x00,0x00,0x00,0x00,
 0x00,0x00,0x00,0x00,0x00,0x00,0x00,0x00,0x00,0x00,0x00,0x00,0x00,0x00,0x00,
 0x00,0x00,0x00,0x00,0x00,0x00,0x00,0x00,0x00,0x00,0x00,0x00,0x00,0x00,0x00,
 0x00,0x00,0x00,0x00,0x00,0x00,0x00,0x00,0x00,0x00,0x00,0x00,0x00,0x00,0x00,
 0x00,0x00,0x00,0x00,0x00,0x00,0x00,0x00,0x00,0x00,0x00,0x00,0x00,0x00,0x00,
 0x00,0x00,0x00,0x00,0x00,0x00,0x00,0x00,0x00,0x00,0x00,0x00,0x00,0x00,0x00,
 0x00,0x00,0x00,0x00,0x00,0x00,0x00,0x00,0x00,0x00,0x00,0x00,0x00,0x00,0x00,
 0x00,0x00,0x00,0x00,0x00,0x00,0x00,0x00,0x00,0x00,0x00,0x00,0x00,0x00,0x00,
 0x00,0x00,0x00,0x00,0x00,0x00,0x00,0x00,0x00,0x00,0x00,0x00,0x00,0x00,0x00,
 0x00,0x00,0x00,0x00,0x00,0x00,0x00,0x00,0x00,0x00,0x00,0x00,0x00,0x00,0x00,
 0x00,0x00,0x00,0x00,0x00,0x00,0x00,0xe0,0x00,0x00,0x00,0x00,0x1c,0x00,0x00,
 0x00,0x0e,0x00,0x38,0x00,0x00,0x00,0x00,0xf8,0x03,0x00,0x00,0x80,0x03,0x70,
 0x00,0x00,0x0f,0x70,0x30,0x60,0x00,0x00,0x1c,0x00,0x70,0x70,0x00,0xe0,0x00,
 0x00,0x00,0x00,0x00,0x00,0x00,0x00,0x00,0x00,0x00,0x00,0x00,0x00,0x00,0x00,
 0x00,0xc0,0x00,0x00,0x00,0x00,0x36,0x00,0x00,0x20,0x0c,0x00,0x30,0x00,0x10,
 0x00,0x00,0xec,0x03,0x40,0x00,0xc0,0x03,0x61,0x00,0x80,0x0d,0x60,0x20,0x60,
 0x00,0x40,0x18,0x00,0x60,0x60,0x00,0xc0,0x00,0x00,0x00,0x00,0x00,0x00,0x00,
 0x00,0x00,0x00,0x00,0x00,0x00,0x00,0x00,0x00,0x00,0xc0,0x00,0x00,0x00,0x00,
 0x36,0x00,0x00,0x30,0x0c,0x00,0x30,0x00,0x18,0x00,0x00,0x4c,0x00,0x60,0x00,
 0xc0,0x80,0x61,0x00,0x80,0x09,0x60,0x20,0x00,0x00,0x60,0x18,0x00,0x60,0x60,
 0x00,0xc0,0x00,0x00,0x00,0x00,0x00,0x00,0x00,0x00,0x00,0x00,0x00,0x00,0x00,
 0x00,0x00,0x00,0x00,0xc0,0x00,0x00,0x00,0x00,0x36,0x00,0x00,0x30,0x0c,0x00,
 0x30,0x00,0x18,0x00,0x00,0x4c,0x00,0x60,0x00,0xc0,0x80,0x61,0x00,0x80,0x01,
 0x60,0x20,0x00,0x00,0x60,0x18,0x00,0x60,0x60,0x00,0xc0,0x00,0x00,0x00,0x00,
 0x00,0x00,0x00,0x00,0x00,0x00,0x00,0x00,0x00,0x00,0x00,0x00,0xbe,0xcf,0x6e,
 0xff,0xf3,0x03,0x18,0x03,0x00,0x78,0x7c,0x1e,0xf0,0xdd,0x3d,0x0f,0xf8,0xfe,
 0xbf,0xf7,0x80,0xef,0xc1,0xe3,0xf3,0xc0,0x8f,0x67,0x3e,0x70,0x3f,0xf0,0xf8,
 0x3c,0xe0,0x63,0x3e,0xdf,0x0e,0x00,0x00,0x00,0x00,0x00,0x00,0x00,0x00,0x00,
 0x00,0x00,0x00,0x00,0x00,0x00,0xf3,0xc8,0x4c,0x66,0x66,0x02,0x3c,0x03,0x00,
 0x30,0x4c,0x33,0x30,0x9b,0x98,0x19,0x8c,0x4c,0xe6,0x6c,0xc0,0xc8,0x80,0x61,
 0x9a,0x81,0xc9,0x6c,0x23,0x60,0x26,0x60,0x98,0x66,0x60,0x66,0xa3,0xd9,0x03,
 0x00,0x00,0x00,0x00,0x00,0x00,0x00,0x00,0x00,0x00,0x00,0x00,0x00,0x00,0x00,
 0xc3,0xd8,0x4c,0x66,0x66,0x02,0x30,0x00,0x00,0x30,0x4c,0x3f,0x30,0xda,0x98,
 0x1f,0x8c,0x4d,0xde,0x6f,0xc0,0xd8,0x80,0x61,0xfa,0x81,0xc9,0x6f,0x23,0x60,
 0x26,0x60,0x98,0x7e,0x60,0x64,0xe3,0xc1,0x01,0x00,0x00,0x00,0x00,0x00,0x00,
 0x00,0x00,0x00,0x00,0x00,0x00,0x00,0x00,0x00,0xc3,0xd8,0x4c,0x66,0x66,0x02,
 0x37,0x00,0x00,0xb0,0x4c,0x03,0x30,0x72,0xd8,0x01,0x8c,0x4d,0xfe,0x60,0xc1,
 0xd8,0x80,0x65,0x1a,0x80,0xc9,0x60,0x23,0x60,0x26,0x60,0x99,0x06,0x60,0x64,
 0xe3,0xc1,0x03,0x00,0x00,0x00,0x00,0x00,0x00,0x00,0x00,0x00,0x00,0x00,0x00,
 0x00,0x00,0x00,0xe3,0xc8,0x6c,0x66,0x66,0x02,0x37,0x03,0x00,0xb0,0x4c,0x23,
 0x30,0x73,0xd8,0x11,0x8c,0x4c,0xe2,0x68,0xc1,0xc8,0x80,0x65,0x1a,0x81,0xc9,
 0x68,0x23,0x60,0x26,0x60,0x99,0x46,0x60,0x66,0xa3,0xd1,0x07,0x00,0x00,0x00,
 0x00,0x00,0x00,0x00,0x00,0x00,0x00,0x00,0x00,0x00,0x00,0x00,0x9e,0xef,0xfd,
 0xff,0xff,0x07,0x36,0x03,0x00,0xf0,0xfe,0x1e,0xf0,0x21,0x78,0x0f,0xf8,0xee,
 0xbf,0xe7,0x81,0xef,0x81,0xf7,0xf7,0xc0,0x9d,0xf7,0x7e,0xf0,0x7f,0xe0,0xfd,
 0x3d,0xe0,0xf3,0x3e,0xef,0x0f,0x00,0x00,0x00,0x00,0x00,0x00,0x00,0x00,0x00,
 0x00,0x00,0x00,0x00,0x00,0x00,0x00,0x00,0x00,0x00,0x00,0x00,0x0c,0x00,0x00,
 0x00,0x00,0x00,0x00,0x20,0x00,0x00,0x00,0x00,0x00,0x00,0x00,0x00,0x00,0x00,
 0x00,0x00,0x00,0x00,0x00,0x00,0x00,0x00,0x00,0x00,0x00,0x00,0x00,0x00,0x00,
 0x00,0x00,0x00,0x00,0x00,0x00,0x00,0x00,0x00,0x00,0x00,0x00,0x00,0x00,0x00,
 0x00,0x00,0x00,0x00,0x00,0x00,0x00,0x00,0x00,0x00,0x00,0x00,0x00,0x3c,0x00,
 0x00,0x00,0x00,0x00,0x00,0x00,0x00,0x00,0x00,0x00,0x00,0x00,0x00,0x00,0x00,
 0x00,0x00,0x00,0x00,0x00,0x00,0x00,0x00,0x00,0x00,0x00,0x00,0x00,0x00,0x00,
 0x00,0x00,0x00,0x00,0x00,0x00,0x00,0x00,0x00,0x00,0x00,0x00,0x00,0x00,0x00,
 0x00,0x00,0x00,0x00,0x00,0x00,0x00,0x1c,0x00,0x00,0x00,0x00,0x00,0x00,0x00,
 0x00,0x00,0x00,0x00,0x00,0x00,0x00,0x00,0x00,0x00,0x00,0x00,0x00,0x00,0x00,
 0x00,0x00,0x00,0x00,0x00,0x00,0x00,0x00,0x00,0x00,0x00,0x00,0x00,0x00,0x00,
 0x00,0x00,0x00,0x00,0x00,0x00,0x00,0x00,0x00,0x00,0x00,0x00,0x00,0x00,0x00,
 0x00,0x00,0x00,0x00,0x00,0x00,0x00,0x00,0x00,0x00,0x00,0x00,0x00,0x00,0x00,
 0x00,0x00,0x00,0x00,0x00,0x00,0x00,0x00,0x00,0x00,0x00,0x00,0x00,0x00,0x00,
 0x00,0x00,0x00,0x00,0x00,0x00,0x00,0x00,0x00,0x00,0x00,0x00,0x00,0x00,0x00,
 0x00,0x00,0x00,0x00,0x00,0x00,0x00,0x00,0x00,0x00,0x00,0x00,0x00,0x00,0x00,
 0x00,0x00,0x00,0x00,0x00,0x00,0x00,0x00,0x00,0x00,0x00,0x00,0x00,0x00,0x00,
 0x00,0x00,0x00,0x00,0x00,0x00,0x00,0x00,0x00,0x00,0x00,0x00,0x00,0x00,0x00,
 0x00,0x00,0x00,0x00,0x00,0x00,0x00,0x00,0x00,0x00,0x00,0x00,0x00,0x00,0x00,
 0x00,0x00,0x00,0x00,0x00,0x00,0x00,0x00,0x00,0x00,0x00,0x00,0x00,0x00,0x00,
 0x00,0x00,0x00,0x00,0x00,0x00,0x00,0x00,0x00,0x00,0x00,0x00,0x00,0x00,0x00,
 0x00,0x00,0x00,0x00,0x00,0x00,0x00,0x00,0x00,0x00,0x00,0x00,0x00,0x00,0x00,
 0x00,0xe0,0x00,0x00,0x00,0x00,0x10,0x00,0x00,0x00,0x0e,0x00,0x00,0x00,0x00,
 0xc0,0x01,0x00,0x00,0x80,0x03,0x38,0x00,0x00,0x00,0x00,0x00,0x80,0x01,0x00,
 0x38,0x00,0x00,0x0f,0x70,0x30,0x00,0x00,0x00,0x00,0x00,0x00,0x00,0x00,0x00,
 0x00,0x00,0x00,0x00,0x00,0x00,0x00,0x00,0x00,0x00,0xc0,0x00,0x00,0x00,0x00,
 0x18,0x00,0x00,0x20,0x0c,0x00,0x00,0x00,0x00,0x80,0x01,0x00,0x00,0xc0,0x03,
 0x30,0x00,0x00,0x00,0x00,0x02,0x80,0x01,0x00,0x31,0x00,0x80,0x0d,0x60,0x20,
 0x00,0x00,0x00,0x00,0x00,0x00,0x00,0x00,0x00,0x00,0x00,0x00,0x00,0x00,0x00,
 0x00,0x00,0x00,0x00,0xc0,0x00,0x00,0x00,0x00,0x18,0x00,0x00,0x30,0x0c,0x00,
 0x00,0x00,0x00,0x80,0x01,0x00,0x00,0xc0,0x00,0x30,0x00,0x00,0x00,0x00,0x03,
 0x00,0x00,0x80,0x31,0x00,0x80,0x09,0x60,0x20,0x00,0x00,0x00,0x00,0x00,0x00,
 0x00,0x00,0x00,0x00,0x00,0x00,0x00,0x00,0x00,0x00,0x00,0x00,0x00,0xc0,0x00,
 0x00,0x00,0x00,0x1c,0x00,0x00,0x30,0x0c,0x00,0x00,0x00,0x00,0x80,0x01,0x00,
 0x00,0xc0,0x00,0x30,0x00,0x00,0x00,0x00,0x03,0x00,0x00,0x80,0x31,0x00,0x80,
 0x01,0x60,0x20,0x00,0x00,0x00,0x00,0x00,0x00,0x00,0x00,0x00,0x00,0x00,0x00,
 0x00,0x00,0x00,0x00,0x00,0x00,0xbe,0xcf,0x6e,0xff,0xf3,0x03,0x16,0x03,0x00,
 0x78,0x7c,0x1e,0xf8,0xdd,0xfc,0x8f,0x8f,0xf7,0x81,0xef,0xc1,0x33,0xef,0x7f,
 0xbc,0x9f,0xf7,0xc1,0xfd,0xc0,0xf3,0xf1,0xc0,0x8f,0x67,0x3e,0x00,0x00,0x00,
 0x00,0x00,0x00,0x00,0x00,0x00,0x00,0x00,0x00,0x00,0x00,0x00,0x00,0x00,0x00,
 0xf3,0xc8,0x4c,0x66,0x66,0x02,0x12,0x03,0x00,0x30,0x4c,0x33,0x30,0x99,0x98,
 0x99,0xd9,0xec,0xc1,0xc8,0x60,0xb6,0xd9,0xcc,0x66,0x13,0x33,0x81,0x99,0x80,
 0x31,0x99,0x81,0xc9,0x6c,0x23,0x00,0x00,0x00,0x00,0x00,0x00,0x00,0x00,0x00,
 0x00,0x00,0x00,0x00,0x00,0x00,0x00,0x00,0x00,0xc3,0xd8,0x4c,0x66,0x66,0x02,
 0x13,0x00,0x00,0x30,0x4c,0x3f,0x30,0x99,0x98,0x99,0xd1,0x6f,0xc0,0xd8,0xe0,
 0xb7,0xdf,0xcc,0x7e,0x13,0xf3,0x80,0x99,0x80,0x31,0xf9,0x81,0xc9,0x6f,0x23,
 0x00,0x00,0x00,0x00,0x00,0x00,0x00,0x00,0x00,0x00,0x00,0x00,0x00,0x00,0x00,
 0x00,0x00,0x00,0xc3,0xd8,0x4c,0x66,0x66,0x02,0x7f,0x00,0x00,0xb0,0x4c,0x03,
 0x30,0x99,0x98,0x99,0xd1,0x60,0xc0,0xd8,0x60,0xb0,0xc1,0xcc,0x06,0x13,0xfb,
 0x81,0x99,0x80,0x35,0x19,0x80,0xc9,0x60,0x23,0x00,0x00,0x00,0x00,0x00,0x00,
 0x00,0x00,0x00,0x00,0x00,0x00,0x00,0x00,0x00,0x00,0x00,0x00,0xe3,0xc8,0x6c,
 0x66,0x66,0x02,0x10,0x03,0x00,0xb0,0x4c,0x23,0x30,0xd9,0x98,0x99,0xd9,0x68,
 0xc0,0xc8,0x60,0xb4,0xd1,0xcc,0x46,0x13,0x1b,0x81,0x99,0x80,0x35,0x19,0x81,
 0xc9,0x68,0x23,0x00,0x00,0x00,0x00,0x00,0x00,0x00,0x00,0x00,0x00,0x00,0x00,
 0x00,0x00,0x00,0x00,0x00,0x00,0x9e,0xef,0xfd,0xff,0xff,0x07,0x7c,0x03,0x00,
 0xf0,0xfe,0x1e,0xf8,0xfb,0xfd,0xbf,0x8f,0xf7,0x80,0xef,0xc1,0x7b,0xef,0xff,
 0xbd,0x3f,0xff,0xc1,0xff,0x81,0xff,0xf3,0xc0,0x9d,0xf7,0x7e,0x00,0x00,0x00,
 0x00,0x00,0x00,0x00,0x00,0x00,0x00,0x00,0x00,0x00,0x00,0x00,0x00,0x00,0x00,
 0x00,0x00,0x00,0x00,0x00,0x00,0x00,0x00,0x00,0x00,0x00,0x00,0x00,0x00,0x00,
 0x00,0x00,0x00,0x00,0x00,0x00,0x00,0x00,0x00,0x00,0x00,0x00,0x00,0x00,0x00,
 0x00,0x00,0x00,0x00,0x00,0x00,0x00,0x00,0x00,0x00,0x00,0x00,0x00,0x00,0x00,
 0x00,0x00,0x00,0x00,0x00,0x00,0x00,0x00,0x00,0x00,0x00,0x00,0x00,0x00,0x00,
 0x00,0x00,0x00,0x00,0x00,0x00,0x00,0x00,0x00,0x00,0x00,0x00,0x00,0x00,0x00,
 0x00,0x00,0x00,0x00,0x00,0x00,0x00,0x00,0x00,0x00,0x00,0x00,0x00,0x00,0x00,
 0x00,0x00,0x00,0x00,0x00,0x00,0x00,0x00,0x00,0x00,0x00,0x00,0x00,0x00,0x00,
 0x00,0x00,0x00,0x00,0x00,0x00,0x00,0x00,0x00,0x00,0x00,0x00,0x00,0x00,0x00,
 0x00,0x00,0x00,0x00,0x00,0x00,0x00,0x00,0x00,0x00,0x00,0x00,0x00,0x00,0x00,
 0x00,0x00,0x00,0x00,0x00,0x00,0x00,0x00,0x00,0x00,0x00,0x00,0x00,0x00,0x00,
 0x00,0x00,0x00,0x00,0x00,0x00,0x00,0x00,0x00,0x00,0x00,0x00,0x00,0x00,0x00,
 0x00,0x00,0x00,0x00,0x00,0x00,0x00,0x00,0x00,0x00,0x00,0x00,0x00,0x00,0x00,
 0x00,0x00,0x00,0x00,0x00,0x00,0x00,0x00,0x00,0x00,0x00,0x00,0x00,0x00,0x00,
 0x00,0x00,0x00,0x00,0x00,0x00,0x00,0x00,0x00,0x00,0x00,0x00,0x00,0x00,0x00,
 0x00,0x00,0x00,0x00,0x00,0x00,0x00,0x00,0x00,0x00,0x00,0x00,0x00,0x00,0x00,
 0x00,0x00,0x00,0x00,0x00,0x00,0x00,0x00,0x00,0x00,0x00,0x00,0x00,0x00,0x00,
 0x00,0x00,0x00,0x00,0x00,0x00,0x00,0x00,0x00,0x00,0x00,0x00,0x00,0x00,0x00,
 0x00,0x00,0x00,0x00,0x00,0x00,0x00,0x00,0x00,0x00,0x00,0x00,0x00,0x00,0x00,
 0x00,0x00,0x00,0x00,0x00,0x00,0x00,0x00,0x00,0x00,0x00,0x00,0x00,0x00,0x00,
 0x00,0x00,0x00,0x00,0x00,0x00,0x00,0x00,0x00,0x00,0x00,0x00,0x00,0x00,0x00,
 0x00,0x00,0x00,0x00,0x00,0x00,0x00,0x00,0x00,0x00,0x00,0x00,0x00,0x00,0x00,
 0x00,0x00,0x00,0x00,0x00,0x00,0x00,0x00,0x00,0x00,0x00,0x00,0x00,0x00,0x00,
 0x00,0x00,0x00,0x40,0x20,0x10,0x00,0x00,0x00,0x08,0x04,0x02,0x00,0x00,0x00,
 0x00,0x00,0x00,0x00,0x00,0x00,0x00,0x00,0x00,0x00,0x00,0x00,0x00,0x00,0x00,
 0x00,0x00,0x00,0x00,0x00,0x00,0x00,0x00,0x00,0x00,0x00,0x00,0x00,0x00,0x00,
 0x00,0x00,0x00,0x00,0xe0,0x00,0x00,0x00,0x00,0x32,0x00,0x00,0x40,0x20,0x10,
 0xc0,0xf3,0x00,0x08,0x04,0x02,0x00,0x00,0x00,0x00,0x00,0x00,0x00,0x00,0x00,
 0x00,0x00,0x00,0x00,0x00,0x00,0x00,0x00,0x00,0x00,0x00,0x00,0x00,0x00,0x00,
 0x00,0x00,0x00,0x00,0x00,0x00,0x00,0x00,0x00,0x00,0x00,0x00,0x00,0xc0,0x00,
 0x00,0x00,0x00,0x1e,0x00,0x00,0xf0,0xf9,0x7c,0x60,0x9e,0x01,0x3e,0x9f,0x0f,
 0x00,0x00,0x00,0x00,0x00,0x00,0x00,0x00,0x00,0x00,0x00,0x00,0x00,0x00,0x00,
 0x00,0x00,0x00,0x00,0x00,0x00,0x00,0x00,0x00,0x00,0x00,0x00,0x00,0x00,0x00,
 0x00,0x00,0x00,0x00,0x00,0x00,0x00,0xc0,0x00,0x00,0x00,0x00,0x02,0x00,0x00,
 0xe0,0x70,0x38,0x60,0x9e,0x01,0x1c,0x0e,0x07,0x00,0x00,0x00,0x00,0x00,0x00,
 0x00,0x00,0x00,0x00,0x00,0x00,0x00,0x00,0x00,0x00,0x00,0x00,0x00,0x00,0x00,
 0x00,0x00,0x00,0x00,0x00,0x00,0x00,0x00,0x00,0x00,0x00,0x00,0x00,0x00,0x00,
 0x00,0xc0,0x00,0x00,0x00,0x00,0x02,0x00,0x00,0xf0,0xf9,0x7c,0x00,0xc7,0x01,
 0x3e,0x9f,0x0f,0x00,0x00,0x00,0x00,0x00,0x00,0x00,0x00,0x00,0x00,0x00,0x00,
 0x00,0x00,0x00,0x00,0x00,0x00,0x00,0x00,0x00,0x00,0x00,0x00,0x00,0x00,0x00,
 0x00,0x00,0x00,0x00,0x00,0x00,0x00,0x00,0x00,0xbe,0xcf,0x6e,0xff,0xf3,0x03,
 0x1e,0x03,0x00,0x50,0xa9,0x54,0x00,0x41,0x00,0x2a,0x95,0x0a,0x00,0x00,0x00,
 0x00,0x00,0x00,0x00,0x00,0x00,0x00,0x00,0x00,0x00,0x00,0x00,0x00,0x00,0x00,
 0x00,0x00,0x00,0x00,0x00,0x00,0x00,0x00,0x00,0x00,0x00,0x00,0x00,0x00,0x00,
 0x00,0x00,0x00,0xf3,0xc8,0x4c,0x66,0x66,0x02,0x32,0x03,0x00,0x40,0x20,0x10,
 0x00,0x41,0x00,0x08,0x04,0x02,0x00,0x00,0x00,0x00,0x00,0x00,0x00,0x00,0x00,
 0x00,0x00,0x00,0x00,0x00,0x00,0x00,0x00,0x00,0x00,0x00,0x00,0x00,0x00,0x00,
 0x00,0x00,0x00,0x00,0x00,0x00,0x00,0x00,0x00,0x00,0x00,0x00,0xc3,0xd8,0x4c,
 0x66,0x66,0x02,0x30,0x00,0x00,0x00,0x00,0x00,0x00,0x41,0x00,0x00,0x00,0x00,
 0x00,0x00,0x00,0x00,0x00,0x00,0x00,0x00,0x00,0x00,0x00,0x00,0x00,0x00,0x00,
 0x00,0x00,0x00,0x00,0x00,0x00,0x00,0x00,0x00,0x00,0x00,0x00,0x00,0x00,0x00,
 0x00,0x00,0x00,0x00,0x00,0x00,0xc3,0xd8,0x4c,0x66,0x66,0x02,0x33,0x00,0x00,
 0x00,0x00,0x00,0x00,0x00,0x00,0x00,0x00,0x00,0x00,0x00,0x00,0x00,0x00,0x00,
 0x00,0x00,0x00,0x00,0x00,0x00,0x00,0x00,0x00,0x00,0x00,0x00,0x00,0x00,0x00,
 0x00,0x00,0x00,0x00,0x00,0x00,0x00,0x00,0x00,0x00,0x00,0x00,0x00,0x00,0x00,
 0xe3,0xc8,0x6c,0x66,0x66,0x02,0x33,0x03,0x00,0x00,0x00,0x00,0x80,0x61,0x00,
 0x00,0x00,0x00,0x00,0x00,0x00,0x00,0x00,0x00,0x00,0x00,0x00,0x00,0x00,0x00,
 0x00,0x00,0x00,0x00,0x00,0x00,0x00,0x00,0x00,0x00,0x00,0x00,0x00,0x00,0x00,
 0x00,0x00,0x00,0x00,0x00,0x00,0x00,0x00,0x00,0x9e,0xef,0xfd,0xff,0xff,0x07,
 0x3e,0x03,0x00,0x00,0x00,0x00,0x80,0x61,0x00,0x00,0x00,0x00,0x00,0x00,0x00,
 0x00,0x00,0x00,0x00,0x00,0x00,0x00,0x00,0x00,0x00,0x00,0x00,0x00,0x00,0x00,
 0x00,0x00,0x00,0x00,0x00,0x00,0x00,0x00,0x00,0x00,0x00,0x00,0x00,0x00,0x00,
 0x00,0x00,0x00,0x00,0x00,0x00,0x00,0x00,0x00,0x0c,0x00,0x00,0x00,0x00,0x00,
 0x00,0x00,0x00,0x00,0x00,0x00,0x00,0x00,0x00,0x00,0x00,0x00,0x00,0x00,0x00,
 0x00,0x00,0x00,0x00,0x00,0x00,0x00,0x00,0x00,0x00,0x00,0x00,0x00,0x00,0x00,
 0x00,0x00,0x00,0x00,0x00,0x00,0x00,0x00,0x00,0x00,0x00,0x00,0x00,0x00,0x00,
 0x00,0x00,0x00,0x00,0x00,0x00,0x00,0x00,0x00,0x00,0x00,0x00,0x00,0x00,0x00,
 0x00,0x00,0x00,0x00,0x00,0x00,0x00,0x00,0x00,0x00,0x00,0x00,0x00,0x00,0x00,
 0x00,0x00,0x00,0x00,0x00,0x00,0x00,0x00,0x00,0x00,0x00,0x00,0x00,0x00,0x00,
 0x00,0x00,0x00,0x00,0x00,0x00,0x00,0x00,0x00,0x00,0x00,0x00,0x00,0x00,0x00,
 0x00,0x00,0x00,0x00,0x00,0x00,0x00,0x00,0x00,0x00,0x00,0x00,0x00,0x00,0x00,
 0x00,0x00,0x00,0x00,0x00,0x00,0x00,0x00,0x00,0x00,0x00,0x00,0x00,0x00,0x00,
 0x00,0x00,0x00,0x00,0x00,0x00,0x00,0x00,0x00,0x00,0x00,0x00,0x00,0x00,0x00,
 0x00,0x00,0x00,0x00,0x00,0x00,0x00,0x00,0x00,0x00,0x00,0x00,0x00,0x00,0x00,
 0x00,0x00,0x00,0x00,0x00,0x00,0x00,0x00,0x00,0x00,0x00,0x00,0x00,0x00,0x00,
 0x00,0x00,0x00,0x00,0x00,0x00,0x00,0x00,0x00,0x00,0x00,0x00,0x00,0x00,0x00,
 0x00,0x00,0x00,0x00,0x00,0x00,0x00,0x00,0x00,0x00,0x00,0x00,0x00,0x00,0x00,
 0x00,0x00,0x00,0x00,0x00,0x00,0x00,0x00,0x00,0x00,0x00,0x00,0x00,0x00,0x00,
 0x00,0x00,0x00,0x00,0x00,0x00,0x00,0x00,0x00,0x00,0x00,0x00,0x00,0x00,0x00,
 0x00,0x00,0x00,0x00,0x00,0x00,0x00,0x00,0x00,0x00,0x00,0x00,0x00,0x00,0x00,
 0x00,0x00,0x00,0x00,0x00,0x00,0x00,0x00,0x00,0x00,0x00,0x00,0x00,0x00,0x00,
 0x00,0x00,0x00,0x00,0x00,0x00,0x00,0x00,0x00,0x00,0x00,0x00,0x00,0x00,0x00,
 0x00,0x00,0x00,0x00,0x00,0x00,0x00,0x00,0x00,0x00,0x00,0x00,0x00,0x00,0x00,
 0x00,0x00,0x00,0x00,0x00,0x00,0x00,0x00,0x00,0x00,0x00,0x00,0x00,0x00,0x00,
 0x00,0x00,0x00,0x00,0x00,0x00,0x00,0x00,0x00,0x00,0x00,0x00,0x00,0x00,0x00,
 0x00,0x00,0x00,0x00,0x00,0x00,0x00,0x00,0x00,0x00,0x00,0x00,0x00,0x00,0x00,
 0x00,0x20,0x00,0x00,0x00,0x00,0x00,0x00,0x00,0x00,0x00,0x00,0x00,0x00,0x00,
 0x00,0x00,0x00,0x00,0x00,0x00,0x00,0xe0,0x00,0x00,0x00,0x00,0x18,0x00,0x00,
 0x00,0x0e,0x00,0x38,0x00,0x00,0x00,0x00,0x03,0x00,0x00,0xe0,0x00,0x00,0xc0,
 0x00,0x80,0x03,0x00,0x70,0x00,0x00,0x00,0x00,0x00,0x10,0x00,0x07,0x06,0x1c,
 0x80,0x01,0x00,0x0e,0x00,0x00,0x00,0x60,0x00,0x00,0x38,0x00,0x00,0x00,0x0e,
 0x00,0xc0,0x00,0x00,0x00,0x00,0x3c,0x00,0x00,0x20,0x0c,0x00,0x30,0x00,0x10,
 0x00,0x00,0x03,0x00,0x00,0xf0,0x00,0x00,0xc0,0x00,0x00,0x03,0x00,0x60,0x00,
 0x00,0x00,0x00,0x02,0x18,0x00,0x06,0x06,0x18,0x80,0x01,0x40,0x0c,0x00,0x00,
 0x08,0x60,0x00,0x00,0x30,0x00,0x00,0x40,0x0c,0x00,0xc0,0x00,0x00,0x00,0x00,
 0x36,0x00,0x00,0x30,0x0c,0x00,0x30,0x00,0x18,0x00,0x00,0x00,0x00,0x00,0x30,
 0x00,0x00,0x00,0x00,0x00,0x03,0x00,0x60,0x00,0x00,0x00,0x00,0x03,0x08,0x00,
 0x06,0x00,0x18,0x00,0x00,0x60,0x0c,0x00,0x00,0x0c,0x00,0x00,0x00,0x30,0x00,
 0x00,0x60,0x0c,0x00,0xc0,0x00,0x00,0x00,0x00,0x02,0x00,0x00,0x30,0x0c,0x00,
 0x30,0x00,0x18,0x00,0x00,0x00,0x00,0x00,0x30,0x00,0x00,0x00,0x00,0x20,0x03,
 0x00,0x60,0x00,0x00,0x00,0x00,0x03,0x0c,0x00,0x06,0x00,0x18,0x00,0x00,0x60,
 0x0c,0x00,0x00,0x0c,0x00,0x00,0x10,0x30,0x00,0x00,0x64,0x0c,0xbe,0xcf,0x6e,
 0xff,0xf3,0x03,0x1f,0x03,0x00,0x78,0x7c,0x1e,0xf0,0xdd,0x3d,0x0f,0xfc,0xfb,
 0x3c,0xe0,0x7b,0xe0,0x81,0xef,0x7e,0x7e,0xf3,0x80,0x67,0xde,0xff,0x78,0xbf,
 0x07,0xcc,0xff,0x3e,0xe7,0xfb,0xc0,0x7d,0xf0,0x7c,0x3c,0xf0,0xdf,0x77,0x3f,
 0x3f,0x30,0xef,0xc7,0xff,0x7c,0xf3,0xc8,0x4c,0x66,0x66,0x02,0x33,0x03,0x00,
 0x30,0x4c,0x33,0x30,0x9b,0x98,0x19,0x4c,0xcb,0x66,0x30,0x32,0x60,0x83,0xc9,
 0x4c,0x13,0x9b,0xc1,0x6c,0xb3,0x99,0xcd,0x26,0x03,0x8c,0x6d,0x26,0x36,0x9b,
 0x80,0x4d,0x60,0x4c,0x66,0x30,0x8d,0x67,0xa6,0x09,0xb0,0xd9,0x64,0x62,0x4c,
 0xc3,0xd8,0x4c,0x66,0x66,0x02,0x23,0x00,0x00,0x30,0x4c,0x3f,0x30,0xda,0x98,
 0x1f,0x3c,0x6b,0x7e,0x30,0x36,0xc0,0x83,0xc7,0x4c,0x13,0xfb,0xc1,0x6f,0xbf,
 0x99,0xfd,0x26,0x03,0x8c,0x3d,0x26,0x36,0x98,0x80,0x3d,0x60,0x4c,0x7e,0xf0,
 0x8c,0x61,0xa6,0x09,0xb0,0xdf,0x64,0x62,0x4c,0xc3,0xd8,0x4c,0x66,0x66,0x02,
 0x23,0x00,0x00,0xb0,0x4c,0x03,0x30,0x72,0xd8,0x01,0x7c,0xb3,0x06,0x30,0x36,
 0x60,0x83,0xcf,0x4c,0x1e,0x1b,0xc0,0x60,0x83,0x99,0x0d,0x26,0x0b,0x0c,0x3f,
 0x26,0x36,0x98,0x80,0x7d,0x60,0x4d,0x06,0xf0,0xad,0x61,0x26,0x0f,0xb0,0xc1,
 0xc4,0x63,0x4d,0xe3,0xc8,0x6c,0x66,0x66,0x02,0x32,0x03,0x00,0xb0,0x4c,0x23,
 0x30,0x73,0xd8,0x11,0x44,0xb3,0x46,0x30,0x32,0x30,0x87,0xc8,0x4c,0x02,0x1b,
 0xc1,0x68,0xa3,0x99,0x8d,0x26,0x0b,0x0c,0x3b,0x26,0x36,0x9a,0x80,0x45,0x60,
 0x4d,0x46,0x10,0xad,0x61,0x26,0x01,0xb0,0xd1,0x44,0x60,0x4d,0x9e,0xef,0xfd,
 0xff,0xff,0x07,0x36,0x03,0x00,0xf0,0xfe,0x1e,0xf0,0x21,0x78,0x0f,0xfc,0xff,
 0x3c,0xe0,0x7b,0xe0,0x87,0xef,0xff,0xbe,0xf7,0x80,0xf7,0xde,0xff,0x7b,0x7f,
 0x0f,0x0c,0x13,0x7f,0xef,0xfd,0xc1,0x7f,0xe0,0xff,0x3c,0xf0,0xfd,0xf3,0x7f,
 0x1f,0x78,0xef,0xcf,0xe7,0xff,0x00,0x00,0x00,0x00,0x00,0x00,0x1c,0x00,0x00,
 0x00,0x00,0x00,0x00,0x20,0x00,0x00,0x00,0x00,0x00,0x00,0x00,0x00,0x00,0x00,
 0x00,0x63,0x00,0x00,0x00,0x00,0x00,0x00,0x00,0x00,0x08,0x00,0x00,0x00,0x00,
 0x00,0x00,0x00,0x00,0x00,0x00,0x00,0x00,0x80,0x31,0x00,0x00,0x60,0x0c,0x00,
 0x00,0x00,0x00,0x00,0x00,0x00,0x00,0x00,0x00,0x00,0x00,0x00,0x00,0x3c,0x00,
 0x00,0x00,0x00,0x00,0x00,0x00,0x00,0x00,0x00,0x00,0x63,0x00,0x00,0x00,0x00,
 0x00,0x00,0x00,0x00,0x18,0x00,0x00,0x00,0x00,0x00,0x00,0x00,0x00,0x00,0x00,
 0x00,0x00,0x80,0x31,0x00,0x00,0x60,0x0c,0x00,0x00,0x00,0x00,0x00,0x00,0x00,
 0x00,0x00,0x00,0x00,0x00,0x00,0x00,0x1c,0x00,0x00,0x00,0x00,0x00,0x00,0x00,
 0x00,0x00,0x00,0x00,0x3e,0x00,0x00,0x00,0x00,0x00,0x00,0x00,0x00,0x18,0x00,
 0x00,0x00,0x00,0x00,0x00,0x00,0x00,0x00,0x00,0x00,0x00,0x00,0x1f,0x00,0x00,
 0xc0,0x07,0x00,0x00,0x00,0x00,0x00,0x00,0x00,0x00,0x00,0x00,0x00,0x00,0x00,
 0x00,0x00,0x00,0x00,0x00,0x00,0x00,0x00,0x00,0x00,0x00,0x00,0x00,0x00,0x00,
 0x00,0x00,0x00,0x00,0x00,0x00,0x00,0x30,0x00,0x00,0x00,0x00,0x00,0x00,0x00,
 0x00,0x00,0x00,0x00,0x00,0x00,0x00,0x00,0x00,0x00,0x00,0x00,0x00,0x00,0x00,
 0x00,0x00,0x00,0x00,0x00,0x00,0x00,0x00,0x00,0x00,0x00,0x00,0x00,0x00,0x00,
 0x00,0x00,0x00,0x00,0x00,0x00,0x00,0x00,0x00,0x00,0x00,0x00,0x00,0x00,0x00,
 0x00,0x00,0x00,0x00,0x00,0x00,0x00,0x00,0x00,0x00,0x00,0x00,0x00,0x00,0x00,
 0x00,0x00,0x00,0x00,0x00,0x00,0x00,0x00,0x00,0x00,0x00,0x00,0x00,0x00,0x00,
 0x00,0x00,0x00,0x00,0x00,0x00,0x00,0x00,0x00,0x00,0x00,0x00,0x00,0x00,0x00,
 0x00,0x10,0x00,0x00,0x00,0x00,0x00,0x00,0x00,0x00,0x00,0x00,0x00,0x00,0x00,
 0x00,0x00,0x00,0x00,0x00,0x00,0x00,0x00,0x00,0x00,0x00,0x00,0x00,0x00,0x00,
 0x00,0x00,0x00,0x00,0x00,0x00,0x00,0x00,0x00,0x00,0x1c,0x00,0x00,0x00,0xc0,
 0x01,0x00,0x00,0x00,0x00,0x00,0x00,0x00,0x38,0x00,0x20,0x00,0x00,0x00,0x00,
 0x00,0x00,0x00,0x00,0x00,0x00,0x00,0x00,0x00,0x00,0x00,0x00,0x00,0x00,0x00,
 0x00,0x00,0x00,0x00,0x00,0x00,0x00,0x00,0x00,0x00,0x00,0x00,0x00,0x00,0x00,
 0x00,0x00,0x00,0x00,0x1e,0x00,0x00,0x00,0x80,0x01,0x00,0x00,0x00,0x02,0x00,
 0x00,0x00,0x30,0x00,0x60,0x00,0x00,0x00,0x00,0x00,0x00,0x00,0x00,0x00,0x00,
 0x00,0x00,0x00,0x00,0x00,0x00,0x00,0x00,0x00,0x00,0x00,0x00,0x00,0x00,0x00,
 0x00,0x00,0x00,0x00,0x00,0x00,0x00,0x00,0x00,0x00,0x00,0x00,0x00,0x06,0x00,
 0x00,0x00,0x80,0x01,0x00,0x00,0x00,0x03,0x00,0x00,0x00,0x30,0x00,0x40,0x00,
 0x00,0x00,0x00,0x00,0x00,0x00,0x00,0x00,0x00,0x00,0x00,0x00,0x00,0x00,0x00,
 0x00,0x00,0x00,0x00,0x00,0x00,0x00,0x00,0x00,0x00,0x00,0x00,0x00,0x00,0x00,
 0x00,0x00,0x00,0x00,0x00,0x00,0x00,0x06,0x00,0x00,0x00,0x80,0x01,0x00,0x00,
 0x00,0x03,0x00,0x00,0x00,0x30,0x00,0xc0,0x00,0x00,0x00,0x00,0x00,0x00,0x00,
 0x00,0x00,0x00,0x00,0x00,0x00,0x00,0x00,0x00,0x00,0x00,0x00,0x00,0x00,0x00,
 0x00,0x00,0x00,0x00,0x00,0x00,0x00,0x00,0x00,0x00,0x00,0x00,0x00,0x00,0x00,
 0x00,0xef,0xfb,0xc0,0x03,0xfc,0x8f,0xe7,0x7b,0xfc,0xc7,0xfb,0xe0,0xee,0xb1,
 0x9b,0xc7,0x00,0x00,0x00,0x00,0x00,0x00,0x00,0x00,0x00,0x00,0x00,0x00,0x00,
 0x00,0x00,0x00,0x00,0x00,0x00,0x00,0x00,0x00,0x00,0x00,0x00,0x00,0x00,0x00,
 0x00,0x00,0x00,0x00,0x00,0x00,0x00,0x00,0x00,0x00,0x36,0xf2,0xc0,0x06,0xe6,
 0x89,0xcd,0xdb,0x66,0x63,0xf6,0xc0,0x64,0x33,0xd3,0xcc,0x00,0x00,0x00,0x00,
 0x00,0x00,0x00,0x00,0x00,0x00,0x00,0x00,0x00,0x00,0x00,0x00,0x00,0x00,0x00,
 0x00,0x00,0x00,0x00,0x00,0x00,0x00,0x00,0x00,0x00,0x00,0x00,0x00,0x00,0x00,
 0x00,0x00,0x00,0x00,0x36,0x36,0x80,0x07,0x86,0x09,0xcf,0xf0,0x06,0xe3,0x37,
 0xc0,0xc6,0x33,0xd3,0xcf,0x00,0x00,0x00,0x00,0x00,0x00,0x00,0x00,0x00,0x00,
 0x00,0x00,0x00,0x00,0x00,0x00,0x00,0x00,0x00,0x00,0x00,0x00,0x00,0x00,0x00,
 0x00,0x00,0x00,0x00,0x00,0x00,0x00,0x00,0x00,0x00,0x00,0x00,0x00,0x36,0x36,
 0xc0,0x06,0x86,0x89,0xcd,0xd8,0x06,0x6b,0x30,0x80,0x63,0x33,0xd3,0xc0,0x00,
 0x00,0x00,0x00,0x00,0x00,0x00,0x00,0x00,0x00,0x00,0x00,0x00,0x00,0x00,0x00,
 0x00,0x00,0x00,0x00,0x00,0x00,0x00,0x00,0x00,0x00,0x00,0x00,0x00,0x00,0x00,
 0x00,0x00,0x00,0x00,0x00,0x00,0x00,0x36,0x32,0x60,0x0e,0xc6,0xc9,0xdc,0xcc,
 0x47,0x6b,0x34,0x80,0x33,0x37,0xdb,0xc8,0x00,0x00,0x00,0x00,0x00,0x00,0x00,
 0x00,0x00,0x00,0x00,0x00,0x00,0x00,0x00,0x00,0x00,0x00,0x00,0x00,0x00,0x00,
 0x00,0x00,0x00,0x00,0x00,0x00,0x00,0x00,0x00,0x00,0x00,0x00,0x00,0x00,0x00,
 0x00,0xef,0x7b,0xc0,0x0f,0xfc,0x9f,0xff,0xf9,0x3d,0xcf,0x7b,0x00,0xe1,0x7f,
 0xbf,0xc7,0x00,0x00,0x00,0x00,0x00,0x00,0x00,0x00,0x00,0x00,0x00,0x00,0x00,
 0x00,0x00,0x00,0x00,0x00,0x00,0x00,0x00,0x00,0x00,0x00,0x00,0x00,0x00,0x00,
 0x00,0x00,0x00,0x00,0x00,0x00,0x00,0x00,0x00,0x00,0x00,0x00,0x00,0x00,0x00,
 0x00,0x00,0x00,0x00,0x00,0x00,0x00,0x00,0x00,0x00,0x40,0x00,0x00,0x00,0x00,
 0x00,0x00,0x00,0x00,0x00,0x00,0x00,0x00,0x00,0x00,0x00,0x00,0x00,0x00,0x00,
 0x00,0x00,0x00,0x00,0x00,0x00,0x00,0x00,0x00,0x00,0x00,0x00,0x00,0x00,0x00,
 0x00,0x00,0x00,0x00,0x00,0x00,0x00,0x00,0x00,0x00,0x00,0x00,0x00,0x00,0x00,
 0x00,0x00,0x00,0x00,0x60,0x00,0x00,0x00,0x00,0x00,0x00,0x00,0x00,0x00,0x00,
 0x00,0x00,0x00,0x00,0x00,0x00,0x00,0x00,0x00,0x00,0x00,0x00,0x00,0x00,0x00,
 0x00,0x00,0x00,0x00,0x00,0x00,0x00,0x00,0x00,0x00,0x00,0x00,0x00,0x00,0x00,
 0x00,0x00,0x00,0x00,0x00,0x00,0x00,0x00,0x00,0x00,0x00,0x00,0x00,0x60,0x00,
 0x00,0x00,0x00,0x00,0x00,0x00,0x00,0x00,0x00,0x00,0x00,0x00,0x00,0x00,0x00,
 0x00,0x00,0x00,0x00,0x00,0x00,0x00,0x00,0x00,0x00,0x00,0x00,0x00,0x00,0x00,
 0x00,0x00,0x00,0x00,0x00,0x00,0x00,0x00,0x00,0x00,0x00,0x00,0x00,0x00,0x00,
 0x00,0x00,0x00,0x00,0x00,0x00,0x00,0x30,0x00,0x00,0x00,0x00,0x00,0x00,0x00,
 0x00,0x00,0x00,0x00,0x00,0x00,0x00,0x00,0x00,0x00,0x00,0x00,0x00,0x00,0x00,
 0x00,0x00,0x00,0x00,0x00,0x00};
