#define noname_width 139
#define noname_height 27
static char noname_bits[] = {
 0xff,0xff,0xff,0xff,0xff,0xff,0xff,0xff,0xff,0xff,0xff,0xff,0xff,0xff,0xff,
 0xff,0xff,0x07,0x01,0x00,0x00,0x00,0x00,0x00,0x00,0x00,0x00,0x00,0x00,0x00,
 0x00,0x00,0x00,0x00,0x00,0x04,0x01,0x00,0x00,0x00,0x00,0x00,0x00,0x00,0x00,
 0x00,0x00,0x00,0x00,0x00,0x00,0x00,0x00,0x04,0x01,0x00,0x00,0x00,0x00,0x00,
 0x00,0x00,0x00,0x00,0x00,0x00,0x00,0x00,0x00,0x00,0x00,0x04,0x01,0x00,0x00,
 0x00,0x00,0x00,0x00,0x00,0x00,0x00,0x00,0x00,0x00,0x00,0x00,0x00,0x00,0x04,
 0x01,0x00,0x00,0x20,0x00,0x01,0x10,0x00,0x00,0x00,0x00,0x00,0x00,0x00,0x00,
 0x00,0x00,0x04,0x01,0x00,0x00,0x30,0x0e,0x03,0x18,0x07,0x00,0x10,0x00,0x70,
 0x00,0xc0,0x01,0x00,0x00,0x04,0x01,0x00,0x00,0x18,0x1f,0x06,0x98,0x0f,0x00,
 0x1e,0x00,0xf8,0x00,0xe0,0x03,0x00,0x0e,0x04,0x01,0x30,0x00,0x18,0x31,0x06,
 0x88,0x18,0x00,0x1e,0x00,0x88,0x01,0x60,0x06,0x00,0x0e,0x04,0x01,0x30,0x00,
 0x8c,0x31,0x0c,0xcc,0x18,0x00,0x18,0x00,0x8c,0x01,0x20,0x06,0x00,0x0f,0x04,
 0xc1,0xfa,0x7c,0x0c,0x31,0x0c,0x8c,0x18,0x00,0x18,0x00,0x88,0x01,0x00,0x06,
 0x00,0x0f,0x04,0xc1,0xfb,0xfc,0x0c,0x30,0x0c,0x04,0x18,0x00,0x18,0x00,0x80,
 0x01,0xc0,0x03,0x80,0x0d,0x04,0xc1,0x31,0xcc,0x0c,0x38,0x0c,0x06,0x1c,0x00,
 0x18,0x00,0xc0,0x01,0xc0,0x03,0x80,0x0d,0x04,0xc1,0x30,0xcc,0x0d,0x1c,0x0c,
 0x06,0x0e,0x00,0x18,0x00,0xe0,0x00,0x00,0x06,0xc0,0x0c,0x04,0xc1,0x30,0x8c,
 0x0d,0x0c,0x0c,0x02,0x06,0x00,0x18,0x00,0x60,0x00,0x00,0x06,0xc0,0x3f,0x04,
 0xc1,0x30,0xcc,0x0d,0x06,0x0c,0x02,0x03,0x00,0x18,0x00,0x30,0x00,0x10,0x06,
 0x00,0x0c,0x04,0xc1,0xb0,0xfc,0x0c,0x03,0x0c,0x83,0x81,0x01,0x18,0x06,0x18,
 0x18,0x30,0x66,0x00,0x0c,0x04,0xc1,0xf0,0xfc,0x8c,0x3f,0x0c,0xc1,0x9f,0x01,
 0x7e,0x06,0xfc,0x19,0xe0,0x67,0x00,0x0c,0x04,0x01,0x00,0x0c,0x0c,0x00,0x0c,
 0x01,0x00,0x01,0x00,0x04,0x00,0x10,0xc0,0x41,0x00,0x00,0x04,0x01,0x00,0x0c,
 0x18,0x00,0x86,0x01,0x80,0x01,0x00,0x06,0x00,0x18,0x00,0x60,0x00,0x00,0x04,
 0x01,0x00,0x0c,0x18,0x00,0x86,0x00,0x00,0x00,0x00,0x00,0x00,0x00,0x00,0x00,
 0x00,0x00,0x04,0x01,0x00,0x0c,0x30,0x00,0x83,0x00,0x00,0x00,0x00,0x00,0x00,
 0x00,0x00,0x00,0x00,0x00,0x04,0x01,0x00,0x00,0x20,0x00,0x01,0x00,0x00,0x00,
 0x00,0x00,0x00,0x00,0x00,0x00,0x00,0x00,0x04,0x01,0x00,0x00,0x00,0x00,0x00,
 0x00,0x00,0x00,0x00,0x00,0x00,0x00,0x00,0x00,0x00,0x00,0x04,0x01,0x00,0x00,
 0x00,0x00,0x00,0x00,0x00,0x00,0x00,0x00,0x00,0x00,0x00,0x00,0x00,0x00,0x04,
 0x01,0x00,0x00,0x00,0x00,0x00,0x00,0x00,0x00,0x00,0x00,0x00,0x00,0x00,0x00,
 0x00,0x00,0x04,0xff,0xff,0xff,0xff,0xff,0xff,0xff,0xff,0xff,0xff,0xff,0xff,
 0xff,0xff,0xff,0xff,0xff,0x07};
