#define noname_width 98
#define noname_height 27
static char noname_bits[] = {
 0xff,0xff,0xff,0xff,0xff,0xff,0xff,0xff,0xff,0xff,0xff,0xff,0x03,0x01,0x00,
 0x00,0x00,0x00,0x00,0x00,0x00,0x00,0x00,0x00,0x00,0x02,0x01,0x00,0x00,0x00,
 0x00,0x00,0x00,0x00,0x00,0x00,0x00,0x00,0x02,0x01,0x00,0x00,0x00,0x00,0x00,
 0x00,0x00,0x00,0x00,0x00,0x00,0x02,0x01,0x00,0x00,0x00,0x00,0x00,0x00,0x00,
 0x00,0x00,0x00,0x00,0x02,0x01,0x00,0x00,0x00,0x02,0x10,0x00,0x00,0x00,0x00,
 0x00,0x00,0x02,0xc1,0x0c,0xc0,0x00,0x83,0x30,0x00,0x00,0x00,0x00,0x00,0x02,
 0x02,0xc1,0x0c,0xc0,0x80,0xf1,0x60,0x00,0x00,0x00,0x00,0xc0,0x03,0x02,0xc1,
 0x00,0xc0,0x80,0xf1,0x60,0x00,0x00,0x00,0x00,0xc0,0x03,0x02,0xc1,0x00,0xc0,
 0xc0,0xc0,0xc0,0x00,0x00,0x00,0x00,0x00,0x03,0x02,0xc1,0xec,0xc3,0xcc,0xc0,
 0xc0,0x00,0x00,0x00,0x00,0x00,0x03,0x02,0xc1,0xec,0xc7,0xce,0xc0,0xc0,0x00,
 0x00,0x00,0x00,0x00,0x03,0x02,0xc1,0x6c,0xc6,0xc7,0xc0,0xc0,0xfc,0x9f,0xff,
 0x03,0x00,0x03,0x02,0xc1,0x6c,0xc6,0xc3,0xc0,0xc0,0x00,0x00,0x00,0x00,0x00,
 0x03,0x02,0xc1,0x6c,0xc6,0xc7,0xc0,0xc0,0x00,0x00,0x00,0x00,0x00,0x03,0x02,
 0xc1,0x6c,0xc6,0xc6,0xc0,0xc0,0xfc,0x9f,0xff,0x03,0x00,0x03,0x02,0xc1,0x6c,
 0xc6,0xce,0xc0,0xc0,0x00,0x00,0x00,0x30,0x00,0x03,0x02,0xc1,0x6c,0xc6,0xdc,
 0xf0,0xc3,0x00,0x00,0x00,0x30,0xc0,0x0f,0x02,0x01,0x00,0x00,0xc0,0x00,0xc0,
 0x00,0x00,0x00,0x20,0x00,0x00,0x02,0x01,0x00,0x00,0x80,0x01,0x60,0x00,0x00,
 0x00,0x30,0x00,0x00,0x02,0x01,0x00,0x00,0x80,0x01,0x60,0x00,0x00,0x00,0x00,
 0x00,0x00,0x02,0x01,0x00,0x00,0x00,0x03,0x30,0x00,0x00,0x00,0x00,0x00,0x00,
 0x02,0x01,0x00,0x00,0x00,0x02,0x10,0x00,0x00,0x00,0x00,0x00,0x00,0x02,0x01,
 0x00,0x00,0x00,0x00,0x00,0x00,0x00,0x00,0x00,0x00,0x00,0x02,0x01,0x00,0x00,
 0x00,0x00,0x00,0x00,0x00,0x00,0x00,0x00,0x00,0x02,0x01,0x00,0x00,0x00,0x00,
 0x00,0x00,0x00,0x00,0x00,0x00,0x00,0x02,0xff,0xff,0xff,0xff,0xff,0xff,0xff,
 0xff,0xff,0xff,0xff,0xff,0x03};
