#define noname_width 24
#define noname_height 22
static char noname_bits[] = {
 0xff,0xff,0xff,0x01,0x00,0x80,0x01,0x00,0x80,0x01,0x00,0x80,0x01,0x00,0x80,
 0xc1,0x78,0x80,0xc1,0x7c,0x80,0x01,0x0c,0x80,0x01,0x0c,0x80,0xc1,0xbe,0x85,
 0xc1,0xbe,0x87,0xc1,0x8c,0x83,0xc1,0x8c,0x81,0xc1,0x8c,0x81,0xc1,0x8c,0x81,
 0xc1,0x8c,0x81,0xc1,0x8c,0x81,0x01,0x00,0x80,0x01,0x00,0x80,0x01,0x00,0x80,
 0x01,0x00,0x80,0xff,0xff,0xff};
