#define noname_width 67
#define noname_height 24
static char noname_bits[] = {
 0xff,0xff,0xff,0xff,0xff,0xff,0xff,0xff,0x07,0x01,0x00,0x00,0x00,0x00,0x00,
 0x00,0x00,0x04,0x01,0x00,0x00,0x00,0x00,0x00,0x00,0x00,0x04,0x01,0x00,0x00,
 0x00,0x00,0x00,0x00,0x00,0x04,0x01,0x00,0x00,0x00,0x00,0x00,0x00,0x00,0x04,
 0xc1,0x9f,0xff,0xf9,0x03,0x10,0x1c,0x00,0x04,0xc1,0xbf,0xff,0xf9,0x07,0x1e,
 0x3e,0x00,0x04,0xc1,0x30,0x18,0x18,0x06,0x1e,0x62,0x00,0x04,0xc1,0x30,0x18,
 0x18,0x06,0x18,0x63,0x00,0x04,0xc1,0x30,0x18,0x18,0x06,0x18,0x62,0x00,0x04,
 0xc1,0x3f,0x18,0x18,0x07,0x18,0x60,0x00,0x04,0xc1,0x1f,0x18,0xf8,0x03,0x18,
 0x70,0x00,0x04,0xc1,0x1c,0x18,0x18,0x00,0x18,0x38,0x00,0x04,0xc1,0x18,0x18,
 0x18,0x00,0x18,0x18,0x00,0x04,0xc1,0x38,0x18,0x18,0x00,0x18,0x0c,0x00,0x04,
 0xc1,0x30,0x18,0x18,0x30,0x18,0x06,0x00,0x04,0xc1,0x60,0x18,0x18,0x30,0x7e,
 0x7f,0x00,0x04,0x01,0x00,0x00,0x00,0x20,0x00,0x00,0x00,0x04,0x01,0x00,0x00,
 0x00,0x30,0x00,0x00,0x00,0x04,0x01,0x00,0x00,0x00,0x00,0x00,0x00,0x00,0x04,
 0x01,0x00,0x00,0x00,0x00,0x00,0x00,0x00,0x04,0x01,0x00,0x00,0x00,0x00,0x00,
 0x00,0x00,0x04,0x01,0x00,0x00,0x00,0x00,0x00,0x00,0x00,0x04,0xff,0xff,0xff,
 0xff,0xff,0xff,0xff,0xff,0x07};
