#define noname_width 19
#define noname_height 17
static char noname_bits[] = {
 0xff,0xff,0x07,0x01,0x00,0x04,0x01,0x00,0x04,0x01,0x00,0x04,0xc1,0x18,0x04,
 0xc1,0x18,0x04,0x01,0x00,0x04,0x01,0x00,0x04,0x01,0x00,0x04,0x01,0x00,0x04,
 0xc1,0x18,0x04,0xc1,0x18,0x04,0x01,0x00,0x04,0x01,0x00,0x04,0x01,0x00,0x04,
 0x01,0x00,0x04,0xff,0xff,0x07};
