#define noname_width 452
#define noname_height 60
static char noname_bits[] = {
 0x00,0x00,0x00,0x00,0x00,0x00,0x00,0x00,0x00,0x00,0x60,0x77,0x00,0x1c,0x00,
 0x00,0x00,0x70,0x00,0x00,0x00,0x00,0x0c,0x00,0xe0,0xe0,0x00,0xc0,0x01,0x70,
 0x00,0x00,0x00,0x00,0x00,0x00,0x0c,0x18,0x00,0x00,0x07,0x00,0x00,0x00,0x00,
 0x00,0x00,0x00,0x00,0x00,0x00,0x00,0x00,0x00,0x00,0x00,0x00,0x00,0x00,0x00,
 0x00,0x00,0x00,0x00,0x00,0x00,0x00,0x60,0x66,0x00,0x18,0x00,0x00,0x00,0x62,
 0x00,0x00,0x00,0x40,0x0c,0x00,0xc0,0xc0,0x00,0x80,0x01,0x78,0x00,0x00,0x00,
 0x00,0x21,0x00,0x08,0x18,0x00,0x10,0x06,0x00,0x00,0x00,0x00,0x00,0x00,0x00,
 0x00,0x00,0x00,0x00,0x00,0x00,0x00,0x00,0x00,0x08,0x00,0x00,0x00,0x00,0x00,
 0x00,0x00,0x00,0x00,0x00,0x66,0x00,0x18,0x00,0x00,0x00,0x63,0x00,0x00,0x00,
 0x60,0x00,0x00,0xc0,0xc0,0x00,0x80,0x01,0x18,0x00,0x00,0x00,0x80,0x31,0x00,
 0x08,0x00,0x00,0x18,0x06,0x00,0x00,0x00,0x00,0x00,0x00,0x00,0x00,0x00,0x00,
 0x00,0x00,0x00,0x00,0x00,0x00,0x08,0x00,0x00,0x00,0x00,0x00,0x00,0x00,0x00,
 0x00,0x00,0x66,0x00,0x18,0x00,0x00,0x00,0x63,0x00,0x00,0x00,0x60,0x00,0x00,
 0xc0,0xc0,0x00,0x80,0x01,0x18,0x00,0x00,0x00,0x80,0x31,0x00,0x08,0x00,0x00,
 0x18,0x06,0x00,0x00,0x00,0x00,0x00,0x00,0x00,0x00,0x00,0x00,0x00,0x00,0x00,
 0x00,0x00,0x00,0x3e,0x00,0x00,0x00,0x00,0x00,0x00,0x00,0x00,0xfc,0x7f,0x66,
 0xf0,0xf9,0x7c,0xff,0x83,0xe7,0xe3,0x01,0xef,0xf7,0xee,0xf3,0xc0,0xc7,0x7c,
 0xbe,0x1d,0xbc,0xef,0xfb,0x1f,0xcf,0x7b,0x9e,0x0f,0xdc,0x0f,0x3c,0x3e,0x0f,
 0x7c,0xcf,0xff,0x78,0xe0,0xff,0xe7,0x0e,0x3c,0x1f,0x00,0x00,0x00,0x00,0x00,
 0x3e,0x00,0x00,0x00,0x00,0x00,0x00,0x00,0x00,0xd8,0x66,0x66,0x30,0x99,0x46,
 0xb6,0x01,0x63,0x32,0x83,0xd9,0x64,0xcc,0x9b,0xc1,0xcc,0x46,0xb3,0x07,0xd8,
 0xc8,0x33,0x33,0x9b,0x31,0xf3,0x08,0x98,0x09,0x18,0xa6,0x19,0x4c,0x9b,0x99,
 0xcd,0xc0,0xb6,0xcd,0x04,0x6c,0x13,0x00,0x00,0x00,0x00,0x00,0x3e,0x00,0x00,
 0x00,0x00,0x00,0x00,0x00,0x00,0xd8,0x63,0x66,0xf0,0x98,0xc6,0xf6,0x00,0x63,
 0xf2,0x83,0xdf,0x64,0xcc,0xf8,0xc1,0xc8,0xc6,0x83,0x03,0xd8,0xd8,0x30,0x33,
 0x9e,0x31,0xff,0x08,0x98,0x09,0x18,0xa6,0x1f,0x3c,0x9e,0x99,0xfd,0xc0,0x1e,
 0xcf,0x06,0x78,0x0f,0x00,0x00,0x00,0x00,0x00,0x2a,0x00,0x00,0x00,0x00,0x00,
 0x00,0x00,0x00,0xf0,0x63,0x66,0xf0,0x99,0xc6,0xfc,0x00,0x6b,0x32,0x80,0xc1,
 0x64,0xcd,0x18,0xc0,0xc8,0xc6,0x83,0x07,0xd8,0xd8,0x30,0x33,0x9b,0xb5,0xc3,
 0x08,0x98,0x09,0x58,0xa6,0x01,0x7c,0x9b,0x99,0x0d,0x80,0x9f,0x8d,0x03,0x6c,
 0x1f,0x00,0x00,0x00,0x00,0x00,0x08,0x00,0x00,0x00,0x00,0x00,0x00,0x00,0x00,
 0xb0,0x63,0x66,0x10,0x99,0x46,0xec,0x00,0x6b,0x32,0x82,0xd1,0x64,0xcd,0x18,
 0xc1,0xcc,0x46,0xa3,0x0f,0xd8,0xc8,0x30,0xb3,0xb9,0xb5,0xe3,0x08,0x98,0x09,
 0x58,0xa6,0x11,0xc4,0xb9,0x99,0x8d,0x80,0xdd,0x9c,0x03,0xe6,0x11,0x00,0x00,
 0x00,0x00,0x00,0x00,0x00,0x00,0x00,0x00,0x00,0x00,0x00,0x00,0x30,0xf1,0xff,
 0xf0,0xfd,0x7d,0x4c,0x00,0xff,0xe7,0x01,0xef,0xef,0xff,0xf1,0xc0,0xe7,0x7d,
 0xde,0x1f,0xbc,0xef,0xf9,0x7f,0xbf,0xf7,0x9e,0x1f,0xfc,0x1f,0x78,0x7f,0x0f,
 0x7c,0xff,0xff,0x7b,0x80,0x89,0x1f,0x01,0xfc,0x1f,0x00,0x00,0x00,0x00,0x00,
 0x00,0x00,0x00,0x00,0x00,0x00,0x00,0x00,0x00,0x00,0x00,0x00,0x00,0x00,0x00,
 0x00,0x00,0x00,0x00,0x00,0x00,0x00,0x00,0x00,0x00,0x00,0x00,0x00,0x00,0x00,
 0x00,0x00,0x00,0x00,0x00,0x00,0x00,0x00,0x00,0x00,0x00,0x00,0x00,0x00,0x00,
 0x00,0x00,0x00,0x00,0x01,0x00,0x00,0x00,0x00,0x00,0x00,0x00,0x00,0x00,0x00,
 0x00,0x00,0x00,0x00,0x00,0x00,0x00,0x00,0x00,0x00,0x00,0x00,0x00,0x00,0x00,
 0x00,0x00,0x00,0x00,0x00,0x00,0x00,0x00,0x00,0x00,0x00,0x00,0x00,0x00,0x00,
 0x00,0x00,0x00,0x00,0x00,0x00,0x00,0x00,0x00,0x00,0x00,0x00,0x00,0x00,0x00,
 0xe0,0x01,0x00,0x00,0x00,0x00,0x00,0x00,0x00,0x00,0x00,0x00,0x00,0x00,0x00,
 0x00,0x00,0x00,0x00,0x00,0x00,0x00,0x00,0x00,0x00,0x00,0x00,0x00,0x00,0x00,
 0x00,0x00,0x00,0x00,0x00,0x00,0x00,0x00,0x00,0x00,0x00,0x00,0x00,0x00,0x00,
 0x00,0x00,0x00,0x00,0x00,0x00,0x00,0x00,0x00,0x00,0x00,0x00,0xe0,0x00,0x00,
 0x00,0x00,0x00,0x00,0x00,0x00,0x00,0x00,0x00,0x00,0x00,0x00,0x00,0x00,0x00,
 0x00,0x00,0x00,0x00,0x00,0x00,0x00,0x00,0x00,0x00,0x00,0x00,0x00,0x00,0x00,
 0x00,0x00,0x00,0x00,0x00,0x00,0x00,0x00,0x00,0x00,0x00,0x00,0x00,0x00,0x00,
 0x00,0x00,0x00,0x00,0x00,0x00,0x00,0x00,0x00,0x00,0x00,0x00,0x00,0x00,0x00,
 0x00,0x00,0x00,0x00,0x00,0x00,0x00,0x00,0x00,0x00,0x00,0x00,0x00,0x00,0x00,
 0x00,0x00,0x00,0x00,0x00,0x00,0x00,0x00,0x00,0x00,0x00,0x00,0x00,0x00,0x00,
 0x00,0x00,0x00,0x00,0x00,0x00,0x00,0x00,0x00,0x00,0x00,0x00,0x00,0x00,0x00,
 0x00,0x00,0x00,0x00,0x00,0x00,0x00,0x00,0x00,0x00,0x00,0x00,0x00,0x00,0x00,
 0x00,0x00,0x00,0x00,0x00,0x00,0x00,0x00,0x00,0x00,0x00,0x00,0x00,0x00,0x00,
 0x00,0x00,0x00,0x00,0x00,0x00,0x00,0x00,0x00,0x00,0x00,0x00,0x00,0x00,0x00,
 0x00,0x00,0x00,0x00,0x00,0x00,0x00,0x00,0x00,0x00,0x00,0x00,0x00,0x00,0x00,
 0x00,0x00,0x00,0x00,0x00,0x00,0x00,0x00,0x00,0x00,0x00,0x00,0x00,0x00,0x00,
 0x00,0x00,0x00,0x00,0x00,0x00,0x00,0x00,0x00,0x00,0x00,0x00,0x00,0x00,0x00,
 0x00,0x00,0x00,0x00,0x00,0x00,0x00,0x00,0x00,0x00,0x00,0x00,0x00,0x00,0x00,
 0x00,0x00,0x00,0x00,0x00,0x00,0x00,0x00,0x00,0x00,0x00,0x00,0x00,0x00,0x00,
 0x00,0x00,0x00,0x00,0x00,0x00,0x00,0x00,0x00,0x00,0x00,0x00,0x00,0x00,0x00,
 0x00,0x00,0x00,0x00,0x0e,0x00,0x00,0x00,0xbc,0xfe,0x1f,0x1e,0xbe,0xef,0x01,
 0x00,0x00,0x00,0x00,0x00,0x00,0x60,0x00,0x00,0x00,0x00,0x00,0x00,0x00,0x00,
 0x00,0x00,0x00,0x00,0x00,0x00,0x00,0x00,0x00,0x00,0x00,0x00,0x00,0x00,0x00,
 0x00,0x00,0x00,0x00,0x00,0x00,0x00,0x00,0x00,0x00,0x00,0x00,0x00,0x00,0x00,
 0x00,0x0f,0x00,0x00,0x00,0xfe,0xfe,0x9f,0x7b,0xbe,0xef,0x01,0x00,0x00,0x00,
 0x00,0x00,0x00,0x40,0x00,0x00,0x00,0x00,0x00,0x00,0x00,0x00,0x00,0x00,0x00,
 0x00,0x00,0x00,0x00,0x00,0x00,0x00,0x00,0x00,0x00,0x00,0x00,0x00,0x00,0x00,
 0x00,0x00,0x00,0x00,0x00,0x00,0x00,0x00,0x00,0x00,0x00,0x00,0x00,0x03,0x00,
 0x00,0x00,0xc6,0x18,0xc6,0x61,0x1c,0xc7,0x00,0x00,0x00,0x00,0x00,0x00,0x00,
 0x40,0x00,0x00,0x00,0x00,0x00,0x00,0x00,0x00,0x00,0x00,0x00,0x00,0x00,0x00,
 0x00,0x00,0x00,0x00,0x00,0x00,0x00,0x00,0x00,0x00,0x00,0x00,0x00,0x00,0x00,
 0x00,0x00,0x00,0x00,0x00,0x00,0x00,0x00,0x00,0x00,0x03,0x00,0x00,0x00,0xce,
 0x18,0xc6,0xe1,0x38,0x4f,0x00,0x00,0x00,0x00,0x00,0x00,0x00,0x40,0x00,0x00,
 0x00,0x00,0x00,0x00,0x00,0x00,0x00,0x00,0x00,0x00,0x00,0x00,0x00,0x00,0x00,
 0x00,0x00,0x00,0x00,0x00,0x00,0x00,0x00,0x00,0x00,0x00,0x00,0x00,0x00,0x00,
 0x00,0x00,0x00,0x00,0x00,0x00,0x80,0xf7,0x7d,0xe0,0x01,0x7e,0xf8,0xc7,0xe0,
 0xb8,0x6f,0xc0,0xf7,0xfd,0xcf,0xff,0x78,0x7e,0x7c,0x00,0x00,0x00,0x00,0x00,
 0x00,0x00,0x00,0x00,0x00,0x00,0x00,0x00,0x00,0x00,0x00,0x00,0x00,0x00,0x00,
 0x00,0x00,0x00,0x00,0x00,0x00,0x00,0x00,0x00,0x00,0x00,0x00,0x00,0x00,0x00,
 0x00,0x00,0x00,0x00,0x1b,0x79,0x60,0x03,0xfe,0xf8,0xc7,0xe0,0xf0,0x2f,0x60,
 0x1e,0x99,0x99,0x99,0xd9,0x4c,0x46,0x00,0x00,0x00,0x00,0x00,0x00,0x00,0x00,
 0x00,0x00,0x00,0x00,0x00,0x00,0x00,0x00,0x00,0x00,0x00,0x00,0x00,0x00,0x00,
 0x00,0x00,0x00,0x00,0x00,0x00,0x00,0x00,0x00,0x00,0x00,0x00,0x00,0x00,0x00,
 0x00,0x1b,0x1b,0xc0,0x03,0xf0,0x18,0xc6,0xe0,0xf0,0x3c,0x60,0x18,0x9b,0x99,
 0x99,0xf1,0x4c,0x46,0x00,0x00,0x00,0x00,0x00,0x00,0x00,0x00,0x00,0x00,0x00,
 0x00,0x00,0x00,0x00,0x00,0x00,0x00,0x00,0x00,0x00,0x00,0x00,0x00,0x00,0x00,
 0x00,0x00,0x00,0x00,0x00,0x00,0x00,0x00,0x00,0x00,0x00,0x00,0x00,0x1b,0x1b,
 0x60,0x03,0xc2,0x18,0xc6,0xe1,0xf0,0x3c,0x60,0x18,0x9b,0x99,0x99,0xd9,0x4c,
 0x46,0x00,0x00,0x00,0x00,0x00,0x00,0x00,0x00,0x00,0x00,0x00,0x00,0x00,0x00,
 0x00,0x00,0x00,0x00,0x00,0x00,0x00,0x00,0x00,0x00,0x00,0x00,0x00,0x00,0x00,
 0x00,0x00,0x00,0x00,0x00,0x00,0x00,0x00,0x00,0x00,0x1b,0x19,0x30,0x07,0xc6,
 0x18,0xc6,0x71,0x60,0x18,0x60,0x1c,0x99,0x99,0x99,0xcd,0x4d,0x46,0x00,0x00,
 0x00,0x00,0x00,0x00,0x00,0x00,0x00,0x00,0x00,0x00,0x00,0x00,0x00,0x00,0x00,
 0x00,0x00,0x00,0x00,0x00,0x00,0x00,0x00,0x00,0x00,0x00,0x00,0x00,0x00,0x00,
 0x00,0x00,0x00,0x00,0x00,0x00,0x80,0xf7,0x3d,0xe0,0x07,0x7e,0xfe,0x1f,0x3f,
 0x60,0x18,0xc0,0xf3,0xfd,0xff,0xff,0xfb,0xff,0xfc,0x00,0x00,0x00,0x00,0x00,
 0x00,0x00,0x00,0x00,0x00,0x00,0x00,0x00,0x00,0x00,0x00,0x00,0x00,0x00,0x00,
 0x00,0x00,0x00,0x00,0x00,0x00,0x00,0x00,0x00,0x00,0x00,0x00,0x00,0x00,0x00,
 0x00,0x00,0x00,0x00,0x00,0x00,0x00,0x00,0x00,0x00,0x00,0x00,0x00,0x00,0x00,
 0x00,0x00,0x00,0x00,0x00,0x00,0x00,0x00,0x00,0x00,0x00,0x00,0x00,0x00,0x00,
 0x00,0x00,0x00,0x00,0x00,0x00,0x00,0x00,0x00,0x00,0x00,0x00,0x00,0x00,0x00,
 0x00,0x00,0x00,0x00,0x00,0x00,0x00,0x00,0x00,0x00,0x00,0x00,0x00,0x00,0x00,
 0x00,0x00,0x00,0x00,0x00,0x00,0x00,0x00,0x00,0x00,0x00,0x00,0x00,0x00,0x00,
 0x00,0x00,0x00,0x00,0x00,0x00,0x00,0x00,0x00,0x00,0x00,0x00,0x00,0x00,0x00,
 0x00,0x00,0x00,0x00,0x00,0x00,0x00,0x00,0x00,0x00,0x00,0x00,0x00,0x00,0x00,
 0x00,0x00,0x00,0x00,0x00,0x00,0x00,0x00,0x00,0x00,0x00,0x00,0x00,0x00,0x00,
 0x00,0x00,0x00,0x00,0x00,0x00,0x00,0x00,0x00,0x00,0x00,0x00,0x00,0x00,0x00,
 0x00,0x00,0x00,0x00,0x00,0x00,0x00,0x00,0x00,0x00,0x00,0x00,0x00,0x00,0x00,
 0x00,0x00,0x00,0x00,0x00,0x00,0x00,0x00,0x00,0x00,0x00,0x00,0x00,0x00,0x00,
 0x00,0x00,0x00,0x00,0x00,0x00,0x00,0x00,0x00,0x00,0x00,0x00,0x00,0x00,0x00,
 0x00,0x00,0x00,0x00,0x00,0x00,0x00,0x00,0x00,0x00,0x00,0x00,0x00,0x00,0x00,
 0x00,0x00,0x00,0x00,0x00,0x00,0x00,0x00,0x00,0x00,0x00,0x00,0x00,0x00,0x00,
 0x00,0x00,0x00,0x00,0x00,0x00,0x00,0x00,0x00,0x00,0x00,0x00,0x00,0x00,0x00,
 0x00,0x00,0x00,0x00,0x00,0x00,0x00,0x00,0x00,0x00,0x00,0x00,0x00,0x00,0x00,
 0x00,0x00,0x00,0x00,0x00,0x00,0x00,0x00,0x00,0x00,0x00,0x00,0x00,0x00,0x00,
 0x00,0x00,0x00,0x00,0x00,0x00,0x00,0x00,0x00,0x00,0x00,0x00,0x00,0x00,0x00,
 0x00,0x00,0x00,0x00,0x00,0x00,0x00,0x00,0x00,0x00,0x00,0x00,0x00,0x00,0x00,
 0x00,0x00,0x00,0x00,0x00,0x00,0x00,0x00,0x00,0x00,0x00,0x00,0x00,0x00,0x00,
 0x00,0x00,0x00,0x00,0x00,0x00,0x00,0x00,0x00,0x00,0x00,0x00,0x00,0x00,0x00,
 0x00,0x00,0x00,0x00,0x00,0x00,0x00,0x00,0x00,0x00,0x00,0x00,0x00,0x00,0x00,
 0x00,0x00,0x00,0x00,0x00,0x00,0x00,0x00,0x00,0x00,0x00,0x00,0x00,0x00,0x00,
 0x00,0x60,0x77,0x00,0x1c,0x00,0x00,0x00,0x70,0x00,0x00,0x00,0x00,0x00,0x00,
 0x00,0x00,0x00,0x30,0xc0,0x01,0x00,0x00,0x00,0x00,0x00,0x80,0x03,0xe0,0x0e,
 0x60,0x00,0x00,0x00,0x78,0xc0,0xc1,0x00,0x60,0x00,0x00,0x1c,0x00,0x70,0x70,
 0x00,0xe0,0x00,0x00,0x00,0x00,0x00,0x00,0x00,0x00,0x00,0x00,0x00,0x60,0x66,
 0x00,0x18,0x00,0x00,0x00,0x62,0x00,0x00,0x00,0x00,0x00,0x00,0x00,0x00,0x00,
 0x20,0xe0,0x01,0x00,0x00,0x00,0x02,0x00,0xc0,0x03,0xc0,0x0c,0x40,0x00,0x04,
 0x00,0x6c,0x80,0x81,0x00,0x60,0x00,0x40,0x18,0x00,0x60,0x60,0x00,0xc0,0x00,
 0x00,0x00,0x00,0x00,0x00,0x00,0x00,0x00,0x00,0x00,0x00,0x66,0x00,0x18,0x00,
 0x00,0x00,0x63,0x00,0x00,0x00,0x00,0x00,0x00,0x00,0x00,0x00,0x20,0x60,0x00,
 0x00,0x00,0x00,0x03,0x00,0xc0,0x00,0xc0,0x0c,0x40,0x00,0x06,0x00,0x4c,0x80,
 0x81,0x00,0x00,0x00,0x60,0x18,0x00,0x60,0x60,0x00,0xc0,0x00,0x00,0x00,0x00,
 0x00,0x00,0x00,0x00,0x00,0x00,0x00,0x00,0x66,0x00,0x18,0x00,0x00,0x00,0x63,
 0x00,0x00,0x00,0x00,0x00,0x00,0x00,0x00,0x00,0x20,0x60,0x00,0x00,0x00,0x00,
 0x03,0x00,0xc0,0x00,0xc0,0x0c,0x40,0x00,0x06,0x00,0x0c,0x80,0x81,0x00,0x00,
 0x00,0x60,0x18,0x00,0x60,0x60,0x00,0xc0,0x00,0x1c,0x00,0x00,0x00,0x00,0x00,
 0x00,0x00,0x00,0xfc,0x7f,0x66,0xf0,0xf9,0x7c,0xff,0x83,0xe7,0xe3,0x81,0x9f,
 0xe7,0x7f,0xbc,0x0f,0x3c,0x3f,0x3e,0xf0,0xbe,0xff,0x3f,0x9e,0xe7,0x83,0xef,
 0x81,0xc7,0x0c,0x7c,0x3c,0xcf,0x03,0x7e,0x9e,0xf9,0x7c,0x70,0x3f,0xf0,0xf8,
 0x3c,0xe0,0x63,0x3e,0xdf,0x0e,0x1c,0x00,0x00,0x00,0x00,0x00,0x00,0x00,0x00,
 0xd8,0x66,0x66,0x30,0x99,0x46,0xb6,0x01,0x63,0x32,0x03,0x93,0xcd,0xcc,0xe6,
 0x09,0x6c,0x26,0x23,0x60,0x23,0x6f,0x66,0x36,0x63,0xc2,0xc8,0x80,0xcd,0x0c,
 0x46,0x6c,0xc6,0x06,0x4c,0xb3,0x8d,0x4c,0x60,0x26,0x60,0x98,0x66,0x60,0x66,
 0xa3,0xd9,0x03,0x00,0x00,0x00,0x00,0x00,0x00,0x00,0x00,0x00,0xd8,0x63,0x66,
 0xf0,0x98,0xc6,0xf6,0x00,0x63,0xf2,0x03,0x13,0xcf,0xcc,0xfe,0x07,0x78,0x26,
 0x23,0x60,0x63,0x63,0x66,0x3c,0xe3,0xc1,0xd8,0x00,0xcf,0x0c,0x46,0x78,0x86,
 0x07,0x4c,0xbf,0x8d,0x3c,0x60,0x26,0x60,0x98,0x7e,0x60,0x64,0xe3,0xc1,0x01,
 0x00,0x00,0x00,0x00,0x00,0x00,0x00,0x00,0x00,0xf0,0x63,0x66,0xf0,0x99,0xc6,
 0xfc,0x00,0x6b,0x32,0x00,0x93,0xcd,0xcc,0x86,0x0f,0x6c,0x26,0x23,0x60,0x63,
 0x63,0x66,0x36,0xeb,0xc3,0xd8,0x80,0xcd,0x0c,0x46,0x6c,0xd6,0x06,0x4c,0x83,
 0x8d,0x7c,0x60,0x26,0x60,0x99,0x06,0x60,0x64,0xe3,0xc1,0x03,0x1c,0x00,0x00,
 0x00,0x00,0x00,0x00,0x00,0x00,0xb0,0x63,0x66,0x10,0x99,0x46,0xec,0x00,0x6b,
 0x32,0x02,0xd3,0xdc,0xcc,0xc6,0x08,0xe6,0x26,0x23,0x60,0x23,0x63,0x66,0x73,
 0x2b,0xc2,0xc8,0xc0,0xdc,0x0c,0x46,0xe6,0x76,0x0e,0x4c,0xa3,0x8d,0x44,0x60,
 0x26,0x60,0x99,0x46,0x60,0x66,0xa3,0xd1,0x07,0x1c,0x00,0x00,0x00,0x00,0x00,
 0x00,0x00,0x00,0x30,0xf1,0xff,0xf0,0xfd,0x7d,0x4c,0x00,0xff,0xe7,0x81,0xbf,
 0xff,0xff,0xbd,0x0f,0xfc,0x7f,0x7e,0xf0,0xbe,0xf7,0xff,0x7e,0xef,0x83,0xef,
 0x81,0xff,0x1f,0xfc,0xfc,0xde,0x0f,0xee,0xde,0xfb,0x7d,0xf0,0x7f,0xe0,0xfd,
 0x3d,0xe0,0xf3,0x3e,0xef,0x0f,0x00,0x00,0x00,0x00,0x00,0x00,0x00,0x00,0x00,
 0x00,0x00,0x00,0x00,0x00,0x00,0x00,0x00,0x00,0x00,0x00,0x00,0x00,0x00,0x00,
 0x00,0x00,0x00,0x00,0x00,0x00,0x00,0x00,0x00,0x00,0x00,0x00,0x00,0x00,0x00,
 0x00,0x00,0x00,0x00,0x00,0x00,0x00,0x00,0x00,0x00,0x00,0x00,0x00,0x00,0x00,
 0x00,0x00,0x00,0x00,0x00,0x00,0x00,0x00,0x00,0x00,0x00,0x00,0x00,0x00,0x00,
 0x00,0x00,0x00,0x00,0x00,0x00,0x00,0x00,0x00,0x00,0x00,0x00,0x00,0x00,0x00,
 0x00,0x00,0x00,0x00,0x00,0x00,0x00,0x00,0x00,0x00,0x00,0x00,0x00,0x00,0x00,
 0x00,0x00,0x00,0x00,0x00,0x00,0x00,0x00,0x00,0x00,0x00,0x00,0x00,0x00,0x00,
 0x00,0x00,0x00,0x00,0x00,0x00,0x00,0x00,0x00,0x00,0x00,0x00,0x00,0x00,0x00,
 0x00,0x00,0x00,0x00,0x00,0x00,0x00,0x00,0x00,0x00,0x00,0x00,0x00,0x00,0x00,
 0x00,0x00,0x00,0x00,0x00,0x00,0x00,0x00,0x00,0x00,0x00,0x00,0x00,0x00,0x00,
 0x00,0x00,0x00,0x00,0x00,0x00,0x00,0x00,0x00,0x00,0x00,0x00,0x00,0x00,0x00,
 0x00,0x00,0x00,0x00,0x00,0x00,0x00,0x00,0x00,0x00,0x00,0x00,0x00,0x00,0x00,
 0x00,0x00,0x00,0x00,0x00,0x00,0x00,0x00,0x00,0x00,0x00,0x00,0x00,0x00,0x00,
 0x00,0x00,0x00,0x00,0x00,0x00,0x00,0x00,0x00,0x00,0x00,0x00,0x00,0x00,0x00,
 0x00,0x00,0x00,0x00,0x00,0x00,0x00,0x00,0x00,0x00,0x00,0x00,0x00,0x00,0x00,
 0x00,0x00,0x00,0x00,0x00,0x00,0x00,0x00,0x00,0x00,0x00,0x00,0x00,0x00,0x00,
 0x00,0x00,0x00,0x00,0x00,0x00,0x00,0x00,0x00,0x00,0x00,0x00,0x00,0x00,0x00,
 0x00,0x00,0x00,0x00,0x00,0x00,0x00,0x00,0x00,0x00,0x00,0x00,0x00,0x00,0x00,
 0x00,0x00,0x00,0x00,0x00,0x00,0x00,0x00,0x00,0x00,0x00,0x00,0x00,0x00,0x00,
 0x00,0x00,0x00,0x00,0x00,0x00,0x00,0x00,0x00,0x00,0x00,0x00,0x00,0x00,0x00,
 0x00,0x00,0x00,0x00,0x00,0x00,0x00,0x00,0x00,0x00,0x00,0x00,0x00,0x00,0x00,
 0x00,0x00,0x00,0x00,0x00,0x00,0x00,0x00,0x00,0x00,0x00,0x00,0x00,0x00,0x00,
 0x00,0x00,0x00,0x00,0x00,0x00,0x00,0x00,0x00,0x00,0x00,0x00,0x00,0x00,0x00,
 0x00,0x00,0x00,0x00,0x00,0x00,0x00,0x00,0x00,0x00,0x00,0x00,0x00,0x00,0x00,
 0x00,0x00,0x00,0x00,0x00,0x00,0x00,0x00,0x00,0x00,0x00,0x00,0x00,0x00,0x00,
 0x00,0x00,0x00,0x00,0x00,0x00,0x00,0x00,0x00,0x00,0x00,0x00,0x00,0x00,0x00,
 0x00,0x00,0x00,0x00,0x00,0x00,0x00,0x00,0x00,0x00,0x60,0x77,0x00,0x1c,0x00,
 0x00,0x00,0x0e,0x00,0x00,0x00,0x00,0x60,0x00,0x0e,0x00,0x00,0x00,0x00,0x06,
 0x00,0x00,0x0e,0x00,0x00,0x00,0x00,0x00,0x00,0x00,0x00,0x00,0x00,0x00,0x00,
 0x00,0x00,0x00,0x00,0x00,0x00,0x00,0x00,0x00,0x00,0x00,0x00,0x00,0x00,0x00,
 0x00,0x00,0x00,0x00,0x00,0x00,0x00,0x60,0x66,0x00,0x18,0x00,0x00,0x00,0x0f,
 0x00,0x00,0x00,0x10,0x60,0x00,0x0f,0x00,0x00,0x00,0x20,0x06,0x00,0x00,0x0f,
 0x00,0x00,0x00,0x00,0x00,0x00,0x00,0x00,0x00,0x00,0x00,0x00,0x00,0x00,0x00,
 0x00,0x00,0x00,0x00,0x00,0x00,0x00,0x00,0x00,0x60,0x00,0x00,0x00,0x00,0x30,
 0x00,0x00,0x00,0x00,0x00,0x66,0x00,0x18,0x00,0x00,0x00,0x03,0x00,0x00,0x00,
 0x18,0x00,0x00,0x03,0x00,0x00,0x00,0x30,0x00,0x00,0x00,0x03,0x00,0x00,0x06,
 0x00,0x00,0x00,0x00,0x03,0x00,0x00,0x00,0x00,0x00,0x00,0x00,0x00,0x00,0x00,
 0x00,0x00,0x00,0x00,0x00,0x00,0x78,0x00,0x00,0x00,0x00,0xf0,0x00,0x00,0x00,
 0x00,0x00,0x66,0x00,0x18,0x00,0x00,0x00,0x03,0x00,0x00,0x00,0x18,0x00,0x00,
 0x03,0x00,0x00,0x00,0x30,0x00,0x00,0x00,0x03,0x00,0x80,0x07,0x00,0x00,0x00,
 0x00,0x0f,0x00,0x00,0x00,0x00,0x00,0x00,0x00,0x00,0x00,0x00,0x00,0x00,0x00,
 0x00,0x00,0x00,0x9c,0xff,0x8f,0xe7,0xef,0xc3,0xe1,0x00,0x00,0xfc,0x7f,0x66,
 0xf0,0xf9,0x7c,0xff,0x83,0xf7,0xfd,0xff,0xf1,0x3c,0x70,0xbf,0xe7,0xfb,0xff,
 0xe3,0x79,0xe7,0xfb,0x81,0xf7,0x7d,0xc0,0xf9,0xfb,0x79,0xfe,0x7c,0x1c,0x00,
 0x00,0x00,0x00,0x00,0x00,0x00,0x00,0x00,0x00,0x00,0x00,0x00,0x00,0x00,0x00,
 0x87,0xbf,0x8d,0x6d,0x6f,0x07,0xe7,0x00,0x00,0xd8,0x66,0x66,0x30,0x99,0x46,
 0xb6,0x01,0x1b,0x79,0x33,0xb3,0x19,0x60,0x26,0x33,0xf2,0x66,0x66,0x33,0x36,
 0x32,0x01,0x1b,0x79,0x70,0xf8,0xb3,0xd9,0xf6,0xec,0x70,0x00,0x00,0x00,0x00,
 0x00,0x00,0x00,0x00,0x00,0x00,0x00,0x00,0x00,0x00,0x00,0x00,0x0f,0xbf,0x8d,
 0x6f,0xfd,0x87,0x07,0x00,0x00,0xd8,0x63,0x66,0xf0,0x98,0xc6,0xf6,0x00,0x1b,
 0x1b,0x33,0xe3,0x19,0x60,0x26,0x33,0x36,0x66,0xc6,0x33,0x36,0x36,0x01,0x1b,
 0x1b,0xf0,0xf0,0xb3,0xf9,0xd6,0xfe,0x78,0x00,0x00,0x00,0x00,0x00,0x00,0x00,
 0x00,0x00,0x00,0x00,0x00,0x00,0x00,0x00,0x00,0x9c,0xbf,0xcd,0x6d,0xfd,0xc7,
 0x01,0x00,0x00,0xf0,0x63,0x66,0xf0,0x99,0xc6,0xfc,0x00,0x1b,0x1b,0x33,0xb3,
 0x59,0x60,0x26,0x33,0x36,0x66,0x66,0xb3,0x36,0x36,0x01,0x1b,0x1b,0xc0,0xf9,
 0xb3,0xdd,0xd6,0xfe,0x1c,0x00,0x00,0x00,0x00,0x00,0x00,0x00,0x00,0x00,0x00,
 0x00,0x00,0x00,0x00,0x00,0x00,0xf0,0xbf,0xcd,0x6d,0x6d,0x76,0xe0,0x00,0x00,
 0xb0,0x63,0x66,0x10,0x99,0x46,0xec,0x00,0x1b,0x19,0x33,0x9b,0x5b,0x60,0x26,
 0x33,0x32,0x66,0x36,0xb7,0x36,0x32,0x01,0x1b,0x19,0x00,0xff,0xb3,0xdd,0xd6,
 0xcc,0x07,0x00,0x00,0x00,0x00,0x00,0x00,0x00,0x00,0x00,0x00,0x00,0x00,0x00,
 0x00,0x00,0x00,0xe0,0xff,0x9f,0xff,0xef,0x33,0xe0,0x00,0x00,0x30,0xf1,0xff,
 0xf0,0xfd,0x7d,0x4c,0x80,0xf7,0xbd,0xff,0xf7,0x7b,0xf0,0xff,0xe7,0x7b,0xff,
 0xef,0xf7,0xef,0xfb,0x83,0xf7,0x3d,0x00,0xfe,0xfb,0xfb,0xff,0x7c,0x03,0x00,
 0x00,0x00,0x00,0x00,0x00,0x00,0x00,0x00,0x00,0x00,0x00,0x00,0x00,0x00,0x00};
