#define noname_width 15
#define noname_height 17
static char noname_bits[] = {
 0xff,0x3f,0x01,0x40,0x01,0x40,0x01,0x40,0xc1,0x40,0xc1,0x40,0x01,0x40,0x01,
 0x40,0x01,0x40,0x01,0x40,0xc1,0x40,0xc1,0x40,0x01,0x40,0x01,0x40,0x01,0x40,
 0x01,0x40,0xff,0x7f};
