#define noname_width 403
#define noname_height 30
static char noname_bits[] = {
 0x1c,0x00,0xc0,0x00,0x00,0x00,0x38,0x00,0x00,0x00,0x00,0x00,0x00,0x80,0x03,
 0x00,0x00,0x60,0x00,0x06,0x00,0x00,0x00,0x00,0x80,0x01,0xc0,0x77,0xbe,0x03,
 0x00,0x00,0x08,0x00,0xbe,0xf3,0x38,0x00,0x03,0x00,0x8f,0x7f,0x07,0x00,0x00,
 0x38,0x00,0x78,0xfc,0x71,0x00,0x1e,0x00,0xc0,0x00,0x04,0x00,0x3c,0x00,0x00,
 0x00,0x00,0x08,0x00,0x00,0x03,0x00,0x00,0x40,0x00,0x04,0x40,0x00,0x00,0x00,
 0xc0,0x06,0x80,0x33,0x9c,0x01,0x00,0x00,0x0e,0x00,0x9c,0xe1,0x18,0x80,0x0d,
 0x00,0x8e,0x39,0x03,0x00,0x00,0x6c,0x00,0x70,0xcc,0x31,0x00,0x06,0x00,0x00,
 0x00,0x06,0x00,0x0c,0x00,0x00,0x00,0x00,0x0c,0x00,0x00,0x03,0x00,0x00,0x40,
 0x00,0x04,0x60,0x00,0x00,0x00,0x40,0x06,0x00,0x17,0xb8,0x00,0x00,0x00,0x08,
 0x00,0xb8,0xc0,0x08,0xc0,0x0d,0x00,0x8c,0x70,0x01,0x00,0x00,0x6c,0x00,0x60,
 0x84,0x11,0x00,0x06,0x00,0x00,0x00,0x06,0x00,0x0c,0x00,0x00,0x00,0x00,0x0c,
 0x00,0x00,0x03,0x00,0x00,0x40,0x00,0x04,0x60,0x00,0x00,0x00,0x60,0x04,0x00,
 0x1e,0xf0,0x00,0x00,0x00,0x08,0x00,0xf0,0xc0,0x0d,0xc0,0x09,0x00,0xdc,0xe0,
 0x01,0x00,0x00,0x6c,0x00,0xe0,0x86,0x1b,0x00,0xef,0xfb,0xe0,0x7e,0xcf,0xfb,
 0xde,0xfb,0xbe,0xff,0xf1,0x1e,0xef,0x03,0x9f,0xe7,0xf3,0x7c,0xc0,0xc7,0xf3,
 0x3c,0x06,0x00,0x60,0xe4,0x3f,0x0e,0x70,0x00,0x00,0x00,0x08,0xff,0x71,0x80,
 0x05,0x00,0xcc,0x7f,0x58,0xe0,0x00,0x00,0x00,0x30,0xfe,0xc3,0x02,0x0b,0x06,
 0x36,0xf2,0xc0,0x4c,0x66,0xf6,0x6c,0xf6,0x23,0x33,0x9b,0x8d,0xd9,0x03,0xb3,
 0x6d,0x9a,0x47,0x60,0xc4,0x66,0x6c,0x06,0x00,0x60,0xf4,0x3f,0x0c,0x60,0x00,
 0x00,0x00,0x88,0xff,0x61,0x80,0x07,0x00,0xec,0x7f,0x78,0xc0,0x00,0x00,0x00,
 0x78,0xff,0xc3,0x03,0x0f,0x06,0x36,0x36,0xc0,0x4c,0xe6,0x37,0xec,0x37,0x63,
 0x33,0xfb,0x8d,0xdf,0x3c,0x23,0xef,0xf9,0x47,0x60,0x84,0x67,0x78,0x00,0x00,
 0x60,0x04,0x00,0x1e,0xf0,0x00,0x00,0x00,0x08,0x00,0xf0,0x00,0x03,0x00,0x06,
 0x00,0x30,0xe0,0x01,0x00,0x00,0x60,0x00,0x80,0x01,0x06,0x00,0x36,0x36,0xc0,
 0x4c,0x76,0x30,0x6c,0x30,0x63,0x33,0x1b,0xac,0xc1,0x3c,0xa3,0xed,0x1b,0x46,
 0x60,0xc4,0x66,0x6d,0x00,0x00,0x60,0x04,0x00,0x3a,0xd0,0x01,0x00,0x00,0x08,
 0x00,0xd0,0x01,0x03,0x00,0x0b,0x00,0x30,0xa0,0x03,0x00,0x00,0x6e,0x00,0x80,
 0x01,0x06,0x00,0x36,0x32,0xc0,0x4c,0x76,0x34,0x6c,0x34,0x23,0x33,0x1b,0xad,
 0xd1,0x00,0xf3,0x3c,0x1a,0x47,0x60,0x64,0x6e,0xe7,0x06,0x00,0x40,0xf6,0x3f,
 0x31,0x88,0x31,0x00,0x00,0x88,0xff,0x89,0x01,0x83,0x81,0xe9,0x7f,0x30,0x10,
 0xc3,0x00,0x00,0x6e,0xff,0x83,0x01,0x06,0x06,0xef,0x7b,0xe0,0xff,0xde,0x7b,
 0xde,0x7b,0xbe,0xff,0xf7,0x3c,0xef,0x01,0x9f,0xff,0xf3,0xfc,0xc0,0xcf,0xef,
 0xfd,0x06,0x00,0xc0,0x06,0xc0,0xf3,0x9e,0x37,0x00,0x00,0x3e,0x00,0x9e,0x87,
 0x87,0xc1,0x0f,0x00,0x78,0x3c,0xcf,0x00,0x00,0x6c,0x00,0xc0,0x03,0x0f,0x06,
 0x00,0x00,0x00,0x00,0x00,0x00,0x00,0x00,0x00,0x00,0x00,0x00,0x00,0x00,0x00,
 0x00,0x00,0x00,0x00,0x00,0x00,0x00,0x00,0x00,0x80,0x03,0x00,0x00,0x00,0x20,
 0x00,0x00,0x00,0x00,0x00,0x00,0x00,0x01,0x00,0x00,0x00,0x00,0x80,0x00,0x00,
 0x18,0x00,0x00,0x00,0x00,0x04,0x00,0x00,0x00,0x00,0x00,0x00,0x00,0x00,0x00,
 0x00,0x00,0x00,0x00,0x00,0x00,0x00,0x00,0x00,0x00,0x00,0x00,0x00,0x00,0x00,
 0x00,0x00,0x00,0x00,0x00,0x20,0x00,0x00,0x00,0x00,0x00,0x00,0x00,0x01,0x00,
 0x00,0x00,0x00,0x80,0x00,0x00,0x00,0x00,0x00,0x00,0x00,0x04,0x00,0x00,0x00,
 0x00,0x00,0x00,0x00,0x00,0x00,0x00,0x00,0x00,0x00,0x00,0x00,0x00,0x00,0x00,
 0x00,0x00,0x00,0x00,0x00,0x00,0x00,0x00,0x00,0x00,0x00,0x10,0x00,0x00,0x00,
 0x00,0x00,0x00,0x80,0x00,0x00,0x00,0x00,0x00,0x40,0x00,0x00,0x00,0x00,0x00,
 0x00,0x00,0x02,0x00,0x00,0x00,0x00,0x00,0x00,0x00,0x00,0x00,0x00,0x00,0x00,
 0x00,0x00,0x00,0x00,0x00,0x00,0x00,0x00,0x00,0x00,0x00,0x00,0x00,0x00,0x00,
 0x00,0x00,0x00,0x00,0x00,0x00,0x00,0x00,0x00,0x00,0x00,0x00,0x00,0x00,0x00,
 0x00,0x00,0x00,0x00,0x00,0x00,0x00,0x00,0x00,0x00,0x00,0x00,0x00,0x00,0x00,
 0x00,0x00,0x00,0x00,0x00,0x00,0x00,0x00,0x00,0x00,0x00,0x00,0x00,0x00,0x00,
 0x00,0x00,0x00,0x00,0x00,0x00,0x00,0x00,0x00,0x00,0x00,0x00,0x00,0x00,0x00,
 0x00,0x00,0x00,0x00,0x00,0x00,0x00,0x00,0x00,0x00,0x00,0x00,0x00,0x00,0x00,
 0x00,0x00,0x00,0x00,0x00,0x00,0x00,0x00,0x00,0x00,0x00,0x00,0x00,0x00,0x00,
 0x00,0x00,0x00,0x00,0x00,0x00,0x00,0x00,0x00,0x00,0x00,0x00,0x00,0x00,0x00,
 0x00,0x00,0x00,0x00,0x00,0x00,0x00,0x00,0x00,0x00,0x00,0x00,0x00,0x00,0x00,
 0x00,0x00,0x00,0x00,0x00,0x00,0x00,0x00,0x00,0x00,0x00,0x00,0x00,0x00,0x00,
 0x00,0x00,0x00,0x00,0x00,0x00,0x00,0x00,0x00,0x00,0x00,0x00,0x00,0x00,0x00,
 0x00,0x00,0x00,0x00,0x00,0x00,0x00,0x00,0x00,0x00,0x00,0x00,0x00,0x00,0x00,
 0x00,0x00,0x00,0x00,0x00,0x00,0x00,0x00,0x00,0x00,0x00,0x00,0x1c,0x00,0x00,
 0x00,0x07,0x00,0x00,0x00,0x00,0x80,0x03,0x00,0x00,0x60,0x00,0x0c,0x00,0x00,
 0x00,0x00,0x00,0x00,0x00,0x00,0x80,0x01,0xc0,0x77,0x00,0x00,0x00,0x00,0x00,
 0x00,0x00,0x00,0x00,0x00,0x00,0x00,0x00,0x00,0x00,0x00,0x00,0x10,0x00,0x78,
 0x1c,0x00,0x00,0x1e,0x00,0x80,0x00,0x06,0x00,0x00,0x00,0x00,0x00,0x03,0x00,
 0x00,0x40,0x00,0x08,0x80,0x00,0x00,0x00,0x00,0x00,0x00,0x00,0xc0,0x06,0x80,
 0x33,0x00,0x00,0x00,0x00,0x00,0x00,0x00,0x00,0x00,0x00,0x00,0x00,0x00,0x00,
 0x00,0x00,0x00,0x1c,0x00,0x70,0x0c,0x00,0x00,0x06,0x00,0xc0,0x00,0x06,0x00,
 0x00,0x00,0x00,0x00,0x03,0x00,0x00,0x40,0x00,0x08,0xc0,0x00,0x00,0x00,0x00,
 0x00,0x00,0x00,0x40,0x06,0x00,0x17,0x00,0x00,0x00,0x00,0x00,0x00,0x00,0x00,
 0x00,0x00,0x00,0x00,0x00,0x00,0x00,0x00,0x00,0x10,0x00,0x60,0x04,0x00,0x00,
 0x06,0x00,0xc0,0x00,0x06,0x00,0x00,0x00,0x00,0x00,0x03,0x00,0x00,0x40,0x00,
 0x08,0xc0,0x00,0x00,0x00,0x00,0x00,0x00,0x00,0x60,0x04,0x00,0x1e,0x00,0x00,
 0x00,0x00,0x00,0x00,0x00,0x00,0x00,0x00,0x00,0x00,0x00,0x00,0x00,0x00,0x00,
 0x10,0x00,0xe0,0x06,0x00,0x00,0xef,0xfb,0xe0,0x79,0xe6,0x7d,0xdf,0xf7,0xe3,
 0x01,0x1f,0xcf,0xf7,0x7c,0x80,0x8f,0xe7,0x79,0x0c,0x00,0x00,0x00,0x00,0x00,
 0x60,0xe4,0x3f,0x0e,0x00,0x00,0x00,0x00,0x00,0x00,0x00,0x00,0x00,0x00,0x00,
 0x00,0x00,0x00,0x00,0x00,0x00,0x10,0xfe,0xc3,0x02,0x00,0x00,0x36,0xf2,0xc0,
 0xcc,0x36,0xcf,0x79,0x64,0x36,0x03,0x33,0xdb,0x9c,0x47,0xc0,0x88,0xcd,0xd8,
 0x0c,0x00,0x00,0x00,0x00,0x00,0x60,0xf4,0x3f,0x0c,0x00,0x00,0x00,0x00,0x00,
 0x00,0x00,0x00,0x00,0x00,0x00,0x00,0x00,0x00,0x00,0x00,0x00,0x10,0xff,0xc3,
 0x03,0x00,0x00,0x36,0x36,0xc0,0xfc,0xf6,0xbf,0x61,0x6c,0xf4,0x3f,0x23,0xde,
 0xfb,0x47,0xc0,0x08,0xcf,0xf0,0x00,0x00,0x00,0x00,0x00,0x00,0x60,0x04,0x00,
 0x1e,0x00,0x00,0x00,0x00,0x00,0x00,0x00,0x00,0x00,0x00,0x00,0x00,0x00,0x00,
 0x00,0x00,0x00,0x10,0x00,0x80,0x01,0x00,0x00,0x36,0x36,0xc0,0x0e,0x36,0xfc,
 0x61,0x6c,0x34,0x3c,0x23,0xdb,0x1f,0x46,0xc0,0x88,0xcd,0xda,0x00,0x00,0x00,
 0x00,0x00,0x00,0x60,0x04,0x00,0x3a,0x00,0x00,0x00,0x00,0x00,0x00,0x00,0x00,
 0x00,0x00,0x00,0x00,0x00,0x00,0x00,0x00,0x00,0x10,0x00,0x80,0x01,0x00,0x00,
 0x36,0x32,0xc0,0x8e,0x36,0xc6,0x71,0x64,0x36,0x02,0xb3,0x79,0x1c,0x47,0xc0,
 0xc8,0xdc,0xce,0x0d,0x00,0x00,0x00,0x00,0x00,0x40,0xf6,0x3f,0x31,0x0c,0x00,
 0x00,0x00,0x00,0x00,0x00,0x00,0x00,0x00,0x00,0x00,0x00,0x00,0x00,0x00,0x00,
 0x10,0xff,0x83,0xc1,0x00,0x00,0xef,0x7b,0xc0,0x7b,0xef,0x7d,0xcf,0xe7,0xe3,
 0x01,0x1f,0xff,0xf7,0xfc,0x80,0x9f,0xdf,0xfb,0x0d,0x00,0x00,0x00,0x00,0x00,
 0xc0,0x06,0xc0,0xf3,0x0c,0x00,0x00,0x00,0x00,0x00,0x00,0x00,0x00,0x00,0x00,
 0x00,0x00,0x00,0x00,0x00,0x00,0x7c,0x00,0xc0,0xc3,0x00,0x00,0x00,0x00,0x00,
 0x00,0x00,0x00,0x00,0x60,0x00,0x00,0x00,0x00,0x00,0x00,0x00,0x00,0x00,0x00,
 0x00,0x00,0x00,0x00,0x00,0x00,0x80,0x03,0x00,0x00,0x08,0x00,0x00,0x00,0x00,
 0x00,0x00,0x00,0x00,0x00,0x00,0x00,0x00,0x00,0x00,0x00,0x00,0x00,0x00,0x00,
 0x00,0x00,0x00,0x00,0x00,0x00,0x00,0x00,0x00,0x00,0x60,0x00,0x00,0x00,0x00,
 0x00,0x00,0x00,0x00,0x00,0x00,0x00,0x00,0x00,0x00,0x00,0x00,0x00,0x00,0x00,
 0x00,0x08,0x00,0x00,0x00,0x00,0x00,0x00,0x00,0x00,0x00,0x00,0x00,0x00,0x00,
 0x00,0x00,0x00,0x00,0x00,0x00,0x00,0x00,0x00,0x00,0x00,0x00,0x00,0x00,0x00,
 0x00,0xf0,0x00,0x00,0x00,0x00,0x00,0x00,0x00,0x00,0x00,0x00,0x00,0x00,0x00,
 0x00,0x00,0x00,0x00,0x00,0x00,0x00,0x04,0x00,0x00,0x00,0x00,0x00,0x00,0x00,
 0x00,0x00,0x00,0x00,0x00,0x00,0x00,0x00,0x00,0x00,0x00,0x00,0x00,0x00,0x00};
